%FSLAX46Y46*%
G04 Gerber Fmt 4.6, Leading zero omitted, Abs format (unit mm)*
G04 Created by KiCad (PCBNEW (2014-jul-16 BZR unknown)-product) date Fri 13 Mar 2015 08:43:45 PM CET*
%MOMM*%
G01*
G04 APERTURE LIST*
%ADD10C,0.150000*%
%ADD11C,1.524000*%
%ADD12C,2.499360*%
%ADD13C,2.700020*%
%ADD14C,0.685800*%
%ADD15C,0.254000*%
%ADD16C,0.508000*%
%ADD17C,0.762000*%
%ADD18C,0.304800*%
G04 APERTURE END LIST*
D10*
D11*
X185890000Y-59100000D03*
X185890000Y-61640000D03*
X185890000Y-64180000D03*
X185890000Y-66720000D03*
X185890000Y-69260000D03*
X185890000Y-76880000D03*
X185890000Y-79420000D03*
X185890000Y-81960000D03*
X185890000Y-84500000D03*
X185890000Y-87040000D03*
X185890000Y-89580000D03*
X185890000Y-92120000D03*
X185890000Y-94660000D03*
X185890000Y-97200000D03*
X208750000Y-59100000D03*
X208750000Y-61640000D03*
X208750000Y-64180000D03*
X208750000Y-66720000D03*
X208750000Y-69260000D03*
X208750000Y-76880000D03*
X208750000Y-79420000D03*
X208750000Y-81960000D03*
X208750000Y-84500000D03*
X208750000Y-87040000D03*
X208750000Y-89580000D03*
X208750000Y-92120000D03*
X208750000Y-94660000D03*
X208750000Y-97200000D03*
D12*
X197330000Y-48970000D03*
D13*
X199870000Y-46430000D03*
X194790000Y-46430000D03*
X194790000Y-51510000D03*
X199870000Y-51510000D03*
D14*
X201506000Y-69872000D03*
X202320000Y-92980000D03*
X207690000Y-57770000D03*
X207650000Y-54410000D03*
X203780000Y-54330000D03*
X203810000Y-50420000D03*
X207620000Y-50420000D03*
X207570000Y-46330000D03*
X203780000Y-46380000D03*
X190600000Y-62070000D03*
X190580000Y-58140000D03*
X186970000Y-58090000D03*
X186970000Y-54330000D03*
X190580000Y-54310000D03*
X190530000Y-50390000D03*
X186970000Y-50320000D03*
X186970000Y-46410000D03*
X190550000Y-46410000D03*
X206300000Y-67660000D03*
X192200000Y-63140000D03*
X201090000Y-55250000D03*
X201320000Y-76560000D03*
X199330000Y-76540000D03*
X195320000Y-76510000D03*
X193300000Y-76520000D03*
X197320000Y-95420000D03*
X197970320Y-66483640D03*
X196680000Y-66498880D03*
X196680000Y-65183160D03*
X197944920Y-65223800D03*
X197335320Y-65843560D03*
X203461800Y-70903240D03*
X205244880Y-56938320D03*
X205239800Y-58447080D03*
X205209320Y-59915200D03*
X205488720Y-62338360D03*
X205031520Y-64771680D03*
X203477040Y-67855240D03*
X201094520Y-56755440D03*
X196075480Y-69206520D03*
X198595160Y-69181120D03*
X196934000Y-62353600D03*
X198574840Y-62348520D03*
X205280000Y-97310000D03*
X204760000Y-75510000D03*
X187790000Y-96510000D03*
X188350700Y-68910000D03*
X203710000Y-81930000D03*
X203870000Y-88620000D03*
X190600000Y-72420000D03*
X190610000Y-65690000D03*
X191100000Y-76720000D03*
X203890000Y-90110000D03*
X203760000Y-91140000D03*
X201640000Y-93850000D03*
X189690000Y-71670000D03*
X191140000Y-77880000D03*
X194420000Y-65520000D03*
X187820000Y-64070000D03*
X191370000Y-78910000D03*
X203120000Y-92030000D03*
X195870000Y-63600000D03*
X194460000Y-63630000D03*
D15*
X206440000Y-89580000D02*
X208750000Y-89580000D01*
X206140000Y-89880000D02*
X206440000Y-89580000D01*
X206140000Y-92310000D02*
X206140000Y-89880000D01*
X205760000Y-92690000D02*
X206140000Y-92310000D01*
X202610000Y-92690000D02*
X205760000Y-92690000D01*
X202320000Y-92980000D02*
X202610000Y-92690000D01*
D16*
X199870000Y-46430000D02*
X203730000Y-46430000D01*
X207690000Y-54450000D02*
X207690000Y-57770000D01*
X207650000Y-54410000D02*
X207690000Y-54450000D01*
X203780000Y-50450000D02*
X203780000Y-54330000D01*
X203810000Y-50420000D02*
X203780000Y-50450000D01*
X207620000Y-46380000D02*
X207620000Y-50420000D01*
X207570000Y-46330000D02*
X207620000Y-46380000D01*
X203730000Y-46430000D02*
X203780000Y-46380000D01*
X187020000Y-58140000D02*
X190580000Y-58140000D01*
X186970000Y-58090000D02*
X187020000Y-58140000D01*
X190560000Y-54330000D02*
X186970000Y-54330000D01*
X190580000Y-54310000D02*
X190560000Y-54330000D01*
X187040000Y-50390000D02*
X190530000Y-50390000D01*
X186970000Y-50320000D02*
X187040000Y-50390000D01*
X190550000Y-46410000D02*
X186970000Y-46410000D01*
D15*
X192210000Y-63220000D02*
X192210000Y-63150000D01*
X192210000Y-63150000D02*
X192200000Y-63140000D01*
D17*
X198046520Y-66570000D02*
X198046520Y-66559840D01*
X198046520Y-66559840D02*
X197970320Y-66483640D01*
X196598720Y-66559840D02*
X196619040Y-66559840D01*
X196619040Y-66559840D02*
X196680000Y-66498880D01*
X196593640Y-65112040D02*
X196608880Y-65112040D01*
X196608880Y-65112040D02*
X196680000Y-65183160D01*
X197878880Y-65289840D02*
X197944920Y-65223800D01*
X197335320Y-65843560D02*
X197335320Y-65828320D01*
D16*
X204150000Y-97310000D02*
X205280000Y-97310000D01*
X203530000Y-96690000D02*
X204150000Y-97310000D01*
X203530000Y-95400000D02*
X203530000Y-96690000D01*
X202970000Y-94840000D02*
X203530000Y-95400000D01*
X201090000Y-94840000D02*
X202970000Y-94840000D01*
X200580000Y-94330000D02*
X201090000Y-94840000D01*
X200580000Y-92190000D02*
X200580000Y-94330000D01*
X201260000Y-91510000D02*
X200580000Y-92190000D01*
X202410000Y-91510000D02*
X201260000Y-91510000D01*
X202890000Y-91030000D02*
X202410000Y-91510000D01*
X202890000Y-81430000D02*
X202890000Y-91030000D01*
X203740000Y-80580000D02*
X202890000Y-81430000D01*
X203740000Y-76530000D02*
X203740000Y-80580000D01*
X204760000Y-75510000D02*
X203740000Y-76530000D01*
D17*
X188150000Y-69230000D02*
X188150000Y-70750000D01*
D16*
X188350700Y-69029300D02*
X188150000Y-69230000D01*
X188350700Y-68910000D02*
X188350700Y-69029300D01*
D17*
X187290000Y-96010000D02*
X187790000Y-96510000D01*
X187290000Y-76510000D02*
X187290000Y-96010000D01*
X188070000Y-75730000D02*
X187290000Y-76510000D01*
X188070000Y-70830000D02*
X188070000Y-75730000D01*
X188150000Y-70750000D02*
X188070000Y-70830000D01*
D16*
X188350700Y-68910000D02*
X188360000Y-68910000D01*
D15*
X205783598Y-68890000D02*
X205783598Y-68526402D01*
X207493598Y-66273598D02*
X207470000Y-66250000D01*
X207493598Y-68160000D02*
X207493598Y-66273598D01*
X207273598Y-68380000D02*
X207493598Y-68160000D01*
X205930000Y-68380000D02*
X207273598Y-68380000D01*
X205783598Y-68526402D02*
X205930000Y-68380000D01*
X207850000Y-64950000D02*
X208620000Y-64180000D01*
X207470000Y-66250000D02*
X207850000Y-65870000D01*
X207850000Y-65870000D02*
X207850000Y-64950000D01*
X205783598Y-76666402D02*
X205783598Y-68890000D01*
X205530000Y-76920000D02*
X205783598Y-76666402D01*
X204660000Y-76920000D02*
X205530000Y-76920000D01*
X204330000Y-77250000D02*
X204660000Y-76920000D01*
X204330000Y-81310000D02*
X204330000Y-77250000D01*
X203710000Y-81930000D02*
X204330000Y-81310000D01*
X208620000Y-64180000D02*
X208750000Y-64180000D01*
X206190000Y-69140000D02*
X206190000Y-69040000D01*
X207900000Y-67380000D02*
X208560000Y-66720000D01*
X207900000Y-68550000D02*
X207900000Y-67380000D01*
X207640000Y-68810000D02*
X207900000Y-68550000D01*
X206420000Y-68810000D02*
X207640000Y-68810000D01*
X206190000Y-69040000D02*
X206420000Y-68810000D01*
X208560000Y-66720000D02*
X208750000Y-66720000D01*
X206190000Y-76380000D02*
X206190000Y-77170000D01*
X206190000Y-77170000D02*
X205960000Y-77400000D01*
X205056402Y-77400000D02*
X205960000Y-77400000D01*
X204780000Y-77676402D02*
X205056402Y-77400000D01*
X204780000Y-82380000D02*
X204780000Y-77676402D01*
X204480000Y-82680000D02*
X204780000Y-82380000D01*
X204160000Y-82680000D02*
X204480000Y-82680000D01*
X203780000Y-83060000D02*
X204160000Y-82680000D01*
X203780000Y-88530000D02*
X203780000Y-83060000D01*
X203870000Y-88620000D02*
X203780000Y-88530000D01*
X206190000Y-76380000D02*
X206190000Y-69140000D01*
D16*
X190600000Y-76220000D02*
X191100000Y-76720000D01*
X190600000Y-72100000D02*
X190600000Y-72420000D01*
X190600000Y-72420000D02*
X190600000Y-76220000D01*
X190610000Y-72090000D02*
X190600000Y-72100000D01*
X190610000Y-69830000D02*
X190610000Y-72090000D01*
X190610000Y-66840000D02*
X190610000Y-69830000D01*
X190610000Y-65690000D02*
X190610000Y-66840000D01*
D15*
X206596402Y-76340000D02*
X206596402Y-77353598D01*
X204650000Y-89350000D02*
X203890000Y-90110000D01*
X204650000Y-83160000D02*
X204650000Y-89350000D01*
X205186402Y-82623598D02*
X204650000Y-83160000D01*
X205186402Y-78050000D02*
X205186402Y-82623598D01*
X205430000Y-77806402D02*
X205186402Y-78050000D01*
X206143598Y-77806402D02*
X205430000Y-77806402D01*
X206596402Y-77353598D02*
X206143598Y-77806402D01*
X206596402Y-74680000D02*
X206596402Y-69623598D01*
X206596402Y-69623598D02*
X206960000Y-69260000D01*
X206960000Y-69260000D02*
X208750000Y-69260000D01*
X206596402Y-74680000D02*
X206596402Y-76340000D01*
X206070000Y-79420000D02*
X208750000Y-79420000D01*
X205592804Y-79897196D02*
X206070000Y-79420000D01*
X205592804Y-82977196D02*
X205592804Y-79897196D01*
X205100000Y-83470000D02*
X205592804Y-82977196D01*
X205100000Y-90460000D02*
X205100000Y-83470000D01*
X204740000Y-90820000D02*
X205100000Y-90460000D01*
X204080000Y-90820000D02*
X204740000Y-90820000D01*
X203760000Y-91140000D02*
X204080000Y-90820000D01*
X208220000Y-79420000D02*
X208750000Y-79420000D01*
X207060000Y-92120000D02*
X208750000Y-92120000D01*
X206750000Y-92430000D02*
X207060000Y-92120000D01*
X206750000Y-93290000D02*
X206750000Y-92430000D01*
X206340000Y-93700000D02*
X206750000Y-93290000D01*
X201790000Y-93700000D02*
X206340000Y-93700000D01*
X201640000Y-93850000D02*
X201790000Y-93700000D01*
D16*
X189800000Y-72480000D02*
X189800000Y-71780000D01*
X189800000Y-71780000D02*
X189690000Y-71670000D01*
X188820000Y-65510000D02*
X188820000Y-65730000D01*
X189800000Y-77040000D02*
X190640000Y-77880000D01*
X190640000Y-77880000D02*
X191140000Y-77880000D01*
X189800000Y-72480000D02*
X189800000Y-77040000D01*
X189800000Y-72120000D02*
X189800000Y-72480000D01*
X189949598Y-71970402D02*
X189800000Y-72120000D01*
X189949598Y-66390000D02*
X189949598Y-71970402D01*
X189689598Y-66130000D02*
X189949598Y-66390000D01*
X189220000Y-66130000D02*
X189689598Y-66130000D01*
X188820000Y-65730000D02*
X189220000Y-66130000D01*
X185890000Y-61640000D02*
X188190000Y-61640000D01*
X188820000Y-62270000D02*
X188820000Y-65510000D01*
X188190000Y-61640000D02*
X188820000Y-62270000D01*
X188080000Y-65690000D02*
X188080000Y-65950000D01*
X190170000Y-78900000D02*
X190170000Y-78890000D01*
X190160000Y-78890000D02*
X190170000Y-78900000D01*
X189900000Y-78890000D02*
X190160000Y-78890000D01*
X188920000Y-77910000D02*
X189900000Y-78890000D01*
X188920000Y-71190000D02*
X188920000Y-77910000D01*
X189120000Y-70990000D02*
X188920000Y-71190000D01*
X189120000Y-66990000D02*
X189120000Y-70990000D01*
X188080000Y-65950000D02*
X189120000Y-66990000D01*
D15*
X193640000Y-78910000D02*
X191370000Y-78910000D01*
X193980000Y-78570000D02*
X193640000Y-78910000D01*
X193980000Y-65960000D02*
X193980000Y-78570000D01*
X194420000Y-65520000D02*
X193980000Y-65960000D01*
D16*
X188080000Y-64330000D02*
X187820000Y-64070000D01*
X188080000Y-65690000D02*
X188080000Y-65270000D01*
X188080000Y-65270000D02*
X188080000Y-64330000D01*
X191350000Y-78890000D02*
X190170000Y-78890000D01*
X191370000Y-78910000D02*
X191350000Y-78890000D01*
D15*
X205950000Y-87040000D02*
X208750000Y-87040000D01*
X205640000Y-87350000D02*
X205950000Y-87040000D01*
X205640000Y-91550000D02*
X205640000Y-87350000D01*
X205290000Y-91900000D02*
X205640000Y-91550000D01*
X203250000Y-91900000D02*
X205290000Y-91900000D01*
X203120000Y-92030000D02*
X203250000Y-91900000D01*
D18*
X194490000Y-63600000D02*
X195870000Y-63600000D01*
X194460000Y-63630000D02*
X194490000Y-63600000D01*
D15*
G36*
X209558056Y-50260000D02*
X209550100Y-50300000D01*
X209550100Y-50749726D01*
X209540100Y-50800000D01*
X209550100Y-50850273D01*
X209550100Y-57940000D01*
X209550100Y-58427448D01*
X209340676Y-58217659D01*
X208958056Y-58058781D01*
X208543762Y-58058420D01*
X208160865Y-58216629D01*
X207867659Y-58509324D01*
X207708781Y-58891944D01*
X207708420Y-59306238D01*
X207866629Y-59689135D01*
X208159324Y-59982341D01*
X208541944Y-60141219D01*
X208956238Y-60141580D01*
X209339135Y-59983371D01*
X209550100Y-59772773D01*
X209550100Y-60967448D01*
X209340676Y-60757659D01*
X208958056Y-60598781D01*
X208543762Y-60598420D01*
X208160865Y-60756629D01*
X207867659Y-61049324D01*
X207708781Y-61431944D01*
X207708420Y-61846238D01*
X207866629Y-62229135D01*
X208159324Y-62522341D01*
X208541944Y-62681219D01*
X208956238Y-62681580D01*
X209339135Y-62523371D01*
X209550100Y-62312773D01*
X209550100Y-63507448D01*
X209340676Y-63297659D01*
X208958056Y-63138781D01*
X208543762Y-63138420D01*
X208160865Y-63296629D01*
X207867659Y-63589324D01*
X207708781Y-63971944D01*
X207708420Y-64386238D01*
X207746606Y-64478657D01*
X207562632Y-64662632D01*
X207474535Y-64794477D01*
X207443600Y-64950000D01*
X207443600Y-65701664D01*
X207182632Y-65962632D01*
X207094535Y-66094478D01*
X207063600Y-66250000D01*
X207087198Y-66368636D01*
X207087198Y-67973600D01*
X205930000Y-67973600D01*
X205774477Y-68004535D01*
X205642632Y-68092632D01*
X205496230Y-68239034D01*
X205408133Y-68370879D01*
X205377198Y-68526402D01*
X205377198Y-68890000D01*
X205377198Y-75374150D01*
X205287868Y-75157956D01*
X205112965Y-74982747D01*
X204884326Y-74887808D01*
X204636760Y-74887592D01*
X204407956Y-74982132D01*
X204232747Y-75157035D01*
X204143363Y-75372294D01*
X203362829Y-76152829D01*
X203247203Y-76325877D01*
X203206600Y-76530000D01*
X203206600Y-80359058D01*
X202512829Y-81052829D01*
X202397203Y-81225877D01*
X202356600Y-81430000D01*
X202356600Y-90809058D01*
X202189058Y-90976600D01*
X202128408Y-90976600D01*
X202128408Y-69748760D01*
X202033868Y-69519956D01*
X201863747Y-69349537D01*
X201863747Y-51858048D01*
X201845174Y-51068580D01*
X201578790Y-50425472D01*
X201275601Y-50284004D01*
X201095996Y-50463609D01*
X201095996Y-50104399D01*
X201095996Y-47835601D01*
X199870000Y-46609605D01*
X198644004Y-47835601D01*
X198785472Y-48138790D01*
X199521952Y-48423747D01*
X200311420Y-48405174D01*
X200954528Y-48138790D01*
X201095996Y-47835601D01*
X201095996Y-50104399D01*
X200954528Y-49801210D01*
X200218048Y-49516253D01*
X199428580Y-49534826D01*
X198859344Y-49770611D01*
X198859344Y-48667182D01*
X198627046Y-48104978D01*
X198197285Y-47674465D01*
X197635487Y-47441186D01*
X197027182Y-47440656D01*
X196464978Y-47672954D01*
X196034465Y-48102715D01*
X196015996Y-48147193D01*
X196015996Y-47835601D01*
X194790000Y-46609605D01*
X193564004Y-47835601D01*
X193705472Y-48138790D01*
X194441952Y-48423747D01*
X195231420Y-48405174D01*
X195874528Y-48138790D01*
X196015996Y-47835601D01*
X196015996Y-48147193D01*
X195801186Y-48664513D01*
X195800656Y-49272818D01*
X196032954Y-49835022D01*
X196462715Y-50265535D01*
X197024513Y-50498814D01*
X197632818Y-50499344D01*
X198195022Y-50267046D01*
X198625535Y-49837285D01*
X198858814Y-49275487D01*
X198859344Y-48667182D01*
X198859344Y-49770611D01*
X198785472Y-49801210D01*
X198644004Y-50104399D01*
X199870000Y-51330395D01*
X201095996Y-50104399D01*
X201095996Y-50463609D01*
X200049605Y-51510000D01*
X201275601Y-52735996D01*
X201578790Y-52594528D01*
X201863747Y-51858048D01*
X201863747Y-69349537D01*
X201858965Y-69344747D01*
X201630326Y-69249808D01*
X201382760Y-69249592D01*
X201153956Y-69344132D01*
X201095996Y-69401990D01*
X201095996Y-52915601D01*
X199870000Y-51689605D01*
X199690395Y-51869210D01*
X199690395Y-51510000D01*
X198464399Y-50284004D01*
X198161210Y-50425472D01*
X197876253Y-51161952D01*
X197894826Y-51951420D01*
X198161210Y-52594528D01*
X198464399Y-52735996D01*
X199690395Y-51510000D01*
X199690395Y-51869210D01*
X198644004Y-52915601D01*
X198785472Y-53218790D01*
X199521952Y-53503747D01*
X200311420Y-53485174D01*
X200954528Y-53218790D01*
X201095996Y-52915601D01*
X201095996Y-69401990D01*
X200978747Y-69519035D01*
X200883808Y-69747674D01*
X200883592Y-69995240D01*
X200978132Y-70224044D01*
X201153035Y-70399253D01*
X201381674Y-70494192D01*
X201629240Y-70494408D01*
X201858044Y-70399868D01*
X202033253Y-70224965D01*
X202128192Y-69996326D01*
X202128408Y-69748760D01*
X202128408Y-90976600D01*
X201260000Y-90976600D01*
X201055876Y-91017203D01*
X200882829Y-91132829D01*
X200202829Y-91812829D01*
X200087203Y-91985877D01*
X200046600Y-92190000D01*
X200046600Y-94330000D01*
X200087203Y-94534123D01*
X200202829Y-94707171D01*
X200712829Y-95217171D01*
X200885877Y-95332797D01*
X201090000Y-95373400D01*
X202749058Y-95373400D01*
X202996600Y-95620941D01*
X202996600Y-96690000D01*
X203037203Y-96894123D01*
X203152829Y-97067171D01*
X203772826Y-97687167D01*
X203772829Y-97687171D01*
X203876563Y-97756483D01*
X203945876Y-97802797D01*
X203945877Y-97802797D01*
X204150000Y-97843400D01*
X204941838Y-97843400D01*
X205155674Y-97932192D01*
X205403240Y-97932408D01*
X205632044Y-97837868D01*
X205807253Y-97662965D01*
X205902192Y-97434326D01*
X205902408Y-97186760D01*
X205807868Y-96957956D01*
X205632965Y-96782747D01*
X205404326Y-96687808D01*
X205156760Y-96687592D01*
X204941344Y-96776600D01*
X204370941Y-96776600D01*
X204063400Y-96469058D01*
X204063400Y-95400005D01*
X204063400Y-95400000D01*
X204063401Y-95400000D01*
X204022797Y-95195877D01*
X203907171Y-95022830D01*
X203907171Y-95022829D01*
X203907167Y-95022826D01*
X203347171Y-94462829D01*
X203174123Y-94347203D01*
X202970000Y-94306600D01*
X202063436Y-94306600D01*
X202167253Y-94202965D01*
X202207350Y-94106400D01*
X206340000Y-94106400D01*
X206495522Y-94075465D01*
X206495523Y-94075465D01*
X206627368Y-93987368D01*
X207037368Y-93577368D01*
X207037369Y-93577368D01*
X207125465Y-93445523D01*
X207125466Y-93445522D01*
X207156400Y-93290000D01*
X207156400Y-92598336D01*
X207228336Y-92526400D01*
X207791124Y-92526400D01*
X207866629Y-92709135D01*
X208159324Y-93002341D01*
X208541944Y-93161219D01*
X208956238Y-93161580D01*
X209339135Y-93003371D01*
X209550100Y-92792773D01*
X209550100Y-93678015D01*
X209481143Y-93437603D01*
X208957698Y-93250856D01*
X208402632Y-93278638D01*
X208018857Y-93437603D01*
X207949392Y-93679787D01*
X208750000Y-94480395D01*
X208764142Y-94466252D01*
X208943747Y-94645857D01*
X208929605Y-94660000D01*
X208943747Y-94674142D01*
X208764142Y-94853747D01*
X208750000Y-94839605D01*
X208570395Y-95019210D01*
X208570395Y-94660000D01*
X207769787Y-93859392D01*
X207527603Y-93928857D01*
X207340856Y-94452302D01*
X207368638Y-95007368D01*
X207527603Y-95391143D01*
X207769787Y-95460608D01*
X208570395Y-94660000D01*
X208570395Y-95019210D01*
X207949392Y-95640213D01*
X208018857Y-95882397D01*
X208542302Y-96069144D01*
X209097368Y-96041362D01*
X209481143Y-95882397D01*
X209550100Y-95641984D01*
X209550100Y-96527448D01*
X209340676Y-96317659D01*
X208958056Y-96158781D01*
X208543762Y-96158420D01*
X208160865Y-96316629D01*
X207867659Y-96609324D01*
X207708781Y-96991944D01*
X207708420Y-97406238D01*
X207866629Y-97789135D01*
X208159324Y-98082341D01*
X208541944Y-98241219D01*
X208956238Y-98241580D01*
X209339135Y-98083371D01*
X209550100Y-97872773D01*
X209550100Y-98500000D01*
X209552089Y-98510000D01*
X209550100Y-98520000D01*
X209550100Y-98833718D01*
X209387062Y-99653362D01*
X208948988Y-100308988D01*
X208293363Y-100747062D01*
X207473718Y-100910100D01*
X196783747Y-100910100D01*
X196783747Y-51858048D01*
X196765174Y-51068580D01*
X196498790Y-50425472D01*
X196195601Y-50284004D01*
X196015996Y-50463609D01*
X196015996Y-50104399D01*
X195874528Y-49801210D01*
X195138048Y-49516253D01*
X194348580Y-49534826D01*
X193705472Y-49801210D01*
X193564004Y-50104399D01*
X194790000Y-51330395D01*
X196015996Y-50104399D01*
X196015996Y-50463609D01*
X194969605Y-51510000D01*
X196195601Y-52735996D01*
X196498790Y-52594528D01*
X196783747Y-51858048D01*
X196783747Y-100910100D01*
X196492408Y-100910100D01*
X196492408Y-63476760D01*
X196397868Y-63247956D01*
X196222965Y-63072747D01*
X196015996Y-62986806D01*
X196015996Y-52915601D01*
X194790000Y-51689605D01*
X194610395Y-51869210D01*
X194610395Y-51510000D01*
X193384399Y-50284004D01*
X193081210Y-50425472D01*
X192796253Y-51161952D01*
X192814826Y-51951420D01*
X193081210Y-52594528D01*
X193384399Y-52735996D01*
X194610395Y-51510000D01*
X194610395Y-51869210D01*
X193564004Y-52915601D01*
X193705472Y-53218790D01*
X194441952Y-53503747D01*
X195231420Y-53485174D01*
X195874528Y-53218790D01*
X196015996Y-52915601D01*
X196015996Y-62986806D01*
X195994326Y-62977808D01*
X195746760Y-62977592D01*
X195517956Y-63072132D01*
X195421719Y-63168200D01*
X194878303Y-63168200D01*
X194812965Y-63102747D01*
X194584326Y-63007808D01*
X194336760Y-63007592D01*
X194107956Y-63102132D01*
X193932747Y-63277035D01*
X193837808Y-63505674D01*
X193837592Y-63753240D01*
X193932132Y-63982044D01*
X194107035Y-64157253D01*
X194335674Y-64252192D01*
X194583240Y-64252408D01*
X194812044Y-64157868D01*
X194938332Y-64031800D01*
X195421748Y-64031800D01*
X195517035Y-64127253D01*
X195745674Y-64222192D01*
X195993240Y-64222408D01*
X196222044Y-64127868D01*
X196397253Y-63952965D01*
X196492192Y-63724326D01*
X196492408Y-63476760D01*
X196492408Y-100910100D01*
X187166281Y-100910100D01*
X186346637Y-100747062D01*
X185691011Y-100308988D01*
X185252937Y-99653363D01*
X185089900Y-98833718D01*
X185089900Y-98610000D01*
X185089900Y-98181984D01*
X185158857Y-98422397D01*
X185682302Y-98609144D01*
X186237368Y-98581362D01*
X186621143Y-98422397D01*
X186690608Y-98180213D01*
X185890000Y-97379605D01*
X185875857Y-97393747D01*
X185696252Y-97214142D01*
X185710395Y-97200000D01*
X185696252Y-97185857D01*
X185875857Y-97006252D01*
X185890000Y-97020395D01*
X185904142Y-97006252D01*
X186083747Y-97185857D01*
X186069605Y-97200000D01*
X186870213Y-98000608D01*
X187112397Y-97931143D01*
X187299144Y-97407698D01*
X187275191Y-96929137D01*
X187323027Y-96976973D01*
X187537276Y-97120130D01*
X187790000Y-97170400D01*
X188042724Y-97120130D01*
X188256973Y-96976973D01*
X188400130Y-96762724D01*
X188450400Y-96510000D01*
X188400130Y-96257276D01*
X188256973Y-96043027D01*
X187950400Y-95736454D01*
X187950400Y-76783546D01*
X188386600Y-76347346D01*
X188386600Y-77910000D01*
X188427203Y-78114123D01*
X188542829Y-78287171D01*
X189522829Y-79267171D01*
X189695876Y-79382797D01*
X189695877Y-79382797D01*
X189900000Y-79423400D01*
X190119727Y-79423400D01*
X190170000Y-79433400D01*
X190220272Y-79423400D01*
X191003206Y-79423400D01*
X191017035Y-79437253D01*
X191245674Y-79532192D01*
X191493240Y-79532408D01*
X191722044Y-79437868D01*
X191843724Y-79316400D01*
X193640000Y-79316400D01*
X193795522Y-79285465D01*
X193795523Y-79285465D01*
X193927368Y-79197368D01*
X194267368Y-78857368D01*
X194355465Y-78725523D01*
X194355465Y-78725522D01*
X194386400Y-78570000D01*
X194386400Y-66142271D01*
X194543240Y-66142408D01*
X194772044Y-66047868D01*
X194947253Y-65872965D01*
X195042192Y-65644326D01*
X195042408Y-65396760D01*
X194947868Y-65167956D01*
X194772965Y-64992747D01*
X194544326Y-64897808D01*
X194296760Y-64897592D01*
X194067956Y-64992132D01*
X193892747Y-65167035D01*
X193797808Y-65395674D01*
X193797657Y-65567606D01*
X193692632Y-65672632D01*
X193604535Y-65804477D01*
X193573600Y-65960000D01*
X193573600Y-78401664D01*
X193471664Y-78503600D01*
X191843606Y-78503600D01*
X191722965Y-78382747D01*
X191577653Y-78322408D01*
X191667253Y-78232965D01*
X191762192Y-78004326D01*
X191762408Y-77756760D01*
X191667868Y-77527956D01*
X191492965Y-77352747D01*
X191345954Y-77291703D01*
X191452044Y-77247868D01*
X191627253Y-77072965D01*
X191722192Y-76844326D01*
X191722408Y-76596760D01*
X191627868Y-76367956D01*
X191452965Y-76192747D01*
X191237705Y-76103363D01*
X191133400Y-75999058D01*
X191133400Y-72758161D01*
X191222192Y-72544326D01*
X191222408Y-72296760D01*
X191141312Y-72100494D01*
X191143400Y-72090000D01*
X191143400Y-69830000D01*
X191143400Y-66840000D01*
X191143400Y-66028161D01*
X191232192Y-65814326D01*
X191232408Y-65566760D01*
X191137868Y-65337956D01*
X190962965Y-65162747D01*
X190734326Y-65067808D01*
X190486760Y-65067592D01*
X190257956Y-65162132D01*
X190082747Y-65337035D01*
X189987808Y-65565674D01*
X189987690Y-65699991D01*
X189893721Y-65637203D01*
X189689598Y-65596600D01*
X189440941Y-65596600D01*
X189353400Y-65509058D01*
X189353400Y-62270005D01*
X189353400Y-62270000D01*
X189353401Y-62270000D01*
X189312797Y-62065877D01*
X189197171Y-61892830D01*
X189197171Y-61892829D01*
X189197167Y-61892826D01*
X188567171Y-61262829D01*
X188394123Y-61147203D01*
X188190000Y-61106600D01*
X186796400Y-61106600D01*
X186773371Y-61050865D01*
X186480676Y-60757659D01*
X186098056Y-60598781D01*
X185683762Y-60598420D01*
X185300865Y-60756629D01*
X185089900Y-60967226D01*
X185089900Y-59772551D01*
X185299324Y-59982341D01*
X185681944Y-60141219D01*
X186096238Y-60141580D01*
X186479135Y-59983371D01*
X186772341Y-59690676D01*
X186931219Y-59308056D01*
X186931580Y-58893762D01*
X186773371Y-58510865D01*
X186480676Y-58217659D01*
X186098056Y-58058781D01*
X185683762Y-58058420D01*
X185300865Y-58216629D01*
X185089900Y-58427226D01*
X185089900Y-57960000D01*
X185087910Y-57950000D01*
X185089900Y-57940000D01*
X185089900Y-50790000D01*
X185089900Y-50780000D01*
X185089900Y-50300000D01*
X185087910Y-50290000D01*
X185089900Y-50280000D01*
X185089900Y-47316281D01*
X185252937Y-46496636D01*
X185691011Y-45841011D01*
X186346637Y-45402937D01*
X187166281Y-45239900D01*
X193307468Y-45239900D01*
X193081210Y-45345472D01*
X192796253Y-46081952D01*
X192814826Y-46871420D01*
X193081210Y-47514528D01*
X193384399Y-47655996D01*
X194610395Y-46430000D01*
X194596252Y-46415857D01*
X194775857Y-46236252D01*
X194790000Y-46250395D01*
X194804142Y-46236252D01*
X194983747Y-46415857D01*
X194969605Y-46430000D01*
X196195601Y-47655996D01*
X196498790Y-47514528D01*
X196783747Y-46778048D01*
X196765174Y-45988580D01*
X196498790Y-45345472D01*
X196272531Y-45239900D01*
X198387468Y-45239900D01*
X198161210Y-45345472D01*
X197876253Y-46081952D01*
X197894826Y-46871420D01*
X198161210Y-47514528D01*
X198464399Y-47655996D01*
X199690395Y-46430000D01*
X199676252Y-46415857D01*
X199855857Y-46236252D01*
X199870000Y-46250395D01*
X199884142Y-46236252D01*
X200063747Y-46415857D01*
X200049605Y-46430000D01*
X201275601Y-47655996D01*
X201578790Y-47514528D01*
X201863747Y-46778048D01*
X201845174Y-45988580D01*
X201578790Y-45345472D01*
X201352531Y-45239900D01*
X207483718Y-45239900D01*
X208299535Y-45402176D01*
X208951916Y-45838083D01*
X209387823Y-46490463D01*
X209550100Y-47306281D01*
X209550100Y-50220000D01*
X209558056Y-50260000D01*
X209558056Y-50260000D01*
G37*
X209558056Y-50260000D02*
X209550100Y-50300000D01*
X209550100Y-50749726D01*
X209540100Y-50800000D01*
X209550100Y-50850273D01*
X209550100Y-57940000D01*
X209550100Y-58427448D01*
X209340676Y-58217659D01*
X208958056Y-58058781D01*
X208543762Y-58058420D01*
X208160865Y-58216629D01*
X207867659Y-58509324D01*
X207708781Y-58891944D01*
X207708420Y-59306238D01*
X207866629Y-59689135D01*
X208159324Y-59982341D01*
X208541944Y-60141219D01*
X208956238Y-60141580D01*
X209339135Y-59983371D01*
X209550100Y-59772773D01*
X209550100Y-60967448D01*
X209340676Y-60757659D01*
X208958056Y-60598781D01*
X208543762Y-60598420D01*
X208160865Y-60756629D01*
X207867659Y-61049324D01*
X207708781Y-61431944D01*
X207708420Y-61846238D01*
X207866629Y-62229135D01*
X208159324Y-62522341D01*
X208541944Y-62681219D01*
X208956238Y-62681580D01*
X209339135Y-62523371D01*
X209550100Y-62312773D01*
X209550100Y-63507448D01*
X209340676Y-63297659D01*
X208958056Y-63138781D01*
X208543762Y-63138420D01*
X208160865Y-63296629D01*
X207867659Y-63589324D01*
X207708781Y-63971944D01*
X207708420Y-64386238D01*
X207746606Y-64478657D01*
X207562632Y-64662632D01*
X207474535Y-64794477D01*
X207443600Y-64950000D01*
X207443600Y-65701664D01*
X207182632Y-65962632D01*
X207094535Y-66094478D01*
X207063600Y-66250000D01*
X207087198Y-66368636D01*
X207087198Y-67973600D01*
X205930000Y-67973600D01*
X205774477Y-68004535D01*
X205642632Y-68092632D01*
X205496230Y-68239034D01*
X205408133Y-68370879D01*
X205377198Y-68526402D01*
X205377198Y-68890000D01*
X205377198Y-75374150D01*
X205287868Y-75157956D01*
X205112965Y-74982747D01*
X204884326Y-74887808D01*
X204636760Y-74887592D01*
X204407956Y-74982132D01*
X204232747Y-75157035D01*
X204143363Y-75372294D01*
X203362829Y-76152829D01*
X203247203Y-76325877D01*
X203206600Y-76530000D01*
X203206600Y-80359058D01*
X202512829Y-81052829D01*
X202397203Y-81225877D01*
X202356600Y-81430000D01*
X202356600Y-90809058D01*
X202189058Y-90976600D01*
X202128408Y-90976600D01*
X202128408Y-69748760D01*
X202033868Y-69519956D01*
X201863747Y-69349537D01*
X201863747Y-51858048D01*
X201845174Y-51068580D01*
X201578790Y-50425472D01*
X201275601Y-50284004D01*
X201095996Y-50463609D01*
X201095996Y-50104399D01*
X201095996Y-47835601D01*
X199870000Y-46609605D01*
X198644004Y-47835601D01*
X198785472Y-48138790D01*
X199521952Y-48423747D01*
X200311420Y-48405174D01*
X200954528Y-48138790D01*
X201095996Y-47835601D01*
X201095996Y-50104399D01*
X200954528Y-49801210D01*
X200218048Y-49516253D01*
X199428580Y-49534826D01*
X198859344Y-49770611D01*
X198859344Y-48667182D01*
X198627046Y-48104978D01*
X198197285Y-47674465D01*
X197635487Y-47441186D01*
X197027182Y-47440656D01*
X196464978Y-47672954D01*
X196034465Y-48102715D01*
X196015996Y-48147193D01*
X196015996Y-47835601D01*
X194790000Y-46609605D01*
X193564004Y-47835601D01*
X193705472Y-48138790D01*
X194441952Y-48423747D01*
X195231420Y-48405174D01*
X195874528Y-48138790D01*
X196015996Y-47835601D01*
X196015996Y-48147193D01*
X195801186Y-48664513D01*
X195800656Y-49272818D01*
X196032954Y-49835022D01*
X196462715Y-50265535D01*
X197024513Y-50498814D01*
X197632818Y-50499344D01*
X198195022Y-50267046D01*
X198625535Y-49837285D01*
X198858814Y-49275487D01*
X198859344Y-48667182D01*
X198859344Y-49770611D01*
X198785472Y-49801210D01*
X198644004Y-50104399D01*
X199870000Y-51330395D01*
X201095996Y-50104399D01*
X201095996Y-50463609D01*
X200049605Y-51510000D01*
X201275601Y-52735996D01*
X201578790Y-52594528D01*
X201863747Y-51858048D01*
X201863747Y-69349537D01*
X201858965Y-69344747D01*
X201630326Y-69249808D01*
X201382760Y-69249592D01*
X201153956Y-69344132D01*
X201095996Y-69401990D01*
X201095996Y-52915601D01*
X199870000Y-51689605D01*
X199690395Y-51869210D01*
X199690395Y-51510000D01*
X198464399Y-50284004D01*
X198161210Y-50425472D01*
X197876253Y-51161952D01*
X197894826Y-51951420D01*
X198161210Y-52594528D01*
X198464399Y-52735996D01*
X199690395Y-51510000D01*
X199690395Y-51869210D01*
X198644004Y-52915601D01*
X198785472Y-53218790D01*
X199521952Y-53503747D01*
X200311420Y-53485174D01*
X200954528Y-53218790D01*
X201095996Y-52915601D01*
X201095996Y-69401990D01*
X200978747Y-69519035D01*
X200883808Y-69747674D01*
X200883592Y-69995240D01*
X200978132Y-70224044D01*
X201153035Y-70399253D01*
X201381674Y-70494192D01*
X201629240Y-70494408D01*
X201858044Y-70399868D01*
X202033253Y-70224965D01*
X202128192Y-69996326D01*
X202128408Y-69748760D01*
X202128408Y-90976600D01*
X201260000Y-90976600D01*
X201055876Y-91017203D01*
X200882829Y-91132829D01*
X200202829Y-91812829D01*
X200087203Y-91985877D01*
X200046600Y-92190000D01*
X200046600Y-94330000D01*
X200087203Y-94534123D01*
X200202829Y-94707171D01*
X200712829Y-95217171D01*
X200885877Y-95332797D01*
X201090000Y-95373400D01*
X202749058Y-95373400D01*
X202996600Y-95620941D01*
X202996600Y-96690000D01*
X203037203Y-96894123D01*
X203152829Y-97067171D01*
X203772826Y-97687167D01*
X203772829Y-97687171D01*
X203876563Y-97756483D01*
X203945876Y-97802797D01*
X203945877Y-97802797D01*
X204150000Y-97843400D01*
X204941838Y-97843400D01*
X205155674Y-97932192D01*
X205403240Y-97932408D01*
X205632044Y-97837868D01*
X205807253Y-97662965D01*
X205902192Y-97434326D01*
X205902408Y-97186760D01*
X205807868Y-96957956D01*
X205632965Y-96782747D01*
X205404326Y-96687808D01*
X205156760Y-96687592D01*
X204941344Y-96776600D01*
X204370941Y-96776600D01*
X204063400Y-96469058D01*
X204063400Y-95400005D01*
X204063400Y-95400000D01*
X204063401Y-95400000D01*
X204022797Y-95195877D01*
X203907171Y-95022830D01*
X203907171Y-95022829D01*
X203907167Y-95022826D01*
X203347171Y-94462829D01*
X203174123Y-94347203D01*
X202970000Y-94306600D01*
X202063436Y-94306600D01*
X202167253Y-94202965D01*
X202207350Y-94106400D01*
X206340000Y-94106400D01*
X206495522Y-94075465D01*
X206495523Y-94075465D01*
X206627368Y-93987368D01*
X207037368Y-93577368D01*
X207037369Y-93577368D01*
X207125465Y-93445523D01*
X207125466Y-93445522D01*
X207156400Y-93290000D01*
X207156400Y-92598336D01*
X207228336Y-92526400D01*
X207791124Y-92526400D01*
X207866629Y-92709135D01*
X208159324Y-93002341D01*
X208541944Y-93161219D01*
X208956238Y-93161580D01*
X209339135Y-93003371D01*
X209550100Y-92792773D01*
X209550100Y-93678015D01*
X209481143Y-93437603D01*
X208957698Y-93250856D01*
X208402632Y-93278638D01*
X208018857Y-93437603D01*
X207949392Y-93679787D01*
X208750000Y-94480395D01*
X208764142Y-94466252D01*
X208943747Y-94645857D01*
X208929605Y-94660000D01*
X208943747Y-94674142D01*
X208764142Y-94853747D01*
X208750000Y-94839605D01*
X208570395Y-95019210D01*
X208570395Y-94660000D01*
X207769787Y-93859392D01*
X207527603Y-93928857D01*
X207340856Y-94452302D01*
X207368638Y-95007368D01*
X207527603Y-95391143D01*
X207769787Y-95460608D01*
X208570395Y-94660000D01*
X208570395Y-95019210D01*
X207949392Y-95640213D01*
X208018857Y-95882397D01*
X208542302Y-96069144D01*
X209097368Y-96041362D01*
X209481143Y-95882397D01*
X209550100Y-95641984D01*
X209550100Y-96527448D01*
X209340676Y-96317659D01*
X208958056Y-96158781D01*
X208543762Y-96158420D01*
X208160865Y-96316629D01*
X207867659Y-96609324D01*
X207708781Y-96991944D01*
X207708420Y-97406238D01*
X207866629Y-97789135D01*
X208159324Y-98082341D01*
X208541944Y-98241219D01*
X208956238Y-98241580D01*
X209339135Y-98083371D01*
X209550100Y-97872773D01*
X209550100Y-98500000D01*
X209552089Y-98510000D01*
X209550100Y-98520000D01*
X209550100Y-98833718D01*
X209387062Y-99653362D01*
X208948988Y-100308988D01*
X208293363Y-100747062D01*
X207473718Y-100910100D01*
X196783747Y-100910100D01*
X196783747Y-51858048D01*
X196765174Y-51068580D01*
X196498790Y-50425472D01*
X196195601Y-50284004D01*
X196015996Y-50463609D01*
X196015996Y-50104399D01*
X195874528Y-49801210D01*
X195138048Y-49516253D01*
X194348580Y-49534826D01*
X193705472Y-49801210D01*
X193564004Y-50104399D01*
X194790000Y-51330395D01*
X196015996Y-50104399D01*
X196015996Y-50463609D01*
X194969605Y-51510000D01*
X196195601Y-52735996D01*
X196498790Y-52594528D01*
X196783747Y-51858048D01*
X196783747Y-100910100D01*
X196492408Y-100910100D01*
X196492408Y-63476760D01*
X196397868Y-63247956D01*
X196222965Y-63072747D01*
X196015996Y-62986806D01*
X196015996Y-52915601D01*
X194790000Y-51689605D01*
X194610395Y-51869210D01*
X194610395Y-51510000D01*
X193384399Y-50284004D01*
X193081210Y-50425472D01*
X192796253Y-51161952D01*
X192814826Y-51951420D01*
X193081210Y-52594528D01*
X193384399Y-52735996D01*
X194610395Y-51510000D01*
X194610395Y-51869210D01*
X193564004Y-52915601D01*
X193705472Y-53218790D01*
X194441952Y-53503747D01*
X195231420Y-53485174D01*
X195874528Y-53218790D01*
X196015996Y-52915601D01*
X196015996Y-62986806D01*
X195994326Y-62977808D01*
X195746760Y-62977592D01*
X195517956Y-63072132D01*
X195421719Y-63168200D01*
X194878303Y-63168200D01*
X194812965Y-63102747D01*
X194584326Y-63007808D01*
X194336760Y-63007592D01*
X194107956Y-63102132D01*
X193932747Y-63277035D01*
X193837808Y-63505674D01*
X193837592Y-63753240D01*
X193932132Y-63982044D01*
X194107035Y-64157253D01*
X194335674Y-64252192D01*
X194583240Y-64252408D01*
X194812044Y-64157868D01*
X194938332Y-64031800D01*
X195421748Y-64031800D01*
X195517035Y-64127253D01*
X195745674Y-64222192D01*
X195993240Y-64222408D01*
X196222044Y-64127868D01*
X196397253Y-63952965D01*
X196492192Y-63724326D01*
X196492408Y-63476760D01*
X196492408Y-100910100D01*
X187166281Y-100910100D01*
X186346637Y-100747062D01*
X185691011Y-100308988D01*
X185252937Y-99653363D01*
X185089900Y-98833718D01*
X185089900Y-98610000D01*
X185089900Y-98181984D01*
X185158857Y-98422397D01*
X185682302Y-98609144D01*
X186237368Y-98581362D01*
X186621143Y-98422397D01*
X186690608Y-98180213D01*
X185890000Y-97379605D01*
X185875857Y-97393747D01*
X185696252Y-97214142D01*
X185710395Y-97200000D01*
X185696252Y-97185857D01*
X185875857Y-97006252D01*
X185890000Y-97020395D01*
X185904142Y-97006252D01*
X186083747Y-97185857D01*
X186069605Y-97200000D01*
X186870213Y-98000608D01*
X187112397Y-97931143D01*
X187299144Y-97407698D01*
X187275191Y-96929137D01*
X187323027Y-96976973D01*
X187537276Y-97120130D01*
X187790000Y-97170400D01*
X188042724Y-97120130D01*
X188256973Y-96976973D01*
X188400130Y-96762724D01*
X188450400Y-96510000D01*
X188400130Y-96257276D01*
X188256973Y-96043027D01*
X187950400Y-95736454D01*
X187950400Y-76783546D01*
X188386600Y-76347346D01*
X188386600Y-77910000D01*
X188427203Y-78114123D01*
X188542829Y-78287171D01*
X189522829Y-79267171D01*
X189695876Y-79382797D01*
X189695877Y-79382797D01*
X189900000Y-79423400D01*
X190119727Y-79423400D01*
X190170000Y-79433400D01*
X190220272Y-79423400D01*
X191003206Y-79423400D01*
X191017035Y-79437253D01*
X191245674Y-79532192D01*
X191493240Y-79532408D01*
X191722044Y-79437868D01*
X191843724Y-79316400D01*
X193640000Y-79316400D01*
X193795522Y-79285465D01*
X193795523Y-79285465D01*
X193927368Y-79197368D01*
X194267368Y-78857368D01*
X194355465Y-78725523D01*
X194355465Y-78725522D01*
X194386400Y-78570000D01*
X194386400Y-66142271D01*
X194543240Y-66142408D01*
X194772044Y-66047868D01*
X194947253Y-65872965D01*
X195042192Y-65644326D01*
X195042408Y-65396760D01*
X194947868Y-65167956D01*
X194772965Y-64992747D01*
X194544326Y-64897808D01*
X194296760Y-64897592D01*
X194067956Y-64992132D01*
X193892747Y-65167035D01*
X193797808Y-65395674D01*
X193797657Y-65567606D01*
X193692632Y-65672632D01*
X193604535Y-65804477D01*
X193573600Y-65960000D01*
X193573600Y-78401664D01*
X193471664Y-78503600D01*
X191843606Y-78503600D01*
X191722965Y-78382747D01*
X191577653Y-78322408D01*
X191667253Y-78232965D01*
X191762192Y-78004326D01*
X191762408Y-77756760D01*
X191667868Y-77527956D01*
X191492965Y-77352747D01*
X191345954Y-77291703D01*
X191452044Y-77247868D01*
X191627253Y-77072965D01*
X191722192Y-76844326D01*
X191722408Y-76596760D01*
X191627868Y-76367956D01*
X191452965Y-76192747D01*
X191237705Y-76103363D01*
X191133400Y-75999058D01*
X191133400Y-72758161D01*
X191222192Y-72544326D01*
X191222408Y-72296760D01*
X191141312Y-72100494D01*
X191143400Y-72090000D01*
X191143400Y-69830000D01*
X191143400Y-66840000D01*
X191143400Y-66028161D01*
X191232192Y-65814326D01*
X191232408Y-65566760D01*
X191137868Y-65337956D01*
X190962965Y-65162747D01*
X190734326Y-65067808D01*
X190486760Y-65067592D01*
X190257956Y-65162132D01*
X190082747Y-65337035D01*
X189987808Y-65565674D01*
X189987690Y-65699991D01*
X189893721Y-65637203D01*
X189689598Y-65596600D01*
X189440941Y-65596600D01*
X189353400Y-65509058D01*
X189353400Y-62270005D01*
X189353400Y-62270000D01*
X189353401Y-62270000D01*
X189312797Y-62065877D01*
X189197171Y-61892830D01*
X189197171Y-61892829D01*
X189197167Y-61892826D01*
X188567171Y-61262829D01*
X188394123Y-61147203D01*
X188190000Y-61106600D01*
X186796400Y-61106600D01*
X186773371Y-61050865D01*
X186480676Y-60757659D01*
X186098056Y-60598781D01*
X185683762Y-60598420D01*
X185300865Y-60756629D01*
X185089900Y-60967226D01*
X185089900Y-59772551D01*
X185299324Y-59982341D01*
X185681944Y-60141219D01*
X186096238Y-60141580D01*
X186479135Y-59983371D01*
X186772341Y-59690676D01*
X186931219Y-59308056D01*
X186931580Y-58893762D01*
X186773371Y-58510865D01*
X186480676Y-58217659D01*
X186098056Y-58058781D01*
X185683762Y-58058420D01*
X185300865Y-58216629D01*
X185089900Y-58427226D01*
X185089900Y-57960000D01*
X185087910Y-57950000D01*
X185089900Y-57940000D01*
X185089900Y-50790000D01*
X185089900Y-50780000D01*
X185089900Y-50300000D01*
X185087910Y-50290000D01*
X185089900Y-50280000D01*
X185089900Y-47316281D01*
X185252937Y-46496636D01*
X185691011Y-45841011D01*
X186346637Y-45402937D01*
X187166281Y-45239900D01*
X193307468Y-45239900D01*
X193081210Y-45345472D01*
X192796253Y-46081952D01*
X192814826Y-46871420D01*
X193081210Y-47514528D01*
X193384399Y-47655996D01*
X194610395Y-46430000D01*
X194596252Y-46415857D01*
X194775857Y-46236252D01*
X194790000Y-46250395D01*
X194804142Y-46236252D01*
X194983747Y-46415857D01*
X194969605Y-46430000D01*
X196195601Y-47655996D01*
X196498790Y-47514528D01*
X196783747Y-46778048D01*
X196765174Y-45988580D01*
X196498790Y-45345472D01*
X196272531Y-45239900D01*
X198387468Y-45239900D01*
X198161210Y-45345472D01*
X197876253Y-46081952D01*
X197894826Y-46871420D01*
X198161210Y-47514528D01*
X198464399Y-47655996D01*
X199690395Y-46430000D01*
X199676252Y-46415857D01*
X199855857Y-46236252D01*
X199870000Y-46250395D01*
X199884142Y-46236252D01*
X200063747Y-46415857D01*
X200049605Y-46430000D01*
X201275601Y-47655996D01*
X201578790Y-47514528D01*
X201863747Y-46778048D01*
X201845174Y-45988580D01*
X201578790Y-45345472D01*
X201352531Y-45239900D01*
X207483718Y-45239900D01*
X208299535Y-45402176D01*
X208951916Y-45838083D01*
X209387823Y-46490463D01*
X209550100Y-47306281D01*
X209550100Y-50220000D01*
X209558056Y-50260000D01*
M02*
