%FSLAX46Y46*%
G04 Gerber Fmt 4.6, Leading zero omitted, Abs format (unit mm)*
G04 Created by KiCad (PCBNEW (2014-jul-16 BZR unknown)-product) date Fri 13 Mar 2015 08:43:45 PM CET*
%MOMM*%
G01*
G04 APERTURE LIST*
%ADD10C,0.150000*%
%ADD11R,0.889000X1.397000*%
%ADD12R,0.762000X0.787400*%
%ADD13R,0.787400X0.762000*%
%ADD14O,0.300000X1.500760*%
%ADD15O,1.500760X0.300000*%
%ADD16R,2.000000X2.000000*%
%ADD17R,2.200000X1.400000*%
%ADD18R,1.400000X2.200000*%
%ADD19C,1.524000*%
%ADD20C,2.499360*%
%ADD21C,2.700020*%
%ADD22R,0.220000X1.200000*%
G04 APERTURE END LIST*
D10*
D11*
X204414300Y-62312960D03*
X202509300Y-62312960D03*
D12*
X198077000Y-71637300D03*
X198077000Y-70138700D03*
X196553000Y-71637300D03*
X196553000Y-70138700D03*
D13*
X202514380Y-65503200D03*
X204012980Y-65503200D03*
X202534700Y-64030000D03*
X204033300Y-64030000D03*
X202509300Y-70324120D03*
X204007900Y-70324120D03*
X194762300Y-61444280D03*
X196260900Y-61444280D03*
X202529620Y-60575600D03*
X204028220Y-60575600D03*
D12*
X197838240Y-59821220D03*
X197838240Y-58322620D03*
D13*
X202524540Y-59107480D03*
X204023140Y-59107480D03*
X196255820Y-59879640D03*
X194757220Y-59879640D03*
X202544860Y-56191560D03*
X204043460Y-56191560D03*
X199329300Y-55270000D03*
X197830700Y-55270000D03*
X202534700Y-57649520D03*
X204033300Y-57649520D03*
X199354620Y-56775760D03*
X197856020Y-56775760D03*
X204007900Y-71863360D03*
X202509300Y-71863360D03*
X204023140Y-68820440D03*
X202524540Y-68820440D03*
D12*
X199382560Y-58312460D03*
X199382560Y-59811060D03*
D13*
X196255820Y-58304840D03*
X194757220Y-58304840D03*
D12*
X196240000Y-56759300D03*
X196240000Y-55260700D03*
D13*
X204012980Y-67326920D03*
X202514380Y-67326920D03*
D12*
X206300000Y-70319300D03*
X206300000Y-68820700D03*
D14*
X198310320Y-63693940D03*
X197660320Y-63693940D03*
X197010320Y-63693940D03*
X196360320Y-63693940D03*
D15*
X195185700Y-64868560D03*
X195185700Y-65518560D03*
X195185700Y-66168560D03*
X195185700Y-66818560D03*
D14*
X196360320Y-67993180D03*
X197010320Y-67993180D03*
X197660320Y-67993180D03*
X198310320Y-67993180D03*
D15*
X199484940Y-66818560D03*
X199484940Y-66168560D03*
X199484940Y-65518560D03*
X199484940Y-64868560D03*
D16*
X197335320Y-65843560D03*
D17*
X189210000Y-76900000D03*
X189210000Y-78900000D03*
X189210000Y-80900000D03*
X189210000Y-82900000D03*
X189210000Y-84900000D03*
X189210000Y-86900000D03*
X189210000Y-88900000D03*
X189210000Y-90900000D03*
X189210000Y-92900000D03*
X189210000Y-94900000D03*
D18*
X191310000Y-97000000D03*
X193310000Y-97000000D03*
X195310000Y-97000000D03*
X197310000Y-97000000D03*
X199310000Y-97000000D03*
X201310000Y-97000000D03*
X203310000Y-97000000D03*
D17*
X205410000Y-94900000D03*
X205410000Y-92900000D03*
X205410000Y-90900000D03*
X205410000Y-88900000D03*
X205410000Y-86900000D03*
X205410000Y-84900000D03*
X205410000Y-82900000D03*
X205410000Y-80900000D03*
X205410000Y-78900000D03*
X205410000Y-76900000D03*
D18*
X203310000Y-74800000D03*
X201310000Y-74800000D03*
X199310000Y-74800000D03*
X197310000Y-74800000D03*
X195310000Y-74800000D03*
X193310000Y-74800000D03*
X191310000Y-74800000D03*
D19*
X185890000Y-59100000D03*
X185890000Y-61640000D03*
X185890000Y-64180000D03*
X185890000Y-66720000D03*
X185890000Y-69260000D03*
X185890000Y-76880000D03*
X185890000Y-79420000D03*
X185890000Y-81960000D03*
X185890000Y-84500000D03*
X185890000Y-87040000D03*
X185890000Y-89580000D03*
X185890000Y-92120000D03*
X185890000Y-94660000D03*
X185890000Y-97200000D03*
X208750000Y-59100000D03*
X208750000Y-61640000D03*
X208750000Y-64180000D03*
X208750000Y-66720000D03*
X208750000Y-69260000D03*
X208750000Y-76880000D03*
X208750000Y-79420000D03*
X208750000Y-81960000D03*
X208750000Y-84500000D03*
X208750000Y-87040000D03*
X208750000Y-89580000D03*
X208750000Y-92120000D03*
X208750000Y-94660000D03*
X208750000Y-97200000D03*
D20*
X197330000Y-48970000D03*
D21*
X199870000Y-46430000D03*
X194790000Y-46430000D03*
X194790000Y-51510000D03*
X199870000Y-51510000D03*
D13*
X194669300Y-56770000D03*
X193170700Y-56770000D03*
X188380700Y-68230000D03*
X189879300Y-68230000D03*
X191530700Y-66730000D03*
X193029300Y-66730000D03*
X188350700Y-69750000D03*
X189849300Y-69750000D03*
X193049300Y-68230000D03*
X191550700Y-68230000D03*
D12*
X193170000Y-59789300D03*
X193170000Y-58290700D03*
D13*
X188380700Y-66730000D03*
X189879300Y-66730000D03*
D22*
X192700000Y-61700000D03*
X192200000Y-61700000D03*
X191700000Y-61700000D03*
X191700000Y-64700000D03*
X192200000Y-64700000D03*
X192700000Y-64700000D03*
M02*
