M48
;DRILL file {kicad (2014-jul-16 BZR unknown)-product} date Fri 13 Mar 2015 08:35:38 PM CET
;FORMAT={-:-/ absolute / inch / decimal}
FMAT,2
INCH,TZ
T1C0.013
T2C0.040
T3C0.063
T4C0.067
%
G90
G05
M72
T1
X7.361Y-1.8272
X7.361Y-1.9811
X7.361Y-2.139
X7.361Y-2.287
X7.3933Y-3.7996
X7.3945Y-2.5224
X7.4154Y-2.713
X7.4681Y-2.8217
X7.5012Y-1.9839
X7.502Y-1.8272
X7.5031Y-2.1382
X7.5031Y-2.289
X7.5039Y-2.4437
X7.5039Y-2.8512
X7.5043Y-2.5862
X7.5236Y-3.0205
X7.5252Y-3.0661
X7.5343Y-3.1067
X7.5669Y-2.4858
X7.6102Y-3.0126
X7.6543Y-2.5795
X7.6559Y-2.5051
X7.6898Y-3.0122
X7.7114Y-2.5039
X7.7195Y-2.7247
X7.7433Y-2.5663
X7.7433Y-2.6181
X7.7533Y-2.4549
X7.7685Y-3.7567
X7.7691Y-2.5923
X7.7931Y-2.5679
X7.7941Y-2.6175
X7.8179Y-2.4547
X7.8187Y-2.7237
X7.8476Y-3.0134
X7.9169Y-2.1752
X7.9171Y-2.2345
X7.926Y-3.0142
X7.9333Y-2.7509
X7.9386Y-3.6949
X7.9654Y-3.6606
X7.9969Y-3.6232
X8.0103Y-2.7915
X8.0109Y-2.6715
X8.0201Y-3.2256
X8.022Y-3.5882
X8.0228Y-1.826
X8.0228Y-2.139
X8.024Y-1.985
X8.0264Y-3.489
X8.0272Y-3.5476
X8.0614Y-2.9728
X8.0721Y-2.5501
X8.0791Y-2.3589
X8.0803Y-2.3011
X8.0805Y-2.2417
X8.0819Y-3.8311
X8.0901Y-2.4543
X8.122Y-2.6638
X8.172Y-1.824
X8.174Y-1.985
X8.1752Y-2.1421
X8.1768Y-2.2744
T2
X7.3185Y-2.3268
X7.3185Y-2.4268
X7.3185Y-2.5268
X7.3185Y-2.6268
X7.3185Y-2.7268
X7.3185Y-3.0268
X7.3185Y-3.1268
X7.3185Y-3.2268
X7.3185Y-3.3268
X7.3185Y-3.4268
X7.3185Y-3.5268
X7.3185Y-3.6268
X7.3185Y-3.7268
X7.3185Y-3.8268
X8.2185Y-2.3268
X8.2185Y-2.4268
X8.2185Y-2.5268
X8.2185Y-2.6268
X8.2185Y-2.7268
X8.2185Y-3.0268
X8.2185Y-3.1268
X8.2185Y-3.2268
X8.2185Y-3.3268
X8.2185Y-3.4268
X8.2185Y-3.5268
X8.2185Y-3.6268
X8.2185Y-3.7268
X8.2185Y-3.8268
T3
X7.7689Y-1.928
T4
X7.6689Y-1.828
X7.6689Y-2.028
X7.8689Y-1.828
X7.8689Y-2.028
T0
M30
