M48
;DRILL file {kicad (2014-jul-16 BZR unknown)-product} date Mon 16 Mar 2015 03:56:34 PM CET
;FORMAT={-:-/ absolute / inch / decimal}
FMAT,2
INCH,TZ
T1C0.013
T2C0.035
T3C0.040
T4C0.063
T5C0.067
%
G90
G05
M72
T1
X6.4819Y-2.6319
X6.4831Y-2.7795
X6.4831Y-2.9354
X6.4831Y-3.0886
X6.5122Y-3.5874
X6.513Y-3.839
X6.5366Y-4.3902
X6.539Y-3.676
X6.5433Y-3.7795
X6.548Y-4.3142
X6.6065Y-4.5063
X6.628Y-2.6311
X6.6299Y-2.7795
X6.637Y-3.7445
X6.6504Y-3.7126
X6.6764Y-3.6839
X6.6984Y-3.6531
X6.7256Y-3.5209
X6.7307Y-3.0177
X6.7382Y-4.7012
X6.75Y-3.4228
X6.7807Y-3.2969
X6.7878Y-4.7431
X6.7957Y-4.4697
X6.8087Y-3.0181
X6.8382Y-3.1366
X6.872Y-4.4693
X6.8878Y-3.7358
X6.8882Y-4.7431
X6.8898Y-4.2902
X6.8957Y-3.1744
X6.902Y-4.1512
X6.9209Y-3.9264
X6.9244Y-4.3484
X6.9622Y-4.2819
X6.9669Y-3.0181
X6.987Y-4.7431
X6.9988Y-4.337
X7.015Y-3.9961
X7.0374Y-4.7
X7.0449Y-3.0185
X7.048Y-3.9169
X7.0622Y-4.3524
X7.0728Y-4.4004
X7.0866Y-4.2134
X7.0921Y-4.1803
X7.111Y-4.1098
X7.111Y-4.435
X7.1583Y-4.2469
X7.1588Y-4.3232
X7.1588Y-4.6024
X7.161Y-2.6327
X7.161Y-2.7791
X7.2178Y-4.324
X7.235Y-3.6776
X7.2496Y-3.7827
X7.3059Y-3.0642
X7.3067Y-2.6335
X7.3079Y-2.7748
X7.3079Y-2.9177
T2
X6.6303Y-4.0319
X6.7484Y-4.0319
T3
X6.4378Y-3.1311
X6.4378Y-3.2311
X6.4378Y-3.3311
X6.4378Y-3.4311
X6.4378Y-3.5311
X6.4378Y-3.8311
X6.4378Y-3.9311
X6.4378Y-4.0311
X6.4378Y-4.1311
X6.4378Y-4.2311
X6.4378Y-4.3311
X6.4378Y-4.4311
X6.4378Y-4.5311
X6.4378Y-4.6311
X7.3378Y-3.1311
X7.3378Y-3.2311
X7.3378Y-3.3311
X7.3378Y-3.4311
X7.3378Y-3.5311
X7.3378Y-3.8311
X7.3378Y-3.9311
X7.3378Y-4.0311
X7.3378Y-4.1311
X7.3378Y-4.2311
X7.3378Y-4.3311
X7.3378Y-4.4311
X7.3378Y-4.5311
X7.3378Y-4.6311
T4
X6.8882Y-2.7323
T5
X6.7882Y-2.6323
X6.7882Y-2.8323
X6.9882Y-2.6323
X6.9882Y-2.8323
T0
M30
