%FSLAX46Y46*%
G04 Gerber Fmt 4.6, Leading zero omitted, Abs format (unit mm)*
G04 Created by KiCad (PCBNEW (2014-jul-16 BZR unknown)-product) date Mon 16 Mar 2015 03:56:46 PM CET*
%MOMM*%
G01*
G04 APERTURE LIST*
%ADD10C,0.150000*%
%ADD11C,0.381000*%
G04 APERTURE END LIST*
D10*
D11*
X162250000Y-97780000D02*
X162250000Y-97290000D01*
X162250000Y-89730000D02*
X162240000Y-89730000D01*
X162250000Y-89210000D02*
X162250000Y-89730000D01*
X162216695Y-89739926D02*
G75*
G03X159130000Y-93930000I703305J-3750074D01*
G74*
G01*
X187650000Y-89280000D02*
X187650000Y-89750000D01*
X187650000Y-97810000D02*
X187650000Y-97230000D01*
X187675714Y-97218065D02*
G75*
G03X190760000Y-93310000I-705714J3728065D01*
G74*
G01*
X164700000Y-93490000D02*
G75*
G03X164700000Y-93490000I-1750000J0D01*
G74*
G01*
X188700000Y-93490000D02*
G75*
G03X188700000Y-93490000I-1750000J0D01*
G74*
G01*
X187650000Y-78370000D02*
X187650000Y-89260000D01*
X187650000Y-98220000D02*
X187650000Y-97820000D01*
X162250000Y-89240000D02*
X162260000Y-89240000D01*
X162250000Y-78390000D02*
X162250000Y-89240000D01*
X162250000Y-98270000D02*
X162250000Y-97790000D01*
X162250000Y-70710000D02*
X162250000Y-67710000D01*
X187650000Y-67710000D02*
X187650000Y-70650000D01*
X187650000Y-118930000D02*
X187650000Y-98240000D01*
X190700000Y-94210000D02*
G75*
G03X187650000Y-89760000I-3750000J700000D01*
G74*
G01*
X162250000Y-98300000D02*
X162250000Y-119400000D01*
X159170000Y-92810000D02*
G75*
G03X162250000Y-97290000I3780000J-700000D01*
G74*
G01*
X187650000Y-70730000D02*
X187650000Y-71270000D01*
X162250000Y-70730000D02*
X162250000Y-71220000D01*
X162250000Y-119040000D02*
X162250000Y-119360000D01*
X187650000Y-119360000D02*
X187640000Y-119360000D01*
X187650000Y-118950000D02*
X187650000Y-119360000D01*
X162250000Y-78370000D02*
X162250000Y-71210000D01*
X187650000Y-71230000D02*
X187640000Y-71230000D01*
X187650000Y-78370000D02*
X187650000Y-71230000D01*
X164780000Y-65200000D02*
X185140000Y-65200000D01*
X187650000Y-67690000D02*
G75*
G03X185160000Y-65200000I-2490000J0D01*
G74*
G01*
X164750000Y-65200000D02*
G75*
G03X162250000Y-67700000I0J-2500000D01*
G74*
G01*
X185150000Y-121810000D02*
X164740000Y-121810000D01*
X185150000Y-121810000D02*
G75*
G03X187650000Y-119310000I0J2500000D01*
G74*
G01*
X162250000Y-119310000D02*
G75*
G03X164750000Y-121810000I2500000J0D01*
G74*
G01*
M02*
