%FSLAX46Y46*%
G04 Gerber Fmt 4.6, Leading zero omitted, Abs format (unit mm)*
G04 Created by KiCad (PCBNEW (2014-jul-16 BZR unknown)-product) date Mon 16 Mar 2015 03:56:46 PM CET*
%MOMM*%
G01*
G04 APERTURE LIST*
%ADD10C,0.150000*%
%ADD11R,0.347980X1.397000*%
%ADD12R,0.787400X0.762000*%
%ADD13R,0.889000X1.397000*%
%ADD14R,0.400000X1.350000*%
%ADD15R,2.100000X1.600000*%
%ADD16R,1.800000X1.900000*%
%ADD17R,1.900000X1.900000*%
%ADD18R,2.200000X1.400000*%
%ADD19R,1.400000X2.200000*%
%ADD20C,1.524000*%
%ADD21R,0.762000X0.787400*%
%ADD22R,1.998980X1.000760*%
%ADD23R,0.800000X2.300000*%
%ADD24C,0.900000*%
%ADD25C,2.499360*%
%ADD26C,2.700020*%
%ADD27R,0.508000X0.762000*%
G04 APERTURE END LIST*
D10*
D11*
X179104020Y-107524940D03*
X178453780Y-107524940D03*
X177803540Y-107524940D03*
X177153300Y-107524940D03*
X176503060Y-107524940D03*
X175852820Y-107524940D03*
X175202580Y-107524940D03*
X174557420Y-107524940D03*
X173907180Y-107524940D03*
X173256940Y-107524940D03*
X172606700Y-107524940D03*
X171956460Y-107524940D03*
X171306220Y-107524940D03*
X170655980Y-107524940D03*
X170655980Y-114835060D03*
X171306220Y-114835060D03*
X171956460Y-114835060D03*
X172606700Y-114835060D03*
X173256940Y-114835060D03*
X173907180Y-114835060D03*
X174557420Y-114835060D03*
X175202580Y-114835060D03*
X175852820Y-114835060D03*
X176503060Y-114835060D03*
X177153300Y-114835060D03*
X177803540Y-114835060D03*
X178453780Y-114835060D03*
X179104020Y-114835060D03*
D12*
X166305900Y-107260000D03*
X167804500Y-107260000D03*
X166305900Y-110470000D03*
X167804500Y-110470000D03*
X167804500Y-113680000D03*
X166305900Y-113680000D03*
X167804500Y-115270000D03*
X166305900Y-115270000D03*
X167804500Y-116870000D03*
X166305900Y-116870000D03*
X166305900Y-120046000D03*
X167804500Y-120046000D03*
X166305900Y-118470000D03*
X167804500Y-118470000D03*
X183333100Y-108920000D03*
X181834500Y-108920000D03*
X183333100Y-110630000D03*
X181834500Y-110630000D03*
X181834500Y-116096400D03*
X183333100Y-116096400D03*
X181834500Y-117747400D03*
X183333100Y-117747400D03*
D13*
X181677500Y-119740000D03*
X183582500Y-119740000D03*
D12*
X167804500Y-112050000D03*
X166305900Y-112050000D03*
X167804500Y-108870000D03*
X166305900Y-108870000D03*
D14*
X173650000Y-118090000D03*
X174300000Y-118090000D03*
X174950000Y-118090000D03*
X175600000Y-118090000D03*
X176250000Y-118090000D03*
D15*
X171850000Y-118215000D03*
X178050000Y-118215000D03*
D16*
X171150000Y-120765000D03*
X178750000Y-120765000D03*
D17*
X173750000Y-120765000D03*
X176150000Y-120765000D03*
D18*
X166860000Y-76650000D03*
X166860000Y-78650000D03*
X166860000Y-80650000D03*
X166860000Y-82650000D03*
X166860000Y-84650000D03*
X166860000Y-86650000D03*
X166860000Y-88650000D03*
X166860000Y-90650000D03*
X166860000Y-92650000D03*
X166860000Y-94650000D03*
D19*
X168960000Y-96750000D03*
X170960000Y-96750000D03*
X172960000Y-96750000D03*
X174960000Y-96750000D03*
X176960000Y-96750000D03*
X178960000Y-96750000D03*
X180960000Y-96750000D03*
D18*
X183060000Y-94650000D03*
X183060000Y-92650000D03*
X183060000Y-90650000D03*
X183060000Y-88650000D03*
X183060000Y-86650000D03*
X183060000Y-84650000D03*
X183060000Y-82650000D03*
X183060000Y-80650000D03*
X183060000Y-78650000D03*
X183060000Y-76650000D03*
D19*
X180960000Y-74550000D03*
X178960000Y-74550000D03*
X176960000Y-74550000D03*
X174960000Y-74550000D03*
X172960000Y-74550000D03*
X170960000Y-74550000D03*
X168960000Y-74550000D03*
D20*
X163520000Y-79530000D03*
X163520000Y-82070000D03*
X163520000Y-84610000D03*
X163520000Y-87150000D03*
X163520000Y-89690000D03*
X163520000Y-97310000D03*
X163520000Y-99850000D03*
X163520000Y-102390000D03*
X163520000Y-104930000D03*
X163520000Y-107470000D03*
X163520000Y-110010000D03*
X163520000Y-112550000D03*
X163520000Y-115090000D03*
X163520000Y-117630000D03*
X186380000Y-79530000D03*
X186380000Y-82070000D03*
X186380000Y-84610000D03*
X186380000Y-87150000D03*
X186380000Y-89690000D03*
X186380000Y-97310000D03*
X186380000Y-99850000D03*
X186380000Y-102390000D03*
X186380000Y-104930000D03*
X186380000Y-107470000D03*
X186380000Y-110010000D03*
X186380000Y-112550000D03*
X186380000Y-115090000D03*
X186380000Y-117630000D03*
D21*
X175790000Y-102759300D03*
X175790000Y-101260700D03*
D22*
X178200640Y-100589940D03*
X183199360Y-100589940D03*
X178200640Y-104090060D03*
X183199360Y-104090060D03*
D23*
X167410000Y-105260000D03*
X169910000Y-105260000D03*
X172410000Y-105260000D03*
X172410000Y-99560000D03*
X169910000Y-99560000D03*
X167410000Y-99560000D03*
D24*
X168410000Y-102410000D03*
X171410000Y-102410000D03*
D25*
X174960000Y-69400000D03*
D26*
X177500000Y-66860000D03*
X172420000Y-66860000D03*
X172420000Y-71940000D03*
X177500000Y-71940000D03*
D27*
X181667500Y-114620000D03*
X183572500Y-114620000D03*
X181667500Y-112080000D03*
X182620000Y-114620000D03*
X183572500Y-112080000D03*
M02*
