%FSLAX46Y46*%
G04 Gerber Fmt 4.6, Leading zero omitted, Abs format (unit mm)*
G04 Created by KiCad (PCBNEW (2014-jul-16 BZR unknown)-product) date Mon 16 Mar 2015 03:56:46 PM CET*
%MOMM*%
G01*
G04 APERTURE LIST*
%ADD10C,0.150000*%
%ADD11R,0.347980X1.397000*%
%ADD12R,0.787400X0.762000*%
%ADD13R,0.889000X1.397000*%
%ADD14R,0.400000X1.350000*%
%ADD15R,2.100000X1.600000*%
%ADD16R,1.800000X1.900000*%
%ADD17R,1.900000X1.900000*%
%ADD18R,2.200000X1.400000*%
%ADD19R,1.400000X2.200000*%
%ADD20C,1.524000*%
%ADD21R,0.762000X0.787400*%
%ADD22R,1.998980X1.000760*%
%ADD23R,0.800000X2.300000*%
%ADD24C,0.900000*%
%ADD25C,2.499360*%
%ADD26C,2.700020*%
%ADD27R,0.508000X0.762000*%
%ADD28C,0.685800*%
%ADD29C,0.762000*%
%ADD30C,0.304800*%
%ADD31C,0.508000*%
%ADD32C,0.381000*%
%ADD33C,0.254000*%
%ADD34C,1.270000*%
G04 APERTURE END LIST*
D10*
D11*
X179104020Y-107524940D03*
X178453780Y-107524940D03*
X177803540Y-107524940D03*
X177153300Y-107524940D03*
X176503060Y-107524940D03*
X175852820Y-107524940D03*
X175202580Y-107524940D03*
X174557420Y-107524940D03*
X173907180Y-107524940D03*
X173256940Y-107524940D03*
X172606700Y-107524940D03*
X171956460Y-107524940D03*
X171306220Y-107524940D03*
X170655980Y-107524940D03*
X170655980Y-114835060D03*
X171306220Y-114835060D03*
X171956460Y-114835060D03*
X172606700Y-114835060D03*
X173256940Y-114835060D03*
X173907180Y-114835060D03*
X174557420Y-114835060D03*
X175202580Y-114835060D03*
X175852820Y-114835060D03*
X176503060Y-114835060D03*
X177153300Y-114835060D03*
X177803540Y-114835060D03*
X178453780Y-114835060D03*
X179104020Y-114835060D03*
D12*
X166305900Y-107260000D03*
X167804500Y-107260000D03*
X166305900Y-110470000D03*
X167804500Y-110470000D03*
X167804500Y-113680000D03*
X166305900Y-113680000D03*
X167804500Y-115270000D03*
X166305900Y-115270000D03*
X167804500Y-116870000D03*
X166305900Y-116870000D03*
X166305900Y-120046000D03*
X167804500Y-120046000D03*
X166305900Y-118470000D03*
X167804500Y-118470000D03*
X183333100Y-108920000D03*
X181834500Y-108920000D03*
X183333100Y-110630000D03*
X181834500Y-110630000D03*
X181834500Y-116096400D03*
X183333100Y-116096400D03*
X181834500Y-117747400D03*
X183333100Y-117747400D03*
D13*
X181677500Y-119740000D03*
X183582500Y-119740000D03*
D12*
X167804500Y-112050000D03*
X166305900Y-112050000D03*
X167804500Y-108870000D03*
X166305900Y-108870000D03*
D14*
X173650000Y-118090000D03*
X174300000Y-118090000D03*
X174950000Y-118090000D03*
X175600000Y-118090000D03*
X176250000Y-118090000D03*
D15*
X171850000Y-118215000D03*
X178050000Y-118215000D03*
D16*
X171150000Y-120765000D03*
X178750000Y-120765000D03*
D17*
X173750000Y-120765000D03*
X176150000Y-120765000D03*
D18*
X166860000Y-76650000D03*
X166860000Y-78650000D03*
X166860000Y-80650000D03*
X166860000Y-82650000D03*
X166860000Y-84650000D03*
X166860000Y-86650000D03*
X166860000Y-88650000D03*
X166860000Y-90650000D03*
X166860000Y-92650000D03*
X166860000Y-94650000D03*
D19*
X168960000Y-96750000D03*
X170960000Y-96750000D03*
X172960000Y-96750000D03*
X174960000Y-96750000D03*
X176960000Y-96750000D03*
X178960000Y-96750000D03*
X180960000Y-96750000D03*
D18*
X183060000Y-94650000D03*
X183060000Y-92650000D03*
X183060000Y-90650000D03*
X183060000Y-88650000D03*
X183060000Y-86650000D03*
X183060000Y-84650000D03*
X183060000Y-82650000D03*
X183060000Y-80650000D03*
X183060000Y-78650000D03*
X183060000Y-76650000D03*
D19*
X180960000Y-74550000D03*
X178960000Y-74550000D03*
X176960000Y-74550000D03*
X174960000Y-74550000D03*
X172960000Y-74550000D03*
X170960000Y-74550000D03*
X168960000Y-74550000D03*
D20*
X163520000Y-79530000D03*
X163520000Y-82070000D03*
X163520000Y-84610000D03*
X163520000Y-87150000D03*
X163520000Y-89690000D03*
X163520000Y-97310000D03*
X163520000Y-99850000D03*
X163520000Y-102390000D03*
X163520000Y-104930000D03*
X163520000Y-107470000D03*
X163520000Y-110010000D03*
X163520000Y-112550000D03*
X163520000Y-115090000D03*
X163520000Y-117630000D03*
X186380000Y-79530000D03*
X186380000Y-82070000D03*
X186380000Y-84610000D03*
X186380000Y-87150000D03*
X186380000Y-89690000D03*
X186380000Y-97310000D03*
X186380000Y-99850000D03*
X186380000Y-102390000D03*
X186380000Y-104930000D03*
X186380000Y-107470000D03*
X186380000Y-110010000D03*
X186380000Y-112550000D03*
X186380000Y-115090000D03*
X186380000Y-117630000D03*
D21*
X175790000Y-102759300D03*
X175790000Y-101260700D03*
D22*
X178200640Y-100589940D03*
X183199360Y-100589940D03*
X178200640Y-104090060D03*
X183199360Y-104090060D03*
D23*
X167410000Y-105260000D03*
X169910000Y-105260000D03*
X172410000Y-105260000D03*
X172410000Y-99560000D03*
X169910000Y-99560000D03*
X167410000Y-99560000D03*
D24*
X168410000Y-102410000D03*
X171410000Y-102410000D03*
D25*
X174960000Y-69400000D03*
D26*
X177500000Y-66860000D03*
X172420000Y-66860000D03*
X172420000Y-71940000D03*
X177500000Y-71940000D03*
D27*
X181667500Y-114620000D03*
X183572500Y-114620000D03*
X181667500Y-112080000D03*
X182620000Y-114620000D03*
X183572500Y-112080000D03*
D28*
X175790000Y-99730000D03*
X176840000Y-108760000D03*
X181834500Y-109810000D03*
X181820000Y-107870000D03*
X169580000Y-93570000D03*
X170140000Y-92790000D03*
X170830000Y-89430000D03*
X171450000Y-86940000D03*
X172230000Y-83740000D03*
X183770000Y-93410000D03*
X184140000Y-96080000D03*
X179650000Y-111770000D03*
X175880000Y-110448198D03*
X175310000Y-105440000D03*
X180620000Y-104390000D03*
X180140000Y-106180000D03*
X179380000Y-110550000D03*
X177770000Y-110160000D03*
X180620000Y-112650000D03*
X166030000Y-111510000D03*
X166320000Y-109580000D03*
X178750000Y-119380000D03*
X171150000Y-119410000D03*
X174950000Y-94890000D03*
X178180000Y-101500000D03*
X183333100Y-109830000D03*
X181834500Y-116900000D03*
X170960000Y-76650000D03*
X172940000Y-76660000D03*
X176960000Y-76660000D03*
X178940000Y-76670000D03*
X172610000Y-113530000D03*
X174550000Y-113520000D03*
X167804500Y-114460000D03*
X172410000Y-120475000D03*
X174960000Y-120475000D03*
X177470000Y-120475000D03*
X175000000Y-108970000D03*
X181890000Y-66870000D03*
X185590000Y-66890000D03*
X185620000Y-70480000D03*
X181890000Y-70590000D03*
X185620000Y-74110000D03*
X185570000Y-77830000D03*
X168350000Y-66830000D03*
X164640000Y-66850000D03*
X164670000Y-70600000D03*
X168400000Y-70600000D03*
X164670000Y-78450000D03*
X164670000Y-74560000D03*
X168920000Y-94300000D03*
X168580000Y-95110000D03*
X165430000Y-97510000D03*
X165410000Y-91120000D03*
X166090000Y-93370000D03*
X166200000Y-96000000D03*
X175150000Y-80630000D03*
X173690000Y-79670000D03*
X179020000Y-99490000D03*
X180000000Y-107020000D03*
D29*
X181667500Y-112080000D02*
X181667500Y-110797000D01*
X181667500Y-110797000D02*
X181834500Y-110630000D01*
X175790000Y-99730000D02*
X174390000Y-99730000D01*
X174390000Y-99730000D02*
X173630000Y-98970000D01*
X173630000Y-98280000D02*
X172960000Y-97610000D01*
X173630000Y-98970000D02*
X173630000Y-98280000D01*
X172960000Y-97610000D02*
X172960000Y-96750000D01*
D30*
X177153300Y-107524940D02*
X177153300Y-108446700D01*
X177153300Y-108446700D02*
X176840000Y-108760000D01*
D29*
X181834500Y-108920000D02*
X181834500Y-107884500D01*
X181834500Y-107884500D02*
X181820000Y-107870000D01*
X181834500Y-110630000D02*
X181834500Y-109810000D01*
X181834500Y-109810000D02*
X181834500Y-108920000D01*
D31*
X183060000Y-86650000D02*
X184860000Y-86650000D01*
X185360000Y-85400000D02*
X186150000Y-84610000D01*
X185360000Y-86150000D02*
X185360000Y-85400000D01*
X184860000Y-86650000D02*
X185360000Y-86150000D01*
X186150000Y-84610000D02*
X186380000Y-84610000D01*
D32*
X186020000Y-84810000D02*
X186380000Y-84810000D01*
D31*
X183060000Y-88650000D02*
X184880000Y-88650000D01*
X184880000Y-88650000D02*
X186380000Y-87150000D01*
D33*
X166860000Y-82650000D02*
X169050000Y-82650000D01*
X169050000Y-82650000D02*
X169500000Y-83100000D01*
X169500000Y-89150000D02*
X169500000Y-91350000D01*
X169500000Y-83100000D02*
X169500000Y-89150000D01*
X169500000Y-93490000D02*
X169580000Y-93570000D01*
X169500000Y-91350000D02*
X169500000Y-93490000D01*
X170090000Y-88570000D02*
X170090000Y-92740000D01*
X170090000Y-92740000D02*
X170140000Y-92790000D01*
X169760000Y-80650000D02*
X170090000Y-80980000D01*
X166860000Y-80650000D02*
X169760000Y-80650000D01*
X170090000Y-80980000D02*
X170090000Y-88570000D01*
X170690000Y-86560000D02*
X170690000Y-89290000D01*
X170690000Y-89290000D02*
X170830000Y-89430000D01*
X168660000Y-79010000D02*
X168940000Y-79290000D01*
X168940000Y-79290000D02*
X170130000Y-79290000D01*
X168300000Y-78650000D02*
X168660000Y-79010000D01*
X166860000Y-78650000D02*
X168300000Y-78650000D01*
X170690000Y-79850000D02*
X170690000Y-86560000D01*
X170690000Y-86560000D02*
X170690000Y-86580000D01*
X170130000Y-79290000D02*
X170690000Y-79850000D01*
X171270000Y-83730000D02*
X171270000Y-86760000D01*
X171270000Y-86760000D02*
X171450000Y-86940000D01*
X166860000Y-76650000D02*
X168150000Y-76650000D01*
X168150000Y-76650000D02*
X168400000Y-76900000D01*
X168400000Y-76900000D02*
X168400000Y-77160000D01*
X168400000Y-77160000D02*
X169230000Y-77990000D01*
X169230000Y-77990000D02*
X169230000Y-78530000D01*
X169230000Y-78530000D02*
X169450000Y-78750000D01*
X169450000Y-78750000D02*
X170580000Y-78750000D01*
X170580000Y-78750000D02*
X171270000Y-79440000D01*
X171270000Y-79440000D02*
X171270000Y-83730000D01*
X171270000Y-83730000D02*
X171270000Y-83860000D01*
X171270000Y-84320000D02*
X171270000Y-83860000D01*
X171370000Y-84420000D02*
X171270000Y-84320000D01*
D31*
X172230000Y-80750000D02*
X172230000Y-83740000D01*
X179920000Y-78260000D02*
X180280000Y-78260000D01*
X180280000Y-78260000D02*
X180750000Y-77790000D01*
X180750000Y-77790000D02*
X180750000Y-77150000D01*
X180750000Y-77150000D02*
X181250000Y-76650000D01*
X181250000Y-76650000D02*
X183060000Y-76650000D01*
X179480000Y-78260000D02*
X179920000Y-78260000D01*
X174710000Y-78260000D02*
X179480000Y-78260000D01*
X180280000Y-78260000D02*
X180750000Y-77790000D01*
X172600000Y-78260000D02*
X172230000Y-78630000D01*
X174710000Y-78260000D02*
X172600000Y-78260000D01*
X172230000Y-78630000D02*
X172230000Y-80750000D01*
X172240000Y-80750000D02*
X172230000Y-80750000D01*
X172230000Y-80750000D02*
X172240000Y-80750000D01*
X172240000Y-80750000D02*
X172230000Y-80750000D01*
X183060000Y-90650000D02*
X184140000Y-90650000D01*
X184140000Y-90650000D02*
X184850000Y-89940000D01*
X184850000Y-89940000D02*
X186130000Y-89940000D01*
X186130000Y-89940000D02*
X186380000Y-89690000D01*
D33*
X183060000Y-92650000D02*
X183060000Y-92700000D01*
X183060000Y-92700000D02*
X183770000Y-93410000D01*
X184140000Y-96080000D02*
X185370000Y-97310000D01*
X185370000Y-97310000D02*
X186380000Y-97310000D01*
D31*
X184180000Y-98663098D02*
X185193098Y-98663098D01*
X185193098Y-98663098D02*
X186380000Y-99850000D01*
X186380000Y-99950000D02*
X186380000Y-100050000D01*
X183060000Y-98110000D02*
X183613098Y-98663098D01*
X183613098Y-98663098D02*
X184180000Y-98663098D01*
X184180000Y-98663098D02*
X185093098Y-98663098D01*
X185093098Y-98663098D02*
X186380000Y-99950000D01*
X183060000Y-94650000D02*
X183060000Y-98110000D01*
D30*
X177240000Y-110900000D02*
X177240000Y-111460000D01*
X177240000Y-111460000D02*
X177550000Y-111770000D01*
X177550000Y-111770000D02*
X179650000Y-111770000D01*
X171000000Y-110448198D02*
X170194780Y-110448198D01*
X168200000Y-106410000D02*
X168050000Y-106410000D01*
X169087202Y-107297202D02*
X168200000Y-106410000D01*
X169087202Y-109340620D02*
X169087202Y-107297202D01*
X170194780Y-110448198D02*
X169087202Y-109340620D01*
X175790000Y-102759300D02*
X175340000Y-103209300D01*
X175340000Y-105410000D02*
X175340000Y-103209300D01*
X175310000Y-105440000D02*
X175340000Y-105410000D01*
X177240000Y-110900000D02*
X178180000Y-110900000D01*
X178453780Y-110626220D02*
X178453780Y-110036220D01*
X178180000Y-110900000D02*
X178453780Y-110626220D01*
X176630000Y-110448198D02*
X176788198Y-110448198D01*
X176788198Y-110448198D02*
X177240000Y-110900000D01*
X178453780Y-110036220D02*
X178453780Y-109816220D01*
X178453780Y-107524940D02*
X178453780Y-108986220D01*
X178453780Y-109816220D02*
X178453780Y-108986220D01*
X167730000Y-106410000D02*
X168050000Y-106410000D01*
X167390000Y-106070000D02*
X167730000Y-106410000D01*
X167390000Y-104810000D02*
X167390000Y-106070000D01*
X171000000Y-110448198D02*
X175880000Y-110448198D01*
X175880000Y-110448198D02*
X176630000Y-110448198D01*
X185300000Y-102590000D02*
X186180000Y-102590000D01*
X186180000Y-102590000D02*
X186380000Y-102390000D01*
X180430000Y-97280000D02*
X180960000Y-96750000D01*
D33*
X180950000Y-95920000D02*
X180950000Y-96090000D01*
D30*
X186310000Y-102660000D02*
X186380000Y-102590000D01*
X180430000Y-96440000D02*
X180950000Y-95920000D01*
X180610000Y-97100000D02*
X180960000Y-96750000D01*
X180610000Y-98680000D02*
X180610000Y-97100000D01*
X180610000Y-104380000D02*
X180610000Y-98680000D01*
X180620000Y-104390000D02*
X180610000Y-104380000D01*
X179104020Y-106730000D02*
X179104020Y-106265980D01*
X179104020Y-106265980D02*
X179190000Y-106180000D01*
X179190000Y-106180000D02*
X180140000Y-106180000D01*
X179104020Y-107524940D02*
X179104020Y-106730000D01*
D32*
X184340000Y-99260000D02*
X181190000Y-99260000D01*
X180690000Y-98760000D02*
X180610000Y-98680000D01*
X181190000Y-99260000D02*
X180690000Y-98760000D01*
X180690000Y-97020000D02*
X180960000Y-96750000D01*
X180690000Y-98760000D02*
X180690000Y-97020000D01*
X184580000Y-99500000D02*
X184340000Y-99260000D01*
X184580000Y-102190000D02*
X184580000Y-99500000D01*
X184980000Y-102590000D02*
X184580000Y-102190000D01*
X186380000Y-102590000D02*
X185300000Y-102590000D01*
X185300000Y-102590000D02*
X184980000Y-102590000D01*
D30*
X180210000Y-110610000D02*
X180520000Y-110920000D01*
X179440000Y-110610000D02*
X180210000Y-110610000D01*
X179380000Y-110550000D02*
X179440000Y-110610000D01*
X180520000Y-112550000D02*
X180620000Y-112650000D01*
X180520000Y-110920000D02*
X180520000Y-112550000D01*
X167390000Y-101480000D02*
X167390000Y-103320000D01*
X168400000Y-103670000D02*
X168950000Y-104220000D01*
X167740000Y-103670000D02*
X168400000Y-103670000D01*
X167390000Y-103320000D02*
X167740000Y-103670000D01*
X168950000Y-105370000D02*
X168950000Y-106513418D01*
X168950000Y-105370000D02*
X168950000Y-104220000D01*
X170620000Y-109740000D02*
X170000000Y-109120000D01*
X171750000Y-109740000D02*
X170620000Y-109740000D01*
X176880000Y-109740000D02*
X171750000Y-109740000D01*
X177550000Y-109740000D02*
X176880000Y-109740000D01*
X168950000Y-106513418D02*
X169544404Y-107107822D01*
X169544404Y-107107822D02*
X169544404Y-108664404D01*
X169544404Y-108664404D02*
X170000000Y-109120000D01*
X177550000Y-109740000D02*
X177700000Y-109740000D01*
X177700000Y-109740000D02*
X177820000Y-109860000D01*
X167390000Y-101480000D02*
X167390000Y-99110000D01*
X177350000Y-109740000D02*
X177770000Y-110160000D01*
X176880000Y-109740000D02*
X177350000Y-109740000D01*
X177803540Y-110126460D02*
X177770000Y-110160000D01*
X177803540Y-107524940D02*
X177803540Y-110126460D01*
X183520000Y-105400000D02*
X185910000Y-105400000D01*
X185910000Y-105400000D02*
X186380000Y-104930000D01*
X179790000Y-98780000D02*
X179790000Y-98100000D01*
X179790000Y-98100000D02*
X178960000Y-97270000D01*
X178960000Y-97270000D02*
X178960000Y-96750000D01*
X186380000Y-105370000D02*
X186380000Y-105130000D01*
X186110000Y-105400000D02*
X186380000Y-105130000D01*
X176503060Y-105856940D02*
X176960000Y-105400000D01*
X179310000Y-105400000D02*
X183520000Y-105400000D01*
X183520000Y-105400000D02*
X186110000Y-105400000D01*
X176960000Y-105400000D02*
X179310000Y-105400000D01*
X176503060Y-107524940D02*
X176503060Y-105856940D01*
X179490000Y-96460000D02*
X178950000Y-95920000D01*
X179520000Y-105400000D02*
X179790000Y-105130000D01*
X179790000Y-105130000D02*
X179790000Y-98780000D01*
X179310000Y-105400000D02*
X179520000Y-105400000D01*
X178950000Y-96480000D02*
X178950000Y-95920000D01*
D31*
X176250000Y-117170000D02*
X176250000Y-118090000D01*
D30*
X173907180Y-114835060D02*
X173907180Y-115562776D01*
X176250000Y-116400000D02*
X176250000Y-116760000D01*
X175755596Y-115905596D02*
X176250000Y-116400000D01*
X174250000Y-115905596D02*
X175755596Y-115905596D01*
X173907180Y-115562776D02*
X174250000Y-115905596D01*
X176250000Y-117800000D02*
X176250000Y-117170000D01*
X176250000Y-117170000D02*
X176250000Y-116760000D01*
X176250000Y-116760000D02*
X176690000Y-116320000D01*
D29*
X176690000Y-116320000D02*
X179780000Y-116320000D01*
X179780000Y-116320000D02*
X180340000Y-116880000D01*
X180340000Y-116880000D02*
X180340000Y-119460000D01*
X180340000Y-119460000D02*
X180620000Y-119740000D01*
X180620000Y-119740000D02*
X181677500Y-119740000D01*
D31*
X176250000Y-117640000D02*
X176250000Y-116750000D01*
X176250000Y-116750000D02*
X176680000Y-116320000D01*
X176680000Y-116320000D02*
X176690000Y-116320000D01*
X180620000Y-119740000D02*
X181677500Y-119740000D01*
X180340000Y-119460000D02*
X180620000Y-119740000D01*
X180340000Y-116880000D02*
X180340000Y-119460000D01*
X179780000Y-116320000D02*
X180340000Y-116880000D01*
X166305900Y-108870000D02*
X166305900Y-109565900D01*
X166030000Y-111510000D02*
X166305900Y-111785900D01*
X166305900Y-109565900D02*
X166320000Y-109580000D01*
X166305900Y-111785900D02*
X166305900Y-112050000D01*
D29*
X166305900Y-112860000D02*
X166305900Y-112050000D01*
X166305900Y-113680000D02*
X166305900Y-112860000D01*
X166305900Y-115270000D02*
X166305900Y-114440000D01*
X166305900Y-114440000D02*
X166305900Y-113680000D01*
X166305900Y-116870000D02*
X166305900Y-116090000D01*
X166305900Y-116090000D02*
X166305900Y-115270000D01*
D33*
X173256940Y-114835060D02*
X173600000Y-114835060D01*
X173600000Y-114835060D02*
X173907180Y-114835060D01*
X166305900Y-112050000D02*
X166040000Y-112050000D01*
D31*
X171700000Y-112860000D02*
X171950000Y-112610000D01*
X171950000Y-112610000D02*
X173130000Y-112610000D01*
X173130000Y-112610000D02*
X173600000Y-113080000D01*
X173600000Y-113080000D02*
X173600000Y-114835060D01*
X166305900Y-112860000D02*
X171700000Y-112860000D01*
D29*
X182620000Y-114620000D02*
X182620000Y-115160000D01*
X182620000Y-115160000D02*
X181834500Y-115945500D01*
X181834500Y-115945500D02*
X181834500Y-116096400D01*
D31*
X171150000Y-120765000D02*
X171150000Y-119410000D01*
X171150000Y-119410000D02*
X171150000Y-118915000D01*
X171150000Y-118915000D02*
X171850000Y-118215000D01*
X178050000Y-118215000D02*
X178050000Y-118680000D01*
X178050000Y-118680000D02*
X178750000Y-119380000D01*
X178750000Y-119380000D02*
X178750000Y-120765000D01*
X178050000Y-120065000D02*
X178750000Y-120765000D01*
X177470000Y-120475000D02*
X178460000Y-120475000D01*
X178460000Y-120475000D02*
X178750000Y-120765000D01*
X177470000Y-120475000D02*
X176440000Y-120475000D01*
X176440000Y-120475000D02*
X176150000Y-120765000D01*
X174960000Y-120475000D02*
X175860000Y-120475000D01*
X175860000Y-120475000D02*
X176150000Y-120765000D01*
X174960000Y-120475000D02*
X174040000Y-120475000D01*
X174040000Y-120475000D02*
X173750000Y-120765000D01*
X171850000Y-120065000D02*
X171150000Y-120765000D01*
X172410000Y-120475000D02*
X171440000Y-120475000D01*
X171440000Y-120475000D02*
X171150000Y-120765000D01*
X172410000Y-120475000D02*
X173460000Y-120475000D01*
X173460000Y-120475000D02*
X173750000Y-120765000D01*
X171850000Y-118215000D02*
X173525000Y-118215000D01*
X173525000Y-118215000D02*
X173650000Y-118090000D01*
D29*
X166305900Y-118470000D02*
X164160000Y-118470000D01*
X164160000Y-118470000D02*
X163520000Y-117830000D01*
X163520000Y-117830000D02*
X163520000Y-117630000D01*
X174960000Y-96750000D02*
X174960000Y-94900000D01*
X174960000Y-94900000D02*
X174950000Y-94890000D01*
D31*
X167804500Y-116870000D02*
X167804500Y-116971400D01*
X167804500Y-116971400D02*
X166305900Y-118470000D01*
X178200640Y-100589940D02*
X178200640Y-101479360D01*
X178200640Y-101479360D02*
X178180000Y-101500000D01*
D29*
X164160000Y-118470000D02*
X163520000Y-117830000D01*
D30*
X175202580Y-96172580D02*
X174950000Y-95920000D01*
D29*
X167804500Y-114460000D02*
X167804500Y-113680000D01*
X167804500Y-115270000D02*
X167804500Y-114460000D01*
X167804500Y-116870000D02*
X167804500Y-115270000D01*
X166305900Y-119180000D02*
X166305900Y-118470000D01*
X166305900Y-120046000D02*
X166305900Y-119180000D01*
X183333100Y-109830000D02*
X183333100Y-110630000D01*
X183333100Y-108920000D02*
X183333100Y-109830000D01*
X181834500Y-116900000D02*
X181834500Y-116096400D01*
X181834500Y-117747400D02*
X181834500Y-116900000D01*
D33*
X177153300Y-114835060D02*
X177803540Y-114835060D01*
D29*
X172940000Y-76660000D02*
X172960000Y-76640000D01*
X172960000Y-76640000D02*
X172960000Y-74550000D01*
X170960000Y-74550000D02*
X170960000Y-76650000D01*
X169330000Y-76650000D02*
X168960000Y-76280000D01*
X168960000Y-76280000D02*
X168960000Y-74550000D01*
X170960000Y-76650000D02*
X169330000Y-76650000D01*
X178940000Y-76670000D02*
X178960000Y-76650000D01*
X178960000Y-76650000D02*
X178960000Y-74550000D01*
X176960000Y-74550000D02*
X176960000Y-76660000D01*
X179860000Y-76670000D02*
X178940000Y-76670000D01*
X180960000Y-75570000D02*
X179860000Y-76670000D01*
X180960000Y-74550000D02*
X180960000Y-75570000D01*
D30*
X172606700Y-113533300D02*
X172610000Y-113530000D01*
X172606700Y-114835060D02*
X172606700Y-113533300D01*
X174557420Y-113527420D02*
X174550000Y-113520000D01*
X174557420Y-114835060D02*
X174557420Y-113527420D01*
D31*
X173650000Y-120375000D02*
X173750000Y-120475000D01*
X173650000Y-117800000D02*
X173650000Y-120375000D01*
X172410000Y-120475000D02*
X173750000Y-120475000D01*
X171150000Y-120475000D02*
X172410000Y-120475000D01*
X174960000Y-120475000D02*
X176150000Y-120475000D01*
X173750000Y-120475000D02*
X174960000Y-120475000D01*
X177470000Y-120475000D02*
X178750000Y-120475000D01*
X176150000Y-120475000D02*
X177470000Y-120475000D01*
X171975000Y-117800000D02*
X171850000Y-117925000D01*
X173650000Y-117800000D02*
X171975000Y-117800000D01*
D30*
X175202580Y-108767420D02*
X175000000Y-108970000D01*
X175202580Y-107524940D02*
X175202580Y-108767420D01*
D31*
X181890000Y-66870000D02*
X181910000Y-66890000D01*
X181910000Y-66890000D02*
X185590000Y-66890000D01*
X185620000Y-70480000D02*
X185510000Y-70590000D01*
X185510000Y-70590000D02*
X181890000Y-70590000D01*
X185620000Y-70480000D02*
X185620000Y-74110000D01*
X168380000Y-66860000D02*
X168350000Y-66830000D01*
X164640000Y-66850000D02*
X164670000Y-66880000D01*
X164670000Y-66880000D02*
X164670000Y-70600000D01*
X172420000Y-66860000D02*
X168380000Y-66860000D01*
X164670000Y-74560000D02*
X164670000Y-70600000D01*
D30*
X175600000Y-116980000D02*
X175600000Y-118090000D01*
X171306220Y-114835060D02*
X171306220Y-116019018D01*
X175212798Y-116362798D02*
X175600000Y-116750000D01*
X171650000Y-116362798D02*
X175212798Y-116362798D01*
X171306220Y-116019018D02*
X171650000Y-116362798D01*
X175600000Y-116750000D02*
X175600000Y-116980000D01*
X175600000Y-116980000D02*
X175600000Y-117640000D01*
X168850000Y-118470000D02*
X169142798Y-118177202D01*
X169142798Y-118177202D02*
X169142798Y-116897202D01*
X169142798Y-116897202D02*
X170020000Y-116020000D01*
X170020000Y-116020000D02*
X170020000Y-113910000D01*
X170020000Y-113910000D02*
X170280000Y-113650000D01*
X170280000Y-113650000D02*
X171000000Y-113650000D01*
X171000000Y-113650000D02*
X171306220Y-113956220D01*
X171306220Y-113956220D02*
X171306220Y-114835060D01*
X167804500Y-118470000D02*
X168850000Y-118470000D01*
X174950000Y-117130000D02*
X174950000Y-118090000D01*
X174950000Y-117800000D02*
X174950000Y-117130000D01*
X174950000Y-117130000D02*
X174950000Y-117030000D01*
X169990000Y-116820000D02*
X169600000Y-117210000D01*
X171120000Y-116820000D02*
X169990000Y-116820000D01*
X174740000Y-116820000D02*
X171120000Y-116820000D01*
X174950000Y-117030000D02*
X174740000Y-116820000D01*
X169600000Y-117360000D02*
X169600000Y-117210000D01*
X169600000Y-117590000D02*
X169600000Y-117360000D01*
X167804500Y-120046000D02*
X169274000Y-120046000D01*
X169600000Y-119720000D02*
X169600000Y-117590000D01*
X169274000Y-120046000D02*
X169600000Y-119720000D01*
X170655980Y-116355980D02*
X171120000Y-116820000D01*
X170655980Y-114835060D02*
X170655980Y-116355980D01*
D29*
X181667500Y-114620000D02*
X181667500Y-113922500D01*
X183572500Y-113872500D02*
X183572500Y-114620000D01*
X183220000Y-113520000D02*
X183572500Y-113872500D01*
X182070000Y-113520000D02*
X183220000Y-113520000D01*
X181667500Y-113922500D02*
X182070000Y-113520000D01*
X183572500Y-114620000D02*
X183572500Y-115857000D01*
X183572500Y-115857000D02*
X183333100Y-116096400D01*
X183333100Y-117747400D02*
X183333100Y-116096400D01*
X183333100Y-117747400D02*
X183333100Y-118063100D01*
X183333100Y-118063100D02*
X183582500Y-118312500D01*
X183582500Y-118312500D02*
X183582500Y-119740000D01*
D31*
X166305900Y-110470000D02*
X166305900Y-110515900D01*
X166305900Y-110515900D02*
X167804500Y-112014500D01*
X167804500Y-112014500D02*
X167804500Y-112050000D01*
X166305900Y-107260000D02*
X166305900Y-107371400D01*
X166305900Y-107371400D02*
X167804500Y-108870000D01*
D30*
X169400000Y-111070000D02*
X169110000Y-110780000D01*
X169110000Y-110780000D02*
X168800000Y-110470000D01*
X167804500Y-110470000D02*
X168800000Y-110470000D01*
X175202580Y-111952580D02*
X174810000Y-111560000D01*
X174810000Y-111560000D02*
X169880000Y-111560000D01*
X169880000Y-111560000D02*
X169400000Y-111080000D01*
X169400000Y-111080000D02*
X169400000Y-111070000D01*
X175202580Y-114835060D02*
X175202580Y-111952580D01*
X170560000Y-111080000D02*
X170180000Y-111080000D01*
X168240000Y-107260000D02*
X167804500Y-107260000D01*
X168630000Y-107650000D02*
X168240000Y-107260000D01*
X168630000Y-109530000D02*
X168630000Y-107650000D01*
X170180000Y-111080000D02*
X168630000Y-109530000D01*
X175852820Y-113030000D02*
X175852820Y-112200000D01*
X175852820Y-113030000D02*
X175852820Y-114835060D01*
X175852820Y-111602820D02*
X175330000Y-111080000D01*
X175330000Y-111080000D02*
X170560000Y-111080000D01*
X175852820Y-112200000D02*
X175852820Y-111602820D01*
D33*
X168910000Y-94290000D02*
X168920000Y-94300000D01*
X168910000Y-93330000D02*
X168910000Y-94290000D01*
X168753598Y-84650000D02*
X169093598Y-84990000D01*
X169093598Y-84990000D02*
X169093598Y-93146402D01*
X169093598Y-93146402D02*
X168910000Y-93330000D01*
X166860000Y-84650000D02*
X168753598Y-84650000D01*
X166860000Y-86650000D02*
X167820000Y-86650000D01*
X168260000Y-94790000D02*
X168580000Y-95110000D01*
X168260000Y-93580000D02*
X168260000Y-94790000D01*
X168297196Y-86650000D02*
X168687196Y-87040000D01*
X168687196Y-87040000D02*
X168687196Y-92902804D01*
X168687196Y-92902804D02*
X168260000Y-93330000D01*
X168260000Y-93330000D02*
X168260000Y-93580000D01*
X166860000Y-86650000D02*
X168297196Y-86650000D01*
X164340794Y-106310000D02*
X164340794Y-106649206D01*
X164340794Y-106649206D02*
X163520000Y-107470000D01*
X164617196Y-99572804D02*
X164617196Y-105732804D01*
X164617196Y-105732804D02*
X164340794Y-106009206D01*
X164340794Y-106009206D02*
X164340794Y-106310000D01*
X165003598Y-90336402D02*
X164710000Y-90630000D01*
X164710000Y-90630000D02*
X164710000Y-91460000D01*
X164710000Y-91460000D02*
X165410000Y-92160000D01*
X165410000Y-92160000D02*
X165410000Y-96610000D01*
X165410000Y-96610000D02*
X164780000Y-97240000D01*
X164780000Y-97240000D02*
X164780000Y-99410000D01*
X164780000Y-99410000D02*
X164617196Y-99572804D01*
X166860000Y-88650000D02*
X165470000Y-88650000D01*
X165470000Y-88650000D02*
X165003598Y-89116402D01*
X165003598Y-89116402D02*
X165003598Y-90336402D01*
X164747196Y-109190000D02*
X164747196Y-109712804D01*
X164450000Y-110010000D02*
X163520000Y-110010000D01*
X164747196Y-109712804D02*
X164450000Y-110010000D01*
X165410000Y-91120000D02*
X165880000Y-90650000D01*
X165880000Y-90650000D02*
X165410000Y-91120000D01*
X166860000Y-90650000D02*
X165880000Y-90650000D01*
X165410000Y-98430000D02*
X165410000Y-99440000D01*
X165410000Y-99440000D02*
X165023598Y-99826402D01*
X164747196Y-106278064D02*
X164887630Y-106137630D01*
X164747196Y-109190000D02*
X164747196Y-106278064D01*
X165023598Y-106001662D02*
X164887630Y-106137630D01*
X165023598Y-99826402D02*
X165023598Y-106001662D01*
X165410000Y-97530000D02*
X165410000Y-98410000D01*
X165430000Y-97510000D02*
X165410000Y-97530000D01*
X164973598Y-111750000D02*
X164973598Y-112186402D01*
X164610000Y-112550000D02*
X163520000Y-112550000D01*
X164973598Y-112186402D02*
X164610000Y-112550000D01*
X165830000Y-92650000D02*
X166860000Y-92650000D01*
X165430000Y-106195260D02*
X165153598Y-106471662D01*
X165840000Y-92650000D02*
X166860000Y-92650000D01*
X165153598Y-110600000D02*
X165153598Y-106471662D01*
X164973598Y-110780000D02*
X165153598Y-110600000D01*
X164973598Y-111750000D02*
X164973598Y-110780000D01*
X166200000Y-96000000D02*
X166220000Y-96020000D01*
X166220000Y-96020000D02*
X166220000Y-97850000D01*
X166220000Y-97850000D02*
X165910000Y-98160000D01*
X165910000Y-98160000D02*
X165910000Y-105715260D01*
X165910000Y-105715260D02*
X165430000Y-106195260D01*
X166810000Y-92650000D02*
X166090000Y-93370000D01*
X166860000Y-92650000D02*
X166810000Y-92650000D01*
X165380000Y-113820000D02*
X165380000Y-114610000D01*
X164900000Y-115090000D02*
X163520000Y-115090000D01*
X165380000Y-114610000D02*
X164900000Y-115090000D01*
X166330000Y-95180000D02*
X166860000Y-94650000D01*
X166330000Y-98850000D02*
X166330000Y-106170000D01*
X165760000Y-106440000D02*
X166060000Y-106440000D01*
X166060000Y-106440000D02*
X166330000Y-106170000D01*
X165560000Y-110630000D02*
X165560000Y-106640000D01*
X165560000Y-106640000D02*
X165760000Y-106440000D01*
X165560000Y-110820000D02*
X165380000Y-111000000D01*
X165380000Y-111000000D02*
X165380000Y-113820000D01*
X165560000Y-110630000D02*
X165560000Y-110820000D01*
X166880000Y-94670000D02*
X166860000Y-94650000D01*
X166330000Y-98350000D02*
X166880000Y-97800000D01*
X166880000Y-97800000D02*
X166880000Y-94670000D01*
X166330000Y-98850000D02*
X166330000Y-98350000D01*
D31*
X175160000Y-80620000D02*
X175840000Y-80620000D01*
X175150000Y-80630000D02*
X175160000Y-80620000D01*
X182650000Y-79060000D02*
X183060000Y-78650000D01*
X181010000Y-78650000D02*
X180490000Y-79170000D01*
X180490000Y-79170000D02*
X176780000Y-79170000D01*
X176780000Y-79170000D02*
X176250000Y-79700000D01*
X176250000Y-79700000D02*
X176250000Y-80210000D01*
X176250000Y-80210000D02*
X175840000Y-80620000D01*
X175840000Y-80620000D02*
X175130000Y-80620000D01*
X183060000Y-78650000D02*
X181010000Y-78650000D01*
X175130000Y-80650000D02*
X175130000Y-80620000D01*
X175130000Y-80620000D02*
X175130000Y-80650000D01*
X175130000Y-80650000D02*
X175130000Y-80620000D01*
X173690000Y-79670000D02*
X173690000Y-79640000D01*
X177440000Y-80650000D02*
X176660000Y-81430000D01*
X183060000Y-80650000D02*
X177440000Y-80650000D01*
X173690000Y-81000000D02*
X173690000Y-79640000D01*
X174120000Y-81430000D02*
X173690000Y-81000000D01*
X176660000Y-81430000D02*
X174120000Y-81430000D01*
X183060000Y-82650000D02*
X184350000Y-82650000D01*
X185210000Y-80820000D02*
X186380000Y-79650000D01*
X185210000Y-81790000D02*
X185210000Y-80820000D01*
X184350000Y-82650000D02*
X185210000Y-81790000D01*
X186380000Y-79650000D02*
X186380000Y-79530000D01*
X183060000Y-84650000D02*
X184610000Y-84650000D01*
X185210000Y-83120000D02*
X186260000Y-82070000D01*
X185210000Y-84050000D02*
X185210000Y-83120000D01*
X184610000Y-84650000D02*
X185210000Y-84050000D01*
X186260000Y-82070000D02*
X186380000Y-82070000D01*
D32*
X186280000Y-82270000D02*
X186380000Y-82270000D01*
D31*
X185160000Y-107500000D02*
X186350000Y-107500000D01*
X186350000Y-107500000D02*
X186380000Y-107470000D01*
X176950000Y-98240000D02*
X176950000Y-96760000D01*
X176950000Y-96760000D02*
X176960000Y-96750000D01*
X186210000Y-107500000D02*
X186380000Y-107670000D01*
X176950000Y-98240000D02*
X177410000Y-98700000D01*
X177410000Y-98700000D02*
X178600000Y-98700000D01*
X178600000Y-98700000D02*
X179020000Y-99120000D01*
X179020000Y-99120000D02*
X179020000Y-99490000D01*
X183560000Y-107500000D02*
X183900000Y-107500000D01*
X183080000Y-107020000D02*
X183560000Y-107500000D01*
X183900000Y-107500000D02*
X185160000Y-107500000D01*
X185160000Y-107500000D02*
X186210000Y-107500000D01*
X176950000Y-95920000D02*
X176950000Y-98240000D01*
X180000000Y-107020000D02*
X183080000Y-107020000D01*
D34*
X174960000Y-74550000D02*
X174960000Y-69400000D01*
D31*
X172410000Y-105260000D02*
X172410000Y-104220000D01*
X172410000Y-104220000D02*
X172390000Y-104200000D01*
X172390000Y-104200000D02*
X172410000Y-105260000D01*
X172390000Y-103020000D02*
X172780000Y-102630000D01*
X172780000Y-102630000D02*
X173860000Y-102630000D01*
X173860000Y-102630000D02*
X174300000Y-102190000D01*
X174300000Y-102190000D02*
X174300000Y-101540000D01*
X174300000Y-101540000D02*
X174579300Y-101260700D01*
X174579300Y-101260700D02*
X175790000Y-101260700D01*
X172390000Y-104810000D02*
X172390000Y-103020000D01*
D30*
X168950000Y-95920000D02*
X168950000Y-96440000D01*
D33*
X168950000Y-95920000D02*
X168950000Y-96210000D01*
D31*
X168950000Y-98170000D02*
X169890000Y-99110000D01*
X168950000Y-95920000D02*
X168950000Y-98170000D01*
D30*
X171700000Y-101150000D02*
X171420000Y-101150000D01*
X171420000Y-101150000D02*
X170970000Y-100700000D01*
D31*
X170950000Y-100040000D02*
X170950000Y-100370000D01*
D30*
X178200640Y-104090060D02*
X176960060Y-104090060D01*
X173410000Y-101150000D02*
X171700000Y-101150000D01*
X174090000Y-100470000D02*
X173410000Y-101150000D01*
X176360000Y-100470000D02*
X174090000Y-100470000D01*
X176680000Y-100790000D02*
X176360000Y-100470000D01*
X176680000Y-103810000D02*
X176680000Y-100790000D01*
X176960060Y-104090060D02*
X176680000Y-103810000D01*
D31*
X169860000Y-102120000D02*
X169860000Y-101820000D01*
X169860000Y-102120000D02*
X169860000Y-104080000D01*
X169860000Y-101820000D02*
X170350000Y-101330000D01*
X170350000Y-101330000D02*
X170580000Y-101330000D01*
X170580000Y-101330000D02*
X170970000Y-100940000D01*
X170970000Y-100940000D02*
X170970000Y-100700000D01*
X170970000Y-100040000D02*
X170950000Y-100040000D01*
X170970000Y-100700000D02*
X170970000Y-100040000D01*
X169910000Y-105260000D02*
X169910000Y-104130000D01*
X169910000Y-104130000D02*
X169860000Y-104080000D01*
D30*
X169890000Y-104810000D02*
X169890000Y-105910000D01*
D31*
X169860000Y-104780000D02*
X169890000Y-104810000D01*
X169860000Y-104080000D02*
X169860000Y-104780000D01*
X170950000Y-95920000D02*
X170950000Y-100040000D01*
D33*
G36*
X173664744Y-115930998D02*
X171828857Y-115930998D01*
X171738020Y-115840160D01*
X171738020Y-115812960D01*
X171838046Y-115812960D01*
X172186026Y-115812960D01*
X172288717Y-115770424D01*
X172367314Y-115691827D01*
X172409850Y-115589136D01*
X172409850Y-115477984D01*
X172409850Y-114080984D01*
X172367314Y-113978293D01*
X172288717Y-113899696D01*
X172186026Y-113857160D01*
X172074874Y-113857160D01*
X171726894Y-113857160D01*
X171718968Y-113860442D01*
X171705151Y-113790977D01*
X171611549Y-113650891D01*
X171611545Y-113650888D01*
X171354057Y-113393400D01*
X171700000Y-113393400D01*
X171904123Y-113352797D01*
X172077171Y-113237171D01*
X172170941Y-113143400D01*
X172909058Y-113143400D01*
X173066600Y-113300941D01*
X173066600Y-113857160D01*
X173027374Y-113857160D01*
X172924683Y-113899696D01*
X172846086Y-113978293D01*
X172803550Y-114080984D01*
X172803550Y-114192136D01*
X172803550Y-115589136D01*
X172846086Y-115691827D01*
X172924683Y-115770424D01*
X173027374Y-115812960D01*
X173138526Y-115812960D01*
X173486506Y-115812960D01*
X173547988Y-115787493D01*
X173601851Y-115868105D01*
X173664744Y-115930998D01*
X173664744Y-115930998D01*
G37*
X173664744Y-115930998D02*
X171828857Y-115930998D01*
X171738020Y-115840160D01*
X171738020Y-115812960D01*
X171838046Y-115812960D01*
X172186026Y-115812960D01*
X172288717Y-115770424D01*
X172367314Y-115691827D01*
X172409850Y-115589136D01*
X172409850Y-115477984D01*
X172409850Y-114080984D01*
X172367314Y-113978293D01*
X172288717Y-113899696D01*
X172186026Y-113857160D01*
X172074874Y-113857160D01*
X171726894Y-113857160D01*
X171718968Y-113860442D01*
X171705151Y-113790977D01*
X171611549Y-113650891D01*
X171611545Y-113650888D01*
X171354057Y-113393400D01*
X171700000Y-113393400D01*
X171904123Y-113352797D01*
X172077171Y-113237171D01*
X172170941Y-113143400D01*
X172909058Y-113143400D01*
X173066600Y-113300941D01*
X173066600Y-113857160D01*
X173027374Y-113857160D01*
X172924683Y-113899696D01*
X172846086Y-113978293D01*
X172803550Y-114080984D01*
X172803550Y-114192136D01*
X172803550Y-115589136D01*
X172846086Y-115691827D01*
X172924683Y-115770424D01*
X173027374Y-115812960D01*
X173138526Y-115812960D01*
X173486506Y-115812960D01*
X173547988Y-115787493D01*
X173601851Y-115868105D01*
X173664744Y-115930998D01*
G36*
X174770780Y-114028861D02*
X174749190Y-114080984D01*
X174749190Y-114192136D01*
X174749190Y-115473796D01*
X174428857Y-115473796D01*
X174360570Y-115405508D01*
X174360570Y-114080984D01*
X174318034Y-113978293D01*
X174239437Y-113899696D01*
X174136746Y-113857160D01*
X174133400Y-113857160D01*
X174133400Y-113080000D01*
X174092797Y-112875877D01*
X174092797Y-112875876D01*
X174046483Y-112806563D01*
X173977171Y-112702829D01*
X173977167Y-112702826D01*
X173507171Y-112232829D01*
X173334123Y-112117203D01*
X173130000Y-112076600D01*
X171950000Y-112076600D01*
X171745876Y-112117203D01*
X171676563Y-112163516D01*
X171572829Y-112232829D01*
X171572826Y-112232832D01*
X171479058Y-112326600D01*
X168477600Y-112326600D01*
X168477600Y-111613424D01*
X168435064Y-111510733D01*
X168356467Y-111432136D01*
X168253776Y-111389600D01*
X168142624Y-111389600D01*
X167933941Y-111389600D01*
X167674741Y-111130400D01*
X168253776Y-111130400D01*
X168356467Y-111087864D01*
X168435064Y-111009267D01*
X168477600Y-110906576D01*
X168477600Y-110901800D01*
X168621142Y-110901800D01*
X168804671Y-111085329D01*
X169074534Y-111355192D01*
X169074535Y-111355193D01*
X169094671Y-111385329D01*
X169574668Y-111865325D01*
X169574671Y-111865329D01*
X169574672Y-111865329D01*
X169668274Y-111927872D01*
X169714757Y-111958931D01*
X169714758Y-111958932D01*
X169880000Y-111991801D01*
X169880000Y-111991800D01*
X169880005Y-111991800D01*
X174631142Y-111991800D01*
X174770780Y-112131438D01*
X174770780Y-114028861D01*
X174770780Y-114028861D01*
G37*
X174770780Y-114028861D02*
X174749190Y-114080984D01*
X174749190Y-114192136D01*
X174749190Y-115473796D01*
X174428857Y-115473796D01*
X174360570Y-115405508D01*
X174360570Y-114080984D01*
X174318034Y-113978293D01*
X174239437Y-113899696D01*
X174136746Y-113857160D01*
X174133400Y-113857160D01*
X174133400Y-113080000D01*
X174092797Y-112875877D01*
X174092797Y-112875876D01*
X174046483Y-112806563D01*
X173977171Y-112702829D01*
X173977167Y-112702826D01*
X173507171Y-112232829D01*
X173334123Y-112117203D01*
X173130000Y-112076600D01*
X171950000Y-112076600D01*
X171745876Y-112117203D01*
X171676563Y-112163516D01*
X171572829Y-112232829D01*
X171572826Y-112232832D01*
X171479058Y-112326600D01*
X168477600Y-112326600D01*
X168477600Y-111613424D01*
X168435064Y-111510733D01*
X168356467Y-111432136D01*
X168253776Y-111389600D01*
X168142624Y-111389600D01*
X167933941Y-111389600D01*
X167674741Y-111130400D01*
X168253776Y-111130400D01*
X168356467Y-111087864D01*
X168435064Y-111009267D01*
X168477600Y-110906576D01*
X168477600Y-110901800D01*
X168621142Y-110901800D01*
X168804671Y-111085329D01*
X169074534Y-111355192D01*
X169074535Y-111355193D01*
X169094671Y-111385329D01*
X169574668Y-111865325D01*
X169574671Y-111865329D01*
X169574672Y-111865329D01*
X169668274Y-111927872D01*
X169714757Y-111958931D01*
X169714758Y-111958932D01*
X169880000Y-111991801D01*
X169880000Y-111991800D01*
X169880005Y-111991800D01*
X174631142Y-111991800D01*
X174770780Y-112131438D01*
X174770780Y-114028861D01*
G36*
X179358200Y-104951142D02*
X179341142Y-104968200D01*
X179310000Y-104968200D01*
X176960005Y-104968200D01*
X176960000Y-104968199D01*
X176822173Y-104995615D01*
X176794757Y-105001069D01*
X176654671Y-105094671D01*
X176197731Y-105551611D01*
X176104129Y-105691697D01*
X176071260Y-105856940D01*
X176071260Y-106547040D01*
X175971234Y-106547040D01*
X175623254Y-106547040D01*
X175520563Y-106589576D01*
X175441966Y-106668173D01*
X175399430Y-106770864D01*
X175399430Y-106882016D01*
X175399430Y-108279016D01*
X175441966Y-108381707D01*
X175520563Y-108460304D01*
X175623254Y-108502840D01*
X175734406Y-108502840D01*
X176082386Y-108502840D01*
X176177940Y-108463260D01*
X176273042Y-108502653D01*
X176217808Y-108635674D01*
X176217592Y-108883240D01*
X176312132Y-109112044D01*
X176487035Y-109287253D01*
X176537481Y-109308200D01*
X171750000Y-109308200D01*
X170798857Y-109308200D01*
X170305329Y-108814671D01*
X169976204Y-108485546D01*
X169976204Y-107107822D01*
X169943335Y-106942579D01*
X169849733Y-106802493D01*
X169736640Y-106689400D01*
X170236333Y-106689400D01*
X170202590Y-106770864D01*
X170202590Y-106882016D01*
X170202590Y-108279016D01*
X170245126Y-108381707D01*
X170323723Y-108460304D01*
X170426414Y-108502840D01*
X170537566Y-108502840D01*
X170885546Y-108502840D01*
X170981100Y-108463260D01*
X171076654Y-108502840D01*
X171187806Y-108502840D01*
X171535786Y-108502840D01*
X171631340Y-108463260D01*
X171726894Y-108502840D01*
X171838046Y-108502840D01*
X172186026Y-108502840D01*
X172281580Y-108463260D01*
X172377134Y-108502840D01*
X172488286Y-108502840D01*
X172836266Y-108502840D01*
X172931820Y-108463260D01*
X173027374Y-108502840D01*
X173138526Y-108502840D01*
X173486506Y-108502840D01*
X173582060Y-108463260D01*
X173677614Y-108502840D01*
X173788766Y-108502840D01*
X174136746Y-108502840D01*
X174232300Y-108463260D01*
X174327854Y-108502840D01*
X174439006Y-108502840D01*
X174786986Y-108502840D01*
X174889677Y-108460304D01*
X174968274Y-108381707D01*
X175010810Y-108279016D01*
X175010810Y-108167864D01*
X175010810Y-106770864D01*
X174968274Y-106668173D01*
X174889677Y-106589576D01*
X174786986Y-106547040D01*
X174675834Y-106547040D01*
X174327854Y-106547040D01*
X174232300Y-106586619D01*
X174136746Y-106547040D01*
X174025594Y-106547040D01*
X173677614Y-106547040D01*
X173582060Y-106586619D01*
X173486506Y-106547040D01*
X173375354Y-106547040D01*
X173055656Y-106547040D01*
X173089400Y-106465576D01*
X173089400Y-106354424D01*
X173089400Y-104054424D01*
X173046864Y-103951733D01*
X172968267Y-103873136D01*
X172923400Y-103854551D01*
X172923400Y-103240942D01*
X173000942Y-103163400D01*
X173860000Y-103163400D01*
X174064123Y-103122797D01*
X174237171Y-103007171D01*
X174677171Y-102567171D01*
X174792797Y-102394123D01*
X174833400Y-102190000D01*
X174833400Y-101794100D01*
X175164445Y-101794100D01*
X175172136Y-101812667D01*
X175250733Y-101891264D01*
X175353424Y-101933800D01*
X175464576Y-101933800D01*
X176226576Y-101933800D01*
X176248200Y-101924843D01*
X176248200Y-102095156D01*
X176226576Y-102086200D01*
X176115424Y-102086200D01*
X175353424Y-102086200D01*
X175250733Y-102128736D01*
X175172136Y-102207333D01*
X175129600Y-102310024D01*
X175129600Y-102421176D01*
X175129600Y-102809042D01*
X175034671Y-102903971D01*
X174941069Y-103044057D01*
X174908200Y-103209300D01*
X174908200Y-104961801D01*
X174782747Y-105087035D01*
X174687808Y-105315674D01*
X174687592Y-105563240D01*
X174782132Y-105792044D01*
X174957035Y-105967253D01*
X175185674Y-106062192D01*
X175433240Y-106062408D01*
X175662044Y-105967868D01*
X175837253Y-105792965D01*
X175932192Y-105564326D01*
X175932408Y-105316760D01*
X175837868Y-105087956D01*
X175771800Y-105021772D01*
X175771800Y-103432400D01*
X176226576Y-103432400D01*
X176248200Y-103423443D01*
X176248200Y-103810000D01*
X176281069Y-103975243D01*
X176374671Y-104115329D01*
X176654728Y-104395385D01*
X176654731Y-104395389D01*
X176654732Y-104395389D01*
X176748334Y-104457932D01*
X176794817Y-104488991D01*
X176794818Y-104488992D01*
X176921750Y-104514240D01*
X176921750Y-104646016D01*
X176964286Y-104748707D01*
X177042883Y-104827304D01*
X177145574Y-104869840D01*
X177256726Y-104869840D01*
X179255706Y-104869840D01*
X179358200Y-104827385D01*
X179358200Y-104951142D01*
X179358200Y-104951142D01*
G37*
X179358200Y-104951142D02*
X179341142Y-104968200D01*
X179310000Y-104968200D01*
X176960005Y-104968200D01*
X176960000Y-104968199D01*
X176822173Y-104995615D01*
X176794757Y-105001069D01*
X176654671Y-105094671D01*
X176197731Y-105551611D01*
X176104129Y-105691697D01*
X176071260Y-105856940D01*
X176071260Y-106547040D01*
X175971234Y-106547040D01*
X175623254Y-106547040D01*
X175520563Y-106589576D01*
X175441966Y-106668173D01*
X175399430Y-106770864D01*
X175399430Y-106882016D01*
X175399430Y-108279016D01*
X175441966Y-108381707D01*
X175520563Y-108460304D01*
X175623254Y-108502840D01*
X175734406Y-108502840D01*
X176082386Y-108502840D01*
X176177940Y-108463260D01*
X176273042Y-108502653D01*
X176217808Y-108635674D01*
X176217592Y-108883240D01*
X176312132Y-109112044D01*
X176487035Y-109287253D01*
X176537481Y-109308200D01*
X171750000Y-109308200D01*
X170798857Y-109308200D01*
X170305329Y-108814671D01*
X169976204Y-108485546D01*
X169976204Y-107107822D01*
X169943335Y-106942579D01*
X169849733Y-106802493D01*
X169736640Y-106689400D01*
X170236333Y-106689400D01*
X170202590Y-106770864D01*
X170202590Y-106882016D01*
X170202590Y-108279016D01*
X170245126Y-108381707D01*
X170323723Y-108460304D01*
X170426414Y-108502840D01*
X170537566Y-108502840D01*
X170885546Y-108502840D01*
X170981100Y-108463260D01*
X171076654Y-108502840D01*
X171187806Y-108502840D01*
X171535786Y-108502840D01*
X171631340Y-108463260D01*
X171726894Y-108502840D01*
X171838046Y-108502840D01*
X172186026Y-108502840D01*
X172281580Y-108463260D01*
X172377134Y-108502840D01*
X172488286Y-108502840D01*
X172836266Y-108502840D01*
X172931820Y-108463260D01*
X173027374Y-108502840D01*
X173138526Y-108502840D01*
X173486506Y-108502840D01*
X173582060Y-108463260D01*
X173677614Y-108502840D01*
X173788766Y-108502840D01*
X174136746Y-108502840D01*
X174232300Y-108463260D01*
X174327854Y-108502840D01*
X174439006Y-108502840D01*
X174786986Y-108502840D01*
X174889677Y-108460304D01*
X174968274Y-108381707D01*
X175010810Y-108279016D01*
X175010810Y-108167864D01*
X175010810Y-106770864D01*
X174968274Y-106668173D01*
X174889677Y-106589576D01*
X174786986Y-106547040D01*
X174675834Y-106547040D01*
X174327854Y-106547040D01*
X174232300Y-106586619D01*
X174136746Y-106547040D01*
X174025594Y-106547040D01*
X173677614Y-106547040D01*
X173582060Y-106586619D01*
X173486506Y-106547040D01*
X173375354Y-106547040D01*
X173055656Y-106547040D01*
X173089400Y-106465576D01*
X173089400Y-106354424D01*
X173089400Y-104054424D01*
X173046864Y-103951733D01*
X172968267Y-103873136D01*
X172923400Y-103854551D01*
X172923400Y-103240942D01*
X173000942Y-103163400D01*
X173860000Y-103163400D01*
X174064123Y-103122797D01*
X174237171Y-103007171D01*
X174677171Y-102567171D01*
X174792797Y-102394123D01*
X174833400Y-102190000D01*
X174833400Y-101794100D01*
X175164445Y-101794100D01*
X175172136Y-101812667D01*
X175250733Y-101891264D01*
X175353424Y-101933800D01*
X175464576Y-101933800D01*
X176226576Y-101933800D01*
X176248200Y-101924843D01*
X176248200Y-102095156D01*
X176226576Y-102086200D01*
X176115424Y-102086200D01*
X175353424Y-102086200D01*
X175250733Y-102128736D01*
X175172136Y-102207333D01*
X175129600Y-102310024D01*
X175129600Y-102421176D01*
X175129600Y-102809042D01*
X175034671Y-102903971D01*
X174941069Y-103044057D01*
X174908200Y-103209300D01*
X174908200Y-104961801D01*
X174782747Y-105087035D01*
X174687808Y-105315674D01*
X174687592Y-105563240D01*
X174782132Y-105792044D01*
X174957035Y-105967253D01*
X175185674Y-106062192D01*
X175433240Y-106062408D01*
X175662044Y-105967868D01*
X175837253Y-105792965D01*
X175932192Y-105564326D01*
X175932408Y-105316760D01*
X175837868Y-105087956D01*
X175771800Y-105021772D01*
X175771800Y-103432400D01*
X176226576Y-103432400D01*
X176248200Y-103423443D01*
X176248200Y-103810000D01*
X176281069Y-103975243D01*
X176374671Y-104115329D01*
X176654728Y-104395385D01*
X176654731Y-104395389D01*
X176654732Y-104395389D01*
X176748334Y-104457932D01*
X176794817Y-104488991D01*
X176794818Y-104488992D01*
X176921750Y-104514240D01*
X176921750Y-104646016D01*
X176964286Y-104748707D01*
X177042883Y-104827304D01*
X177145574Y-104869840D01*
X177256726Y-104869840D01*
X179255706Y-104869840D01*
X179358200Y-104827385D01*
X179358200Y-104951142D01*
G36*
X187182089Y-118940000D02*
X187180100Y-118950000D01*
X187180100Y-119263718D01*
X187017062Y-120083362D01*
X186578988Y-120738988D01*
X185923363Y-121177062D01*
X185103718Y-121340100D01*
X184306400Y-121340100D01*
X184306400Y-120494076D01*
X184306400Y-120382924D01*
X184306400Y-118985924D01*
X184263864Y-118883233D01*
X184242900Y-118862269D01*
X184242900Y-118312500D01*
X184192630Y-118059776D01*
X184049473Y-117845527D01*
X184006200Y-117802254D01*
X184006200Y-117310824D01*
X183993500Y-117280163D01*
X183993500Y-116563636D01*
X184006200Y-116532976D01*
X184006200Y-116421824D01*
X184006200Y-116357246D01*
X184039473Y-116323973D01*
X184039474Y-116323973D01*
X184182630Y-116109724D01*
X184232900Y-115857000D01*
X184232900Y-114620000D01*
X184232900Y-113872500D01*
X184182630Y-113619776D01*
X184105900Y-113504941D01*
X184105900Y-112516576D01*
X184105900Y-112405424D01*
X184105900Y-111643424D01*
X184063364Y-111540733D01*
X183984767Y-111462136D01*
X183882076Y-111419600D01*
X183770924Y-111419600D01*
X183262924Y-111419600D01*
X183160233Y-111462136D01*
X183081636Y-111540733D01*
X183039100Y-111643424D01*
X183039100Y-111754576D01*
X183039100Y-112516576D01*
X183081636Y-112619267D01*
X183160233Y-112697864D01*
X183262924Y-112740400D01*
X183374076Y-112740400D01*
X183882076Y-112740400D01*
X183984767Y-112697864D01*
X184063364Y-112619267D01*
X184105900Y-112516576D01*
X184105900Y-113504941D01*
X184039473Y-113405527D01*
X184039473Y-113405526D01*
X183686973Y-113053027D01*
X183472724Y-112909870D01*
X183220000Y-112859600D01*
X182070000Y-112859600D01*
X181817276Y-112909870D01*
X181603027Y-113053027D01*
X181200527Y-113455527D01*
X181057370Y-113669776D01*
X181007100Y-113922500D01*
X181007100Y-114620000D01*
X181057370Y-114872724D01*
X181134100Y-114987558D01*
X181134100Y-115056576D01*
X181176636Y-115159267D01*
X181255233Y-115237864D01*
X181357924Y-115280400D01*
X181469076Y-115280400D01*
X181667500Y-115280400D01*
X181977076Y-115280400D01*
X182079767Y-115237864D01*
X182158364Y-115159267D01*
X182200900Y-115056576D01*
X182200900Y-114987558D01*
X182277630Y-114872724D01*
X182327900Y-114620000D01*
X182327900Y-114196046D01*
X182343546Y-114180400D01*
X182912100Y-114180400D01*
X182912100Y-114620000D01*
X182912100Y-115436000D01*
X182883824Y-115436000D01*
X182781133Y-115478536D01*
X182702536Y-115557133D01*
X182660000Y-115659824D01*
X182660000Y-115770976D01*
X182660000Y-116532976D01*
X182672700Y-116563636D01*
X182672700Y-117280163D01*
X182660000Y-117310824D01*
X182660000Y-117421976D01*
X182660000Y-118183976D01*
X182702536Y-118286667D01*
X182720804Y-118304935D01*
X182722970Y-118315824D01*
X182866127Y-118530073D01*
X182922100Y-118586046D01*
X182922100Y-118862269D01*
X182901136Y-118883233D01*
X182858600Y-118985924D01*
X182858600Y-119097076D01*
X182858600Y-120494076D01*
X182901136Y-120596767D01*
X182979733Y-120675364D01*
X183082424Y-120717900D01*
X183193576Y-120717900D01*
X184082576Y-120717900D01*
X184185267Y-120675364D01*
X184263864Y-120596767D01*
X184306400Y-120494076D01*
X184306400Y-121340100D01*
X164796281Y-121340100D01*
X163976637Y-121177062D01*
X163321011Y-120738988D01*
X162882937Y-120083363D01*
X162719900Y-119263718D01*
X162719900Y-119040000D01*
X162719900Y-115762551D01*
X162929324Y-115972341D01*
X163311944Y-116131219D01*
X163726238Y-116131580D01*
X164109135Y-115973371D01*
X164402341Y-115680676D01*
X164478859Y-115496400D01*
X164900000Y-115496400D01*
X165055522Y-115465465D01*
X165055523Y-115465465D01*
X165187368Y-115377368D01*
X165632800Y-114931936D01*
X165632800Y-114944576D01*
X165632800Y-115706576D01*
X165645500Y-115737236D01*
X165645500Y-116090000D01*
X165645500Y-116402763D01*
X165632800Y-116433424D01*
X165632800Y-116544576D01*
X165632800Y-117306576D01*
X165675336Y-117409267D01*
X165753933Y-117487864D01*
X165856624Y-117530400D01*
X165967776Y-117530400D01*
X166305900Y-117530400D01*
X166755176Y-117530400D01*
X166857867Y-117487864D01*
X166936464Y-117409267D01*
X166979000Y-117306576D01*
X166979000Y-117195424D01*
X166979000Y-116433424D01*
X166966300Y-116402763D01*
X166966300Y-116090000D01*
X166966300Y-115737236D01*
X166979000Y-115706576D01*
X166979000Y-115595424D01*
X166979000Y-114833424D01*
X166966300Y-114802763D01*
X166966300Y-114440000D01*
X166966300Y-114147236D01*
X166979000Y-114116576D01*
X166979000Y-114005424D01*
X166979000Y-113393400D01*
X169925942Y-113393400D01*
X169714671Y-113604671D01*
X169621069Y-113744757D01*
X169588200Y-113910000D01*
X169588200Y-115841142D01*
X168837469Y-116591873D01*
X168743867Y-116731959D01*
X168710998Y-116897202D01*
X168710998Y-117998344D01*
X168671142Y-118038200D01*
X168477600Y-118038200D01*
X168477600Y-118033424D01*
X168435064Y-117930733D01*
X168356467Y-117852136D01*
X168253776Y-117809600D01*
X168142624Y-117809600D01*
X167355224Y-117809600D01*
X167252533Y-117852136D01*
X167173936Y-117930733D01*
X167131400Y-118033424D01*
X167131400Y-118144576D01*
X167131400Y-118906576D01*
X167173936Y-119009267D01*
X167252533Y-119087864D01*
X167355224Y-119130400D01*
X167466376Y-119130400D01*
X168253776Y-119130400D01*
X168356467Y-119087864D01*
X168435064Y-119009267D01*
X168477600Y-118906576D01*
X168477600Y-118901800D01*
X168850000Y-118901800D01*
X169015242Y-118868931D01*
X169015243Y-118868931D01*
X169155329Y-118775329D01*
X169168200Y-118762458D01*
X169168200Y-119541142D01*
X169095142Y-119614200D01*
X168477600Y-119614200D01*
X168477600Y-119609424D01*
X168435064Y-119506733D01*
X168356467Y-119428136D01*
X168253776Y-119385600D01*
X168142624Y-119385600D01*
X167355224Y-119385600D01*
X167252533Y-119428136D01*
X167173936Y-119506733D01*
X167131400Y-119609424D01*
X167131400Y-119720576D01*
X167131400Y-120482576D01*
X167173936Y-120585267D01*
X167252533Y-120663864D01*
X167355224Y-120706400D01*
X167466376Y-120706400D01*
X168253776Y-120706400D01*
X168356467Y-120663864D01*
X168435064Y-120585267D01*
X168477600Y-120482576D01*
X168477600Y-120477800D01*
X169274000Y-120477800D01*
X169439242Y-120444931D01*
X169439243Y-120444931D01*
X169579329Y-120351329D01*
X169905325Y-120025331D01*
X169905329Y-120025329D01*
X169905329Y-120025328D01*
X169967872Y-119931726D01*
X169998931Y-119885243D01*
X169998932Y-119885242D01*
X170031800Y-119720000D01*
X170031801Y-119720000D01*
X170031800Y-119719994D01*
X170031800Y-117590000D01*
X170031800Y-117388858D01*
X170168858Y-117251800D01*
X171120000Y-117251800D01*
X173868069Y-117251800D01*
X173863136Y-117256733D01*
X173820600Y-117359424D01*
X173820600Y-117470576D01*
X173820600Y-118820576D01*
X173863136Y-118923267D01*
X173941733Y-119001864D01*
X174044424Y-119044400D01*
X174155576Y-119044400D01*
X174555576Y-119044400D01*
X174625000Y-119015643D01*
X174694424Y-119044400D01*
X174805576Y-119044400D01*
X175205576Y-119044400D01*
X175275000Y-119015643D01*
X175344424Y-119044400D01*
X175455576Y-119044400D01*
X175855576Y-119044400D01*
X175925000Y-119015643D01*
X175994424Y-119044400D01*
X176105576Y-119044400D01*
X176505576Y-119044400D01*
X176608267Y-119001864D01*
X176686864Y-118923267D01*
X176729400Y-118820576D01*
X176729400Y-118709424D01*
X176729400Y-118314173D01*
X176742797Y-118294123D01*
X176783400Y-118090000D01*
X176783400Y-117640000D01*
X176783400Y-117170000D01*
X176783400Y-116980400D01*
X179506453Y-116980400D01*
X179679600Y-117153546D01*
X179679600Y-119460000D01*
X179729870Y-119712724D01*
X179873027Y-119926973D01*
X180153027Y-120206973D01*
X180367276Y-120350130D01*
X180620000Y-120400400D01*
X180953600Y-120400400D01*
X180953600Y-120494076D01*
X180996136Y-120596767D01*
X181074733Y-120675364D01*
X181177424Y-120717900D01*
X181288576Y-120717900D01*
X182177576Y-120717900D01*
X182280267Y-120675364D01*
X182358864Y-120596767D01*
X182401400Y-120494076D01*
X182401400Y-120382924D01*
X182401400Y-118985924D01*
X182358864Y-118883233D01*
X182280267Y-118804636D01*
X182177576Y-118762100D01*
X182066424Y-118762100D01*
X181177424Y-118762100D01*
X181074733Y-118804636D01*
X181000400Y-118878969D01*
X181000400Y-116880000D01*
X180950130Y-116627276D01*
X180806974Y-116413027D01*
X180246973Y-115853027D01*
X180032724Y-115709870D01*
X179780000Y-115659600D01*
X179528222Y-115659600D01*
X179557410Y-115589136D01*
X179557410Y-115477984D01*
X179557410Y-114080984D01*
X179514874Y-113978293D01*
X179436277Y-113899696D01*
X179333586Y-113857160D01*
X179222434Y-113857160D01*
X178874454Y-113857160D01*
X178778900Y-113896739D01*
X178683346Y-113857160D01*
X178572194Y-113857160D01*
X178224214Y-113857160D01*
X178121523Y-113899696D01*
X178042926Y-113978293D01*
X178000390Y-114080984D01*
X178000390Y-114192136D01*
X178000390Y-115589136D01*
X178029577Y-115659600D01*
X176927262Y-115659600D01*
X176956450Y-115589136D01*
X176956450Y-115477984D01*
X176956450Y-114080984D01*
X176913914Y-113978293D01*
X176835317Y-113899696D01*
X176732626Y-113857160D01*
X176621474Y-113857160D01*
X176284620Y-113857160D01*
X176284620Y-113030000D01*
X176284620Y-112200000D01*
X176284620Y-111602820D01*
X176251751Y-111437578D01*
X176251751Y-111437577D01*
X176158149Y-111297491D01*
X175931201Y-111070543D01*
X176003240Y-111070606D01*
X176232044Y-110976066D01*
X176328280Y-110879998D01*
X176609340Y-110879998D01*
X176808200Y-111078857D01*
X176808200Y-111460000D01*
X176841069Y-111625243D01*
X176934671Y-111765329D01*
X177244671Y-112075329D01*
X177384757Y-112168931D01*
X177550000Y-112201800D01*
X179201748Y-112201800D01*
X179297035Y-112297253D01*
X179525674Y-112392192D01*
X179773240Y-112392408D01*
X180002044Y-112297868D01*
X180088200Y-112211862D01*
X180088200Y-112307985D01*
X179997808Y-112525674D01*
X179997592Y-112773240D01*
X180092132Y-113002044D01*
X180267035Y-113177253D01*
X180495674Y-113272192D01*
X180743240Y-113272408D01*
X180972044Y-113177868D01*
X181147253Y-113002965D01*
X181242192Y-112774326D01*
X181242270Y-112684901D01*
X181255233Y-112697864D01*
X181357924Y-112740400D01*
X181469076Y-112740400D01*
X181667500Y-112740400D01*
X181977076Y-112740400D01*
X182079767Y-112697864D01*
X182158364Y-112619267D01*
X182200900Y-112516576D01*
X182200900Y-112447558D01*
X182277630Y-112332724D01*
X182327900Y-112080000D01*
X182327900Y-111272123D01*
X182386467Y-111247864D01*
X182465064Y-111169267D01*
X182507600Y-111066576D01*
X182507600Y-110955424D01*
X182507600Y-110193424D01*
X182494900Y-110162763D01*
X182494900Y-109810000D01*
X182494900Y-109387236D01*
X182507600Y-109356576D01*
X182507600Y-109245424D01*
X182507600Y-108483424D01*
X182494900Y-108452763D01*
X182494900Y-107884500D01*
X182444630Y-107631776D01*
X182392260Y-107553400D01*
X182859058Y-107553400D01*
X183182826Y-107877167D01*
X183182829Y-107877171D01*
X183182830Y-107877171D01*
X183355877Y-107992797D01*
X183560000Y-108033401D01*
X183560000Y-108033400D01*
X183560005Y-108033400D01*
X183900000Y-108033400D01*
X185160000Y-108033400D01*
X185485995Y-108033400D01*
X185496629Y-108059135D01*
X185789324Y-108352341D01*
X186171944Y-108511219D01*
X186586238Y-108511580D01*
X186969135Y-108353371D01*
X187180100Y-108142773D01*
X187180100Y-109337448D01*
X186970676Y-109127659D01*
X186588056Y-108968781D01*
X186173762Y-108968420D01*
X185790865Y-109126629D01*
X185497659Y-109419324D01*
X185338781Y-109801944D01*
X185338420Y-110216238D01*
X185496629Y-110599135D01*
X185789324Y-110892341D01*
X186171944Y-111051219D01*
X186586238Y-111051580D01*
X186969135Y-110893371D01*
X187180100Y-110682773D01*
X187180100Y-111877448D01*
X186970676Y-111667659D01*
X186588056Y-111508781D01*
X186173762Y-111508420D01*
X185790865Y-111666629D01*
X185497659Y-111959324D01*
X185338781Y-112341944D01*
X185338420Y-112756238D01*
X185496629Y-113139135D01*
X185789324Y-113432341D01*
X186171944Y-113591219D01*
X186586238Y-113591580D01*
X186969135Y-113433371D01*
X187180100Y-113222773D01*
X187180100Y-116957448D01*
X186970676Y-116747659D01*
X186588056Y-116588781D01*
X186173762Y-116588420D01*
X185790865Y-116746629D01*
X185497659Y-117039324D01*
X185338781Y-117421944D01*
X185338420Y-117836238D01*
X185496629Y-118219135D01*
X185789324Y-118512341D01*
X186171944Y-118671219D01*
X186586238Y-118671580D01*
X186969135Y-118513371D01*
X187180100Y-118302773D01*
X187180100Y-118930000D01*
X187182089Y-118940000D01*
X187182089Y-118940000D01*
G37*
X187182089Y-118940000D02*
X187180100Y-118950000D01*
X187180100Y-119263718D01*
X187017062Y-120083362D01*
X186578988Y-120738988D01*
X185923363Y-121177062D01*
X185103718Y-121340100D01*
X184306400Y-121340100D01*
X184306400Y-120494076D01*
X184306400Y-120382924D01*
X184306400Y-118985924D01*
X184263864Y-118883233D01*
X184242900Y-118862269D01*
X184242900Y-118312500D01*
X184192630Y-118059776D01*
X184049473Y-117845527D01*
X184006200Y-117802254D01*
X184006200Y-117310824D01*
X183993500Y-117280163D01*
X183993500Y-116563636D01*
X184006200Y-116532976D01*
X184006200Y-116421824D01*
X184006200Y-116357246D01*
X184039473Y-116323973D01*
X184039474Y-116323973D01*
X184182630Y-116109724D01*
X184232900Y-115857000D01*
X184232900Y-114620000D01*
X184232900Y-113872500D01*
X184182630Y-113619776D01*
X184105900Y-113504941D01*
X184105900Y-112516576D01*
X184105900Y-112405424D01*
X184105900Y-111643424D01*
X184063364Y-111540733D01*
X183984767Y-111462136D01*
X183882076Y-111419600D01*
X183770924Y-111419600D01*
X183262924Y-111419600D01*
X183160233Y-111462136D01*
X183081636Y-111540733D01*
X183039100Y-111643424D01*
X183039100Y-111754576D01*
X183039100Y-112516576D01*
X183081636Y-112619267D01*
X183160233Y-112697864D01*
X183262924Y-112740400D01*
X183374076Y-112740400D01*
X183882076Y-112740400D01*
X183984767Y-112697864D01*
X184063364Y-112619267D01*
X184105900Y-112516576D01*
X184105900Y-113504941D01*
X184039473Y-113405527D01*
X184039473Y-113405526D01*
X183686973Y-113053027D01*
X183472724Y-112909870D01*
X183220000Y-112859600D01*
X182070000Y-112859600D01*
X181817276Y-112909870D01*
X181603027Y-113053027D01*
X181200527Y-113455527D01*
X181057370Y-113669776D01*
X181007100Y-113922500D01*
X181007100Y-114620000D01*
X181057370Y-114872724D01*
X181134100Y-114987558D01*
X181134100Y-115056576D01*
X181176636Y-115159267D01*
X181255233Y-115237864D01*
X181357924Y-115280400D01*
X181469076Y-115280400D01*
X181667500Y-115280400D01*
X181977076Y-115280400D01*
X182079767Y-115237864D01*
X182158364Y-115159267D01*
X182200900Y-115056576D01*
X182200900Y-114987558D01*
X182277630Y-114872724D01*
X182327900Y-114620000D01*
X182327900Y-114196046D01*
X182343546Y-114180400D01*
X182912100Y-114180400D01*
X182912100Y-114620000D01*
X182912100Y-115436000D01*
X182883824Y-115436000D01*
X182781133Y-115478536D01*
X182702536Y-115557133D01*
X182660000Y-115659824D01*
X182660000Y-115770976D01*
X182660000Y-116532976D01*
X182672700Y-116563636D01*
X182672700Y-117280163D01*
X182660000Y-117310824D01*
X182660000Y-117421976D01*
X182660000Y-118183976D01*
X182702536Y-118286667D01*
X182720804Y-118304935D01*
X182722970Y-118315824D01*
X182866127Y-118530073D01*
X182922100Y-118586046D01*
X182922100Y-118862269D01*
X182901136Y-118883233D01*
X182858600Y-118985924D01*
X182858600Y-119097076D01*
X182858600Y-120494076D01*
X182901136Y-120596767D01*
X182979733Y-120675364D01*
X183082424Y-120717900D01*
X183193576Y-120717900D01*
X184082576Y-120717900D01*
X184185267Y-120675364D01*
X184263864Y-120596767D01*
X184306400Y-120494076D01*
X184306400Y-121340100D01*
X164796281Y-121340100D01*
X163976637Y-121177062D01*
X163321011Y-120738988D01*
X162882937Y-120083363D01*
X162719900Y-119263718D01*
X162719900Y-119040000D01*
X162719900Y-115762551D01*
X162929324Y-115972341D01*
X163311944Y-116131219D01*
X163726238Y-116131580D01*
X164109135Y-115973371D01*
X164402341Y-115680676D01*
X164478859Y-115496400D01*
X164900000Y-115496400D01*
X165055522Y-115465465D01*
X165055523Y-115465465D01*
X165187368Y-115377368D01*
X165632800Y-114931936D01*
X165632800Y-114944576D01*
X165632800Y-115706576D01*
X165645500Y-115737236D01*
X165645500Y-116090000D01*
X165645500Y-116402763D01*
X165632800Y-116433424D01*
X165632800Y-116544576D01*
X165632800Y-117306576D01*
X165675336Y-117409267D01*
X165753933Y-117487864D01*
X165856624Y-117530400D01*
X165967776Y-117530400D01*
X166305900Y-117530400D01*
X166755176Y-117530400D01*
X166857867Y-117487864D01*
X166936464Y-117409267D01*
X166979000Y-117306576D01*
X166979000Y-117195424D01*
X166979000Y-116433424D01*
X166966300Y-116402763D01*
X166966300Y-116090000D01*
X166966300Y-115737236D01*
X166979000Y-115706576D01*
X166979000Y-115595424D01*
X166979000Y-114833424D01*
X166966300Y-114802763D01*
X166966300Y-114440000D01*
X166966300Y-114147236D01*
X166979000Y-114116576D01*
X166979000Y-114005424D01*
X166979000Y-113393400D01*
X169925942Y-113393400D01*
X169714671Y-113604671D01*
X169621069Y-113744757D01*
X169588200Y-113910000D01*
X169588200Y-115841142D01*
X168837469Y-116591873D01*
X168743867Y-116731959D01*
X168710998Y-116897202D01*
X168710998Y-117998344D01*
X168671142Y-118038200D01*
X168477600Y-118038200D01*
X168477600Y-118033424D01*
X168435064Y-117930733D01*
X168356467Y-117852136D01*
X168253776Y-117809600D01*
X168142624Y-117809600D01*
X167355224Y-117809600D01*
X167252533Y-117852136D01*
X167173936Y-117930733D01*
X167131400Y-118033424D01*
X167131400Y-118144576D01*
X167131400Y-118906576D01*
X167173936Y-119009267D01*
X167252533Y-119087864D01*
X167355224Y-119130400D01*
X167466376Y-119130400D01*
X168253776Y-119130400D01*
X168356467Y-119087864D01*
X168435064Y-119009267D01*
X168477600Y-118906576D01*
X168477600Y-118901800D01*
X168850000Y-118901800D01*
X169015242Y-118868931D01*
X169015243Y-118868931D01*
X169155329Y-118775329D01*
X169168200Y-118762458D01*
X169168200Y-119541142D01*
X169095142Y-119614200D01*
X168477600Y-119614200D01*
X168477600Y-119609424D01*
X168435064Y-119506733D01*
X168356467Y-119428136D01*
X168253776Y-119385600D01*
X168142624Y-119385600D01*
X167355224Y-119385600D01*
X167252533Y-119428136D01*
X167173936Y-119506733D01*
X167131400Y-119609424D01*
X167131400Y-119720576D01*
X167131400Y-120482576D01*
X167173936Y-120585267D01*
X167252533Y-120663864D01*
X167355224Y-120706400D01*
X167466376Y-120706400D01*
X168253776Y-120706400D01*
X168356467Y-120663864D01*
X168435064Y-120585267D01*
X168477600Y-120482576D01*
X168477600Y-120477800D01*
X169274000Y-120477800D01*
X169439242Y-120444931D01*
X169439243Y-120444931D01*
X169579329Y-120351329D01*
X169905325Y-120025331D01*
X169905329Y-120025329D01*
X169905329Y-120025328D01*
X169967872Y-119931726D01*
X169998931Y-119885243D01*
X169998932Y-119885242D01*
X170031800Y-119720000D01*
X170031801Y-119720000D01*
X170031800Y-119719994D01*
X170031800Y-117590000D01*
X170031800Y-117388858D01*
X170168858Y-117251800D01*
X171120000Y-117251800D01*
X173868069Y-117251800D01*
X173863136Y-117256733D01*
X173820600Y-117359424D01*
X173820600Y-117470576D01*
X173820600Y-118820576D01*
X173863136Y-118923267D01*
X173941733Y-119001864D01*
X174044424Y-119044400D01*
X174155576Y-119044400D01*
X174555576Y-119044400D01*
X174625000Y-119015643D01*
X174694424Y-119044400D01*
X174805576Y-119044400D01*
X175205576Y-119044400D01*
X175275000Y-119015643D01*
X175344424Y-119044400D01*
X175455576Y-119044400D01*
X175855576Y-119044400D01*
X175925000Y-119015643D01*
X175994424Y-119044400D01*
X176105576Y-119044400D01*
X176505576Y-119044400D01*
X176608267Y-119001864D01*
X176686864Y-118923267D01*
X176729400Y-118820576D01*
X176729400Y-118709424D01*
X176729400Y-118314173D01*
X176742797Y-118294123D01*
X176783400Y-118090000D01*
X176783400Y-117640000D01*
X176783400Y-117170000D01*
X176783400Y-116980400D01*
X179506453Y-116980400D01*
X179679600Y-117153546D01*
X179679600Y-119460000D01*
X179729870Y-119712724D01*
X179873027Y-119926973D01*
X180153027Y-120206973D01*
X180367276Y-120350130D01*
X180620000Y-120400400D01*
X180953600Y-120400400D01*
X180953600Y-120494076D01*
X180996136Y-120596767D01*
X181074733Y-120675364D01*
X181177424Y-120717900D01*
X181288576Y-120717900D01*
X182177576Y-120717900D01*
X182280267Y-120675364D01*
X182358864Y-120596767D01*
X182401400Y-120494076D01*
X182401400Y-120382924D01*
X182401400Y-118985924D01*
X182358864Y-118883233D01*
X182280267Y-118804636D01*
X182177576Y-118762100D01*
X182066424Y-118762100D01*
X181177424Y-118762100D01*
X181074733Y-118804636D01*
X181000400Y-118878969D01*
X181000400Y-116880000D01*
X180950130Y-116627276D01*
X180806974Y-116413027D01*
X180246973Y-115853027D01*
X180032724Y-115709870D01*
X179780000Y-115659600D01*
X179528222Y-115659600D01*
X179557410Y-115589136D01*
X179557410Y-115477984D01*
X179557410Y-114080984D01*
X179514874Y-113978293D01*
X179436277Y-113899696D01*
X179333586Y-113857160D01*
X179222434Y-113857160D01*
X178874454Y-113857160D01*
X178778900Y-113896739D01*
X178683346Y-113857160D01*
X178572194Y-113857160D01*
X178224214Y-113857160D01*
X178121523Y-113899696D01*
X178042926Y-113978293D01*
X178000390Y-114080984D01*
X178000390Y-114192136D01*
X178000390Y-115589136D01*
X178029577Y-115659600D01*
X176927262Y-115659600D01*
X176956450Y-115589136D01*
X176956450Y-115477984D01*
X176956450Y-114080984D01*
X176913914Y-113978293D01*
X176835317Y-113899696D01*
X176732626Y-113857160D01*
X176621474Y-113857160D01*
X176284620Y-113857160D01*
X176284620Y-113030000D01*
X176284620Y-112200000D01*
X176284620Y-111602820D01*
X176251751Y-111437578D01*
X176251751Y-111437577D01*
X176158149Y-111297491D01*
X175931201Y-111070543D01*
X176003240Y-111070606D01*
X176232044Y-110976066D01*
X176328280Y-110879998D01*
X176609340Y-110879998D01*
X176808200Y-111078857D01*
X176808200Y-111460000D01*
X176841069Y-111625243D01*
X176934671Y-111765329D01*
X177244671Y-112075329D01*
X177384757Y-112168931D01*
X177550000Y-112201800D01*
X179201748Y-112201800D01*
X179297035Y-112297253D01*
X179525674Y-112392192D01*
X179773240Y-112392408D01*
X180002044Y-112297868D01*
X180088200Y-112211862D01*
X180088200Y-112307985D01*
X179997808Y-112525674D01*
X179997592Y-112773240D01*
X180092132Y-113002044D01*
X180267035Y-113177253D01*
X180495674Y-113272192D01*
X180743240Y-113272408D01*
X180972044Y-113177868D01*
X181147253Y-113002965D01*
X181242192Y-112774326D01*
X181242270Y-112684901D01*
X181255233Y-112697864D01*
X181357924Y-112740400D01*
X181469076Y-112740400D01*
X181667500Y-112740400D01*
X181977076Y-112740400D01*
X182079767Y-112697864D01*
X182158364Y-112619267D01*
X182200900Y-112516576D01*
X182200900Y-112447558D01*
X182277630Y-112332724D01*
X182327900Y-112080000D01*
X182327900Y-111272123D01*
X182386467Y-111247864D01*
X182465064Y-111169267D01*
X182507600Y-111066576D01*
X182507600Y-110955424D01*
X182507600Y-110193424D01*
X182494900Y-110162763D01*
X182494900Y-109810000D01*
X182494900Y-109387236D01*
X182507600Y-109356576D01*
X182507600Y-109245424D01*
X182507600Y-108483424D01*
X182494900Y-108452763D01*
X182494900Y-107884500D01*
X182444630Y-107631776D01*
X182392260Y-107553400D01*
X182859058Y-107553400D01*
X183182826Y-107877167D01*
X183182829Y-107877171D01*
X183182830Y-107877171D01*
X183355877Y-107992797D01*
X183560000Y-108033401D01*
X183560000Y-108033400D01*
X183560005Y-108033400D01*
X183900000Y-108033400D01*
X185160000Y-108033400D01*
X185485995Y-108033400D01*
X185496629Y-108059135D01*
X185789324Y-108352341D01*
X186171944Y-108511219D01*
X186586238Y-108511580D01*
X186969135Y-108353371D01*
X187180100Y-108142773D01*
X187180100Y-109337448D01*
X186970676Y-109127659D01*
X186588056Y-108968781D01*
X186173762Y-108968420D01*
X185790865Y-109126629D01*
X185497659Y-109419324D01*
X185338781Y-109801944D01*
X185338420Y-110216238D01*
X185496629Y-110599135D01*
X185789324Y-110892341D01*
X186171944Y-111051219D01*
X186586238Y-111051580D01*
X186969135Y-110893371D01*
X187180100Y-110682773D01*
X187180100Y-111877448D01*
X186970676Y-111667659D01*
X186588056Y-111508781D01*
X186173762Y-111508420D01*
X185790865Y-111666629D01*
X185497659Y-111959324D01*
X185338781Y-112341944D01*
X185338420Y-112756238D01*
X185496629Y-113139135D01*
X185789324Y-113432341D01*
X186171944Y-113591219D01*
X186586238Y-113591580D01*
X186969135Y-113433371D01*
X187180100Y-113222773D01*
X187180100Y-116957448D01*
X186970676Y-116747659D01*
X186588056Y-116588781D01*
X186173762Y-116588420D01*
X185790865Y-116746629D01*
X185497659Y-117039324D01*
X185338781Y-117421944D01*
X185338420Y-117836238D01*
X185496629Y-118219135D01*
X185789324Y-118512341D01*
X186171944Y-118671219D01*
X186586238Y-118671580D01*
X186969135Y-118513371D01*
X187180100Y-118302773D01*
X187180100Y-118930000D01*
X187182089Y-118940000D01*
G36*
X187494181Y-96791094D02*
X187470177Y-96795869D01*
X187386634Y-96851691D01*
X187370731Y-96860586D01*
X187367840Y-96864248D01*
X187332400Y-96887929D01*
X187263371Y-96720865D01*
X186970676Y-96427659D01*
X186588056Y-96268781D01*
X186173762Y-96268420D01*
X185790865Y-96426629D01*
X185497659Y-96719324D01*
X185455526Y-96820790D01*
X184762259Y-96127523D01*
X184762408Y-95956760D01*
X184667868Y-95727956D01*
X184492965Y-95552747D01*
X184393630Y-95511500D01*
X184396864Y-95508267D01*
X184439400Y-95405576D01*
X184439400Y-95294424D01*
X184439400Y-93894424D01*
X184396864Y-93791733D01*
X184318267Y-93713136D01*
X184317991Y-93713021D01*
X184392192Y-93534326D01*
X184392210Y-93512920D01*
X184396864Y-93508267D01*
X184439400Y-93405576D01*
X184439400Y-93294424D01*
X184439400Y-91894424D01*
X184396864Y-91791733D01*
X184318267Y-91713136D01*
X184215576Y-91670600D01*
X184104424Y-91670600D01*
X181904424Y-91670600D01*
X181801733Y-91713136D01*
X181723136Y-91791733D01*
X181680600Y-91894424D01*
X181680600Y-92005576D01*
X181680600Y-93405576D01*
X181723136Y-93508267D01*
X181801733Y-93586864D01*
X181904424Y-93629400D01*
X182015576Y-93629400D01*
X183187324Y-93629400D01*
X183204348Y-93670600D01*
X181904424Y-93670600D01*
X181801733Y-93713136D01*
X181723136Y-93791733D01*
X181680600Y-93894424D01*
X181680600Y-94005576D01*
X181680600Y-95370600D01*
X181604424Y-95370600D01*
X180204424Y-95370600D01*
X180101733Y-95413136D01*
X180023136Y-95491733D01*
X179980600Y-95594424D01*
X179980600Y-95705576D01*
X179980600Y-97679942D01*
X179939400Y-97638742D01*
X179939400Y-95594424D01*
X179896864Y-95491733D01*
X179818267Y-95413136D01*
X179715576Y-95370600D01*
X179604424Y-95370600D01*
X178204424Y-95370600D01*
X178101733Y-95413136D01*
X178023136Y-95491733D01*
X177980600Y-95594424D01*
X177980600Y-95705576D01*
X177980600Y-97905576D01*
X178023136Y-98008267D01*
X178101733Y-98086864D01*
X178204424Y-98129400D01*
X178315576Y-98129400D01*
X179208742Y-98129400D01*
X179358200Y-98278858D01*
X179358200Y-98703858D01*
X178977171Y-98322829D01*
X178804123Y-98207203D01*
X178600000Y-98166600D01*
X177630942Y-98166600D01*
X177593742Y-98129400D01*
X177715576Y-98129400D01*
X177818267Y-98086864D01*
X177896864Y-98008267D01*
X177939400Y-97905576D01*
X177939400Y-97794424D01*
X177939400Y-95594424D01*
X177896864Y-95491733D01*
X177818267Y-95413136D01*
X177715576Y-95370600D01*
X177604424Y-95370600D01*
X176204424Y-95370600D01*
X176101733Y-95413136D01*
X176023136Y-95491733D01*
X175980600Y-95594424D01*
X175980600Y-95705576D01*
X175980600Y-97905576D01*
X176023136Y-98008267D01*
X176101733Y-98086864D01*
X176204424Y-98129400D01*
X176315576Y-98129400D01*
X176416600Y-98129400D01*
X176416600Y-98240000D01*
X176457203Y-98444123D01*
X176572829Y-98617171D01*
X177032829Y-99077171D01*
X177205876Y-99192797D01*
X177205877Y-99192797D01*
X177410000Y-99233400D01*
X178379058Y-99233400D01*
X178431116Y-99285458D01*
X178397808Y-99365674D01*
X178397592Y-99613240D01*
X178492132Y-99842044D01*
X178667035Y-100017253D01*
X178895674Y-100112192D01*
X179143240Y-100112408D01*
X179358200Y-100023588D01*
X179358200Y-103352734D01*
X179255706Y-103310280D01*
X179144554Y-103310280D01*
X177145574Y-103310280D01*
X177111800Y-103324269D01*
X177111800Y-100790000D01*
X177078931Y-100624757D01*
X176985329Y-100484671D01*
X176985325Y-100484668D01*
X176665329Y-100164671D01*
X176525243Y-100071069D01*
X176362702Y-100038737D01*
X176400130Y-99982724D01*
X176450400Y-99730000D01*
X176400130Y-99477276D01*
X176256973Y-99263027D01*
X176042724Y-99119870D01*
X175790000Y-99069600D01*
X174663546Y-99069600D01*
X174290400Y-98696453D01*
X174290400Y-98280000D01*
X174240130Y-98027276D01*
X174096973Y-97813027D01*
X173939400Y-97655454D01*
X173939400Y-95594424D01*
X173896864Y-95491733D01*
X173818267Y-95413136D01*
X173715576Y-95370600D01*
X173604424Y-95370600D01*
X172204424Y-95370600D01*
X172101733Y-95413136D01*
X172023136Y-95491733D01*
X171980600Y-95594424D01*
X171980600Y-95705576D01*
X171980600Y-97905576D01*
X172023136Y-98008267D01*
X172101733Y-98086864D01*
X172204424Y-98129400D01*
X172315576Y-98129400D01*
X172545454Y-98129400D01*
X172546654Y-98130600D01*
X171954424Y-98130600D01*
X171851733Y-98173136D01*
X171773136Y-98251733D01*
X171730600Y-98354424D01*
X171730600Y-98465576D01*
X171730600Y-100718200D01*
X171700000Y-100718200D01*
X171598858Y-100718200D01*
X171503400Y-100622742D01*
X171503400Y-100040000D01*
X171483400Y-99939454D01*
X171483400Y-98129400D01*
X171715576Y-98129400D01*
X171818267Y-98086864D01*
X171896864Y-98008267D01*
X171939400Y-97905576D01*
X171939400Y-97794424D01*
X171939400Y-95594424D01*
X171896864Y-95491733D01*
X171818267Y-95413136D01*
X171715576Y-95370600D01*
X171604424Y-95370600D01*
X170204424Y-95370600D01*
X170101733Y-95413136D01*
X170023136Y-95491733D01*
X169980600Y-95594424D01*
X169980600Y-95705576D01*
X169980600Y-97905576D01*
X170023136Y-98008267D01*
X170101733Y-98086864D01*
X170204424Y-98129400D01*
X170315576Y-98129400D01*
X170416600Y-98129400D01*
X170416600Y-98151734D01*
X170365576Y-98130600D01*
X170254424Y-98130600D01*
X169664942Y-98130600D01*
X169663742Y-98129400D01*
X169715576Y-98129400D01*
X169818267Y-98086864D01*
X169896864Y-98008267D01*
X169939400Y-97905576D01*
X169939400Y-97794424D01*
X169939400Y-95594424D01*
X169896864Y-95491733D01*
X169818267Y-95413136D01*
X169715576Y-95370600D01*
X169604424Y-95370600D01*
X169145606Y-95370600D01*
X169202192Y-95234326D01*
X169202408Y-94986760D01*
X169156484Y-94875616D01*
X169272044Y-94827868D01*
X169447253Y-94652965D01*
X169542192Y-94424326D01*
X169542394Y-94192267D01*
X169703240Y-94192408D01*
X169932044Y-94097868D01*
X170107253Y-93922965D01*
X170202192Y-93694326D01*
X170202408Y-93446760D01*
X170188186Y-93412342D01*
X170263240Y-93412408D01*
X170492044Y-93317868D01*
X170667253Y-93142965D01*
X170762192Y-92914326D01*
X170762408Y-92666760D01*
X170667868Y-92437956D01*
X170496400Y-92266188D01*
X170496400Y-89965294D01*
X170705674Y-90052192D01*
X170953240Y-90052408D01*
X171182044Y-89957868D01*
X171357253Y-89782965D01*
X171452192Y-89554326D01*
X171452408Y-89306760D01*
X171357868Y-89077956D01*
X171182965Y-88902747D01*
X171096400Y-88866802D01*
X171096400Y-87466616D01*
X171097035Y-87467253D01*
X171325674Y-87562192D01*
X171573240Y-87562408D01*
X171802044Y-87467868D01*
X171977253Y-87292965D01*
X172072192Y-87064326D01*
X172072408Y-86816760D01*
X171977868Y-86587956D01*
X171802965Y-86412747D01*
X171676400Y-86360192D01*
X171676400Y-84678884D01*
X171745465Y-84575522D01*
X171776399Y-84420000D01*
X171745465Y-84264477D01*
X171676400Y-84161115D01*
X171676400Y-84029767D01*
X171702132Y-84092044D01*
X171877035Y-84267253D01*
X172105674Y-84362192D01*
X172353240Y-84362408D01*
X172582044Y-84267868D01*
X172757253Y-84092965D01*
X172852192Y-83864326D01*
X172852408Y-83616760D01*
X172763400Y-83401344D01*
X172763400Y-80800272D01*
X172773400Y-80750000D01*
X172763400Y-80699727D01*
X172763400Y-78850942D01*
X172820942Y-78793400D01*
X174710000Y-78793400D01*
X176402258Y-78793400D01*
X175872829Y-79322829D01*
X175757203Y-79495877D01*
X175716600Y-79700000D01*
X175716600Y-79989058D01*
X175619058Y-80086600D01*
X175464078Y-80086600D01*
X175274326Y-80007808D01*
X175026760Y-80007592D01*
X174797956Y-80102132D01*
X174622747Y-80277035D01*
X174527808Y-80505674D01*
X174527592Y-80753240D01*
X174586827Y-80896600D01*
X174340942Y-80896600D01*
X174223400Y-80779058D01*
X174223400Y-80008161D01*
X174312192Y-79794326D01*
X174312408Y-79546760D01*
X174217868Y-79317956D01*
X174042965Y-79142747D01*
X173814326Y-79047808D01*
X173566760Y-79047592D01*
X173337956Y-79142132D01*
X173162747Y-79317035D01*
X173067808Y-79545674D01*
X173067592Y-79793240D01*
X173156600Y-80008655D01*
X173156600Y-81000000D01*
X173197203Y-81204123D01*
X173312829Y-81377171D01*
X173742829Y-81807171D01*
X173915877Y-81922797D01*
X174120000Y-81963400D01*
X176660000Y-81963400D01*
X176864123Y-81922797D01*
X177037171Y-81807171D01*
X177660941Y-81183400D01*
X181680600Y-81183400D01*
X181680600Y-81405576D01*
X181723136Y-81508267D01*
X181801733Y-81586864D01*
X181904424Y-81629400D01*
X182015576Y-81629400D01*
X184215576Y-81629400D01*
X184318267Y-81586864D01*
X184396864Y-81508267D01*
X184439400Y-81405576D01*
X184439400Y-81294424D01*
X184439400Y-79894424D01*
X184396864Y-79791733D01*
X184318267Y-79713136D01*
X184215576Y-79670600D01*
X184104424Y-79670600D01*
X181904424Y-79670600D01*
X181801733Y-79713136D01*
X181723136Y-79791733D01*
X181680600Y-79894424D01*
X181680600Y-80005576D01*
X181680600Y-80116600D01*
X177440005Y-80116600D01*
X177440000Y-80116599D01*
X177235877Y-80157203D01*
X177062829Y-80272829D01*
X177062826Y-80272832D01*
X176439058Y-80896600D01*
X176317741Y-80896600D01*
X176627167Y-80587173D01*
X176627171Y-80587171D01*
X176627171Y-80587170D01*
X176742797Y-80414123D01*
X176783400Y-80210000D01*
X176783401Y-80210000D01*
X176783400Y-80209994D01*
X176783400Y-79920942D01*
X177000942Y-79703400D01*
X180490000Y-79703400D01*
X180694123Y-79662797D01*
X180867171Y-79547171D01*
X181230942Y-79183400D01*
X181680600Y-79183400D01*
X181680600Y-79405576D01*
X181723136Y-79508267D01*
X181801733Y-79586864D01*
X181904424Y-79629400D01*
X182015576Y-79629400D01*
X184215576Y-79629400D01*
X184318267Y-79586864D01*
X184396864Y-79508267D01*
X184439400Y-79405576D01*
X184439400Y-79294424D01*
X184439400Y-77894424D01*
X184396864Y-77791733D01*
X184318267Y-77713136D01*
X184215576Y-77670600D01*
X184104424Y-77670600D01*
X181904424Y-77670600D01*
X181801733Y-77713136D01*
X181723136Y-77791733D01*
X181680600Y-77894424D01*
X181680600Y-78005576D01*
X181680600Y-78116600D01*
X181160961Y-78116600D01*
X181196483Y-78063436D01*
X181242797Y-77994124D01*
X181242797Y-77994123D01*
X181283400Y-77790000D01*
X181283400Y-77370942D01*
X181470942Y-77183400D01*
X181680600Y-77183400D01*
X181680600Y-77405576D01*
X181723136Y-77508267D01*
X181801733Y-77586864D01*
X181904424Y-77629400D01*
X182015576Y-77629400D01*
X184215576Y-77629400D01*
X184318267Y-77586864D01*
X184396864Y-77508267D01*
X184439400Y-77405576D01*
X184439400Y-77294424D01*
X184439400Y-75894424D01*
X184396864Y-75791733D01*
X184318267Y-75713136D01*
X184215576Y-75670600D01*
X184104424Y-75670600D01*
X181904424Y-75670600D01*
X181801733Y-75713136D01*
X181723136Y-75791733D01*
X181680600Y-75894424D01*
X181680600Y-76005576D01*
X181680600Y-76116600D01*
X181250000Y-76116600D01*
X181045877Y-76157203D01*
X180872829Y-76272829D01*
X180372829Y-76772829D01*
X180257203Y-76945877D01*
X180216600Y-77150000D01*
X180216600Y-77569058D01*
X180059058Y-77726600D01*
X179920000Y-77726600D01*
X179480000Y-77726600D01*
X174710000Y-77726600D01*
X172600000Y-77726600D01*
X172395877Y-77767203D01*
X172222829Y-77882829D01*
X171852829Y-78252829D01*
X171737203Y-78425877D01*
X171696600Y-78630000D01*
X171696600Y-80750000D01*
X171696600Y-83401838D01*
X171676400Y-83450485D01*
X171676400Y-79440000D01*
X171645465Y-79284477D01*
X171557368Y-79152632D01*
X170867368Y-78462632D01*
X170735523Y-78374535D01*
X170580000Y-78343600D01*
X169636400Y-78343600D01*
X169636400Y-77990000D01*
X169605465Y-77834477D01*
X169517368Y-77702632D01*
X168806400Y-76991664D01*
X168806400Y-76900000D01*
X168775465Y-76744477D01*
X168687368Y-76612632D01*
X168437368Y-76362632D01*
X168305523Y-76274535D01*
X168239400Y-76261382D01*
X168239400Y-75894424D01*
X168196864Y-75791733D01*
X168118267Y-75713136D01*
X168015576Y-75670600D01*
X167904424Y-75670600D01*
X165704424Y-75670600D01*
X165601733Y-75713136D01*
X165523136Y-75791733D01*
X165480600Y-75894424D01*
X165480600Y-76005576D01*
X165480600Y-77405576D01*
X165523136Y-77508267D01*
X165601733Y-77586864D01*
X165704424Y-77629400D01*
X165815576Y-77629400D01*
X168015576Y-77629400D01*
X168118267Y-77586864D01*
X168185197Y-77519933D01*
X168823600Y-78158336D01*
X168823600Y-78530000D01*
X168840698Y-78615962D01*
X168587368Y-78362632D01*
X168455523Y-78274535D01*
X168300000Y-78243600D01*
X168239400Y-78243600D01*
X168239400Y-77894424D01*
X168196864Y-77791733D01*
X168118267Y-77713136D01*
X168015576Y-77670600D01*
X167904424Y-77670600D01*
X165704424Y-77670600D01*
X165601733Y-77713136D01*
X165523136Y-77791733D01*
X165480600Y-77894424D01*
X165480600Y-78005576D01*
X165480600Y-79405576D01*
X165523136Y-79508267D01*
X165601733Y-79586864D01*
X165704424Y-79629400D01*
X165815576Y-79629400D01*
X168015576Y-79629400D01*
X168118267Y-79586864D01*
X168196864Y-79508267D01*
X168239400Y-79405576D01*
X168239400Y-79294424D01*
X168239400Y-79164136D01*
X168372632Y-79297368D01*
X168652632Y-79577368D01*
X168784477Y-79665465D01*
X168784478Y-79665465D01*
X168940000Y-79696400D01*
X169961664Y-79696400D01*
X170283600Y-80018336D01*
X170283600Y-80598863D01*
X170047368Y-80362632D01*
X169915523Y-80274535D01*
X169760000Y-80243600D01*
X168239400Y-80243600D01*
X168239400Y-79894424D01*
X168196864Y-79791733D01*
X168118267Y-79713136D01*
X168015576Y-79670600D01*
X167904424Y-79670600D01*
X165704424Y-79670600D01*
X165601733Y-79713136D01*
X165523136Y-79791733D01*
X165480600Y-79894424D01*
X165480600Y-80005576D01*
X165480600Y-81405576D01*
X165523136Y-81508267D01*
X165601733Y-81586864D01*
X165704424Y-81629400D01*
X165815576Y-81629400D01*
X168015576Y-81629400D01*
X168118267Y-81586864D01*
X168196864Y-81508267D01*
X168239400Y-81405576D01*
X168239400Y-81294424D01*
X168239400Y-81056400D01*
X169591663Y-81056400D01*
X169683600Y-81148336D01*
X169683600Y-82708864D01*
X169337368Y-82362632D01*
X169205523Y-82274535D01*
X169050000Y-82243600D01*
X168239400Y-82243600D01*
X168239400Y-81894424D01*
X168196864Y-81791733D01*
X168118267Y-81713136D01*
X168015576Y-81670600D01*
X167904424Y-81670600D01*
X165704424Y-81670600D01*
X165601733Y-81713136D01*
X165523136Y-81791733D01*
X165480600Y-81894424D01*
X165480600Y-82005576D01*
X165480600Y-83405576D01*
X165523136Y-83508267D01*
X165601733Y-83586864D01*
X165704424Y-83629400D01*
X165815576Y-83629400D01*
X168015576Y-83629400D01*
X168118267Y-83586864D01*
X168196864Y-83508267D01*
X168239400Y-83405576D01*
X168239400Y-83294424D01*
X168239400Y-83056400D01*
X168881664Y-83056400D01*
X169093600Y-83268336D01*
X169093600Y-84415266D01*
X169040966Y-84362632D01*
X168909121Y-84274535D01*
X168753598Y-84243600D01*
X168239400Y-84243600D01*
X168239400Y-83894424D01*
X168196864Y-83791733D01*
X168118267Y-83713136D01*
X168015576Y-83670600D01*
X167904424Y-83670600D01*
X165704424Y-83670600D01*
X165601733Y-83713136D01*
X165523136Y-83791733D01*
X165480600Y-83894424D01*
X165480600Y-84005576D01*
X165480600Y-85405576D01*
X165523136Y-85508267D01*
X165601733Y-85586864D01*
X165704424Y-85629400D01*
X165815576Y-85629400D01*
X168015576Y-85629400D01*
X168118267Y-85586864D01*
X168196864Y-85508267D01*
X168239400Y-85405576D01*
X168239400Y-85294424D01*
X168239400Y-85056400D01*
X168585262Y-85056400D01*
X168687198Y-85158336D01*
X168687198Y-86465266D01*
X168584564Y-86362632D01*
X168452719Y-86274535D01*
X168297196Y-86243600D01*
X168239400Y-86243600D01*
X168239400Y-85894424D01*
X168196864Y-85791733D01*
X168118267Y-85713136D01*
X168015576Y-85670600D01*
X167904424Y-85670600D01*
X165704424Y-85670600D01*
X165601733Y-85713136D01*
X165523136Y-85791733D01*
X165480600Y-85894424D01*
X165480600Y-86005576D01*
X165480600Y-87405576D01*
X165523136Y-87508267D01*
X165601733Y-87586864D01*
X165704424Y-87629400D01*
X165815576Y-87629400D01*
X168015576Y-87629400D01*
X168118267Y-87586864D01*
X168196864Y-87508267D01*
X168239400Y-87405576D01*
X168239400Y-87294424D01*
X168239400Y-87166940D01*
X168280796Y-87208336D01*
X168280796Y-92734468D01*
X168239400Y-92775864D01*
X168239400Y-91894424D01*
X168196864Y-91791733D01*
X168118267Y-91713136D01*
X168015576Y-91670600D01*
X167904424Y-91670600D01*
X165707028Y-91670600D01*
X165762044Y-91647868D01*
X165780544Y-91629400D01*
X165815576Y-91629400D01*
X168015576Y-91629400D01*
X168118267Y-91586864D01*
X168196864Y-91508267D01*
X168239400Y-91405576D01*
X168239400Y-91294424D01*
X168239400Y-89894424D01*
X168196864Y-89791733D01*
X168118267Y-89713136D01*
X168015576Y-89670600D01*
X167904424Y-89670600D01*
X165704424Y-89670600D01*
X165601733Y-89713136D01*
X165523136Y-89791733D01*
X165480600Y-89894424D01*
X165480600Y-90005576D01*
X165480600Y-90474664D01*
X165457523Y-90497740D01*
X165375224Y-90497669D01*
X165379063Y-90491925D01*
X165409998Y-90336402D01*
X165409998Y-89284738D01*
X165480600Y-89214136D01*
X165480600Y-89405576D01*
X165523136Y-89508267D01*
X165601733Y-89586864D01*
X165704424Y-89629400D01*
X165815576Y-89629400D01*
X168015576Y-89629400D01*
X168118267Y-89586864D01*
X168196864Y-89508267D01*
X168239400Y-89405576D01*
X168239400Y-89294424D01*
X168239400Y-87894424D01*
X168196864Y-87791733D01*
X168118267Y-87713136D01*
X168015576Y-87670600D01*
X167904424Y-87670600D01*
X165704424Y-87670600D01*
X165601733Y-87713136D01*
X165523136Y-87791733D01*
X165480600Y-87894424D01*
X165480600Y-88005576D01*
X165480600Y-88243600D01*
X165470000Y-88243600D01*
X165314477Y-88274535D01*
X165182632Y-88362632D01*
X164716230Y-88829034D01*
X164628133Y-88960879D01*
X164597198Y-89116402D01*
X164597198Y-90168066D01*
X164422632Y-90342632D01*
X164334535Y-90474477D01*
X164303600Y-90630000D01*
X164303600Y-91460000D01*
X164334535Y-91615523D01*
X164422632Y-91747368D01*
X165003600Y-92328336D01*
X165003600Y-92653954D01*
X165000920Y-92640481D01*
X164519706Y-91920294D01*
X163799519Y-91439080D01*
X162950000Y-91270100D01*
X162359940Y-91387470D01*
X162361638Y-90187187D01*
X162376424Y-90181844D01*
X162393939Y-90171268D01*
X162429823Y-90164131D01*
X162554648Y-90080724D01*
X162636629Y-90279135D01*
X162929324Y-90572341D01*
X163311944Y-90731219D01*
X163726238Y-90731580D01*
X164109135Y-90573371D01*
X164402341Y-90280676D01*
X164561219Y-89898056D01*
X164561580Y-89483762D01*
X164403371Y-89100865D01*
X164110676Y-88807659D01*
X163728056Y-88648781D01*
X163313762Y-88648420D01*
X162930865Y-88806629D01*
X162719900Y-89017226D01*
X162719900Y-87822551D01*
X162929324Y-88032341D01*
X163311944Y-88191219D01*
X163726238Y-88191580D01*
X164109135Y-88033371D01*
X164402341Y-87740676D01*
X164561219Y-87358056D01*
X164561580Y-86943762D01*
X164403371Y-86560865D01*
X164110676Y-86267659D01*
X163728056Y-86108781D01*
X163313762Y-86108420D01*
X162930865Y-86266629D01*
X162719900Y-86477226D01*
X162719900Y-85282551D01*
X162929324Y-85492341D01*
X163311944Y-85651219D01*
X163726238Y-85651580D01*
X164109135Y-85493371D01*
X164402341Y-85200676D01*
X164561219Y-84818056D01*
X164561580Y-84403762D01*
X164403371Y-84020865D01*
X164110676Y-83727659D01*
X163728056Y-83568781D01*
X163313762Y-83568420D01*
X162930865Y-83726629D01*
X162719900Y-83937226D01*
X162719900Y-82742551D01*
X162929324Y-82952341D01*
X163311944Y-83111219D01*
X163726238Y-83111580D01*
X164109135Y-82953371D01*
X164402341Y-82660676D01*
X164561219Y-82278056D01*
X164561580Y-81863762D01*
X164403371Y-81480865D01*
X164110676Y-81187659D01*
X163728056Y-81028781D01*
X163313762Y-81028420D01*
X162930865Y-81186629D01*
X162719900Y-81397226D01*
X162719900Y-80202551D01*
X162929324Y-80412341D01*
X163311944Y-80571219D01*
X163726238Y-80571580D01*
X164109135Y-80413371D01*
X164402341Y-80120676D01*
X164561219Y-79738056D01*
X164561580Y-79323762D01*
X164403371Y-78940865D01*
X164110676Y-78647659D01*
X163728056Y-78488781D01*
X163313762Y-78488420D01*
X162930865Y-78646629D01*
X162719900Y-78857226D01*
X162719900Y-78390000D01*
X162717910Y-78380000D01*
X162719900Y-78370000D01*
X162719900Y-71220000D01*
X162719900Y-71210000D01*
X162719900Y-70730000D01*
X162717910Y-70720000D01*
X162719900Y-70710000D01*
X162719900Y-67746281D01*
X162882937Y-66926636D01*
X163321011Y-66271011D01*
X163976637Y-65832937D01*
X164796281Y-65669900D01*
X172304643Y-65669900D01*
X172323434Y-71157000D01*
X172965016Y-71157000D01*
X173003729Y-73576554D01*
X173384922Y-74037999D01*
X173454886Y-75687148D01*
X174059244Y-76437000D01*
X175871189Y-76437000D01*
X176444382Y-75717698D01*
X176534716Y-74202101D01*
X176967306Y-73558246D01*
X176948008Y-71117000D01*
X177637220Y-71117000D01*
X177627811Y-65669900D01*
X185113718Y-65669900D01*
X185929535Y-65832176D01*
X186581916Y-66268083D01*
X187017823Y-66920463D01*
X187180100Y-67736281D01*
X187180100Y-70650000D01*
X187188056Y-70690000D01*
X187180100Y-70730000D01*
X187180100Y-71179726D01*
X187170100Y-71230000D01*
X187180100Y-71280273D01*
X187180100Y-78370000D01*
X187180100Y-78857448D01*
X186970676Y-78647659D01*
X186588056Y-78488781D01*
X186173762Y-78488420D01*
X185790865Y-78646629D01*
X185497659Y-78939324D01*
X185338781Y-79321944D01*
X185338420Y-79736238D01*
X185397188Y-79878469D01*
X184832829Y-80442829D01*
X184717203Y-80615877D01*
X184676600Y-80820000D01*
X184676600Y-81569058D01*
X184413576Y-81832081D01*
X184396864Y-81791733D01*
X184318267Y-81713136D01*
X184215576Y-81670600D01*
X184104424Y-81670600D01*
X181904424Y-81670600D01*
X181801733Y-81713136D01*
X181723136Y-81791733D01*
X181680600Y-81894424D01*
X181680600Y-82005576D01*
X181680600Y-83405576D01*
X181723136Y-83508267D01*
X181801733Y-83586864D01*
X181904424Y-83629400D01*
X182015576Y-83629400D01*
X184215576Y-83629400D01*
X184318267Y-83586864D01*
X184396864Y-83508267D01*
X184439400Y-83405576D01*
X184439400Y-83294424D01*
X184439400Y-83165617D01*
X184554123Y-83142797D01*
X184690143Y-83051911D01*
X184676600Y-83120000D01*
X184676600Y-83829058D01*
X184439400Y-84066258D01*
X184439400Y-83894424D01*
X184396864Y-83791733D01*
X184318267Y-83713136D01*
X184215576Y-83670600D01*
X184104424Y-83670600D01*
X181904424Y-83670600D01*
X181801733Y-83713136D01*
X181723136Y-83791733D01*
X181680600Y-83894424D01*
X181680600Y-84005576D01*
X181680600Y-85405576D01*
X181723136Y-85508267D01*
X181801733Y-85586864D01*
X181904424Y-85629400D01*
X182015576Y-85629400D01*
X184215576Y-85629400D01*
X184318267Y-85586864D01*
X184396864Y-85508267D01*
X184439400Y-85405576D01*
X184439400Y-85294424D01*
X184439400Y-85183400D01*
X184610000Y-85183400D01*
X184814123Y-85142797D01*
X184974085Y-85035914D01*
X184867203Y-85195877D01*
X184826600Y-85400000D01*
X184826600Y-85929058D01*
X184639058Y-86116600D01*
X184439400Y-86116600D01*
X184439400Y-85894424D01*
X184396864Y-85791733D01*
X184318267Y-85713136D01*
X184215576Y-85670600D01*
X184104424Y-85670600D01*
X181904424Y-85670600D01*
X181801733Y-85713136D01*
X181723136Y-85791733D01*
X181680600Y-85894424D01*
X181680600Y-86005576D01*
X181680600Y-87405576D01*
X181723136Y-87508267D01*
X181801733Y-87586864D01*
X181904424Y-87629400D01*
X182015576Y-87629400D01*
X184215576Y-87629400D01*
X184318267Y-87586864D01*
X184396864Y-87508267D01*
X184439400Y-87405576D01*
X184439400Y-87294424D01*
X184439400Y-87183400D01*
X184860000Y-87183400D01*
X185064123Y-87142797D01*
X185237171Y-87027171D01*
X185350414Y-86913927D01*
X185338781Y-86941944D01*
X185338420Y-87356238D01*
X185362102Y-87413555D01*
X184659058Y-88116600D01*
X184439400Y-88116600D01*
X184439400Y-87894424D01*
X184396864Y-87791733D01*
X184318267Y-87713136D01*
X184215576Y-87670600D01*
X184104424Y-87670600D01*
X181904424Y-87670600D01*
X181801733Y-87713136D01*
X181723136Y-87791733D01*
X181680600Y-87894424D01*
X181680600Y-88005576D01*
X181680600Y-89405576D01*
X181723136Y-89508267D01*
X181801733Y-89586864D01*
X181904424Y-89629400D01*
X182015576Y-89629400D01*
X184215576Y-89629400D01*
X184318267Y-89586864D01*
X184396864Y-89508267D01*
X184439400Y-89405576D01*
X184439400Y-89294424D01*
X184439400Y-89183400D01*
X184880000Y-89183400D01*
X185084123Y-89142797D01*
X185257171Y-89027171D01*
X186116249Y-88168092D01*
X186171944Y-88191219D01*
X186586238Y-88191580D01*
X186969135Y-88033371D01*
X187180100Y-87822773D01*
X187180100Y-89017448D01*
X186970676Y-88807659D01*
X186588056Y-88648781D01*
X186173762Y-88648420D01*
X185790865Y-88806629D01*
X185497659Y-89099324D01*
X185370066Y-89406600D01*
X184850005Y-89406600D01*
X184850000Y-89406599D01*
X184645877Y-89447203D01*
X184472829Y-89562829D01*
X184472826Y-89562832D01*
X184320394Y-89715263D01*
X184318267Y-89713136D01*
X184215576Y-89670600D01*
X184104424Y-89670600D01*
X181904424Y-89670600D01*
X181801733Y-89713136D01*
X181723136Y-89791733D01*
X181680600Y-89894424D01*
X181680600Y-90005576D01*
X181680600Y-91405576D01*
X181723136Y-91508267D01*
X181801733Y-91586864D01*
X181904424Y-91629400D01*
X182015576Y-91629400D01*
X184215576Y-91629400D01*
X184318267Y-91586864D01*
X184396864Y-91508267D01*
X184439400Y-91405576D01*
X184439400Y-91294424D01*
X184439400Y-91079135D01*
X184517171Y-91027171D01*
X185070941Y-90473400D01*
X185690555Y-90473400D01*
X185789324Y-90572341D01*
X186171944Y-90731219D01*
X186586238Y-90731580D01*
X186969135Y-90573371D01*
X187262341Y-90280676D01*
X187335277Y-90105026D01*
X187475315Y-90196224D01*
X187491848Y-90202844D01*
X187492264Y-91377963D01*
X186950000Y-91270100D01*
X186100481Y-91439080D01*
X185380294Y-91920294D01*
X184899080Y-92640481D01*
X184730100Y-93490000D01*
X184899080Y-94339519D01*
X185380294Y-95059706D01*
X186100481Y-95540920D01*
X186950000Y-95709900D01*
X187493760Y-95601739D01*
X187494181Y-96791094D01*
X187494181Y-96791094D01*
G37*
X187494181Y-96791094D02*
X187470177Y-96795869D01*
X187386634Y-96851691D01*
X187370731Y-96860586D01*
X187367840Y-96864248D01*
X187332400Y-96887929D01*
X187263371Y-96720865D01*
X186970676Y-96427659D01*
X186588056Y-96268781D01*
X186173762Y-96268420D01*
X185790865Y-96426629D01*
X185497659Y-96719324D01*
X185455526Y-96820790D01*
X184762259Y-96127523D01*
X184762408Y-95956760D01*
X184667868Y-95727956D01*
X184492965Y-95552747D01*
X184393630Y-95511500D01*
X184396864Y-95508267D01*
X184439400Y-95405576D01*
X184439400Y-95294424D01*
X184439400Y-93894424D01*
X184396864Y-93791733D01*
X184318267Y-93713136D01*
X184317991Y-93713021D01*
X184392192Y-93534326D01*
X184392210Y-93512920D01*
X184396864Y-93508267D01*
X184439400Y-93405576D01*
X184439400Y-93294424D01*
X184439400Y-91894424D01*
X184396864Y-91791733D01*
X184318267Y-91713136D01*
X184215576Y-91670600D01*
X184104424Y-91670600D01*
X181904424Y-91670600D01*
X181801733Y-91713136D01*
X181723136Y-91791733D01*
X181680600Y-91894424D01*
X181680600Y-92005576D01*
X181680600Y-93405576D01*
X181723136Y-93508267D01*
X181801733Y-93586864D01*
X181904424Y-93629400D01*
X182015576Y-93629400D01*
X183187324Y-93629400D01*
X183204348Y-93670600D01*
X181904424Y-93670600D01*
X181801733Y-93713136D01*
X181723136Y-93791733D01*
X181680600Y-93894424D01*
X181680600Y-94005576D01*
X181680600Y-95370600D01*
X181604424Y-95370600D01*
X180204424Y-95370600D01*
X180101733Y-95413136D01*
X180023136Y-95491733D01*
X179980600Y-95594424D01*
X179980600Y-95705576D01*
X179980600Y-97679942D01*
X179939400Y-97638742D01*
X179939400Y-95594424D01*
X179896864Y-95491733D01*
X179818267Y-95413136D01*
X179715576Y-95370600D01*
X179604424Y-95370600D01*
X178204424Y-95370600D01*
X178101733Y-95413136D01*
X178023136Y-95491733D01*
X177980600Y-95594424D01*
X177980600Y-95705576D01*
X177980600Y-97905576D01*
X178023136Y-98008267D01*
X178101733Y-98086864D01*
X178204424Y-98129400D01*
X178315576Y-98129400D01*
X179208742Y-98129400D01*
X179358200Y-98278858D01*
X179358200Y-98703858D01*
X178977171Y-98322829D01*
X178804123Y-98207203D01*
X178600000Y-98166600D01*
X177630942Y-98166600D01*
X177593742Y-98129400D01*
X177715576Y-98129400D01*
X177818267Y-98086864D01*
X177896864Y-98008267D01*
X177939400Y-97905576D01*
X177939400Y-97794424D01*
X177939400Y-95594424D01*
X177896864Y-95491733D01*
X177818267Y-95413136D01*
X177715576Y-95370600D01*
X177604424Y-95370600D01*
X176204424Y-95370600D01*
X176101733Y-95413136D01*
X176023136Y-95491733D01*
X175980600Y-95594424D01*
X175980600Y-95705576D01*
X175980600Y-97905576D01*
X176023136Y-98008267D01*
X176101733Y-98086864D01*
X176204424Y-98129400D01*
X176315576Y-98129400D01*
X176416600Y-98129400D01*
X176416600Y-98240000D01*
X176457203Y-98444123D01*
X176572829Y-98617171D01*
X177032829Y-99077171D01*
X177205876Y-99192797D01*
X177205877Y-99192797D01*
X177410000Y-99233400D01*
X178379058Y-99233400D01*
X178431116Y-99285458D01*
X178397808Y-99365674D01*
X178397592Y-99613240D01*
X178492132Y-99842044D01*
X178667035Y-100017253D01*
X178895674Y-100112192D01*
X179143240Y-100112408D01*
X179358200Y-100023588D01*
X179358200Y-103352734D01*
X179255706Y-103310280D01*
X179144554Y-103310280D01*
X177145574Y-103310280D01*
X177111800Y-103324269D01*
X177111800Y-100790000D01*
X177078931Y-100624757D01*
X176985329Y-100484671D01*
X176985325Y-100484668D01*
X176665329Y-100164671D01*
X176525243Y-100071069D01*
X176362702Y-100038737D01*
X176400130Y-99982724D01*
X176450400Y-99730000D01*
X176400130Y-99477276D01*
X176256973Y-99263027D01*
X176042724Y-99119870D01*
X175790000Y-99069600D01*
X174663546Y-99069600D01*
X174290400Y-98696453D01*
X174290400Y-98280000D01*
X174240130Y-98027276D01*
X174096973Y-97813027D01*
X173939400Y-97655454D01*
X173939400Y-95594424D01*
X173896864Y-95491733D01*
X173818267Y-95413136D01*
X173715576Y-95370600D01*
X173604424Y-95370600D01*
X172204424Y-95370600D01*
X172101733Y-95413136D01*
X172023136Y-95491733D01*
X171980600Y-95594424D01*
X171980600Y-95705576D01*
X171980600Y-97905576D01*
X172023136Y-98008267D01*
X172101733Y-98086864D01*
X172204424Y-98129400D01*
X172315576Y-98129400D01*
X172545454Y-98129400D01*
X172546654Y-98130600D01*
X171954424Y-98130600D01*
X171851733Y-98173136D01*
X171773136Y-98251733D01*
X171730600Y-98354424D01*
X171730600Y-98465576D01*
X171730600Y-100718200D01*
X171700000Y-100718200D01*
X171598858Y-100718200D01*
X171503400Y-100622742D01*
X171503400Y-100040000D01*
X171483400Y-99939454D01*
X171483400Y-98129400D01*
X171715576Y-98129400D01*
X171818267Y-98086864D01*
X171896864Y-98008267D01*
X171939400Y-97905576D01*
X171939400Y-97794424D01*
X171939400Y-95594424D01*
X171896864Y-95491733D01*
X171818267Y-95413136D01*
X171715576Y-95370600D01*
X171604424Y-95370600D01*
X170204424Y-95370600D01*
X170101733Y-95413136D01*
X170023136Y-95491733D01*
X169980600Y-95594424D01*
X169980600Y-95705576D01*
X169980600Y-97905576D01*
X170023136Y-98008267D01*
X170101733Y-98086864D01*
X170204424Y-98129400D01*
X170315576Y-98129400D01*
X170416600Y-98129400D01*
X170416600Y-98151734D01*
X170365576Y-98130600D01*
X170254424Y-98130600D01*
X169664942Y-98130600D01*
X169663742Y-98129400D01*
X169715576Y-98129400D01*
X169818267Y-98086864D01*
X169896864Y-98008267D01*
X169939400Y-97905576D01*
X169939400Y-97794424D01*
X169939400Y-95594424D01*
X169896864Y-95491733D01*
X169818267Y-95413136D01*
X169715576Y-95370600D01*
X169604424Y-95370600D01*
X169145606Y-95370600D01*
X169202192Y-95234326D01*
X169202408Y-94986760D01*
X169156484Y-94875616D01*
X169272044Y-94827868D01*
X169447253Y-94652965D01*
X169542192Y-94424326D01*
X169542394Y-94192267D01*
X169703240Y-94192408D01*
X169932044Y-94097868D01*
X170107253Y-93922965D01*
X170202192Y-93694326D01*
X170202408Y-93446760D01*
X170188186Y-93412342D01*
X170263240Y-93412408D01*
X170492044Y-93317868D01*
X170667253Y-93142965D01*
X170762192Y-92914326D01*
X170762408Y-92666760D01*
X170667868Y-92437956D01*
X170496400Y-92266188D01*
X170496400Y-89965294D01*
X170705674Y-90052192D01*
X170953240Y-90052408D01*
X171182044Y-89957868D01*
X171357253Y-89782965D01*
X171452192Y-89554326D01*
X171452408Y-89306760D01*
X171357868Y-89077956D01*
X171182965Y-88902747D01*
X171096400Y-88866802D01*
X171096400Y-87466616D01*
X171097035Y-87467253D01*
X171325674Y-87562192D01*
X171573240Y-87562408D01*
X171802044Y-87467868D01*
X171977253Y-87292965D01*
X172072192Y-87064326D01*
X172072408Y-86816760D01*
X171977868Y-86587956D01*
X171802965Y-86412747D01*
X171676400Y-86360192D01*
X171676400Y-84678884D01*
X171745465Y-84575522D01*
X171776399Y-84420000D01*
X171745465Y-84264477D01*
X171676400Y-84161115D01*
X171676400Y-84029767D01*
X171702132Y-84092044D01*
X171877035Y-84267253D01*
X172105674Y-84362192D01*
X172353240Y-84362408D01*
X172582044Y-84267868D01*
X172757253Y-84092965D01*
X172852192Y-83864326D01*
X172852408Y-83616760D01*
X172763400Y-83401344D01*
X172763400Y-80800272D01*
X172773400Y-80750000D01*
X172763400Y-80699727D01*
X172763400Y-78850942D01*
X172820942Y-78793400D01*
X174710000Y-78793400D01*
X176402258Y-78793400D01*
X175872829Y-79322829D01*
X175757203Y-79495877D01*
X175716600Y-79700000D01*
X175716600Y-79989058D01*
X175619058Y-80086600D01*
X175464078Y-80086600D01*
X175274326Y-80007808D01*
X175026760Y-80007592D01*
X174797956Y-80102132D01*
X174622747Y-80277035D01*
X174527808Y-80505674D01*
X174527592Y-80753240D01*
X174586827Y-80896600D01*
X174340942Y-80896600D01*
X174223400Y-80779058D01*
X174223400Y-80008161D01*
X174312192Y-79794326D01*
X174312408Y-79546760D01*
X174217868Y-79317956D01*
X174042965Y-79142747D01*
X173814326Y-79047808D01*
X173566760Y-79047592D01*
X173337956Y-79142132D01*
X173162747Y-79317035D01*
X173067808Y-79545674D01*
X173067592Y-79793240D01*
X173156600Y-80008655D01*
X173156600Y-81000000D01*
X173197203Y-81204123D01*
X173312829Y-81377171D01*
X173742829Y-81807171D01*
X173915877Y-81922797D01*
X174120000Y-81963400D01*
X176660000Y-81963400D01*
X176864123Y-81922797D01*
X177037171Y-81807171D01*
X177660941Y-81183400D01*
X181680600Y-81183400D01*
X181680600Y-81405576D01*
X181723136Y-81508267D01*
X181801733Y-81586864D01*
X181904424Y-81629400D01*
X182015576Y-81629400D01*
X184215576Y-81629400D01*
X184318267Y-81586864D01*
X184396864Y-81508267D01*
X184439400Y-81405576D01*
X184439400Y-81294424D01*
X184439400Y-79894424D01*
X184396864Y-79791733D01*
X184318267Y-79713136D01*
X184215576Y-79670600D01*
X184104424Y-79670600D01*
X181904424Y-79670600D01*
X181801733Y-79713136D01*
X181723136Y-79791733D01*
X181680600Y-79894424D01*
X181680600Y-80005576D01*
X181680600Y-80116600D01*
X177440005Y-80116600D01*
X177440000Y-80116599D01*
X177235877Y-80157203D01*
X177062829Y-80272829D01*
X177062826Y-80272832D01*
X176439058Y-80896600D01*
X176317741Y-80896600D01*
X176627167Y-80587173D01*
X176627171Y-80587171D01*
X176627171Y-80587170D01*
X176742797Y-80414123D01*
X176783400Y-80210000D01*
X176783401Y-80210000D01*
X176783400Y-80209994D01*
X176783400Y-79920942D01*
X177000942Y-79703400D01*
X180490000Y-79703400D01*
X180694123Y-79662797D01*
X180867171Y-79547171D01*
X181230942Y-79183400D01*
X181680600Y-79183400D01*
X181680600Y-79405576D01*
X181723136Y-79508267D01*
X181801733Y-79586864D01*
X181904424Y-79629400D01*
X182015576Y-79629400D01*
X184215576Y-79629400D01*
X184318267Y-79586864D01*
X184396864Y-79508267D01*
X184439400Y-79405576D01*
X184439400Y-79294424D01*
X184439400Y-77894424D01*
X184396864Y-77791733D01*
X184318267Y-77713136D01*
X184215576Y-77670600D01*
X184104424Y-77670600D01*
X181904424Y-77670600D01*
X181801733Y-77713136D01*
X181723136Y-77791733D01*
X181680600Y-77894424D01*
X181680600Y-78005576D01*
X181680600Y-78116600D01*
X181160961Y-78116600D01*
X181196483Y-78063436D01*
X181242797Y-77994124D01*
X181242797Y-77994123D01*
X181283400Y-77790000D01*
X181283400Y-77370942D01*
X181470942Y-77183400D01*
X181680600Y-77183400D01*
X181680600Y-77405576D01*
X181723136Y-77508267D01*
X181801733Y-77586864D01*
X181904424Y-77629400D01*
X182015576Y-77629400D01*
X184215576Y-77629400D01*
X184318267Y-77586864D01*
X184396864Y-77508267D01*
X184439400Y-77405576D01*
X184439400Y-77294424D01*
X184439400Y-75894424D01*
X184396864Y-75791733D01*
X184318267Y-75713136D01*
X184215576Y-75670600D01*
X184104424Y-75670600D01*
X181904424Y-75670600D01*
X181801733Y-75713136D01*
X181723136Y-75791733D01*
X181680600Y-75894424D01*
X181680600Y-76005576D01*
X181680600Y-76116600D01*
X181250000Y-76116600D01*
X181045877Y-76157203D01*
X180872829Y-76272829D01*
X180372829Y-76772829D01*
X180257203Y-76945877D01*
X180216600Y-77150000D01*
X180216600Y-77569058D01*
X180059058Y-77726600D01*
X179920000Y-77726600D01*
X179480000Y-77726600D01*
X174710000Y-77726600D01*
X172600000Y-77726600D01*
X172395877Y-77767203D01*
X172222829Y-77882829D01*
X171852829Y-78252829D01*
X171737203Y-78425877D01*
X171696600Y-78630000D01*
X171696600Y-80750000D01*
X171696600Y-83401838D01*
X171676400Y-83450485D01*
X171676400Y-79440000D01*
X171645465Y-79284477D01*
X171557368Y-79152632D01*
X170867368Y-78462632D01*
X170735523Y-78374535D01*
X170580000Y-78343600D01*
X169636400Y-78343600D01*
X169636400Y-77990000D01*
X169605465Y-77834477D01*
X169517368Y-77702632D01*
X168806400Y-76991664D01*
X168806400Y-76900000D01*
X168775465Y-76744477D01*
X168687368Y-76612632D01*
X168437368Y-76362632D01*
X168305523Y-76274535D01*
X168239400Y-76261382D01*
X168239400Y-75894424D01*
X168196864Y-75791733D01*
X168118267Y-75713136D01*
X168015576Y-75670600D01*
X167904424Y-75670600D01*
X165704424Y-75670600D01*
X165601733Y-75713136D01*
X165523136Y-75791733D01*
X165480600Y-75894424D01*
X165480600Y-76005576D01*
X165480600Y-77405576D01*
X165523136Y-77508267D01*
X165601733Y-77586864D01*
X165704424Y-77629400D01*
X165815576Y-77629400D01*
X168015576Y-77629400D01*
X168118267Y-77586864D01*
X168185197Y-77519933D01*
X168823600Y-78158336D01*
X168823600Y-78530000D01*
X168840698Y-78615962D01*
X168587368Y-78362632D01*
X168455523Y-78274535D01*
X168300000Y-78243600D01*
X168239400Y-78243600D01*
X168239400Y-77894424D01*
X168196864Y-77791733D01*
X168118267Y-77713136D01*
X168015576Y-77670600D01*
X167904424Y-77670600D01*
X165704424Y-77670600D01*
X165601733Y-77713136D01*
X165523136Y-77791733D01*
X165480600Y-77894424D01*
X165480600Y-78005576D01*
X165480600Y-79405576D01*
X165523136Y-79508267D01*
X165601733Y-79586864D01*
X165704424Y-79629400D01*
X165815576Y-79629400D01*
X168015576Y-79629400D01*
X168118267Y-79586864D01*
X168196864Y-79508267D01*
X168239400Y-79405576D01*
X168239400Y-79294424D01*
X168239400Y-79164136D01*
X168372632Y-79297368D01*
X168652632Y-79577368D01*
X168784477Y-79665465D01*
X168784478Y-79665465D01*
X168940000Y-79696400D01*
X169961664Y-79696400D01*
X170283600Y-80018336D01*
X170283600Y-80598863D01*
X170047368Y-80362632D01*
X169915523Y-80274535D01*
X169760000Y-80243600D01*
X168239400Y-80243600D01*
X168239400Y-79894424D01*
X168196864Y-79791733D01*
X168118267Y-79713136D01*
X168015576Y-79670600D01*
X167904424Y-79670600D01*
X165704424Y-79670600D01*
X165601733Y-79713136D01*
X165523136Y-79791733D01*
X165480600Y-79894424D01*
X165480600Y-80005576D01*
X165480600Y-81405576D01*
X165523136Y-81508267D01*
X165601733Y-81586864D01*
X165704424Y-81629400D01*
X165815576Y-81629400D01*
X168015576Y-81629400D01*
X168118267Y-81586864D01*
X168196864Y-81508267D01*
X168239400Y-81405576D01*
X168239400Y-81294424D01*
X168239400Y-81056400D01*
X169591663Y-81056400D01*
X169683600Y-81148336D01*
X169683600Y-82708864D01*
X169337368Y-82362632D01*
X169205523Y-82274535D01*
X169050000Y-82243600D01*
X168239400Y-82243600D01*
X168239400Y-81894424D01*
X168196864Y-81791733D01*
X168118267Y-81713136D01*
X168015576Y-81670600D01*
X167904424Y-81670600D01*
X165704424Y-81670600D01*
X165601733Y-81713136D01*
X165523136Y-81791733D01*
X165480600Y-81894424D01*
X165480600Y-82005576D01*
X165480600Y-83405576D01*
X165523136Y-83508267D01*
X165601733Y-83586864D01*
X165704424Y-83629400D01*
X165815576Y-83629400D01*
X168015576Y-83629400D01*
X168118267Y-83586864D01*
X168196864Y-83508267D01*
X168239400Y-83405576D01*
X168239400Y-83294424D01*
X168239400Y-83056400D01*
X168881664Y-83056400D01*
X169093600Y-83268336D01*
X169093600Y-84415266D01*
X169040966Y-84362632D01*
X168909121Y-84274535D01*
X168753598Y-84243600D01*
X168239400Y-84243600D01*
X168239400Y-83894424D01*
X168196864Y-83791733D01*
X168118267Y-83713136D01*
X168015576Y-83670600D01*
X167904424Y-83670600D01*
X165704424Y-83670600D01*
X165601733Y-83713136D01*
X165523136Y-83791733D01*
X165480600Y-83894424D01*
X165480600Y-84005576D01*
X165480600Y-85405576D01*
X165523136Y-85508267D01*
X165601733Y-85586864D01*
X165704424Y-85629400D01*
X165815576Y-85629400D01*
X168015576Y-85629400D01*
X168118267Y-85586864D01*
X168196864Y-85508267D01*
X168239400Y-85405576D01*
X168239400Y-85294424D01*
X168239400Y-85056400D01*
X168585262Y-85056400D01*
X168687198Y-85158336D01*
X168687198Y-86465266D01*
X168584564Y-86362632D01*
X168452719Y-86274535D01*
X168297196Y-86243600D01*
X168239400Y-86243600D01*
X168239400Y-85894424D01*
X168196864Y-85791733D01*
X168118267Y-85713136D01*
X168015576Y-85670600D01*
X167904424Y-85670600D01*
X165704424Y-85670600D01*
X165601733Y-85713136D01*
X165523136Y-85791733D01*
X165480600Y-85894424D01*
X165480600Y-86005576D01*
X165480600Y-87405576D01*
X165523136Y-87508267D01*
X165601733Y-87586864D01*
X165704424Y-87629400D01*
X165815576Y-87629400D01*
X168015576Y-87629400D01*
X168118267Y-87586864D01*
X168196864Y-87508267D01*
X168239400Y-87405576D01*
X168239400Y-87294424D01*
X168239400Y-87166940D01*
X168280796Y-87208336D01*
X168280796Y-92734468D01*
X168239400Y-92775864D01*
X168239400Y-91894424D01*
X168196864Y-91791733D01*
X168118267Y-91713136D01*
X168015576Y-91670600D01*
X167904424Y-91670600D01*
X165707028Y-91670600D01*
X165762044Y-91647868D01*
X165780544Y-91629400D01*
X165815576Y-91629400D01*
X168015576Y-91629400D01*
X168118267Y-91586864D01*
X168196864Y-91508267D01*
X168239400Y-91405576D01*
X168239400Y-91294424D01*
X168239400Y-89894424D01*
X168196864Y-89791733D01*
X168118267Y-89713136D01*
X168015576Y-89670600D01*
X167904424Y-89670600D01*
X165704424Y-89670600D01*
X165601733Y-89713136D01*
X165523136Y-89791733D01*
X165480600Y-89894424D01*
X165480600Y-90005576D01*
X165480600Y-90474664D01*
X165457523Y-90497740D01*
X165375224Y-90497669D01*
X165379063Y-90491925D01*
X165409998Y-90336402D01*
X165409998Y-89284738D01*
X165480600Y-89214136D01*
X165480600Y-89405576D01*
X165523136Y-89508267D01*
X165601733Y-89586864D01*
X165704424Y-89629400D01*
X165815576Y-89629400D01*
X168015576Y-89629400D01*
X168118267Y-89586864D01*
X168196864Y-89508267D01*
X168239400Y-89405576D01*
X168239400Y-89294424D01*
X168239400Y-87894424D01*
X168196864Y-87791733D01*
X168118267Y-87713136D01*
X168015576Y-87670600D01*
X167904424Y-87670600D01*
X165704424Y-87670600D01*
X165601733Y-87713136D01*
X165523136Y-87791733D01*
X165480600Y-87894424D01*
X165480600Y-88005576D01*
X165480600Y-88243600D01*
X165470000Y-88243600D01*
X165314477Y-88274535D01*
X165182632Y-88362632D01*
X164716230Y-88829034D01*
X164628133Y-88960879D01*
X164597198Y-89116402D01*
X164597198Y-90168066D01*
X164422632Y-90342632D01*
X164334535Y-90474477D01*
X164303600Y-90630000D01*
X164303600Y-91460000D01*
X164334535Y-91615523D01*
X164422632Y-91747368D01*
X165003600Y-92328336D01*
X165003600Y-92653954D01*
X165000920Y-92640481D01*
X164519706Y-91920294D01*
X163799519Y-91439080D01*
X162950000Y-91270100D01*
X162359940Y-91387470D01*
X162361638Y-90187187D01*
X162376424Y-90181844D01*
X162393939Y-90171268D01*
X162429823Y-90164131D01*
X162554648Y-90080724D01*
X162636629Y-90279135D01*
X162929324Y-90572341D01*
X163311944Y-90731219D01*
X163726238Y-90731580D01*
X164109135Y-90573371D01*
X164402341Y-90280676D01*
X164561219Y-89898056D01*
X164561580Y-89483762D01*
X164403371Y-89100865D01*
X164110676Y-88807659D01*
X163728056Y-88648781D01*
X163313762Y-88648420D01*
X162930865Y-88806629D01*
X162719900Y-89017226D01*
X162719900Y-87822551D01*
X162929324Y-88032341D01*
X163311944Y-88191219D01*
X163726238Y-88191580D01*
X164109135Y-88033371D01*
X164402341Y-87740676D01*
X164561219Y-87358056D01*
X164561580Y-86943762D01*
X164403371Y-86560865D01*
X164110676Y-86267659D01*
X163728056Y-86108781D01*
X163313762Y-86108420D01*
X162930865Y-86266629D01*
X162719900Y-86477226D01*
X162719900Y-85282551D01*
X162929324Y-85492341D01*
X163311944Y-85651219D01*
X163726238Y-85651580D01*
X164109135Y-85493371D01*
X164402341Y-85200676D01*
X164561219Y-84818056D01*
X164561580Y-84403762D01*
X164403371Y-84020865D01*
X164110676Y-83727659D01*
X163728056Y-83568781D01*
X163313762Y-83568420D01*
X162930865Y-83726629D01*
X162719900Y-83937226D01*
X162719900Y-82742551D01*
X162929324Y-82952341D01*
X163311944Y-83111219D01*
X163726238Y-83111580D01*
X164109135Y-82953371D01*
X164402341Y-82660676D01*
X164561219Y-82278056D01*
X164561580Y-81863762D01*
X164403371Y-81480865D01*
X164110676Y-81187659D01*
X163728056Y-81028781D01*
X163313762Y-81028420D01*
X162930865Y-81186629D01*
X162719900Y-81397226D01*
X162719900Y-80202551D01*
X162929324Y-80412341D01*
X163311944Y-80571219D01*
X163726238Y-80571580D01*
X164109135Y-80413371D01*
X164402341Y-80120676D01*
X164561219Y-79738056D01*
X164561580Y-79323762D01*
X164403371Y-78940865D01*
X164110676Y-78647659D01*
X163728056Y-78488781D01*
X163313762Y-78488420D01*
X162930865Y-78646629D01*
X162719900Y-78857226D01*
X162719900Y-78390000D01*
X162717910Y-78380000D01*
X162719900Y-78370000D01*
X162719900Y-71220000D01*
X162719900Y-71210000D01*
X162719900Y-70730000D01*
X162717910Y-70720000D01*
X162719900Y-70710000D01*
X162719900Y-67746281D01*
X162882937Y-66926636D01*
X163321011Y-66271011D01*
X163976637Y-65832937D01*
X164796281Y-65669900D01*
X172304643Y-65669900D01*
X172323434Y-71157000D01*
X172965016Y-71157000D01*
X173003729Y-73576554D01*
X173384922Y-74037999D01*
X173454886Y-75687148D01*
X174059244Y-76437000D01*
X175871189Y-76437000D01*
X176444382Y-75717698D01*
X176534716Y-74202101D01*
X176967306Y-73558246D01*
X176948008Y-71117000D01*
X177637220Y-71117000D01*
X177627811Y-65669900D01*
X185113718Y-65669900D01*
X185929535Y-65832176D01*
X186581916Y-66268083D01*
X187017823Y-66920463D01*
X187180100Y-67736281D01*
X187180100Y-70650000D01*
X187188056Y-70690000D01*
X187180100Y-70730000D01*
X187180100Y-71179726D01*
X187170100Y-71230000D01*
X187180100Y-71280273D01*
X187180100Y-78370000D01*
X187180100Y-78857448D01*
X186970676Y-78647659D01*
X186588056Y-78488781D01*
X186173762Y-78488420D01*
X185790865Y-78646629D01*
X185497659Y-78939324D01*
X185338781Y-79321944D01*
X185338420Y-79736238D01*
X185397188Y-79878469D01*
X184832829Y-80442829D01*
X184717203Y-80615877D01*
X184676600Y-80820000D01*
X184676600Y-81569058D01*
X184413576Y-81832081D01*
X184396864Y-81791733D01*
X184318267Y-81713136D01*
X184215576Y-81670600D01*
X184104424Y-81670600D01*
X181904424Y-81670600D01*
X181801733Y-81713136D01*
X181723136Y-81791733D01*
X181680600Y-81894424D01*
X181680600Y-82005576D01*
X181680600Y-83405576D01*
X181723136Y-83508267D01*
X181801733Y-83586864D01*
X181904424Y-83629400D01*
X182015576Y-83629400D01*
X184215576Y-83629400D01*
X184318267Y-83586864D01*
X184396864Y-83508267D01*
X184439400Y-83405576D01*
X184439400Y-83294424D01*
X184439400Y-83165617D01*
X184554123Y-83142797D01*
X184690143Y-83051911D01*
X184676600Y-83120000D01*
X184676600Y-83829058D01*
X184439400Y-84066258D01*
X184439400Y-83894424D01*
X184396864Y-83791733D01*
X184318267Y-83713136D01*
X184215576Y-83670600D01*
X184104424Y-83670600D01*
X181904424Y-83670600D01*
X181801733Y-83713136D01*
X181723136Y-83791733D01*
X181680600Y-83894424D01*
X181680600Y-84005576D01*
X181680600Y-85405576D01*
X181723136Y-85508267D01*
X181801733Y-85586864D01*
X181904424Y-85629400D01*
X182015576Y-85629400D01*
X184215576Y-85629400D01*
X184318267Y-85586864D01*
X184396864Y-85508267D01*
X184439400Y-85405576D01*
X184439400Y-85294424D01*
X184439400Y-85183400D01*
X184610000Y-85183400D01*
X184814123Y-85142797D01*
X184974085Y-85035914D01*
X184867203Y-85195877D01*
X184826600Y-85400000D01*
X184826600Y-85929058D01*
X184639058Y-86116600D01*
X184439400Y-86116600D01*
X184439400Y-85894424D01*
X184396864Y-85791733D01*
X184318267Y-85713136D01*
X184215576Y-85670600D01*
X184104424Y-85670600D01*
X181904424Y-85670600D01*
X181801733Y-85713136D01*
X181723136Y-85791733D01*
X181680600Y-85894424D01*
X181680600Y-86005576D01*
X181680600Y-87405576D01*
X181723136Y-87508267D01*
X181801733Y-87586864D01*
X181904424Y-87629400D01*
X182015576Y-87629400D01*
X184215576Y-87629400D01*
X184318267Y-87586864D01*
X184396864Y-87508267D01*
X184439400Y-87405576D01*
X184439400Y-87294424D01*
X184439400Y-87183400D01*
X184860000Y-87183400D01*
X185064123Y-87142797D01*
X185237171Y-87027171D01*
X185350414Y-86913927D01*
X185338781Y-86941944D01*
X185338420Y-87356238D01*
X185362102Y-87413555D01*
X184659058Y-88116600D01*
X184439400Y-88116600D01*
X184439400Y-87894424D01*
X184396864Y-87791733D01*
X184318267Y-87713136D01*
X184215576Y-87670600D01*
X184104424Y-87670600D01*
X181904424Y-87670600D01*
X181801733Y-87713136D01*
X181723136Y-87791733D01*
X181680600Y-87894424D01*
X181680600Y-88005576D01*
X181680600Y-89405576D01*
X181723136Y-89508267D01*
X181801733Y-89586864D01*
X181904424Y-89629400D01*
X182015576Y-89629400D01*
X184215576Y-89629400D01*
X184318267Y-89586864D01*
X184396864Y-89508267D01*
X184439400Y-89405576D01*
X184439400Y-89294424D01*
X184439400Y-89183400D01*
X184880000Y-89183400D01*
X185084123Y-89142797D01*
X185257171Y-89027171D01*
X186116249Y-88168092D01*
X186171944Y-88191219D01*
X186586238Y-88191580D01*
X186969135Y-88033371D01*
X187180100Y-87822773D01*
X187180100Y-89017448D01*
X186970676Y-88807659D01*
X186588056Y-88648781D01*
X186173762Y-88648420D01*
X185790865Y-88806629D01*
X185497659Y-89099324D01*
X185370066Y-89406600D01*
X184850005Y-89406600D01*
X184850000Y-89406599D01*
X184645877Y-89447203D01*
X184472829Y-89562829D01*
X184472826Y-89562832D01*
X184320394Y-89715263D01*
X184318267Y-89713136D01*
X184215576Y-89670600D01*
X184104424Y-89670600D01*
X181904424Y-89670600D01*
X181801733Y-89713136D01*
X181723136Y-89791733D01*
X181680600Y-89894424D01*
X181680600Y-90005576D01*
X181680600Y-91405576D01*
X181723136Y-91508267D01*
X181801733Y-91586864D01*
X181904424Y-91629400D01*
X182015576Y-91629400D01*
X184215576Y-91629400D01*
X184318267Y-91586864D01*
X184396864Y-91508267D01*
X184439400Y-91405576D01*
X184439400Y-91294424D01*
X184439400Y-91079135D01*
X184517171Y-91027171D01*
X185070941Y-90473400D01*
X185690555Y-90473400D01*
X185789324Y-90572341D01*
X186171944Y-90731219D01*
X186586238Y-90731580D01*
X186969135Y-90573371D01*
X187262341Y-90280676D01*
X187335277Y-90105026D01*
X187475315Y-90196224D01*
X187491848Y-90202844D01*
X187492264Y-91377963D01*
X186950000Y-91270100D01*
X186100481Y-91439080D01*
X185380294Y-91920294D01*
X184899080Y-92640481D01*
X184730100Y-93490000D01*
X184899080Y-94339519D01*
X185380294Y-95059706D01*
X186100481Y-95540920D01*
X186950000Y-95709900D01*
X187493760Y-95601739D01*
X187494181Y-96791094D01*
M02*
