%FSLAX46Y46*%
G04 Gerber Fmt 4.6, Leading zero omitted, Abs format (unit mm)*
G04 Created by KiCad (PCBNEW (2014-jul-16 BZR unknown)-product) date Mon 16 Mar 2015 03:56:46 PM CET*
%MOMM*%
G01*
G04 APERTURE LIST*
%ADD10C,0.150000*%
%ADD11C,1.524000*%
%ADD12C,0.900000*%
%ADD13C,2.499360*%
%ADD14C,2.700020*%
%ADD15C,0.685800*%
%ADD16C,0.762000*%
%ADD17C,1.016000*%
%ADD18C,0.254000*%
%ADD19C,0.508000*%
%ADD20C,0.304800*%
%ADD21C,0.228600*%
G04 APERTURE END LIST*
D10*
D11*
X163520000Y-79530000D03*
X163520000Y-82070000D03*
X163520000Y-84610000D03*
X163520000Y-87150000D03*
X163520000Y-89690000D03*
X163520000Y-97310000D03*
X163520000Y-99850000D03*
X163520000Y-102390000D03*
X163520000Y-104930000D03*
X163520000Y-107470000D03*
X163520000Y-110010000D03*
X163520000Y-112550000D03*
X163520000Y-115090000D03*
X163520000Y-117630000D03*
X186380000Y-79530000D03*
X186380000Y-82070000D03*
X186380000Y-84610000D03*
X186380000Y-87150000D03*
X186380000Y-89690000D03*
X186380000Y-97310000D03*
X186380000Y-99850000D03*
X186380000Y-102390000D03*
X186380000Y-104930000D03*
X186380000Y-107470000D03*
X186380000Y-110010000D03*
X186380000Y-112550000D03*
X186380000Y-115090000D03*
X186380000Y-117630000D03*
D12*
X168410000Y-102410000D03*
X171410000Y-102410000D03*
D13*
X174960000Y-69400000D03*
D14*
X177500000Y-66860000D03*
X172420000Y-66860000D03*
X172420000Y-71940000D03*
X177500000Y-71940000D03*
D15*
X175790000Y-99730000D03*
X176840000Y-108760000D03*
X181834500Y-109810000D03*
X181820000Y-107870000D03*
X169580000Y-93570000D03*
X170140000Y-92790000D03*
X170830000Y-89430000D03*
X171450000Y-86940000D03*
X172230000Y-83740000D03*
X183770000Y-93410000D03*
X184140000Y-96080000D03*
X179650000Y-111770000D03*
X175880000Y-110448198D03*
X175310000Y-105440000D03*
X180620000Y-104390000D03*
X180140000Y-106180000D03*
X179380000Y-110550000D03*
X177770000Y-110160000D03*
X180620000Y-112650000D03*
X166030000Y-111510000D03*
X166320000Y-109580000D03*
X178750000Y-119380000D03*
X171150000Y-119410000D03*
X174950000Y-94890000D03*
X178180000Y-101500000D03*
X183333100Y-109830000D03*
X181834500Y-116900000D03*
X170960000Y-76650000D03*
X172940000Y-76660000D03*
X176960000Y-76660000D03*
X178940000Y-76670000D03*
X172610000Y-113530000D03*
X174550000Y-113520000D03*
X167804500Y-114460000D03*
X172410000Y-120475000D03*
X174960000Y-120475000D03*
X177470000Y-120475000D03*
X175000000Y-108970000D03*
X181890000Y-66870000D03*
X185590000Y-66890000D03*
X185620000Y-70480000D03*
X181890000Y-70590000D03*
X185620000Y-74110000D03*
X185570000Y-77830000D03*
X168350000Y-66830000D03*
X164640000Y-66850000D03*
X164670000Y-70600000D03*
X168400000Y-70600000D03*
X164670000Y-78450000D03*
X164670000Y-74560000D03*
X168920000Y-94300000D03*
X168580000Y-95110000D03*
X165430000Y-97510000D03*
X165410000Y-91120000D03*
X166090000Y-93370000D03*
X166200000Y-96000000D03*
X175150000Y-80630000D03*
X173690000Y-79670000D03*
X179020000Y-99490000D03*
X180000000Y-107020000D03*
D16*
X184190000Y-118010000D02*
X186000000Y-118010000D01*
X186000000Y-118010000D02*
X186380000Y-117630000D01*
X175790000Y-99730000D02*
X176680000Y-100620000D01*
X176680000Y-100620000D02*
X176680000Y-108600000D01*
X176680000Y-108600000D02*
X176840000Y-108760000D01*
X176840000Y-108760000D02*
X176840000Y-112350000D01*
X181380000Y-118010000D02*
X184190000Y-118010000D01*
X184190000Y-118010000D02*
X186200000Y-118010000D01*
X180570000Y-117200000D02*
X181380000Y-118010000D01*
X180570000Y-114340000D02*
X180570000Y-117200000D01*
X179720000Y-113490000D02*
X180570000Y-114340000D01*
X177980000Y-113490000D02*
X179720000Y-113490000D01*
X176840000Y-112350000D02*
X177980000Y-113490000D01*
X186200000Y-118010000D02*
X186380000Y-117830000D01*
D17*
X181834500Y-109810000D02*
X181834500Y-109624500D01*
X180970000Y-108760000D02*
X176840000Y-108760000D01*
X181834500Y-109624500D02*
X180970000Y-108760000D01*
D16*
X181834500Y-109810000D02*
X181840000Y-109810000D01*
D18*
X163520000Y-99850000D02*
X165940000Y-99850000D01*
X165940000Y-99850000D02*
X166533598Y-99256402D01*
X166533598Y-98386402D02*
X166533598Y-99256402D01*
X169580000Y-93570000D02*
X169480000Y-93670000D01*
X169480000Y-93670000D02*
X168050000Y-93670000D01*
X167483598Y-94146402D02*
X167483598Y-97870000D01*
X167483598Y-97870000D02*
X167253598Y-98100000D01*
X167253598Y-98100000D02*
X166820000Y-98100000D01*
X166820000Y-98100000D02*
X166533598Y-98386402D01*
X167960000Y-93670000D02*
X167483598Y-94146402D01*
X168050000Y-93670000D02*
X167960000Y-93670000D01*
X164630000Y-98320000D02*
X163620000Y-97310000D01*
X165840000Y-98320000D02*
X164630000Y-98320000D01*
X166850000Y-97310000D02*
X165840000Y-98320000D01*
X166850000Y-93330000D02*
X166850000Y-97310000D01*
X167240000Y-92940000D02*
X166850000Y-93330000D01*
X169990000Y-92940000D02*
X167240000Y-92940000D01*
X170140000Y-92790000D02*
X169990000Y-92940000D01*
X163620000Y-97310000D02*
X163520000Y-97310000D01*
X170570000Y-89690000D02*
X163520000Y-89690000D01*
X170830000Y-89430000D02*
X170570000Y-89690000D01*
X171240000Y-87150000D02*
X163520000Y-87150000D01*
X171450000Y-86940000D02*
X171240000Y-87150000D01*
D19*
X171090000Y-84610000D02*
X171090000Y-84630000D01*
X171110000Y-84610000D02*
X171090000Y-84630000D01*
X171360000Y-84610000D02*
X171110000Y-84610000D01*
X171360000Y-84610000D02*
X172230000Y-83740000D01*
X171090000Y-84610000D02*
X163520000Y-84610000D01*
D18*
X183770000Y-93410000D02*
X183780000Y-93420000D01*
X183780000Y-93420000D02*
X183780000Y-95720000D01*
X183780000Y-95720000D02*
X184140000Y-96080000D01*
D20*
X179880000Y-112000000D02*
X184850000Y-112000000D01*
X179650000Y-111770000D02*
X179880000Y-112000000D01*
X185490000Y-110010000D02*
X186380000Y-110010000D01*
X185140000Y-110360000D02*
X185490000Y-110010000D01*
X185140000Y-111710000D02*
X185140000Y-110360000D01*
X184850000Y-112000000D02*
X185140000Y-111710000D01*
D18*
X186180000Y-110210000D02*
X186380000Y-110010000D01*
D20*
X175930000Y-106060000D02*
X175310000Y-105440000D01*
X175930000Y-110398198D02*
X175930000Y-106060000D01*
X175930000Y-110398198D02*
X175880000Y-110448198D01*
X180620000Y-105730000D02*
X180620000Y-104390000D01*
X180170000Y-106180000D02*
X180620000Y-105730000D01*
X180140000Y-106180000D02*
X180170000Y-106180000D01*
X186100000Y-112830000D02*
X180800000Y-112830000D01*
X179100000Y-110270000D02*
X179380000Y-110550000D01*
X177880000Y-110270000D02*
X179100000Y-110270000D01*
X177880000Y-110270000D02*
X177770000Y-110160000D01*
X180620000Y-112650000D02*
X180800000Y-112830000D01*
X186100000Y-112830000D02*
X186380000Y-112550000D01*
D18*
X186100000Y-112830000D02*
X186380000Y-112550000D01*
D20*
X186300000Y-112830000D02*
X186380000Y-112750000D01*
D19*
X166030000Y-109870000D02*
X166030000Y-111510000D01*
X166320000Y-109580000D02*
X166030000Y-109870000D01*
X178750000Y-119380000D02*
X178740000Y-119370000D01*
D16*
X184990000Y-115290000D02*
X186180000Y-115290000D01*
X186180000Y-115290000D02*
X186380000Y-115090000D01*
X181834500Y-116900000D02*
X181834500Y-115765500D01*
X182310000Y-115290000D02*
X184990000Y-115290000D01*
X184990000Y-115290000D02*
X186380000Y-115290000D01*
X181834500Y-115765500D02*
X182310000Y-115290000D01*
D19*
X183333100Y-109830000D02*
X183360000Y-109830000D01*
X181834500Y-116900000D02*
X181850000Y-116900000D01*
D16*
X170960000Y-76650000D02*
X170970000Y-76660000D01*
X170970000Y-76660000D02*
X172940000Y-76660000D01*
X176960000Y-76660000D02*
X176970000Y-76670000D01*
X176970000Y-76670000D02*
X178940000Y-76670000D01*
D19*
X167804500Y-114460000D02*
X167810000Y-114460000D01*
X172410000Y-120475000D02*
X172410000Y-120480000D01*
X174960000Y-120475000D02*
X174960000Y-120490000D01*
X177470000Y-120475000D02*
X177470000Y-120460000D01*
D20*
X175000000Y-108970000D02*
X175010000Y-108970000D01*
D19*
X181880000Y-66860000D02*
X181890000Y-66870000D01*
X185590000Y-66890000D02*
X185620000Y-66920000D01*
X185620000Y-66920000D02*
X185620000Y-70480000D01*
X181890000Y-70590000D02*
X181890000Y-70630000D01*
X177500000Y-66860000D02*
X181880000Y-66860000D01*
X185620000Y-74110000D02*
X185570000Y-74160000D01*
X185570000Y-74160000D02*
X185570000Y-77830000D01*
X168350000Y-66830000D02*
X168330000Y-66850000D01*
X168330000Y-66850000D02*
X164640000Y-66850000D01*
X164670000Y-70600000D02*
X168400000Y-70600000D01*
X164670000Y-78450000D02*
X164670000Y-74560000D01*
D18*
X163520000Y-102390000D02*
X166420000Y-102390000D01*
X166420000Y-102390000D02*
X166940000Y-101870000D01*
X166940000Y-101870000D02*
X166940000Y-98820000D01*
X168920000Y-94300000D02*
X168760000Y-94460000D01*
X168760000Y-94460000D02*
X168150000Y-94460000D01*
X168150000Y-94460000D02*
X167890000Y-94720000D01*
X167890000Y-94720000D02*
X167890000Y-98280000D01*
X167890000Y-98280000D02*
X167640000Y-98530000D01*
X167640000Y-98530000D02*
X167230000Y-98530000D01*
X167230000Y-98530000D02*
X166940000Y-98820000D01*
X163520000Y-104930000D02*
X166820000Y-104930000D01*
X166820000Y-104930000D02*
X167360000Y-104390000D01*
X168520000Y-95900000D02*
X168530000Y-95900000D01*
X168530000Y-95890000D02*
X168520000Y-95900000D01*
X168530000Y-95160000D02*
X168530000Y-95890000D01*
X168580000Y-95110000D02*
X168530000Y-95160000D01*
X168530000Y-95900000D02*
X168530000Y-98680000D01*
X168530000Y-98680000D02*
X168200000Y-99010000D01*
X168200000Y-99010000D02*
X167790000Y-99010000D01*
X167790000Y-99010000D02*
X167360000Y-99440000D01*
X167360000Y-99440000D02*
X167360000Y-104390000D01*
X165430000Y-92470000D02*
X165430000Y-97510000D01*
X165410000Y-92450000D02*
X165430000Y-92470000D01*
X165410000Y-91120000D02*
X165410000Y-92450000D01*
X166090000Y-93370000D02*
X166090000Y-94260000D01*
X166090000Y-94260000D02*
X166200000Y-94370000D01*
X166200000Y-94370000D02*
X166200000Y-96000000D01*
D19*
X163520000Y-82070000D02*
X172720000Y-82070000D01*
X173630000Y-80630000D02*
X175150000Y-80630000D01*
X173270000Y-80990000D02*
X173630000Y-80630000D01*
X173270000Y-81520000D02*
X173270000Y-80990000D01*
X172720000Y-82070000D02*
X173270000Y-81520000D01*
X163520000Y-79530000D02*
X173550000Y-79530000D01*
X173550000Y-79530000D02*
X173690000Y-79670000D01*
X179020000Y-99490000D02*
X179030000Y-99500000D01*
X179030000Y-99500000D02*
X179030000Y-106540000D01*
X179030000Y-106540000D02*
X179510000Y-107020000D01*
X179510000Y-107020000D02*
X180000000Y-107020000D01*
D21*
G36*
X187192800Y-116988147D02*
X187163723Y-116959019D01*
X186963472Y-116758419D01*
X186585519Y-116601479D01*
X186176277Y-116601122D01*
X185798050Y-116757402D01*
X185508419Y-117046528D01*
X185377298Y-117362300D01*
X184190000Y-117362300D01*
X181648286Y-117362300D01*
X181217700Y-116931714D01*
X181217700Y-114340000D01*
X181168397Y-114092136D01*
X181027993Y-113882007D01*
X180339633Y-113193647D01*
X180498211Y-113259494D01*
X180740725Y-113259706D01*
X180777314Y-113244587D01*
X180800000Y-113249100D01*
X185624347Y-113249100D01*
X185796528Y-113421581D01*
X186174481Y-113578521D01*
X186583723Y-113578878D01*
X186961950Y-113422598D01*
X187192800Y-113192150D01*
X187192800Y-114079631D01*
X187163722Y-114108709D01*
X187092518Y-113871630D01*
X186572031Y-113691704D01*
X186022309Y-113724656D01*
X185667482Y-113871630D01*
X185596277Y-114108712D01*
X186380000Y-114892434D01*
X186394142Y-114878292D01*
X186591707Y-115075857D01*
X186577566Y-115090000D01*
X186591708Y-115104142D01*
X186394142Y-115301707D01*
X186380000Y-115287566D01*
X186182434Y-115485131D01*
X186182434Y-115090000D01*
X185398712Y-114306277D01*
X185161630Y-114377482D01*
X184981704Y-114897969D01*
X185014656Y-115447691D01*
X185161630Y-115802518D01*
X185398712Y-115873723D01*
X186182434Y-115090000D01*
X186182434Y-115485131D01*
X185596277Y-116071288D01*
X185667482Y-116308370D01*
X186187969Y-116488296D01*
X186737691Y-116455344D01*
X187092518Y-116308370D01*
X187163722Y-116071290D01*
X187163723Y-116071291D01*
X187192800Y-116100368D01*
X187192800Y-116988147D01*
X187192800Y-116988147D01*
G37*
X187192800Y-116988147D02*
X187163723Y-116959019D01*
X186963472Y-116758419D01*
X186585519Y-116601479D01*
X186176277Y-116601122D01*
X185798050Y-116757402D01*
X185508419Y-117046528D01*
X185377298Y-117362300D01*
X184190000Y-117362300D01*
X181648286Y-117362300D01*
X181217700Y-116931714D01*
X181217700Y-114340000D01*
X181168397Y-114092136D01*
X181027993Y-113882007D01*
X180339633Y-113193647D01*
X180498211Y-113259494D01*
X180740725Y-113259706D01*
X180777314Y-113244587D01*
X180800000Y-113249100D01*
X185624347Y-113249100D01*
X185796528Y-113421581D01*
X186174481Y-113578521D01*
X186583723Y-113578878D01*
X186961950Y-113422598D01*
X187192800Y-113192150D01*
X187192800Y-114079631D01*
X187163722Y-114108709D01*
X187092518Y-113871630D01*
X186572031Y-113691704D01*
X186022309Y-113724656D01*
X185667482Y-113871630D01*
X185596277Y-114108712D01*
X186380000Y-114892434D01*
X186394142Y-114878292D01*
X186591707Y-115075857D01*
X186577566Y-115090000D01*
X186591708Y-115104142D01*
X186394142Y-115301707D01*
X186380000Y-115287566D01*
X186182434Y-115485131D01*
X186182434Y-115090000D01*
X185398712Y-114306277D01*
X185161630Y-114377482D01*
X184981704Y-114897969D01*
X185014656Y-115447691D01*
X185161630Y-115802518D01*
X185398712Y-115873723D01*
X186182434Y-115090000D01*
X186182434Y-115485131D01*
X185596277Y-116071288D01*
X185667482Y-116308370D01*
X186187969Y-116488296D01*
X186737691Y-116455344D01*
X187092518Y-116308370D01*
X187163722Y-116071290D01*
X187163723Y-116071291D01*
X187192800Y-116100368D01*
X187192800Y-116988147D01*
G36*
X187526849Y-90203180D02*
X187526426Y-91397458D01*
X186950000Y-91282800D01*
X186105341Y-91450813D01*
X185389274Y-91929274D01*
X184910813Y-92645341D01*
X184742800Y-93490000D01*
X184910813Y-94334659D01*
X185389274Y-95050726D01*
X186105341Y-95529187D01*
X186950000Y-95697200D01*
X187524944Y-95582836D01*
X187524518Y-96788841D01*
X187499773Y-96802681D01*
X187475037Y-96807602D01*
X187393149Y-96862318D01*
X187378973Y-96870247D01*
X187376396Y-96873512D01*
X187326711Y-96906711D01*
X187326530Y-96906980D01*
X187252598Y-96728050D01*
X186963472Y-96438419D01*
X186585519Y-96281479D01*
X186176277Y-96281122D01*
X185798050Y-96437402D01*
X185508419Y-96726528D01*
X185351479Y-97104481D01*
X185351122Y-97513723D01*
X185507402Y-97891950D01*
X185796528Y-98181581D01*
X186174481Y-98338521D01*
X186583723Y-98338878D01*
X186961950Y-98182598D01*
X187192800Y-97952150D01*
X187192800Y-98220000D01*
X187194789Y-98230000D01*
X187192800Y-98240000D01*
X187192800Y-99208147D01*
X186963472Y-98978419D01*
X186585519Y-98821479D01*
X186176277Y-98821122D01*
X185798050Y-98977402D01*
X185508419Y-99266528D01*
X185351479Y-99644481D01*
X185351122Y-100053723D01*
X185507402Y-100431950D01*
X185796528Y-100721581D01*
X186174481Y-100878521D01*
X186583723Y-100878878D01*
X186961950Y-100722598D01*
X187192800Y-100492150D01*
X187192800Y-101748147D01*
X186963472Y-101518419D01*
X186585519Y-101361479D01*
X186176277Y-101361122D01*
X185798050Y-101517402D01*
X185508419Y-101806528D01*
X185351479Y-102184481D01*
X185351122Y-102593723D01*
X185507402Y-102971950D01*
X185796528Y-103261581D01*
X186174481Y-103418521D01*
X186583723Y-103418878D01*
X186961950Y-103262598D01*
X187192800Y-103032150D01*
X187192800Y-104288147D01*
X186963472Y-104058419D01*
X186585519Y-103901479D01*
X186176277Y-103901122D01*
X185798050Y-104057402D01*
X185508419Y-104346528D01*
X185351479Y-104724481D01*
X185351122Y-105133723D01*
X185507402Y-105511950D01*
X185796528Y-105801581D01*
X186174481Y-105958521D01*
X186583723Y-105958878D01*
X186961950Y-105802598D01*
X187192800Y-105572150D01*
X187192800Y-106828147D01*
X186963472Y-106598419D01*
X186585519Y-106441479D01*
X186176277Y-106441122D01*
X185798050Y-106597402D01*
X185508419Y-106886528D01*
X185351479Y-107264481D01*
X185351122Y-107673723D01*
X185507402Y-108051950D01*
X185796528Y-108341581D01*
X186174481Y-108498521D01*
X186583723Y-108498878D01*
X186961950Y-108342598D01*
X187192800Y-108112150D01*
X187192800Y-109368147D01*
X186963472Y-109138419D01*
X186585519Y-108981479D01*
X186176277Y-108981122D01*
X185798050Y-109137402D01*
X185508419Y-109426528D01*
X185435679Y-109601705D01*
X185329617Y-109622802D01*
X185275157Y-109659191D01*
X185193652Y-109713651D01*
X184843652Y-110063652D01*
X184752802Y-110199617D01*
X184749706Y-110215181D01*
X184749706Y-95959275D01*
X184657095Y-95735140D01*
X184485762Y-95563507D01*
X184261789Y-95470506D01*
X184173700Y-95470428D01*
X184173700Y-93868357D01*
X184286493Y-93755762D01*
X184379494Y-93531789D01*
X184379706Y-93289275D01*
X184287095Y-93065140D01*
X184115762Y-92893507D01*
X183891789Y-92800506D01*
X183649275Y-92800294D01*
X183425140Y-92892905D01*
X183253507Y-93064238D01*
X183160506Y-93288211D01*
X183160294Y-93530725D01*
X183252905Y-93754860D01*
X183386300Y-93888488D01*
X183386300Y-95720000D01*
X183416269Y-95870663D01*
X183501612Y-95998388D01*
X183530445Y-96027221D01*
X183530294Y-96200725D01*
X183622905Y-96424860D01*
X183794238Y-96596493D01*
X184018211Y-96689494D01*
X184260725Y-96689706D01*
X184484860Y-96597095D01*
X184656493Y-96425762D01*
X184749494Y-96201789D01*
X184749706Y-95959275D01*
X184749706Y-110215181D01*
X184720900Y-110360000D01*
X184720900Y-111536404D01*
X184676404Y-111580900D01*
X180231453Y-111580900D01*
X180167095Y-111425140D01*
X179995762Y-111253507D01*
X179771789Y-111160506D01*
X179529275Y-111160294D01*
X179305140Y-111252905D01*
X179133507Y-111424238D01*
X179040506Y-111648211D01*
X179040294Y-111890725D01*
X179132905Y-112114860D01*
X179304238Y-112286493D01*
X179528211Y-112379494D01*
X179708322Y-112379651D01*
X179719617Y-112387198D01*
X179880000Y-112419100D01*
X180055812Y-112419100D01*
X180010506Y-112528211D01*
X180010294Y-112770725D01*
X180095470Y-112976867D01*
X179967864Y-112891603D01*
X179720000Y-112842300D01*
X178248286Y-112842300D01*
X177487700Y-112081714D01*
X177487700Y-110702844D01*
X177648211Y-110769494D01*
X177890725Y-110769706D01*
X178085805Y-110689100D01*
X178777886Y-110689100D01*
X178862905Y-110894860D01*
X179034238Y-111066493D01*
X179258211Y-111159494D01*
X179500725Y-111159706D01*
X179724860Y-111067095D01*
X179896493Y-110895762D01*
X179989494Y-110671789D01*
X179989706Y-110429275D01*
X179897095Y-110205140D01*
X179725762Y-110033507D01*
X179501789Y-109940506D01*
X179346538Y-109940370D01*
X179260383Y-109882802D01*
X179100000Y-109850900D01*
X178301870Y-109850900D01*
X178287095Y-109815140D01*
X178115762Y-109643507D01*
X177891789Y-109550506D01*
X177649275Y-109550294D01*
X177487700Y-109617055D01*
X177487700Y-109534700D01*
X180649108Y-109534700D01*
X181093418Y-109979009D01*
X181118771Y-110106465D01*
X181286704Y-110357796D01*
X181538035Y-110525729D01*
X181834500Y-110584700D01*
X182130965Y-110525729D01*
X182382296Y-110357796D01*
X182550229Y-110106465D01*
X182609200Y-109810000D01*
X182609200Y-109624505D01*
X182609200Y-109624500D01*
X182609201Y-109624500D01*
X182550230Y-109328036D01*
X182550229Y-109328035D01*
X182494505Y-109244638D01*
X182382296Y-109076705D01*
X182382296Y-109076704D01*
X182382292Y-109076701D01*
X181785161Y-108479570D01*
X181940725Y-108479706D01*
X182164860Y-108387095D01*
X182336493Y-108215762D01*
X182429494Y-107991789D01*
X182429706Y-107749275D01*
X182337095Y-107525140D01*
X182165762Y-107353507D01*
X181941789Y-107260506D01*
X181699275Y-107260294D01*
X181475140Y-107352905D01*
X181303507Y-107524238D01*
X181229706Y-107701971D01*
X181229706Y-104269275D01*
X181137095Y-104045140D01*
X180965762Y-103873507D01*
X180741789Y-103780506D01*
X180499275Y-103780294D01*
X180275140Y-103872905D01*
X180103507Y-104044238D01*
X180010506Y-104268211D01*
X180010294Y-104510725D01*
X180102905Y-104734860D01*
X180200900Y-104833026D01*
X180200900Y-105556403D01*
X180186862Y-105570440D01*
X180019275Y-105570294D01*
X179795140Y-105662905D01*
X179623507Y-105834238D01*
X179550700Y-106009578D01*
X179550700Y-99801547D01*
X179629494Y-99611789D01*
X179629706Y-99369275D01*
X179537095Y-99145140D01*
X179483276Y-99091226D01*
X179483276Y-72272473D01*
X179459540Y-71488198D01*
X179205076Y-70873868D01*
X178907007Y-70730559D01*
X178709441Y-70928125D01*
X178709441Y-70532993D01*
X178709441Y-68267007D01*
X177500000Y-67057566D01*
X176290559Y-68267007D01*
X176433868Y-68565076D01*
X177167527Y-68843276D01*
X177951802Y-68819540D01*
X178566132Y-68565076D01*
X178709441Y-68267007D01*
X178709441Y-70532993D01*
X178566132Y-70234924D01*
X177832473Y-69956724D01*
X177048198Y-69980460D01*
X176476643Y-70217206D01*
X176476643Y-69099697D01*
X176246274Y-68542162D01*
X175820082Y-68115225D01*
X175262950Y-67883883D01*
X174659697Y-67883357D01*
X174102162Y-68113726D01*
X173675225Y-68539918D01*
X173629441Y-68650177D01*
X173629441Y-68267007D01*
X172420000Y-67057566D01*
X171210559Y-68267007D01*
X171353868Y-68565076D01*
X172087527Y-68843276D01*
X172871802Y-68819540D01*
X173486132Y-68565076D01*
X173629441Y-68267007D01*
X173629441Y-68650177D01*
X173443883Y-69097050D01*
X173443357Y-69700303D01*
X173673726Y-70257838D01*
X174099918Y-70684775D01*
X174657050Y-70916117D01*
X175260303Y-70916643D01*
X175817838Y-70686274D01*
X176244775Y-70260082D01*
X176476117Y-69702950D01*
X176476643Y-69099697D01*
X176476643Y-70217206D01*
X176433868Y-70234924D01*
X176290559Y-70532993D01*
X177500000Y-71742434D01*
X178709441Y-70532993D01*
X178709441Y-70928125D01*
X177697566Y-71940000D01*
X178907007Y-73149441D01*
X179205076Y-73006132D01*
X179483276Y-72272473D01*
X179483276Y-99091226D01*
X179365762Y-98973507D01*
X179141789Y-98880506D01*
X178899275Y-98880294D01*
X178709441Y-98958732D01*
X178709441Y-73347007D01*
X177500000Y-72137566D01*
X177302434Y-72335132D01*
X177302434Y-71940000D01*
X176092993Y-70730559D01*
X175794924Y-70873868D01*
X175516724Y-71607527D01*
X175540460Y-72391802D01*
X175794924Y-73006132D01*
X176092993Y-73149441D01*
X177302434Y-71940000D01*
X177302434Y-72335132D01*
X176290559Y-73347007D01*
X176433868Y-73645076D01*
X177167527Y-73923276D01*
X177951802Y-73899540D01*
X178566132Y-73645076D01*
X178709441Y-73347007D01*
X178709441Y-98958732D01*
X178675140Y-98972905D01*
X178503507Y-99144238D01*
X178410506Y-99368211D01*
X178410294Y-99610725D01*
X178502905Y-99834860D01*
X178509300Y-99841266D01*
X178509300Y-106539994D01*
X178509299Y-106540000D01*
X178548936Y-106739263D01*
X178661809Y-106908191D01*
X179141806Y-107388187D01*
X179141809Y-107388191D01*
X179141810Y-107388191D01*
X179310737Y-107501064D01*
X179510000Y-107540701D01*
X179510000Y-107540700D01*
X179510005Y-107540700D01*
X179664369Y-107540700D01*
X179878211Y-107629494D01*
X180120725Y-107629706D01*
X180344860Y-107537095D01*
X180516493Y-107365762D01*
X180609494Y-107141789D01*
X180609706Y-106899275D01*
X180517095Y-106675140D01*
X180511983Y-106670019D01*
X180656493Y-106525762D01*
X180749494Y-106301789D01*
X180749589Y-106193107D01*
X180916348Y-106026349D01*
X180916348Y-106026348D01*
X180961773Y-105958365D01*
X181007198Y-105890383D01*
X181007198Y-105890382D01*
X181039099Y-105730000D01*
X181039100Y-105730000D01*
X181039100Y-104832984D01*
X181136493Y-104735762D01*
X181229494Y-104511789D01*
X181229706Y-104269275D01*
X181229706Y-107701971D01*
X181210506Y-107748211D01*
X181210294Y-107990725D01*
X181229369Y-108036892D01*
X181217277Y-108034486D01*
X180970000Y-107985299D01*
X180969994Y-107985300D01*
X177327700Y-107985300D01*
X177327700Y-100620000D01*
X177278397Y-100372136D01*
X177137993Y-100162007D01*
X176247993Y-99272007D01*
X176037864Y-99131603D01*
X175790000Y-99082300D01*
X175542136Y-99131603D01*
X175332007Y-99272007D01*
X175191603Y-99482136D01*
X175142300Y-99730000D01*
X175191603Y-99977864D01*
X175332007Y-100187993D01*
X176032300Y-100888286D01*
X176032300Y-105569603D01*
X175919585Y-105456889D01*
X175919706Y-105319275D01*
X175827095Y-105095140D01*
X175655762Y-104923507D01*
X175431789Y-104830506D01*
X175189275Y-104830294D01*
X174965140Y-104922905D01*
X174793507Y-105094238D01*
X174700506Y-105318211D01*
X174700294Y-105560725D01*
X174792905Y-105784860D01*
X174964238Y-105956493D01*
X175188211Y-106049494D01*
X175326918Y-106049615D01*
X175510900Y-106233596D01*
X175510900Y-109955300D01*
X175363507Y-110102436D01*
X175270506Y-110326409D01*
X175270294Y-110568923D01*
X175362905Y-110793058D01*
X175534238Y-110964691D01*
X175758211Y-111057692D01*
X176000725Y-111057904D01*
X176192300Y-110978746D01*
X176192300Y-112350000D01*
X176241603Y-112597864D01*
X176382007Y-112807993D01*
X177522007Y-113947993D01*
X177732135Y-114088397D01*
X177732136Y-114088397D01*
X177980000Y-114137700D01*
X179451714Y-114137700D01*
X179922300Y-114608286D01*
X179922300Y-117200000D01*
X179971603Y-117447864D01*
X180112007Y-117657993D01*
X180922007Y-118467993D01*
X181132136Y-118608397D01*
X181380000Y-118657700D01*
X184190000Y-118657700D01*
X186000000Y-118657700D01*
X186172503Y-118657700D01*
X186174481Y-118658521D01*
X186583723Y-118658878D01*
X186961950Y-118502598D01*
X187192800Y-118272150D01*
X187192800Y-118930000D01*
X187194789Y-118940000D01*
X187192800Y-118950000D01*
X187192800Y-119264970D01*
X187029026Y-120088317D01*
X186588144Y-120748144D01*
X185928317Y-121189026D01*
X185104970Y-121352800D01*
X172126824Y-121352800D01*
X172126824Y-102268065D01*
X172017943Y-102004552D01*
X171816508Y-101802766D01*
X171553186Y-101693425D01*
X171268065Y-101693176D01*
X171004552Y-101802057D01*
X170802766Y-102003492D01*
X170693425Y-102266814D01*
X170693176Y-102551935D01*
X170802057Y-102815448D01*
X171003492Y-103017234D01*
X171266814Y-103126575D01*
X171551935Y-103126824D01*
X171815448Y-103017943D01*
X172017234Y-102816508D01*
X172126575Y-102553186D01*
X172126824Y-102268065D01*
X172126824Y-121352800D01*
X166929706Y-121352800D01*
X166929706Y-109459275D01*
X166837095Y-109235140D01*
X166665762Y-109063507D01*
X166441789Y-108970506D01*
X166199275Y-108970294D01*
X165975140Y-109062905D01*
X165803507Y-109234238D01*
X165714126Y-109449491D01*
X165661809Y-109501809D01*
X165548936Y-109670737D01*
X165509299Y-109870000D01*
X165509300Y-109870005D01*
X165509300Y-111174369D01*
X165420506Y-111388211D01*
X165420294Y-111630725D01*
X165512905Y-111854860D01*
X165684238Y-112026493D01*
X165908211Y-112119494D01*
X166150725Y-112119706D01*
X166374860Y-112027095D01*
X166546493Y-111855762D01*
X166639494Y-111631789D01*
X166639706Y-111389275D01*
X166550700Y-111173864D01*
X166550700Y-110144265D01*
X166664860Y-110097095D01*
X166836493Y-109925762D01*
X166929494Y-109701789D01*
X166929706Y-109459275D01*
X166929706Y-121352800D01*
X164918296Y-121352800D01*
X164918296Y-117822031D01*
X164885344Y-117272309D01*
X164738370Y-116917482D01*
X164501288Y-116846277D01*
X164303723Y-117043842D01*
X163717566Y-117630000D01*
X164501288Y-118413723D01*
X164738370Y-118342518D01*
X164918296Y-117822031D01*
X164918296Y-121352800D01*
X164795029Y-121352800D01*
X164303723Y-121255073D01*
X163971682Y-121189026D01*
X163311855Y-120748144D01*
X162870973Y-120088317D01*
X162707200Y-119264970D01*
X162707200Y-119040000D01*
X162707200Y-118640368D01*
X162736277Y-118611290D01*
X162807482Y-118848370D01*
X163327969Y-119028296D01*
X163877691Y-118995344D01*
X164232518Y-118848370D01*
X164303723Y-118611288D01*
X163520000Y-117827566D01*
X163505857Y-117841707D01*
X163308292Y-117644142D01*
X163322434Y-117630000D01*
X163308292Y-117615857D01*
X163505857Y-117418292D01*
X163520000Y-117432434D01*
X164303723Y-116648712D01*
X164232518Y-116411630D01*
X163712031Y-116231704D01*
X163162309Y-116264656D01*
X162807482Y-116411630D01*
X162736277Y-116648709D01*
X162707200Y-116619631D01*
X162707200Y-115731852D01*
X162936528Y-115961581D01*
X163314481Y-116118521D01*
X163723723Y-116118878D01*
X164101950Y-115962598D01*
X164391581Y-115673472D01*
X164548521Y-115295519D01*
X164548878Y-114886277D01*
X164392598Y-114508050D01*
X164103472Y-114218419D01*
X163725519Y-114061479D01*
X163316277Y-114061122D01*
X162938050Y-114217402D01*
X162707200Y-114447849D01*
X162707200Y-113191852D01*
X162936528Y-113421581D01*
X163314481Y-113578521D01*
X163723723Y-113578878D01*
X164101950Y-113422598D01*
X164391581Y-113133472D01*
X164548521Y-112755519D01*
X164548878Y-112346277D01*
X164392598Y-111968050D01*
X164103472Y-111678419D01*
X163725519Y-111521479D01*
X163316277Y-111521122D01*
X162938050Y-111677402D01*
X162707200Y-111907849D01*
X162707200Y-110651852D01*
X162936528Y-110881581D01*
X163314481Y-111038521D01*
X163723723Y-111038878D01*
X164101950Y-110882598D01*
X164391581Y-110593472D01*
X164548521Y-110215519D01*
X164548878Y-109806277D01*
X164392598Y-109428050D01*
X164103472Y-109138419D01*
X163725519Y-108981479D01*
X163316277Y-108981122D01*
X162938050Y-109137402D01*
X162707200Y-109367849D01*
X162707200Y-108111852D01*
X162936528Y-108341581D01*
X163314481Y-108498521D01*
X163723723Y-108498878D01*
X164101950Y-108342598D01*
X164391581Y-108053472D01*
X164548521Y-107675519D01*
X164548878Y-107266277D01*
X164392598Y-106888050D01*
X164103472Y-106598419D01*
X163725519Y-106441479D01*
X163316277Y-106441122D01*
X162938050Y-106597402D01*
X162707200Y-106827849D01*
X162707200Y-105571852D01*
X162936528Y-105801581D01*
X163314481Y-105958521D01*
X163723723Y-105958878D01*
X164101950Y-105802598D01*
X164391581Y-105513472D01*
X164470381Y-105323700D01*
X166820000Y-105323700D01*
X166970662Y-105293731D01*
X166970663Y-105293731D01*
X167098388Y-105208388D01*
X167638388Y-104668388D01*
X167723731Y-104540663D01*
X167723731Y-104540662D01*
X167753700Y-104390000D01*
X167753700Y-102698414D01*
X167802057Y-102815448D01*
X168003492Y-103017234D01*
X168266814Y-103126575D01*
X168551935Y-103126824D01*
X168815448Y-103017943D01*
X169017234Y-102816508D01*
X169126575Y-102553186D01*
X169126824Y-102268065D01*
X169017943Y-102004552D01*
X168816508Y-101802766D01*
X168553186Y-101693425D01*
X168268065Y-101693176D01*
X168004552Y-101802057D01*
X167802766Y-102003492D01*
X167753700Y-102121655D01*
X167753700Y-99603076D01*
X167953076Y-99403700D01*
X168200000Y-99403700D01*
X168350662Y-99373731D01*
X168350663Y-99373731D01*
X168478388Y-99288388D01*
X168808388Y-98958388D01*
X168893730Y-98830663D01*
X168893731Y-98830662D01*
X168923700Y-98680000D01*
X168923700Y-95900000D01*
X168922705Y-95895000D01*
X168923700Y-95890000D01*
X168923700Y-95627574D01*
X168924860Y-95627095D01*
X169096493Y-95455762D01*
X169189494Y-95231789D01*
X169189706Y-94989275D01*
X169139897Y-94868728D01*
X169264860Y-94817095D01*
X169436493Y-94645762D01*
X169529494Y-94421789D01*
X169529705Y-94179556D01*
X169700725Y-94179706D01*
X169924860Y-94087095D01*
X170096493Y-93915762D01*
X170189494Y-93691789D01*
X170189706Y-93449275D01*
X170169191Y-93399625D01*
X170260725Y-93399706D01*
X170484860Y-93307095D01*
X170656493Y-93135762D01*
X170749494Y-92911789D01*
X170749706Y-92669275D01*
X170657095Y-92445140D01*
X170485762Y-92273507D01*
X170261789Y-92180506D01*
X170019275Y-92180294D01*
X169795140Y-92272905D01*
X169623507Y-92444238D01*
X169581127Y-92546300D01*
X167240000Y-92546300D01*
X167089337Y-92576269D01*
X166961612Y-92661612D01*
X166602593Y-93020630D01*
X166435762Y-92853507D01*
X166211789Y-92760506D01*
X165969275Y-92760294D01*
X165823700Y-92820444D01*
X165823700Y-92470000D01*
X165803700Y-92369454D01*
X165803700Y-91588340D01*
X165926493Y-91465762D01*
X166019494Y-91241789D01*
X166019706Y-90999275D01*
X165927095Y-90775140D01*
X165755762Y-90603507D01*
X165531789Y-90510506D01*
X165289275Y-90510294D01*
X165065140Y-90602905D01*
X164893507Y-90774238D01*
X164800506Y-90998211D01*
X164800294Y-91240725D01*
X164892905Y-91464860D01*
X165016300Y-91588471D01*
X165016300Y-92450000D01*
X165036300Y-92550545D01*
X165036300Y-92882194D01*
X164989187Y-92645341D01*
X164510726Y-91929274D01*
X163794659Y-91450813D01*
X162950000Y-91282800D01*
X162361114Y-91399936D01*
X162362199Y-90173481D01*
X162372107Y-90169901D01*
X162389370Y-90159477D01*
X162424963Y-90152398D01*
X162560565Y-90061790D01*
X162647402Y-90271950D01*
X162936528Y-90561581D01*
X163314481Y-90718521D01*
X163723723Y-90718878D01*
X164101950Y-90562598D01*
X164391581Y-90273472D01*
X164470381Y-90083700D01*
X170570000Y-90083700D01*
X170720662Y-90053731D01*
X170720663Y-90053731D01*
X170741925Y-90039523D01*
X170741926Y-90039523D01*
X170950725Y-90039706D01*
X171174860Y-89947095D01*
X171346493Y-89775762D01*
X171439494Y-89551789D01*
X171439706Y-89309275D01*
X171347095Y-89085140D01*
X171175762Y-88913507D01*
X170951789Y-88820506D01*
X170709275Y-88820294D01*
X170485140Y-88912905D01*
X170313507Y-89084238D01*
X170225451Y-89296300D01*
X164470381Y-89296300D01*
X164392598Y-89108050D01*
X164103472Y-88818419D01*
X163725519Y-88661479D01*
X163316277Y-88661122D01*
X162938050Y-88817402D01*
X162707200Y-89047849D01*
X162707200Y-87791852D01*
X162936528Y-88021581D01*
X163314481Y-88178521D01*
X163723723Y-88178878D01*
X164101950Y-88022598D01*
X164391581Y-87733472D01*
X164470381Y-87543700D01*
X171240000Y-87543700D01*
X171290206Y-87533713D01*
X171328211Y-87549494D01*
X171570725Y-87549706D01*
X171794860Y-87457095D01*
X171966493Y-87285762D01*
X172059494Y-87061789D01*
X172059706Y-86819275D01*
X171967095Y-86595140D01*
X171795762Y-86423507D01*
X171571789Y-86330506D01*
X171329275Y-86330294D01*
X171105140Y-86422905D01*
X170933507Y-86594238D01*
X170866213Y-86756300D01*
X164470381Y-86756300D01*
X164392598Y-86568050D01*
X164103472Y-86278419D01*
X163725519Y-86121479D01*
X163316277Y-86121122D01*
X162938050Y-86277402D01*
X162707200Y-86507849D01*
X162707200Y-85251852D01*
X162936528Y-85481581D01*
X163314481Y-85638521D01*
X163723723Y-85638878D01*
X164101950Y-85482598D01*
X164391581Y-85193472D01*
X164417646Y-85130700D01*
X170989451Y-85130700D01*
X170989453Y-85130700D01*
X171090000Y-85150701D01*
X171090000Y-85150700D01*
X171190546Y-85130700D01*
X171190548Y-85130700D01*
X171359994Y-85130700D01*
X171360000Y-85130701D01*
X171360000Y-85130700D01*
X171559263Y-85091064D01*
X171728191Y-84978191D01*
X172360865Y-84345516D01*
X172574860Y-84257095D01*
X172746493Y-84085762D01*
X172839494Y-83861789D01*
X172839706Y-83619275D01*
X172747095Y-83395140D01*
X172575762Y-83223507D01*
X172351789Y-83130506D01*
X172109275Y-83130294D01*
X171885140Y-83222905D01*
X171713507Y-83394238D01*
X171624126Y-83609492D01*
X171144318Y-84089300D01*
X171110005Y-84089300D01*
X171110000Y-84089299D01*
X171099997Y-84091288D01*
X171090000Y-84089300D01*
X164417905Y-84089300D01*
X164392598Y-84028050D01*
X164103472Y-83738419D01*
X163725519Y-83581479D01*
X163316277Y-83581122D01*
X162938050Y-83737402D01*
X162707200Y-83967849D01*
X162707200Y-82711852D01*
X162936528Y-82941581D01*
X163314481Y-83098521D01*
X163723723Y-83098878D01*
X164101950Y-82942598D01*
X164391581Y-82653472D01*
X164417646Y-82590700D01*
X172719994Y-82590700D01*
X172720000Y-82590701D01*
X172720000Y-82590700D01*
X172919263Y-82551064D01*
X173088191Y-82438191D01*
X173638187Y-81888193D01*
X173638190Y-81888191D01*
X173638191Y-81888191D01*
X173705853Y-81786926D01*
X173751064Y-81719264D01*
X173751064Y-81719263D01*
X173790700Y-81520000D01*
X173790700Y-81205681D01*
X173845681Y-81150700D01*
X174814369Y-81150700D01*
X175028211Y-81239494D01*
X175270725Y-81239706D01*
X175494860Y-81147095D01*
X175666493Y-80975762D01*
X175759494Y-80751789D01*
X175759706Y-80509275D01*
X175667095Y-80285140D01*
X175495762Y-80113507D01*
X175271789Y-80020506D01*
X175029275Y-80020294D01*
X174813864Y-80109300D01*
X174403276Y-80109300D01*
X174403276Y-72272473D01*
X174379540Y-71488198D01*
X174125076Y-70873868D01*
X173827007Y-70730559D01*
X173629441Y-70928125D01*
X173629441Y-70532993D01*
X173486132Y-70234924D01*
X172752473Y-69956724D01*
X171968198Y-69980460D01*
X171353868Y-70234924D01*
X171210559Y-70532993D01*
X172420000Y-71742434D01*
X173629441Y-70532993D01*
X173629441Y-70928125D01*
X172617566Y-71940000D01*
X173827007Y-73149441D01*
X174125076Y-73006132D01*
X174403276Y-72272473D01*
X174403276Y-80109300D01*
X174112791Y-80109300D01*
X174206493Y-80015762D01*
X174299494Y-79791789D01*
X174299706Y-79549275D01*
X174207095Y-79325140D01*
X174035762Y-79153507D01*
X173811789Y-79060506D01*
X173766519Y-79060466D01*
X173749263Y-79048936D01*
X173629441Y-79025101D01*
X173629441Y-73347007D01*
X172420000Y-72137566D01*
X172222434Y-72335132D01*
X172222434Y-71940000D01*
X171012993Y-70730559D01*
X170714924Y-70873868D01*
X170436724Y-71607527D01*
X170460460Y-72391802D01*
X170714924Y-73006132D01*
X171012993Y-73149441D01*
X172222434Y-71940000D01*
X172222434Y-72335132D01*
X171210559Y-73347007D01*
X171353868Y-73645076D01*
X172087527Y-73923276D01*
X172871802Y-73899540D01*
X173486132Y-73645076D01*
X173629441Y-73347007D01*
X173629441Y-79025101D01*
X173550000Y-79009299D01*
X173549994Y-79009300D01*
X164417905Y-79009300D01*
X164392598Y-78948050D01*
X164103472Y-78658419D01*
X163725519Y-78501479D01*
X163316277Y-78501122D01*
X162938050Y-78657402D01*
X162707200Y-78887849D01*
X162707200Y-78390000D01*
X162705210Y-78380000D01*
X162707200Y-78370000D01*
X162707200Y-71220000D01*
X162707200Y-71210000D01*
X162707200Y-70730000D01*
X162705210Y-70720000D01*
X162707200Y-70710000D01*
X162707200Y-67745029D01*
X162870973Y-66921682D01*
X163311855Y-66261855D01*
X163971682Y-65820973D01*
X164795029Y-65657200D01*
X170999180Y-65657200D01*
X170714924Y-65793868D01*
X170436724Y-66527527D01*
X170460460Y-67311802D01*
X170714924Y-67926132D01*
X171012993Y-68069441D01*
X172222434Y-66860000D01*
X172208292Y-66845858D01*
X172405858Y-66648292D01*
X172420000Y-66662434D01*
X172434142Y-66648292D01*
X172631708Y-66845858D01*
X172617566Y-66860000D01*
X173827007Y-68069441D01*
X174125076Y-67926132D01*
X174403276Y-67192473D01*
X174379540Y-66408198D01*
X174125076Y-65793868D01*
X173840819Y-65657200D01*
X176079180Y-65657200D01*
X175794924Y-65793868D01*
X175516724Y-66527527D01*
X175540460Y-67311802D01*
X175794924Y-67926132D01*
X176092993Y-68069441D01*
X177302434Y-66860000D01*
X177288292Y-66845858D01*
X177485858Y-66648292D01*
X177500000Y-66662434D01*
X177514142Y-66648292D01*
X177711708Y-66845858D01*
X177697566Y-66860000D01*
X178907007Y-68069441D01*
X179205076Y-67926132D01*
X179483276Y-67192473D01*
X179459540Y-66408198D01*
X179205076Y-65793868D01*
X178920819Y-65657200D01*
X185114970Y-65657200D01*
X185934490Y-65820212D01*
X186591072Y-66258925D01*
X187029787Y-66915509D01*
X187192800Y-67735029D01*
X187192800Y-70650000D01*
X187200756Y-70690000D01*
X187192800Y-70730000D01*
X187192800Y-71179726D01*
X187182800Y-71230000D01*
X187192800Y-71280273D01*
X187192800Y-78370000D01*
X187192800Y-78888147D01*
X186963472Y-78658419D01*
X186585519Y-78501479D01*
X186176277Y-78501122D01*
X185798050Y-78657402D01*
X185508419Y-78946528D01*
X185351479Y-79324481D01*
X185351122Y-79733723D01*
X185507402Y-80111950D01*
X185796528Y-80401581D01*
X186174481Y-80558521D01*
X186583723Y-80558878D01*
X186961950Y-80402598D01*
X187192800Y-80172150D01*
X187192800Y-81428147D01*
X186963472Y-81198419D01*
X186585519Y-81041479D01*
X186176277Y-81041122D01*
X185798050Y-81197402D01*
X185508419Y-81486528D01*
X185351479Y-81864481D01*
X185351122Y-82273723D01*
X185507402Y-82651950D01*
X185796528Y-82941581D01*
X186174481Y-83098521D01*
X186583723Y-83098878D01*
X186961950Y-82942598D01*
X187192800Y-82712150D01*
X187192800Y-83968147D01*
X186963472Y-83738419D01*
X186585519Y-83581479D01*
X186176277Y-83581122D01*
X185798050Y-83737402D01*
X185508419Y-84026528D01*
X185351479Y-84404481D01*
X185351122Y-84813723D01*
X185507402Y-85191950D01*
X185796528Y-85481581D01*
X186174481Y-85638521D01*
X186583723Y-85638878D01*
X186961950Y-85482598D01*
X187192800Y-85252150D01*
X187192800Y-86508147D01*
X186963472Y-86278419D01*
X186585519Y-86121479D01*
X186176277Y-86121122D01*
X185798050Y-86277402D01*
X185508419Y-86566528D01*
X185351479Y-86944481D01*
X185351122Y-87353723D01*
X185507402Y-87731950D01*
X185796528Y-88021581D01*
X186174481Y-88178521D01*
X186583723Y-88178878D01*
X186961950Y-88022598D01*
X187192800Y-87792150D01*
X187192800Y-89048147D01*
X186963472Y-88818419D01*
X186585519Y-88661479D01*
X186176277Y-88661122D01*
X185798050Y-88817402D01*
X185508419Y-89106528D01*
X185351479Y-89484481D01*
X185351122Y-89893723D01*
X185507402Y-90271950D01*
X185796528Y-90561581D01*
X186174481Y-90718521D01*
X186583723Y-90718878D01*
X186961950Y-90562598D01*
X187251581Y-90273472D01*
X187329569Y-90085654D01*
X187330550Y-90087084D01*
X187480036Y-90184434D01*
X187526849Y-90203180D01*
X187526849Y-90203180D01*
G37*
X187526849Y-90203180D02*
X187526426Y-91397458D01*
X186950000Y-91282800D01*
X186105341Y-91450813D01*
X185389274Y-91929274D01*
X184910813Y-92645341D01*
X184742800Y-93490000D01*
X184910813Y-94334659D01*
X185389274Y-95050726D01*
X186105341Y-95529187D01*
X186950000Y-95697200D01*
X187524944Y-95582836D01*
X187524518Y-96788841D01*
X187499773Y-96802681D01*
X187475037Y-96807602D01*
X187393149Y-96862318D01*
X187378973Y-96870247D01*
X187376396Y-96873512D01*
X187326711Y-96906711D01*
X187326530Y-96906980D01*
X187252598Y-96728050D01*
X186963472Y-96438419D01*
X186585519Y-96281479D01*
X186176277Y-96281122D01*
X185798050Y-96437402D01*
X185508419Y-96726528D01*
X185351479Y-97104481D01*
X185351122Y-97513723D01*
X185507402Y-97891950D01*
X185796528Y-98181581D01*
X186174481Y-98338521D01*
X186583723Y-98338878D01*
X186961950Y-98182598D01*
X187192800Y-97952150D01*
X187192800Y-98220000D01*
X187194789Y-98230000D01*
X187192800Y-98240000D01*
X187192800Y-99208147D01*
X186963472Y-98978419D01*
X186585519Y-98821479D01*
X186176277Y-98821122D01*
X185798050Y-98977402D01*
X185508419Y-99266528D01*
X185351479Y-99644481D01*
X185351122Y-100053723D01*
X185507402Y-100431950D01*
X185796528Y-100721581D01*
X186174481Y-100878521D01*
X186583723Y-100878878D01*
X186961950Y-100722598D01*
X187192800Y-100492150D01*
X187192800Y-101748147D01*
X186963472Y-101518419D01*
X186585519Y-101361479D01*
X186176277Y-101361122D01*
X185798050Y-101517402D01*
X185508419Y-101806528D01*
X185351479Y-102184481D01*
X185351122Y-102593723D01*
X185507402Y-102971950D01*
X185796528Y-103261581D01*
X186174481Y-103418521D01*
X186583723Y-103418878D01*
X186961950Y-103262598D01*
X187192800Y-103032150D01*
X187192800Y-104288147D01*
X186963472Y-104058419D01*
X186585519Y-103901479D01*
X186176277Y-103901122D01*
X185798050Y-104057402D01*
X185508419Y-104346528D01*
X185351479Y-104724481D01*
X185351122Y-105133723D01*
X185507402Y-105511950D01*
X185796528Y-105801581D01*
X186174481Y-105958521D01*
X186583723Y-105958878D01*
X186961950Y-105802598D01*
X187192800Y-105572150D01*
X187192800Y-106828147D01*
X186963472Y-106598419D01*
X186585519Y-106441479D01*
X186176277Y-106441122D01*
X185798050Y-106597402D01*
X185508419Y-106886528D01*
X185351479Y-107264481D01*
X185351122Y-107673723D01*
X185507402Y-108051950D01*
X185796528Y-108341581D01*
X186174481Y-108498521D01*
X186583723Y-108498878D01*
X186961950Y-108342598D01*
X187192800Y-108112150D01*
X187192800Y-109368147D01*
X186963472Y-109138419D01*
X186585519Y-108981479D01*
X186176277Y-108981122D01*
X185798050Y-109137402D01*
X185508419Y-109426528D01*
X185435679Y-109601705D01*
X185329617Y-109622802D01*
X185275157Y-109659191D01*
X185193652Y-109713651D01*
X184843652Y-110063652D01*
X184752802Y-110199617D01*
X184749706Y-110215181D01*
X184749706Y-95959275D01*
X184657095Y-95735140D01*
X184485762Y-95563507D01*
X184261789Y-95470506D01*
X184173700Y-95470428D01*
X184173700Y-93868357D01*
X184286493Y-93755762D01*
X184379494Y-93531789D01*
X184379706Y-93289275D01*
X184287095Y-93065140D01*
X184115762Y-92893507D01*
X183891789Y-92800506D01*
X183649275Y-92800294D01*
X183425140Y-92892905D01*
X183253507Y-93064238D01*
X183160506Y-93288211D01*
X183160294Y-93530725D01*
X183252905Y-93754860D01*
X183386300Y-93888488D01*
X183386300Y-95720000D01*
X183416269Y-95870663D01*
X183501612Y-95998388D01*
X183530445Y-96027221D01*
X183530294Y-96200725D01*
X183622905Y-96424860D01*
X183794238Y-96596493D01*
X184018211Y-96689494D01*
X184260725Y-96689706D01*
X184484860Y-96597095D01*
X184656493Y-96425762D01*
X184749494Y-96201789D01*
X184749706Y-95959275D01*
X184749706Y-110215181D01*
X184720900Y-110360000D01*
X184720900Y-111536404D01*
X184676404Y-111580900D01*
X180231453Y-111580900D01*
X180167095Y-111425140D01*
X179995762Y-111253507D01*
X179771789Y-111160506D01*
X179529275Y-111160294D01*
X179305140Y-111252905D01*
X179133507Y-111424238D01*
X179040506Y-111648211D01*
X179040294Y-111890725D01*
X179132905Y-112114860D01*
X179304238Y-112286493D01*
X179528211Y-112379494D01*
X179708322Y-112379651D01*
X179719617Y-112387198D01*
X179880000Y-112419100D01*
X180055812Y-112419100D01*
X180010506Y-112528211D01*
X180010294Y-112770725D01*
X180095470Y-112976867D01*
X179967864Y-112891603D01*
X179720000Y-112842300D01*
X178248286Y-112842300D01*
X177487700Y-112081714D01*
X177487700Y-110702844D01*
X177648211Y-110769494D01*
X177890725Y-110769706D01*
X178085805Y-110689100D01*
X178777886Y-110689100D01*
X178862905Y-110894860D01*
X179034238Y-111066493D01*
X179258211Y-111159494D01*
X179500725Y-111159706D01*
X179724860Y-111067095D01*
X179896493Y-110895762D01*
X179989494Y-110671789D01*
X179989706Y-110429275D01*
X179897095Y-110205140D01*
X179725762Y-110033507D01*
X179501789Y-109940506D01*
X179346538Y-109940370D01*
X179260383Y-109882802D01*
X179100000Y-109850900D01*
X178301870Y-109850900D01*
X178287095Y-109815140D01*
X178115762Y-109643507D01*
X177891789Y-109550506D01*
X177649275Y-109550294D01*
X177487700Y-109617055D01*
X177487700Y-109534700D01*
X180649108Y-109534700D01*
X181093418Y-109979009D01*
X181118771Y-110106465D01*
X181286704Y-110357796D01*
X181538035Y-110525729D01*
X181834500Y-110584700D01*
X182130965Y-110525729D01*
X182382296Y-110357796D01*
X182550229Y-110106465D01*
X182609200Y-109810000D01*
X182609200Y-109624505D01*
X182609200Y-109624500D01*
X182609201Y-109624500D01*
X182550230Y-109328036D01*
X182550229Y-109328035D01*
X182494505Y-109244638D01*
X182382296Y-109076705D01*
X182382296Y-109076704D01*
X182382292Y-109076701D01*
X181785161Y-108479570D01*
X181940725Y-108479706D01*
X182164860Y-108387095D01*
X182336493Y-108215762D01*
X182429494Y-107991789D01*
X182429706Y-107749275D01*
X182337095Y-107525140D01*
X182165762Y-107353507D01*
X181941789Y-107260506D01*
X181699275Y-107260294D01*
X181475140Y-107352905D01*
X181303507Y-107524238D01*
X181229706Y-107701971D01*
X181229706Y-104269275D01*
X181137095Y-104045140D01*
X180965762Y-103873507D01*
X180741789Y-103780506D01*
X180499275Y-103780294D01*
X180275140Y-103872905D01*
X180103507Y-104044238D01*
X180010506Y-104268211D01*
X180010294Y-104510725D01*
X180102905Y-104734860D01*
X180200900Y-104833026D01*
X180200900Y-105556403D01*
X180186862Y-105570440D01*
X180019275Y-105570294D01*
X179795140Y-105662905D01*
X179623507Y-105834238D01*
X179550700Y-106009578D01*
X179550700Y-99801547D01*
X179629494Y-99611789D01*
X179629706Y-99369275D01*
X179537095Y-99145140D01*
X179483276Y-99091226D01*
X179483276Y-72272473D01*
X179459540Y-71488198D01*
X179205076Y-70873868D01*
X178907007Y-70730559D01*
X178709441Y-70928125D01*
X178709441Y-70532993D01*
X178709441Y-68267007D01*
X177500000Y-67057566D01*
X176290559Y-68267007D01*
X176433868Y-68565076D01*
X177167527Y-68843276D01*
X177951802Y-68819540D01*
X178566132Y-68565076D01*
X178709441Y-68267007D01*
X178709441Y-70532993D01*
X178566132Y-70234924D01*
X177832473Y-69956724D01*
X177048198Y-69980460D01*
X176476643Y-70217206D01*
X176476643Y-69099697D01*
X176246274Y-68542162D01*
X175820082Y-68115225D01*
X175262950Y-67883883D01*
X174659697Y-67883357D01*
X174102162Y-68113726D01*
X173675225Y-68539918D01*
X173629441Y-68650177D01*
X173629441Y-68267007D01*
X172420000Y-67057566D01*
X171210559Y-68267007D01*
X171353868Y-68565076D01*
X172087527Y-68843276D01*
X172871802Y-68819540D01*
X173486132Y-68565076D01*
X173629441Y-68267007D01*
X173629441Y-68650177D01*
X173443883Y-69097050D01*
X173443357Y-69700303D01*
X173673726Y-70257838D01*
X174099918Y-70684775D01*
X174657050Y-70916117D01*
X175260303Y-70916643D01*
X175817838Y-70686274D01*
X176244775Y-70260082D01*
X176476117Y-69702950D01*
X176476643Y-69099697D01*
X176476643Y-70217206D01*
X176433868Y-70234924D01*
X176290559Y-70532993D01*
X177500000Y-71742434D01*
X178709441Y-70532993D01*
X178709441Y-70928125D01*
X177697566Y-71940000D01*
X178907007Y-73149441D01*
X179205076Y-73006132D01*
X179483276Y-72272473D01*
X179483276Y-99091226D01*
X179365762Y-98973507D01*
X179141789Y-98880506D01*
X178899275Y-98880294D01*
X178709441Y-98958732D01*
X178709441Y-73347007D01*
X177500000Y-72137566D01*
X177302434Y-72335132D01*
X177302434Y-71940000D01*
X176092993Y-70730559D01*
X175794924Y-70873868D01*
X175516724Y-71607527D01*
X175540460Y-72391802D01*
X175794924Y-73006132D01*
X176092993Y-73149441D01*
X177302434Y-71940000D01*
X177302434Y-72335132D01*
X176290559Y-73347007D01*
X176433868Y-73645076D01*
X177167527Y-73923276D01*
X177951802Y-73899540D01*
X178566132Y-73645076D01*
X178709441Y-73347007D01*
X178709441Y-98958732D01*
X178675140Y-98972905D01*
X178503507Y-99144238D01*
X178410506Y-99368211D01*
X178410294Y-99610725D01*
X178502905Y-99834860D01*
X178509300Y-99841266D01*
X178509300Y-106539994D01*
X178509299Y-106540000D01*
X178548936Y-106739263D01*
X178661809Y-106908191D01*
X179141806Y-107388187D01*
X179141809Y-107388191D01*
X179141810Y-107388191D01*
X179310737Y-107501064D01*
X179510000Y-107540701D01*
X179510000Y-107540700D01*
X179510005Y-107540700D01*
X179664369Y-107540700D01*
X179878211Y-107629494D01*
X180120725Y-107629706D01*
X180344860Y-107537095D01*
X180516493Y-107365762D01*
X180609494Y-107141789D01*
X180609706Y-106899275D01*
X180517095Y-106675140D01*
X180511983Y-106670019D01*
X180656493Y-106525762D01*
X180749494Y-106301789D01*
X180749589Y-106193107D01*
X180916348Y-106026349D01*
X180916348Y-106026348D01*
X180961773Y-105958365D01*
X181007198Y-105890383D01*
X181007198Y-105890382D01*
X181039099Y-105730000D01*
X181039100Y-105730000D01*
X181039100Y-104832984D01*
X181136493Y-104735762D01*
X181229494Y-104511789D01*
X181229706Y-104269275D01*
X181229706Y-107701971D01*
X181210506Y-107748211D01*
X181210294Y-107990725D01*
X181229369Y-108036892D01*
X181217277Y-108034486D01*
X180970000Y-107985299D01*
X180969994Y-107985300D01*
X177327700Y-107985300D01*
X177327700Y-100620000D01*
X177278397Y-100372136D01*
X177137993Y-100162007D01*
X176247993Y-99272007D01*
X176037864Y-99131603D01*
X175790000Y-99082300D01*
X175542136Y-99131603D01*
X175332007Y-99272007D01*
X175191603Y-99482136D01*
X175142300Y-99730000D01*
X175191603Y-99977864D01*
X175332007Y-100187993D01*
X176032300Y-100888286D01*
X176032300Y-105569603D01*
X175919585Y-105456889D01*
X175919706Y-105319275D01*
X175827095Y-105095140D01*
X175655762Y-104923507D01*
X175431789Y-104830506D01*
X175189275Y-104830294D01*
X174965140Y-104922905D01*
X174793507Y-105094238D01*
X174700506Y-105318211D01*
X174700294Y-105560725D01*
X174792905Y-105784860D01*
X174964238Y-105956493D01*
X175188211Y-106049494D01*
X175326918Y-106049615D01*
X175510900Y-106233596D01*
X175510900Y-109955300D01*
X175363507Y-110102436D01*
X175270506Y-110326409D01*
X175270294Y-110568923D01*
X175362905Y-110793058D01*
X175534238Y-110964691D01*
X175758211Y-111057692D01*
X176000725Y-111057904D01*
X176192300Y-110978746D01*
X176192300Y-112350000D01*
X176241603Y-112597864D01*
X176382007Y-112807993D01*
X177522007Y-113947993D01*
X177732135Y-114088397D01*
X177732136Y-114088397D01*
X177980000Y-114137700D01*
X179451714Y-114137700D01*
X179922300Y-114608286D01*
X179922300Y-117200000D01*
X179971603Y-117447864D01*
X180112007Y-117657993D01*
X180922007Y-118467993D01*
X181132136Y-118608397D01*
X181380000Y-118657700D01*
X184190000Y-118657700D01*
X186000000Y-118657700D01*
X186172503Y-118657700D01*
X186174481Y-118658521D01*
X186583723Y-118658878D01*
X186961950Y-118502598D01*
X187192800Y-118272150D01*
X187192800Y-118930000D01*
X187194789Y-118940000D01*
X187192800Y-118950000D01*
X187192800Y-119264970D01*
X187029026Y-120088317D01*
X186588144Y-120748144D01*
X185928317Y-121189026D01*
X185104970Y-121352800D01*
X172126824Y-121352800D01*
X172126824Y-102268065D01*
X172017943Y-102004552D01*
X171816508Y-101802766D01*
X171553186Y-101693425D01*
X171268065Y-101693176D01*
X171004552Y-101802057D01*
X170802766Y-102003492D01*
X170693425Y-102266814D01*
X170693176Y-102551935D01*
X170802057Y-102815448D01*
X171003492Y-103017234D01*
X171266814Y-103126575D01*
X171551935Y-103126824D01*
X171815448Y-103017943D01*
X172017234Y-102816508D01*
X172126575Y-102553186D01*
X172126824Y-102268065D01*
X172126824Y-121352800D01*
X166929706Y-121352800D01*
X166929706Y-109459275D01*
X166837095Y-109235140D01*
X166665762Y-109063507D01*
X166441789Y-108970506D01*
X166199275Y-108970294D01*
X165975140Y-109062905D01*
X165803507Y-109234238D01*
X165714126Y-109449491D01*
X165661809Y-109501809D01*
X165548936Y-109670737D01*
X165509299Y-109870000D01*
X165509300Y-109870005D01*
X165509300Y-111174369D01*
X165420506Y-111388211D01*
X165420294Y-111630725D01*
X165512905Y-111854860D01*
X165684238Y-112026493D01*
X165908211Y-112119494D01*
X166150725Y-112119706D01*
X166374860Y-112027095D01*
X166546493Y-111855762D01*
X166639494Y-111631789D01*
X166639706Y-111389275D01*
X166550700Y-111173864D01*
X166550700Y-110144265D01*
X166664860Y-110097095D01*
X166836493Y-109925762D01*
X166929494Y-109701789D01*
X166929706Y-109459275D01*
X166929706Y-121352800D01*
X164918296Y-121352800D01*
X164918296Y-117822031D01*
X164885344Y-117272309D01*
X164738370Y-116917482D01*
X164501288Y-116846277D01*
X164303723Y-117043842D01*
X163717566Y-117630000D01*
X164501288Y-118413723D01*
X164738370Y-118342518D01*
X164918296Y-117822031D01*
X164918296Y-121352800D01*
X164795029Y-121352800D01*
X164303723Y-121255073D01*
X163971682Y-121189026D01*
X163311855Y-120748144D01*
X162870973Y-120088317D01*
X162707200Y-119264970D01*
X162707200Y-119040000D01*
X162707200Y-118640368D01*
X162736277Y-118611290D01*
X162807482Y-118848370D01*
X163327969Y-119028296D01*
X163877691Y-118995344D01*
X164232518Y-118848370D01*
X164303723Y-118611288D01*
X163520000Y-117827566D01*
X163505857Y-117841707D01*
X163308292Y-117644142D01*
X163322434Y-117630000D01*
X163308292Y-117615857D01*
X163505857Y-117418292D01*
X163520000Y-117432434D01*
X164303723Y-116648712D01*
X164232518Y-116411630D01*
X163712031Y-116231704D01*
X163162309Y-116264656D01*
X162807482Y-116411630D01*
X162736277Y-116648709D01*
X162707200Y-116619631D01*
X162707200Y-115731852D01*
X162936528Y-115961581D01*
X163314481Y-116118521D01*
X163723723Y-116118878D01*
X164101950Y-115962598D01*
X164391581Y-115673472D01*
X164548521Y-115295519D01*
X164548878Y-114886277D01*
X164392598Y-114508050D01*
X164103472Y-114218419D01*
X163725519Y-114061479D01*
X163316277Y-114061122D01*
X162938050Y-114217402D01*
X162707200Y-114447849D01*
X162707200Y-113191852D01*
X162936528Y-113421581D01*
X163314481Y-113578521D01*
X163723723Y-113578878D01*
X164101950Y-113422598D01*
X164391581Y-113133472D01*
X164548521Y-112755519D01*
X164548878Y-112346277D01*
X164392598Y-111968050D01*
X164103472Y-111678419D01*
X163725519Y-111521479D01*
X163316277Y-111521122D01*
X162938050Y-111677402D01*
X162707200Y-111907849D01*
X162707200Y-110651852D01*
X162936528Y-110881581D01*
X163314481Y-111038521D01*
X163723723Y-111038878D01*
X164101950Y-110882598D01*
X164391581Y-110593472D01*
X164548521Y-110215519D01*
X164548878Y-109806277D01*
X164392598Y-109428050D01*
X164103472Y-109138419D01*
X163725519Y-108981479D01*
X163316277Y-108981122D01*
X162938050Y-109137402D01*
X162707200Y-109367849D01*
X162707200Y-108111852D01*
X162936528Y-108341581D01*
X163314481Y-108498521D01*
X163723723Y-108498878D01*
X164101950Y-108342598D01*
X164391581Y-108053472D01*
X164548521Y-107675519D01*
X164548878Y-107266277D01*
X164392598Y-106888050D01*
X164103472Y-106598419D01*
X163725519Y-106441479D01*
X163316277Y-106441122D01*
X162938050Y-106597402D01*
X162707200Y-106827849D01*
X162707200Y-105571852D01*
X162936528Y-105801581D01*
X163314481Y-105958521D01*
X163723723Y-105958878D01*
X164101950Y-105802598D01*
X164391581Y-105513472D01*
X164470381Y-105323700D01*
X166820000Y-105323700D01*
X166970662Y-105293731D01*
X166970663Y-105293731D01*
X167098388Y-105208388D01*
X167638388Y-104668388D01*
X167723731Y-104540663D01*
X167723731Y-104540662D01*
X167753700Y-104390000D01*
X167753700Y-102698414D01*
X167802057Y-102815448D01*
X168003492Y-103017234D01*
X168266814Y-103126575D01*
X168551935Y-103126824D01*
X168815448Y-103017943D01*
X169017234Y-102816508D01*
X169126575Y-102553186D01*
X169126824Y-102268065D01*
X169017943Y-102004552D01*
X168816508Y-101802766D01*
X168553186Y-101693425D01*
X168268065Y-101693176D01*
X168004552Y-101802057D01*
X167802766Y-102003492D01*
X167753700Y-102121655D01*
X167753700Y-99603076D01*
X167953076Y-99403700D01*
X168200000Y-99403700D01*
X168350662Y-99373731D01*
X168350663Y-99373731D01*
X168478388Y-99288388D01*
X168808388Y-98958388D01*
X168893730Y-98830663D01*
X168893731Y-98830662D01*
X168923700Y-98680000D01*
X168923700Y-95900000D01*
X168922705Y-95895000D01*
X168923700Y-95890000D01*
X168923700Y-95627574D01*
X168924860Y-95627095D01*
X169096493Y-95455762D01*
X169189494Y-95231789D01*
X169189706Y-94989275D01*
X169139897Y-94868728D01*
X169264860Y-94817095D01*
X169436493Y-94645762D01*
X169529494Y-94421789D01*
X169529705Y-94179556D01*
X169700725Y-94179706D01*
X169924860Y-94087095D01*
X170096493Y-93915762D01*
X170189494Y-93691789D01*
X170189706Y-93449275D01*
X170169191Y-93399625D01*
X170260725Y-93399706D01*
X170484860Y-93307095D01*
X170656493Y-93135762D01*
X170749494Y-92911789D01*
X170749706Y-92669275D01*
X170657095Y-92445140D01*
X170485762Y-92273507D01*
X170261789Y-92180506D01*
X170019275Y-92180294D01*
X169795140Y-92272905D01*
X169623507Y-92444238D01*
X169581127Y-92546300D01*
X167240000Y-92546300D01*
X167089337Y-92576269D01*
X166961612Y-92661612D01*
X166602593Y-93020630D01*
X166435762Y-92853507D01*
X166211789Y-92760506D01*
X165969275Y-92760294D01*
X165823700Y-92820444D01*
X165823700Y-92470000D01*
X165803700Y-92369454D01*
X165803700Y-91588340D01*
X165926493Y-91465762D01*
X166019494Y-91241789D01*
X166019706Y-90999275D01*
X165927095Y-90775140D01*
X165755762Y-90603507D01*
X165531789Y-90510506D01*
X165289275Y-90510294D01*
X165065140Y-90602905D01*
X164893507Y-90774238D01*
X164800506Y-90998211D01*
X164800294Y-91240725D01*
X164892905Y-91464860D01*
X165016300Y-91588471D01*
X165016300Y-92450000D01*
X165036300Y-92550545D01*
X165036300Y-92882194D01*
X164989187Y-92645341D01*
X164510726Y-91929274D01*
X163794659Y-91450813D01*
X162950000Y-91282800D01*
X162361114Y-91399936D01*
X162362199Y-90173481D01*
X162372107Y-90169901D01*
X162389370Y-90159477D01*
X162424963Y-90152398D01*
X162560565Y-90061790D01*
X162647402Y-90271950D01*
X162936528Y-90561581D01*
X163314481Y-90718521D01*
X163723723Y-90718878D01*
X164101950Y-90562598D01*
X164391581Y-90273472D01*
X164470381Y-90083700D01*
X170570000Y-90083700D01*
X170720662Y-90053731D01*
X170720663Y-90053731D01*
X170741925Y-90039523D01*
X170741926Y-90039523D01*
X170950725Y-90039706D01*
X171174860Y-89947095D01*
X171346493Y-89775762D01*
X171439494Y-89551789D01*
X171439706Y-89309275D01*
X171347095Y-89085140D01*
X171175762Y-88913507D01*
X170951789Y-88820506D01*
X170709275Y-88820294D01*
X170485140Y-88912905D01*
X170313507Y-89084238D01*
X170225451Y-89296300D01*
X164470381Y-89296300D01*
X164392598Y-89108050D01*
X164103472Y-88818419D01*
X163725519Y-88661479D01*
X163316277Y-88661122D01*
X162938050Y-88817402D01*
X162707200Y-89047849D01*
X162707200Y-87791852D01*
X162936528Y-88021581D01*
X163314481Y-88178521D01*
X163723723Y-88178878D01*
X164101950Y-88022598D01*
X164391581Y-87733472D01*
X164470381Y-87543700D01*
X171240000Y-87543700D01*
X171290206Y-87533713D01*
X171328211Y-87549494D01*
X171570725Y-87549706D01*
X171794860Y-87457095D01*
X171966493Y-87285762D01*
X172059494Y-87061789D01*
X172059706Y-86819275D01*
X171967095Y-86595140D01*
X171795762Y-86423507D01*
X171571789Y-86330506D01*
X171329275Y-86330294D01*
X171105140Y-86422905D01*
X170933507Y-86594238D01*
X170866213Y-86756300D01*
X164470381Y-86756300D01*
X164392598Y-86568050D01*
X164103472Y-86278419D01*
X163725519Y-86121479D01*
X163316277Y-86121122D01*
X162938050Y-86277402D01*
X162707200Y-86507849D01*
X162707200Y-85251852D01*
X162936528Y-85481581D01*
X163314481Y-85638521D01*
X163723723Y-85638878D01*
X164101950Y-85482598D01*
X164391581Y-85193472D01*
X164417646Y-85130700D01*
X170989451Y-85130700D01*
X170989453Y-85130700D01*
X171090000Y-85150701D01*
X171090000Y-85150700D01*
X171190546Y-85130700D01*
X171190548Y-85130700D01*
X171359994Y-85130700D01*
X171360000Y-85130701D01*
X171360000Y-85130700D01*
X171559263Y-85091064D01*
X171728191Y-84978191D01*
X172360865Y-84345516D01*
X172574860Y-84257095D01*
X172746493Y-84085762D01*
X172839494Y-83861789D01*
X172839706Y-83619275D01*
X172747095Y-83395140D01*
X172575762Y-83223507D01*
X172351789Y-83130506D01*
X172109275Y-83130294D01*
X171885140Y-83222905D01*
X171713507Y-83394238D01*
X171624126Y-83609492D01*
X171144318Y-84089300D01*
X171110005Y-84089300D01*
X171110000Y-84089299D01*
X171099997Y-84091288D01*
X171090000Y-84089300D01*
X164417905Y-84089300D01*
X164392598Y-84028050D01*
X164103472Y-83738419D01*
X163725519Y-83581479D01*
X163316277Y-83581122D01*
X162938050Y-83737402D01*
X162707200Y-83967849D01*
X162707200Y-82711852D01*
X162936528Y-82941581D01*
X163314481Y-83098521D01*
X163723723Y-83098878D01*
X164101950Y-82942598D01*
X164391581Y-82653472D01*
X164417646Y-82590700D01*
X172719994Y-82590700D01*
X172720000Y-82590701D01*
X172720000Y-82590700D01*
X172919263Y-82551064D01*
X173088191Y-82438191D01*
X173638187Y-81888193D01*
X173638190Y-81888191D01*
X173638191Y-81888191D01*
X173705853Y-81786926D01*
X173751064Y-81719264D01*
X173751064Y-81719263D01*
X173790700Y-81520000D01*
X173790700Y-81205681D01*
X173845681Y-81150700D01*
X174814369Y-81150700D01*
X175028211Y-81239494D01*
X175270725Y-81239706D01*
X175494860Y-81147095D01*
X175666493Y-80975762D01*
X175759494Y-80751789D01*
X175759706Y-80509275D01*
X175667095Y-80285140D01*
X175495762Y-80113507D01*
X175271789Y-80020506D01*
X175029275Y-80020294D01*
X174813864Y-80109300D01*
X174403276Y-80109300D01*
X174403276Y-72272473D01*
X174379540Y-71488198D01*
X174125076Y-70873868D01*
X173827007Y-70730559D01*
X173629441Y-70928125D01*
X173629441Y-70532993D01*
X173486132Y-70234924D01*
X172752473Y-69956724D01*
X171968198Y-69980460D01*
X171353868Y-70234924D01*
X171210559Y-70532993D01*
X172420000Y-71742434D01*
X173629441Y-70532993D01*
X173629441Y-70928125D01*
X172617566Y-71940000D01*
X173827007Y-73149441D01*
X174125076Y-73006132D01*
X174403276Y-72272473D01*
X174403276Y-80109300D01*
X174112791Y-80109300D01*
X174206493Y-80015762D01*
X174299494Y-79791789D01*
X174299706Y-79549275D01*
X174207095Y-79325140D01*
X174035762Y-79153507D01*
X173811789Y-79060506D01*
X173766519Y-79060466D01*
X173749263Y-79048936D01*
X173629441Y-79025101D01*
X173629441Y-73347007D01*
X172420000Y-72137566D01*
X172222434Y-72335132D01*
X172222434Y-71940000D01*
X171012993Y-70730559D01*
X170714924Y-70873868D01*
X170436724Y-71607527D01*
X170460460Y-72391802D01*
X170714924Y-73006132D01*
X171012993Y-73149441D01*
X172222434Y-71940000D01*
X172222434Y-72335132D01*
X171210559Y-73347007D01*
X171353868Y-73645076D01*
X172087527Y-73923276D01*
X172871802Y-73899540D01*
X173486132Y-73645076D01*
X173629441Y-73347007D01*
X173629441Y-79025101D01*
X173550000Y-79009299D01*
X173549994Y-79009300D01*
X164417905Y-79009300D01*
X164392598Y-78948050D01*
X164103472Y-78658419D01*
X163725519Y-78501479D01*
X163316277Y-78501122D01*
X162938050Y-78657402D01*
X162707200Y-78887849D01*
X162707200Y-78390000D01*
X162705210Y-78380000D01*
X162707200Y-78370000D01*
X162707200Y-71220000D01*
X162707200Y-71210000D01*
X162707200Y-70730000D01*
X162705210Y-70720000D01*
X162707200Y-70710000D01*
X162707200Y-67745029D01*
X162870973Y-66921682D01*
X163311855Y-66261855D01*
X163971682Y-65820973D01*
X164795029Y-65657200D01*
X170999180Y-65657200D01*
X170714924Y-65793868D01*
X170436724Y-66527527D01*
X170460460Y-67311802D01*
X170714924Y-67926132D01*
X171012993Y-68069441D01*
X172222434Y-66860000D01*
X172208292Y-66845858D01*
X172405858Y-66648292D01*
X172420000Y-66662434D01*
X172434142Y-66648292D01*
X172631708Y-66845858D01*
X172617566Y-66860000D01*
X173827007Y-68069441D01*
X174125076Y-67926132D01*
X174403276Y-67192473D01*
X174379540Y-66408198D01*
X174125076Y-65793868D01*
X173840819Y-65657200D01*
X176079180Y-65657200D01*
X175794924Y-65793868D01*
X175516724Y-66527527D01*
X175540460Y-67311802D01*
X175794924Y-67926132D01*
X176092993Y-68069441D01*
X177302434Y-66860000D01*
X177288292Y-66845858D01*
X177485858Y-66648292D01*
X177500000Y-66662434D01*
X177514142Y-66648292D01*
X177711708Y-66845858D01*
X177697566Y-66860000D01*
X178907007Y-68069441D01*
X179205076Y-67926132D01*
X179483276Y-67192473D01*
X179459540Y-66408198D01*
X179205076Y-65793868D01*
X178920819Y-65657200D01*
X185114970Y-65657200D01*
X185934490Y-65820212D01*
X186591072Y-66258925D01*
X187029787Y-66915509D01*
X187192800Y-67735029D01*
X187192800Y-70650000D01*
X187200756Y-70690000D01*
X187192800Y-70730000D01*
X187192800Y-71179726D01*
X187182800Y-71230000D01*
X187192800Y-71280273D01*
X187192800Y-78370000D01*
X187192800Y-78888147D01*
X186963472Y-78658419D01*
X186585519Y-78501479D01*
X186176277Y-78501122D01*
X185798050Y-78657402D01*
X185508419Y-78946528D01*
X185351479Y-79324481D01*
X185351122Y-79733723D01*
X185507402Y-80111950D01*
X185796528Y-80401581D01*
X186174481Y-80558521D01*
X186583723Y-80558878D01*
X186961950Y-80402598D01*
X187192800Y-80172150D01*
X187192800Y-81428147D01*
X186963472Y-81198419D01*
X186585519Y-81041479D01*
X186176277Y-81041122D01*
X185798050Y-81197402D01*
X185508419Y-81486528D01*
X185351479Y-81864481D01*
X185351122Y-82273723D01*
X185507402Y-82651950D01*
X185796528Y-82941581D01*
X186174481Y-83098521D01*
X186583723Y-83098878D01*
X186961950Y-82942598D01*
X187192800Y-82712150D01*
X187192800Y-83968147D01*
X186963472Y-83738419D01*
X186585519Y-83581479D01*
X186176277Y-83581122D01*
X185798050Y-83737402D01*
X185508419Y-84026528D01*
X185351479Y-84404481D01*
X185351122Y-84813723D01*
X185507402Y-85191950D01*
X185796528Y-85481581D01*
X186174481Y-85638521D01*
X186583723Y-85638878D01*
X186961950Y-85482598D01*
X187192800Y-85252150D01*
X187192800Y-86508147D01*
X186963472Y-86278419D01*
X186585519Y-86121479D01*
X186176277Y-86121122D01*
X185798050Y-86277402D01*
X185508419Y-86566528D01*
X185351479Y-86944481D01*
X185351122Y-87353723D01*
X185507402Y-87731950D01*
X185796528Y-88021581D01*
X186174481Y-88178521D01*
X186583723Y-88178878D01*
X186961950Y-88022598D01*
X187192800Y-87792150D01*
X187192800Y-89048147D01*
X186963472Y-88818419D01*
X186585519Y-88661479D01*
X186176277Y-88661122D01*
X185798050Y-88817402D01*
X185508419Y-89106528D01*
X185351479Y-89484481D01*
X185351122Y-89893723D01*
X185507402Y-90271950D01*
X185796528Y-90561581D01*
X186174481Y-90718521D01*
X186583723Y-90718878D01*
X186961950Y-90562598D01*
X187251581Y-90273472D01*
X187329569Y-90085654D01*
X187330550Y-90087084D01*
X187480036Y-90184434D01*
X187526849Y-90203180D01*
M02*
