%FSLAX46Y46*%
G04 Gerber Fmt 4.6, Leading zero omitted, Abs format (unit mm)*
G04 Created by KiCad (PCBNEW (2014-jul-16 BZR unknown)-product) date Wed 11 Feb 2015 12:50:59 PM CET*
%MOMM*%
G01*
G04 APERTURE LIST*
%ADD10C,0.150000*%
%ADD11R,1.500000X1.400000*%
%ADD12R,1.400000X1.500000*%
%ADD13R,1.400000X1.400000*%
%ADD14C,0.558800*%
%ADD15C,0.876300*%
%ADD16C,0.254000*%
%ADD17C,0.203200*%
%ADD18C,0.508000*%
%ADD19C,0.228600*%
G04 APERTURE END LIST*
D10*
D11*
X156184600Y-103777400D03*
X156184600Y-105777400D03*
X156184600Y-107777400D03*
X156184600Y-109777400D03*
X156184600Y-111777400D03*
X156184600Y-113777400D03*
X156184600Y-115777400D03*
X156184600Y-117777400D03*
X156184600Y-119777400D03*
X156184600Y-121777400D03*
X172180000Y-103781400D03*
X172180000Y-105781400D03*
X172180000Y-107781400D03*
X172180000Y-109781400D03*
X172180000Y-111781400D03*
X172180000Y-113781400D03*
X172180000Y-115781400D03*
X172180000Y-117781400D03*
X172180000Y-119781400D03*
X172180000Y-121781400D03*
D12*
X158181400Y-123780000D03*
X160181400Y-123780000D03*
X162181400Y-123780000D03*
X164181400Y-123780000D03*
X166181400Y-123780000D03*
X168181400Y-123780000D03*
X170181400Y-123780000D03*
D13*
X158181400Y-101780000D03*
X160181400Y-101780000D03*
X162181400Y-101780000D03*
X164181400Y-101780000D03*
X166181400Y-101780000D03*
X168181400Y-101780000D03*
X170181400Y-101780000D03*
D14*
X160770000Y-112280000D03*
X165300000Y-122220000D03*
X167000000Y-117310000D03*
X165670000Y-115120000D03*
X158950000Y-117070000D03*
X159010000Y-116340000D03*
X158910000Y-115590000D03*
X159000000Y-114880000D03*
X158890000Y-114180000D03*
X159000000Y-109940000D03*
X166020000Y-110230000D03*
X167750000Y-110150000D03*
X159470000Y-109150000D03*
X165880000Y-110920000D03*
X165870000Y-111680000D03*
X157340000Y-106840000D03*
X167870000Y-111480000D03*
X166070000Y-112720000D03*
X167860000Y-112560000D03*
X160950000Y-110950000D03*
D15*
X163620000Y-121460000D03*
D14*
X163210000Y-119050000D03*
X157860000Y-122320000D03*
X159140000Y-108440000D03*
X157380000Y-107980000D03*
X158170000Y-117150000D03*
X157360000Y-119660000D03*
X166150000Y-122510000D03*
X156920000Y-102530000D03*
X171440000Y-102500000D03*
X170900000Y-120790000D03*
X171430000Y-123050000D03*
X156940000Y-123040000D03*
X157400000Y-112390000D03*
D15*
X158950000Y-105738100D03*
X160430000Y-105740700D03*
D14*
X169260000Y-107040000D03*
X169470000Y-108580000D03*
D15*
X167040000Y-104890000D03*
D14*
X169360000Y-105340000D03*
X166230000Y-119619300D03*
X167830000Y-119619300D03*
X169440000Y-119619300D03*
X168740000Y-114890000D03*
X169530000Y-111460000D03*
X165540000Y-105760000D03*
X166380000Y-106460000D03*
X165550000Y-106450000D03*
X166380000Y-105790000D03*
D15*
X163890000Y-106450240D03*
D14*
X161400000Y-106430000D03*
X162280000Y-106440000D03*
X161931720Y-112470000D03*
X163410000Y-112470000D03*
X164888280Y-112470000D03*
X164888280Y-113948280D03*
X163410000Y-113948280D03*
X161931720Y-113948280D03*
X163410000Y-110991720D03*
X164888280Y-110991720D03*
X162110000Y-111140000D03*
D15*
X170180000Y-103770000D03*
X168180000Y-103760000D03*
X166180000Y-103770000D03*
X158180000Y-103770000D03*
X160180000Y-103770000D03*
X162190000Y-103770000D03*
X164820000Y-104900000D03*
X169240000Y-121860000D03*
D14*
X159150000Y-112370000D03*
X157500000Y-110850000D03*
X157970000Y-120610000D03*
X166950000Y-122210000D03*
X167830000Y-118120700D03*
X169440000Y-118120700D03*
X168670700Y-111580000D03*
X160760000Y-115090000D03*
X160770000Y-117610000D03*
X161520000Y-115080000D03*
X161280000Y-120140000D03*
D16*
X160310000Y-113720000D02*
X160770000Y-113260000D01*
X160770000Y-112280000D02*
X160770000Y-113260000D01*
X160200000Y-123761400D02*
X160181400Y-123780000D01*
X160181400Y-123721400D02*
X160181400Y-123780000D01*
X160301002Y-113720000D02*
X159931002Y-114090000D01*
X159931002Y-114090000D02*
X159931002Y-117420000D01*
X159931002Y-117420000D02*
X159470000Y-117881002D01*
X159470000Y-117881002D02*
X159470000Y-119311002D01*
X159470000Y-119311002D02*
X159110000Y-119671002D01*
X159110000Y-119671002D02*
X159110000Y-122650000D01*
X159110000Y-122650000D02*
X160181400Y-123721400D01*
X160310000Y-113720000D02*
X160301002Y-113720000D01*
X160181400Y-123568600D02*
X160181400Y-123780000D01*
X165300000Y-122220000D02*
X165190000Y-122330000D01*
X165190000Y-122330000D02*
X161420000Y-122330000D01*
X161420000Y-122330000D02*
X160181400Y-123568600D01*
X167000000Y-117310000D02*
X167110000Y-117420000D01*
X167110000Y-117420000D02*
X169810000Y-117420000D01*
X169810000Y-117420000D02*
X170170000Y-117780000D01*
X170170000Y-117780000D02*
X170170000Y-121540000D01*
X170170000Y-121540000D02*
X170411400Y-121781400D01*
X170411400Y-121781400D02*
X172180000Y-121781400D01*
X172041400Y-117781400D02*
X172180000Y-117781400D01*
X165670000Y-115120000D02*
X165710000Y-115160000D01*
X165710000Y-115160000D02*
X165710000Y-116450000D01*
X165710000Y-116450000D02*
X166020000Y-116760000D01*
X166020000Y-116760000D02*
X171020000Y-116760000D01*
X171020000Y-116760000D02*
X172041400Y-117781400D01*
X157690000Y-118380000D02*
X156292600Y-119777400D01*
X158340000Y-118380000D02*
X157690000Y-118380000D01*
X158670000Y-118050000D02*
X158340000Y-118380000D01*
X158670000Y-117350000D02*
X158670000Y-118050000D01*
X158950000Y-117070000D02*
X158670000Y-117350000D01*
X156292600Y-119777400D02*
X156184600Y-119777400D01*
X156282600Y-117777400D02*
X156184600Y-117777400D01*
X157720000Y-116340000D02*
X156282600Y-117777400D01*
X159010000Y-116340000D02*
X157720000Y-116340000D01*
X158910000Y-115590000D02*
X158900000Y-115580000D01*
X158900000Y-115580000D02*
X156382000Y-115580000D01*
X156382000Y-115580000D02*
X156184600Y-115777400D01*
X158060000Y-114100000D02*
X158060000Y-114080000D01*
X158060000Y-114080000D02*
X157757400Y-113777400D01*
X157757400Y-113777400D02*
X156184600Y-113777400D01*
X158060000Y-114520000D02*
X158060000Y-114100000D01*
X158320000Y-114780000D02*
X158060000Y-114520000D01*
X158900000Y-114780000D02*
X158320000Y-114780000D01*
X159000000Y-114880000D02*
X158900000Y-114780000D01*
X158367400Y-111777400D02*
X156184600Y-111777400D01*
X158610000Y-112020000D02*
X158367400Y-111777400D01*
X158610000Y-113900000D02*
X158610000Y-112020000D01*
X158890000Y-114180000D02*
X158610000Y-113900000D01*
X156207200Y-109800000D02*
X156184600Y-109777400D01*
X156217200Y-109810000D02*
X156184600Y-109777400D01*
D17*
X159000000Y-109940000D02*
X159090000Y-109940000D01*
X159279798Y-109750202D02*
X160820000Y-109750202D01*
X159090000Y-109940000D02*
X159279798Y-109750202D01*
X160820000Y-109750202D02*
X161420202Y-109750202D01*
X161423226Y-109750202D02*
X161953226Y-110280202D01*
X165763488Y-110280202D02*
X165969798Y-110280202D01*
X161953226Y-110280202D02*
X162680000Y-110280202D01*
X165969798Y-110280202D02*
X166020000Y-110230000D01*
X161420202Y-109750202D02*
X161423226Y-109750202D01*
X162787178Y-110280202D02*
X162986976Y-110480000D01*
X162986976Y-110480000D02*
X165466976Y-110480000D01*
X165466976Y-110480000D02*
X165763488Y-110183488D01*
X165763488Y-110183488D02*
X165763488Y-110280202D01*
X162680000Y-110280202D02*
X162787178Y-110280202D01*
D16*
X156467400Y-107777400D02*
X156184600Y-107777400D01*
D17*
X167900000Y-110000000D02*
X167750000Y-110150000D01*
X167900000Y-109660000D02*
X167900000Y-110000000D01*
X167710000Y-109470000D02*
X167900000Y-109660000D01*
X166010000Y-109470000D02*
X167710000Y-109470000D01*
X159740000Y-109420000D02*
X161120000Y-109420000D01*
X159470000Y-109150000D02*
X159740000Y-109420000D01*
X161560000Y-109420000D02*
X161990000Y-109850000D01*
X161120000Y-109420000D02*
X161560000Y-109420000D01*
X165530000Y-109950000D02*
X166010000Y-109470000D01*
X162090000Y-109950000D02*
X161990000Y-109850000D01*
X162740000Y-109950000D02*
X162090000Y-109950000D01*
X162930202Y-109950000D02*
X163120202Y-110140000D01*
X163120202Y-110140000D02*
X165340000Y-110140000D01*
X165340000Y-110140000D02*
X165530000Y-109950000D01*
X162740000Y-109950000D02*
X162930202Y-109950000D01*
D16*
X156747200Y-106340000D02*
X156184600Y-105777400D01*
D17*
X156737200Y-106330000D02*
X156184600Y-105777400D01*
X157820000Y-106330000D02*
X156737200Y-106330000D01*
X158230000Y-106740000D02*
X157820000Y-106330000D01*
X158230000Y-109370000D02*
X158230000Y-106740000D01*
X158230000Y-110160000D02*
X158230000Y-109370000D01*
X158230000Y-110160000D02*
X158230000Y-109370000D01*
X161277380Y-110080404D02*
X161528488Y-110331512D01*
X159570000Y-110191002D02*
X159570000Y-110190404D01*
X159680000Y-110080404D02*
X160770000Y-110080404D01*
X159570000Y-110190404D02*
X159680000Y-110080404D01*
X159570000Y-110191002D02*
X159568998Y-110191002D01*
X159568998Y-110191002D02*
X159280000Y-110480000D01*
X159280000Y-110480000D02*
X158550000Y-110480000D01*
X158550000Y-110480000D02*
X158230000Y-110160000D01*
X160770000Y-110080404D02*
X161277380Y-110080404D01*
X161531512Y-110331512D02*
X161610000Y-110410000D01*
X161528488Y-110331512D02*
X161531512Y-110331512D01*
X163129798Y-111619798D02*
X165210202Y-111619798D01*
X165210202Y-111619798D02*
X165880000Y-110950000D01*
X165880000Y-110950000D02*
X165880000Y-110920000D01*
X162660000Y-110620000D02*
X162890000Y-110850000D01*
X162890000Y-110850000D02*
X162890000Y-111380000D01*
X162890000Y-111380000D02*
X163129798Y-111619798D01*
X161820000Y-110620000D02*
X162660000Y-110620000D01*
X161610000Y-110410000D02*
X161820000Y-110620000D01*
X157890000Y-109860000D02*
X157890000Y-107390000D01*
X157890000Y-107390000D02*
X157340000Y-106840000D01*
X161270000Y-110550000D02*
X161160000Y-110440000D01*
X161160000Y-110440000D02*
X159790000Y-110440000D01*
X159790000Y-110440000D02*
X159410000Y-110820000D01*
X159410000Y-110820000D02*
X159290000Y-110820000D01*
X161460000Y-110730000D02*
X161280000Y-110550000D01*
X161280000Y-110550000D02*
X161270000Y-110550000D01*
X161591512Y-110858488D02*
X161463024Y-110730000D01*
X161463024Y-110730000D02*
X161460000Y-110730000D01*
X161591512Y-111581512D02*
X161960000Y-111950000D01*
X161960000Y-111950000D02*
X165600000Y-111950000D01*
X165600000Y-111950000D02*
X165870000Y-111680000D01*
X161591512Y-110858488D02*
X161591512Y-111581512D01*
X158410000Y-110820000D02*
X157890000Y-110300000D01*
X157890000Y-110300000D02*
X157890000Y-109860000D01*
X159290000Y-110820000D02*
X158410000Y-110820000D01*
D16*
X172158600Y-103781400D02*
X172180000Y-103781400D01*
X167870000Y-111480000D02*
X167870000Y-111100000D01*
X167870000Y-111100000D02*
X168080000Y-110890000D01*
X168080000Y-110890000D02*
X170040000Y-110890000D01*
X170040000Y-110890000D02*
X170380000Y-110550000D01*
X170380000Y-110550000D02*
X170380000Y-108360000D01*
X170380000Y-108360000D02*
X170770000Y-107970000D01*
X170770000Y-107970000D02*
X170770000Y-106650000D01*
X170770000Y-106650000D02*
X171170000Y-106250000D01*
X171170000Y-106250000D02*
X171170000Y-104770000D01*
X171170000Y-104770000D02*
X172158600Y-103781400D01*
X166920000Y-112720000D02*
X167620000Y-112020000D01*
X167620000Y-112020000D02*
X167930000Y-112020000D01*
X170430000Y-112020000D02*
X170770000Y-111680000D01*
X171160000Y-106801400D02*
X172180000Y-105781400D01*
X170770000Y-111468998D02*
X170770000Y-108520000D01*
X170770000Y-108520000D02*
X171160000Y-108130000D01*
X171160000Y-108130000D02*
X171160000Y-106801400D01*
X170770000Y-111680000D02*
X170770000Y-111468998D01*
X166070000Y-112720000D02*
X166920000Y-112720000D01*
X168150000Y-112020000D02*
X168300000Y-112170000D01*
X168300000Y-112170000D02*
X170280000Y-112170000D01*
X170280000Y-112170000D02*
X170430000Y-112020000D01*
X167930000Y-112020000D02*
X168150000Y-112020000D01*
X172088600Y-107781400D02*
X172180000Y-107781400D01*
X171160000Y-112080000D02*
X171160000Y-108710000D01*
X170830000Y-112410000D02*
X171160000Y-112080000D01*
X171160000Y-108710000D02*
X172088600Y-107781400D01*
X170680000Y-112560000D02*
X170830000Y-112410000D01*
X167860000Y-112560000D02*
X170680000Y-112560000D01*
X160180000Y-113270000D02*
X159840000Y-113610000D01*
X160180000Y-111830000D02*
X160180000Y-113270000D01*
X160340000Y-111670000D02*
X160180000Y-111830000D01*
X160690000Y-111670000D02*
X160340000Y-111670000D01*
X160990000Y-111370000D02*
X160690000Y-111670000D01*
X160990000Y-110990000D02*
X160990000Y-111370000D01*
X160950000Y-110950000D02*
X160990000Y-110990000D01*
X158710000Y-123251400D02*
X158181400Y-123780000D01*
X159830000Y-113610000D02*
X159550000Y-113890000D01*
X159550000Y-113890000D02*
X159550000Y-117260000D01*
X159550000Y-117260000D02*
X159080000Y-117730000D01*
X159080000Y-117730000D02*
X159080000Y-119150000D01*
X159080000Y-119150000D02*
X158710000Y-119520000D01*
X158710000Y-119520000D02*
X158710000Y-123251400D01*
X159840000Y-113610000D02*
X159830000Y-113610000D01*
D18*
X158950000Y-105738100D02*
X158950000Y-105710000D01*
X160430000Y-105740700D02*
X160430000Y-105730000D01*
D16*
X166230000Y-119619300D02*
X166230000Y-119580000D01*
X167830000Y-119619300D02*
X167830000Y-119620000D01*
X169440000Y-119619300D02*
X169440000Y-119630000D01*
X165580000Y-105800000D02*
X165540000Y-105760000D01*
X166380000Y-105790000D02*
X165580000Y-105800000D01*
X163890000Y-106450240D02*
X163890000Y-106460000D01*
X161921720Y-112460000D02*
X161931720Y-112470000D01*
X161890000Y-112460000D02*
X161921720Y-112460000D01*
X163410000Y-112470000D02*
X163410000Y-112450000D01*
X164888280Y-112470000D02*
X164900000Y-112470000D01*
X164870000Y-113930000D02*
X164888280Y-113948280D01*
X164850000Y-113930000D02*
X164870000Y-113930000D01*
X163400000Y-113938280D02*
X163410000Y-113948280D01*
X163400000Y-113910000D02*
X163400000Y-113938280D01*
X161931720Y-113948280D02*
X162010000Y-113870000D01*
D17*
X163378280Y-110960000D02*
X163410000Y-110991720D01*
X163360000Y-110960000D02*
X163378280Y-110960000D01*
X164870000Y-111010000D02*
X164888280Y-110991720D01*
X164850000Y-111010000D02*
X164870000Y-111010000D01*
D16*
X167830000Y-118120700D02*
X167830000Y-118130000D01*
X169440000Y-118120700D02*
X169440000Y-118130000D01*
X168670700Y-111580000D02*
X168680000Y-111580000D01*
X160760000Y-117600000D02*
X160770000Y-117610000D01*
X160760000Y-115090000D02*
X160760000Y-117600000D01*
X161520000Y-115080000D02*
X161580000Y-115140000D01*
X161520000Y-115310000D02*
X161310000Y-115520000D01*
X161310000Y-115520000D02*
X161310000Y-120110000D01*
X161310000Y-120110000D02*
X161280000Y-120140000D01*
X161520000Y-115080000D02*
X161520000Y-115310000D01*
D19*
G36*
X157522479Y-110303919D02*
X157391851Y-110303805D01*
X157201300Y-110382539D01*
X157201300Y-109024350D01*
X157160697Y-108926327D01*
X157085673Y-108851303D01*
X156987650Y-108810700D01*
X156881550Y-108810700D01*
X156627200Y-108810700D01*
X156627200Y-108744100D01*
X156987650Y-108744100D01*
X157085673Y-108703497D01*
X157160697Y-108628473D01*
X157201300Y-108530450D01*
X157201300Y-108424350D01*
X157201300Y-107373715D01*
X157230897Y-107386005D01*
X157365267Y-107386122D01*
X157521700Y-107542554D01*
X157521700Y-109860000D01*
X157521700Y-110300000D01*
X157522479Y-110303919D01*
X157522479Y-110303919D01*
G37*
X157522479Y-110303919D02*
X157391851Y-110303805D01*
X157201300Y-110382539D01*
X157201300Y-109024350D01*
X157160697Y-108926327D01*
X157085673Y-108851303D01*
X156987650Y-108810700D01*
X156881550Y-108810700D01*
X156627200Y-108810700D01*
X156627200Y-108744100D01*
X156987650Y-108744100D01*
X157085673Y-108703497D01*
X157160697Y-108628473D01*
X157201300Y-108530450D01*
X157201300Y-108424350D01*
X157201300Y-107373715D01*
X157230897Y-107386005D01*
X157365267Y-107386122D01*
X157521700Y-107542554D01*
X157521700Y-109860000D01*
X157521700Y-110300000D01*
X157522479Y-110303919D01*
G36*
X162590332Y-111581700D02*
X162112554Y-111581700D01*
X161959812Y-111428957D01*
X161959812Y-110988300D01*
X162507445Y-110988300D01*
X162521700Y-111002554D01*
X162521700Y-111380000D01*
X162545083Y-111497559D01*
X162549735Y-111520943D01*
X162590332Y-111581700D01*
X162590332Y-111581700D01*
G37*
X162590332Y-111581700D02*
X162112554Y-111581700D01*
X161959812Y-111428957D01*
X161959812Y-110988300D01*
X162507445Y-110988300D01*
X162521700Y-111002554D01*
X162521700Y-111380000D01*
X162545083Y-111497559D01*
X162549735Y-111520943D01*
X162590332Y-111581700D01*
G36*
X165333962Y-110848300D02*
X165333851Y-110975294D01*
X165057647Y-111251498D01*
X163282352Y-111251498D01*
X163258300Y-111227445D01*
X163258300Y-110850000D01*
X163257961Y-110848300D01*
X165333962Y-110848300D01*
X165333962Y-110848300D01*
G37*
X165333962Y-110848300D02*
X165333851Y-110975294D01*
X165057647Y-111251498D01*
X163282352Y-111251498D01*
X163258300Y-111227445D01*
X163258300Y-110850000D01*
X163257961Y-110848300D01*
X165333962Y-110848300D01*
G36*
X170376300Y-111516924D02*
X170151612Y-111741612D01*
X170116924Y-111776300D01*
X169180497Y-111776300D01*
X169216705Y-111689103D01*
X169216895Y-111471851D01*
X169139152Y-111283700D01*
X170040000Y-111283700D01*
X170190662Y-111253731D01*
X170190663Y-111253731D01*
X170318388Y-111168388D01*
X170376300Y-111110476D01*
X170376300Y-111468998D01*
X170376300Y-111516924D01*
X170376300Y-111516924D01*
G37*
X170376300Y-111516924D02*
X170151612Y-111741612D01*
X170116924Y-111776300D01*
X169180497Y-111776300D01*
X169216705Y-111689103D01*
X169216895Y-111471851D01*
X169139152Y-111283700D01*
X170040000Y-111283700D01*
X170190662Y-111253731D01*
X170190663Y-111253731D01*
X170318388Y-111168388D01*
X170376300Y-111110476D01*
X170376300Y-111468998D01*
X170376300Y-111516924D01*
G36*
X171712800Y-102814700D02*
X171376950Y-102814700D01*
X171278927Y-102855303D01*
X171203903Y-102930327D01*
X171163300Y-103028350D01*
X171163300Y-103134450D01*
X171163300Y-104219924D01*
X170891612Y-104491612D01*
X170806269Y-104619337D01*
X170776300Y-104770000D01*
X170776300Y-106086924D01*
X170491612Y-106371612D01*
X170406269Y-106499337D01*
X170376300Y-106650000D01*
X170376300Y-107806924D01*
X170101612Y-108081612D01*
X170016269Y-108209337D01*
X169986300Y-108360000D01*
X169986300Y-110386924D01*
X169876924Y-110496300D01*
X168176072Y-110496300D01*
X168212691Y-110459745D01*
X168296005Y-110259103D01*
X168296195Y-110041851D01*
X168268300Y-109974340D01*
X168268300Y-109660000D01*
X168240265Y-109519058D01*
X168160428Y-109399573D01*
X167970427Y-109209573D01*
X167850943Y-109129735D01*
X167827559Y-109125083D01*
X167710000Y-109101700D01*
X166010000Y-109101700D01*
X165869058Y-109129735D01*
X165749573Y-109209572D01*
X165269576Y-109689569D01*
X165269573Y-109689572D01*
X165187445Y-109771700D01*
X163272756Y-109771700D01*
X163190629Y-109689573D01*
X163071145Y-109609735D01*
X163047761Y-109605083D01*
X162930202Y-109581700D01*
X162740000Y-109581700D01*
X162242554Y-109581700D01*
X161820427Y-109159573D01*
X161700943Y-109079735D01*
X161677559Y-109075083D01*
X161560000Y-109051700D01*
X161120000Y-109051700D01*
X160016186Y-109051700D01*
X160016195Y-109041851D01*
X159933231Y-108841063D01*
X159779745Y-108687309D01*
X159579103Y-108603995D01*
X159361851Y-108603805D01*
X159161063Y-108686769D01*
X159007309Y-108840255D01*
X158923995Y-109040897D01*
X158923805Y-109258149D01*
X158979888Y-109393881D01*
X158891851Y-109393805D01*
X158691063Y-109476769D01*
X158598300Y-109569370D01*
X158598300Y-109370000D01*
X158598300Y-106740000D01*
X158570265Y-106599058D01*
X158490428Y-106479573D01*
X158080427Y-106069573D01*
X157960943Y-105989735D01*
X157937559Y-105985083D01*
X157820000Y-105961700D01*
X157201300Y-105961700D01*
X157201300Y-105024350D01*
X157160697Y-104926327D01*
X157085673Y-104851303D01*
X156987650Y-104810700D01*
X156881550Y-104810700D01*
X156627200Y-104810700D01*
X156627200Y-104744100D01*
X156987650Y-104744100D01*
X157085673Y-104703497D01*
X157160697Y-104628473D01*
X157201300Y-104530450D01*
X157201300Y-104424350D01*
X157201300Y-103024350D01*
X157160697Y-102926327D01*
X157085673Y-102851303D01*
X156987650Y-102810700D01*
X156881550Y-102810700D01*
X156627200Y-102810700D01*
X156627200Y-102237200D01*
X162762774Y-102237200D01*
X162777465Y-103184737D01*
X165584300Y-103173858D01*
X165584300Y-102237200D01*
X171712800Y-102237200D01*
X171712800Y-102814700D01*
X171712800Y-102814700D01*
G37*
X171712800Y-102814700D02*
X171376950Y-102814700D01*
X171278927Y-102855303D01*
X171203903Y-102930327D01*
X171163300Y-103028350D01*
X171163300Y-103134450D01*
X171163300Y-104219924D01*
X170891612Y-104491612D01*
X170806269Y-104619337D01*
X170776300Y-104770000D01*
X170776300Y-106086924D01*
X170491612Y-106371612D01*
X170406269Y-106499337D01*
X170376300Y-106650000D01*
X170376300Y-107806924D01*
X170101612Y-108081612D01*
X170016269Y-108209337D01*
X169986300Y-108360000D01*
X169986300Y-110386924D01*
X169876924Y-110496300D01*
X168176072Y-110496300D01*
X168212691Y-110459745D01*
X168296005Y-110259103D01*
X168296195Y-110041851D01*
X168268300Y-109974340D01*
X168268300Y-109660000D01*
X168240265Y-109519058D01*
X168160428Y-109399573D01*
X167970427Y-109209573D01*
X167850943Y-109129735D01*
X167827559Y-109125083D01*
X167710000Y-109101700D01*
X166010000Y-109101700D01*
X165869058Y-109129735D01*
X165749573Y-109209572D01*
X165269576Y-109689569D01*
X165269573Y-109689572D01*
X165187445Y-109771700D01*
X163272756Y-109771700D01*
X163190629Y-109689573D01*
X163071145Y-109609735D01*
X163047761Y-109605083D01*
X162930202Y-109581700D01*
X162740000Y-109581700D01*
X162242554Y-109581700D01*
X161820427Y-109159573D01*
X161700943Y-109079735D01*
X161677559Y-109075083D01*
X161560000Y-109051700D01*
X161120000Y-109051700D01*
X160016186Y-109051700D01*
X160016195Y-109041851D01*
X159933231Y-108841063D01*
X159779745Y-108687309D01*
X159579103Y-108603995D01*
X159361851Y-108603805D01*
X159161063Y-108686769D01*
X159007309Y-108840255D01*
X158923995Y-109040897D01*
X158923805Y-109258149D01*
X158979888Y-109393881D01*
X158891851Y-109393805D01*
X158691063Y-109476769D01*
X158598300Y-109569370D01*
X158598300Y-109370000D01*
X158598300Y-106740000D01*
X158570265Y-106599058D01*
X158490428Y-106479573D01*
X158080427Y-106069573D01*
X157960943Y-105989735D01*
X157937559Y-105985083D01*
X157820000Y-105961700D01*
X157201300Y-105961700D01*
X157201300Y-105024350D01*
X157160697Y-104926327D01*
X157085673Y-104851303D01*
X156987650Y-104810700D01*
X156881550Y-104810700D01*
X156627200Y-104810700D01*
X156627200Y-104744100D01*
X156987650Y-104744100D01*
X157085673Y-104703497D01*
X157160697Y-104628473D01*
X157201300Y-104530450D01*
X157201300Y-104424350D01*
X157201300Y-103024350D01*
X157160697Y-102926327D01*
X157085673Y-102851303D01*
X156987650Y-102810700D01*
X156881550Y-102810700D01*
X156627200Y-102810700D01*
X156627200Y-102237200D01*
X162762774Y-102237200D01*
X162777465Y-103184737D01*
X165584300Y-103173858D01*
X165584300Y-102237200D01*
X171712800Y-102237200D01*
X171712800Y-102814700D01*
G36*
X171712800Y-120814700D02*
X171376950Y-120814700D01*
X171278927Y-120855303D01*
X171203903Y-120930327D01*
X171163300Y-121028350D01*
X171163300Y-121134450D01*
X171163300Y-121387700D01*
X170574476Y-121387700D01*
X170563700Y-121376924D01*
X170563700Y-117780000D01*
X170533731Y-117629338D01*
X170448388Y-117501612D01*
X170100476Y-117153700D01*
X170856924Y-117153700D01*
X171163300Y-117460076D01*
X171163300Y-118534450D01*
X171203903Y-118632473D01*
X171278927Y-118707497D01*
X171376950Y-118748100D01*
X171483050Y-118748100D01*
X171712800Y-118748100D01*
X171712800Y-118814700D01*
X171376950Y-118814700D01*
X171278927Y-118855303D01*
X171203903Y-118930327D01*
X171163300Y-119028350D01*
X171163300Y-119134450D01*
X171163300Y-120534450D01*
X171203903Y-120632473D01*
X171278927Y-120707497D01*
X171376950Y-120748100D01*
X171483050Y-120748100D01*
X171712800Y-120748100D01*
X171712800Y-120814700D01*
X171712800Y-120814700D01*
G37*
X171712800Y-120814700D02*
X171376950Y-120814700D01*
X171278927Y-120855303D01*
X171203903Y-120930327D01*
X171163300Y-121028350D01*
X171163300Y-121134450D01*
X171163300Y-121387700D01*
X170574476Y-121387700D01*
X170563700Y-121376924D01*
X170563700Y-117780000D01*
X170533731Y-117629338D01*
X170448388Y-117501612D01*
X170100476Y-117153700D01*
X170856924Y-117153700D01*
X171163300Y-117460076D01*
X171163300Y-118534450D01*
X171203903Y-118632473D01*
X171278927Y-118707497D01*
X171376950Y-118748100D01*
X171483050Y-118748100D01*
X171712800Y-118748100D01*
X171712800Y-118814700D01*
X171376950Y-118814700D01*
X171278927Y-118855303D01*
X171203903Y-118930327D01*
X171163300Y-119028350D01*
X171163300Y-119134450D01*
X171163300Y-120534450D01*
X171203903Y-120632473D01*
X171278927Y-120707497D01*
X171376950Y-120748100D01*
X171483050Y-120748100D01*
X171712800Y-120748100D01*
X171712800Y-120814700D01*
G36*
X171712800Y-123322800D02*
X171148100Y-123322800D01*
X171148100Y-122976950D01*
X171107497Y-122878927D01*
X171032473Y-122803903D01*
X170934450Y-122763300D01*
X170828350Y-122763300D01*
X169428350Y-122763300D01*
X169330327Y-122803903D01*
X169255303Y-122878927D01*
X169214700Y-122976950D01*
X169214700Y-123083050D01*
X169214700Y-123322800D01*
X169148100Y-123322800D01*
X169148100Y-122976950D01*
X169107497Y-122878927D01*
X169032473Y-122803903D01*
X168934450Y-122763300D01*
X168828350Y-122763300D01*
X167496195Y-122763300D01*
X167496195Y-122101851D01*
X167413231Y-121901063D01*
X167259745Y-121747309D01*
X167059103Y-121663995D01*
X166841851Y-121663805D01*
X166641063Y-121746769D01*
X166487309Y-121900255D01*
X166403995Y-122100897D01*
X166403805Y-122318149D01*
X166486769Y-122518937D01*
X166640255Y-122672691D01*
X166840897Y-122756005D01*
X167058149Y-122756195D01*
X167258937Y-122673231D01*
X167412691Y-122519745D01*
X167496005Y-122319103D01*
X167496195Y-122101851D01*
X167496195Y-122763300D01*
X167428350Y-122763300D01*
X167330327Y-122803903D01*
X167255303Y-122878927D01*
X167214700Y-122976950D01*
X167214700Y-123083050D01*
X167214700Y-123322800D01*
X167148100Y-123322800D01*
X167148100Y-122976950D01*
X167107497Y-122878927D01*
X167032473Y-122803903D01*
X166934450Y-122763300D01*
X166828350Y-122763300D01*
X165428350Y-122763300D01*
X165330327Y-122803903D01*
X165255303Y-122878927D01*
X165214700Y-122976950D01*
X165214700Y-123083050D01*
X165214700Y-123322800D01*
X163148100Y-123322800D01*
X163148100Y-122976950D01*
X163107497Y-122878927D01*
X163032473Y-122803903D01*
X162934450Y-122763300D01*
X162828350Y-122763300D01*
X161543476Y-122763300D01*
X161583076Y-122723700D01*
X165089015Y-122723700D01*
X165190897Y-122766005D01*
X165408149Y-122766195D01*
X165608937Y-122683231D01*
X165762691Y-122529745D01*
X165846005Y-122329103D01*
X165846195Y-122111851D01*
X165763231Y-121911063D01*
X165609745Y-121757309D01*
X165409103Y-121673995D01*
X165191851Y-121673805D01*
X164991063Y-121756769D01*
X164837309Y-121910255D01*
X164826494Y-121936300D01*
X161420000Y-121936300D01*
X161269338Y-121966269D01*
X161141612Y-122051612D01*
X160824300Y-122368924D01*
X160824300Y-120456481D01*
X160970255Y-120602691D01*
X161170897Y-120686005D01*
X161388149Y-120686195D01*
X161588937Y-120603231D01*
X161742691Y-120449745D01*
X161826005Y-120249103D01*
X161826195Y-120031851D01*
X161743231Y-119831063D01*
X161703700Y-119791462D01*
X161703700Y-115683076D01*
X161798388Y-115588388D01*
X161828417Y-115543445D01*
X161828937Y-115543231D01*
X161982691Y-115389745D01*
X162066005Y-115189103D01*
X162066195Y-114971851D01*
X161983231Y-114771063D01*
X161829745Y-114617309D01*
X161629103Y-114533995D01*
X161411851Y-114533805D01*
X161211063Y-114616769D01*
X161135010Y-114692688D01*
X161069745Y-114627309D01*
X160869103Y-114543995D01*
X160824300Y-114543955D01*
X160824300Y-113762476D01*
X161048388Y-113538388D01*
X161133731Y-113410663D01*
X161133731Y-113410662D01*
X161163700Y-113260000D01*
X161163700Y-112658615D01*
X161232691Y-112589745D01*
X161316005Y-112389103D01*
X161316195Y-112171851D01*
X161233231Y-111971063D01*
X161089597Y-111827178D01*
X161241802Y-111674973D01*
X161246595Y-111699071D01*
X161251247Y-111722455D01*
X161331085Y-111841939D01*
X161699573Y-112210428D01*
X161819058Y-112290265D01*
X161960000Y-112318300D01*
X165600000Y-112318300D01*
X165600000Y-112318299D01*
X165717559Y-112294916D01*
X165724165Y-112293602D01*
X165607309Y-112410255D01*
X165523995Y-112610897D01*
X165523805Y-112828149D01*
X165606769Y-113028937D01*
X165760255Y-113182691D01*
X165960897Y-113266005D01*
X166178149Y-113266195D01*
X166378937Y-113183231D01*
X166448589Y-113113700D01*
X166920000Y-113113700D01*
X167070662Y-113083731D01*
X167070663Y-113083731D01*
X167198388Y-112998388D01*
X167376615Y-112820160D01*
X167396769Y-112868937D01*
X167550255Y-113022691D01*
X167750897Y-113106005D01*
X167968149Y-113106195D01*
X168168937Y-113023231D01*
X168238589Y-112953700D01*
X170680000Y-112953700D01*
X170830662Y-112923731D01*
X170830663Y-112923731D01*
X170958388Y-112838388D01*
X171108388Y-112688388D01*
X171192304Y-112604471D01*
X171203903Y-112632473D01*
X171278927Y-112707497D01*
X171376950Y-112748100D01*
X171483050Y-112748100D01*
X171712800Y-112748100D01*
X171712800Y-112814700D01*
X171376950Y-112814700D01*
X171278927Y-112855303D01*
X171203903Y-112930327D01*
X171163300Y-113028350D01*
X171163300Y-113134450D01*
X171163300Y-114534450D01*
X171203903Y-114632473D01*
X171278927Y-114707497D01*
X171376950Y-114748100D01*
X171483050Y-114748100D01*
X171712800Y-114748100D01*
X171712800Y-114814700D01*
X171376950Y-114814700D01*
X171278927Y-114855303D01*
X171203903Y-114930327D01*
X171163300Y-115028350D01*
X171163300Y-115134450D01*
X171163300Y-116394804D01*
X171020000Y-116366300D01*
X166183076Y-116366300D01*
X166103700Y-116286924D01*
X166103700Y-115458685D01*
X166132691Y-115429745D01*
X166216005Y-115229103D01*
X166216195Y-115011851D01*
X166133231Y-114811063D01*
X165979745Y-114657309D01*
X165779103Y-114573995D01*
X165561851Y-114573805D01*
X165361063Y-114656769D01*
X165207309Y-114810255D01*
X165123995Y-115010897D01*
X165123805Y-115228149D01*
X165206769Y-115428937D01*
X165316300Y-115538659D01*
X165316300Y-116450000D01*
X165346269Y-116600663D01*
X165431612Y-116728388D01*
X165741612Y-117038388D01*
X165869337Y-117123731D01*
X165869338Y-117123731D01*
X166020000Y-117153700D01*
X166473592Y-117153700D01*
X166453995Y-117200897D01*
X166453805Y-117418149D01*
X166536769Y-117618937D01*
X166690255Y-117772691D01*
X166890897Y-117856005D01*
X167108149Y-117856195D01*
X167210994Y-117813700D01*
X167366169Y-117813700D01*
X167283995Y-118011597D01*
X167283805Y-118228849D01*
X167366769Y-118429637D01*
X167520255Y-118583391D01*
X167720897Y-118666705D01*
X167938149Y-118666895D01*
X168138937Y-118583931D01*
X168292691Y-118430445D01*
X168376005Y-118229803D01*
X168376195Y-118012551D01*
X168294031Y-117813700D01*
X168976169Y-117813700D01*
X168893995Y-118011597D01*
X168893805Y-118228849D01*
X168976769Y-118429637D01*
X169130255Y-118583391D01*
X169330897Y-118666705D01*
X169548149Y-118666895D01*
X169748937Y-118583931D01*
X169776300Y-118556615D01*
X169776300Y-121540000D01*
X169806269Y-121690663D01*
X169891612Y-121818388D01*
X170133012Y-122059788D01*
X170260737Y-122145131D01*
X170260738Y-122145131D01*
X170411400Y-122175100D01*
X171163300Y-122175100D01*
X171163300Y-122534450D01*
X171203903Y-122632473D01*
X171278927Y-122707497D01*
X171376950Y-122748100D01*
X171483050Y-122748100D01*
X171712800Y-122748100D01*
X171712800Y-123322800D01*
X171712800Y-123322800D01*
G37*
X171712800Y-123322800D02*
X171148100Y-123322800D01*
X171148100Y-122976950D01*
X171107497Y-122878927D01*
X171032473Y-122803903D01*
X170934450Y-122763300D01*
X170828350Y-122763300D01*
X169428350Y-122763300D01*
X169330327Y-122803903D01*
X169255303Y-122878927D01*
X169214700Y-122976950D01*
X169214700Y-123083050D01*
X169214700Y-123322800D01*
X169148100Y-123322800D01*
X169148100Y-122976950D01*
X169107497Y-122878927D01*
X169032473Y-122803903D01*
X168934450Y-122763300D01*
X168828350Y-122763300D01*
X167496195Y-122763300D01*
X167496195Y-122101851D01*
X167413231Y-121901063D01*
X167259745Y-121747309D01*
X167059103Y-121663995D01*
X166841851Y-121663805D01*
X166641063Y-121746769D01*
X166487309Y-121900255D01*
X166403995Y-122100897D01*
X166403805Y-122318149D01*
X166486769Y-122518937D01*
X166640255Y-122672691D01*
X166840897Y-122756005D01*
X167058149Y-122756195D01*
X167258937Y-122673231D01*
X167412691Y-122519745D01*
X167496005Y-122319103D01*
X167496195Y-122101851D01*
X167496195Y-122763300D01*
X167428350Y-122763300D01*
X167330327Y-122803903D01*
X167255303Y-122878927D01*
X167214700Y-122976950D01*
X167214700Y-123083050D01*
X167214700Y-123322800D01*
X167148100Y-123322800D01*
X167148100Y-122976950D01*
X167107497Y-122878927D01*
X167032473Y-122803903D01*
X166934450Y-122763300D01*
X166828350Y-122763300D01*
X165428350Y-122763300D01*
X165330327Y-122803903D01*
X165255303Y-122878927D01*
X165214700Y-122976950D01*
X165214700Y-123083050D01*
X165214700Y-123322800D01*
X163148100Y-123322800D01*
X163148100Y-122976950D01*
X163107497Y-122878927D01*
X163032473Y-122803903D01*
X162934450Y-122763300D01*
X162828350Y-122763300D01*
X161543476Y-122763300D01*
X161583076Y-122723700D01*
X165089015Y-122723700D01*
X165190897Y-122766005D01*
X165408149Y-122766195D01*
X165608937Y-122683231D01*
X165762691Y-122529745D01*
X165846005Y-122329103D01*
X165846195Y-122111851D01*
X165763231Y-121911063D01*
X165609745Y-121757309D01*
X165409103Y-121673995D01*
X165191851Y-121673805D01*
X164991063Y-121756769D01*
X164837309Y-121910255D01*
X164826494Y-121936300D01*
X161420000Y-121936300D01*
X161269338Y-121966269D01*
X161141612Y-122051612D01*
X160824300Y-122368924D01*
X160824300Y-120456481D01*
X160970255Y-120602691D01*
X161170897Y-120686005D01*
X161388149Y-120686195D01*
X161588937Y-120603231D01*
X161742691Y-120449745D01*
X161826005Y-120249103D01*
X161826195Y-120031851D01*
X161743231Y-119831063D01*
X161703700Y-119791462D01*
X161703700Y-115683076D01*
X161798388Y-115588388D01*
X161828417Y-115543445D01*
X161828937Y-115543231D01*
X161982691Y-115389745D01*
X162066005Y-115189103D01*
X162066195Y-114971851D01*
X161983231Y-114771063D01*
X161829745Y-114617309D01*
X161629103Y-114533995D01*
X161411851Y-114533805D01*
X161211063Y-114616769D01*
X161135010Y-114692688D01*
X161069745Y-114627309D01*
X160869103Y-114543995D01*
X160824300Y-114543955D01*
X160824300Y-113762476D01*
X161048388Y-113538388D01*
X161133731Y-113410663D01*
X161133731Y-113410662D01*
X161163700Y-113260000D01*
X161163700Y-112658615D01*
X161232691Y-112589745D01*
X161316005Y-112389103D01*
X161316195Y-112171851D01*
X161233231Y-111971063D01*
X161089597Y-111827178D01*
X161241802Y-111674973D01*
X161246595Y-111699071D01*
X161251247Y-111722455D01*
X161331085Y-111841939D01*
X161699573Y-112210428D01*
X161819058Y-112290265D01*
X161960000Y-112318300D01*
X165600000Y-112318300D01*
X165600000Y-112318299D01*
X165717559Y-112294916D01*
X165724165Y-112293602D01*
X165607309Y-112410255D01*
X165523995Y-112610897D01*
X165523805Y-112828149D01*
X165606769Y-113028937D01*
X165760255Y-113182691D01*
X165960897Y-113266005D01*
X166178149Y-113266195D01*
X166378937Y-113183231D01*
X166448589Y-113113700D01*
X166920000Y-113113700D01*
X167070662Y-113083731D01*
X167070663Y-113083731D01*
X167198388Y-112998388D01*
X167376615Y-112820160D01*
X167396769Y-112868937D01*
X167550255Y-113022691D01*
X167750897Y-113106005D01*
X167968149Y-113106195D01*
X168168937Y-113023231D01*
X168238589Y-112953700D01*
X170680000Y-112953700D01*
X170830662Y-112923731D01*
X170830663Y-112923731D01*
X170958388Y-112838388D01*
X171108388Y-112688388D01*
X171192304Y-112604471D01*
X171203903Y-112632473D01*
X171278927Y-112707497D01*
X171376950Y-112748100D01*
X171483050Y-112748100D01*
X171712800Y-112748100D01*
X171712800Y-112814700D01*
X171376950Y-112814700D01*
X171278927Y-112855303D01*
X171203903Y-112930327D01*
X171163300Y-113028350D01*
X171163300Y-113134450D01*
X171163300Y-114534450D01*
X171203903Y-114632473D01*
X171278927Y-114707497D01*
X171376950Y-114748100D01*
X171483050Y-114748100D01*
X171712800Y-114748100D01*
X171712800Y-114814700D01*
X171376950Y-114814700D01*
X171278927Y-114855303D01*
X171203903Y-114930327D01*
X171163300Y-115028350D01*
X171163300Y-115134450D01*
X171163300Y-116394804D01*
X171020000Y-116366300D01*
X166183076Y-116366300D01*
X166103700Y-116286924D01*
X166103700Y-115458685D01*
X166132691Y-115429745D01*
X166216005Y-115229103D01*
X166216195Y-115011851D01*
X166133231Y-114811063D01*
X165979745Y-114657309D01*
X165779103Y-114573995D01*
X165561851Y-114573805D01*
X165361063Y-114656769D01*
X165207309Y-114810255D01*
X165123995Y-115010897D01*
X165123805Y-115228149D01*
X165206769Y-115428937D01*
X165316300Y-115538659D01*
X165316300Y-116450000D01*
X165346269Y-116600663D01*
X165431612Y-116728388D01*
X165741612Y-117038388D01*
X165869337Y-117123731D01*
X165869338Y-117123731D01*
X166020000Y-117153700D01*
X166473592Y-117153700D01*
X166453995Y-117200897D01*
X166453805Y-117418149D01*
X166536769Y-117618937D01*
X166690255Y-117772691D01*
X166890897Y-117856005D01*
X167108149Y-117856195D01*
X167210994Y-117813700D01*
X167366169Y-117813700D01*
X167283995Y-118011597D01*
X167283805Y-118228849D01*
X167366769Y-118429637D01*
X167520255Y-118583391D01*
X167720897Y-118666705D01*
X167938149Y-118666895D01*
X168138937Y-118583931D01*
X168292691Y-118430445D01*
X168376005Y-118229803D01*
X168376195Y-118012551D01*
X168294031Y-117813700D01*
X168976169Y-117813700D01*
X168893995Y-118011597D01*
X168893805Y-118228849D01*
X168976769Y-118429637D01*
X169130255Y-118583391D01*
X169330897Y-118666705D01*
X169548149Y-118666895D01*
X169748937Y-118583931D01*
X169776300Y-118556615D01*
X169776300Y-121540000D01*
X169806269Y-121690663D01*
X169891612Y-121818388D01*
X170133012Y-122059788D01*
X170260737Y-122145131D01*
X170260738Y-122145131D01*
X170411400Y-122175100D01*
X171163300Y-122175100D01*
X171163300Y-122534450D01*
X171203903Y-122632473D01*
X171278927Y-122707497D01*
X171376950Y-122748100D01*
X171483050Y-122748100D01*
X171712800Y-122748100D01*
X171712800Y-123322800D01*
G36*
X158216300Y-113679524D02*
X158035788Y-113499012D01*
X157908063Y-113413669D01*
X157757400Y-113383700D01*
X157201300Y-113383700D01*
X157201300Y-113024350D01*
X157160697Y-112926327D01*
X157085673Y-112851303D01*
X156987650Y-112810700D01*
X156881550Y-112810700D01*
X156627200Y-112810700D01*
X156627200Y-112744100D01*
X156987650Y-112744100D01*
X157085673Y-112703497D01*
X157160697Y-112628473D01*
X157201300Y-112530450D01*
X157201300Y-112424350D01*
X157201300Y-112171100D01*
X158204324Y-112171100D01*
X158216300Y-112183076D01*
X158216300Y-113679524D01*
X158216300Y-113679524D01*
G37*
X158216300Y-113679524D02*
X158035788Y-113499012D01*
X157908063Y-113413669D01*
X157757400Y-113383700D01*
X157201300Y-113383700D01*
X157201300Y-113024350D01*
X157160697Y-112926327D01*
X157085673Y-112851303D01*
X156987650Y-112810700D01*
X156881550Y-112810700D01*
X156627200Y-112810700D01*
X156627200Y-112744100D01*
X156987650Y-112744100D01*
X157085673Y-112703497D01*
X157160697Y-112628473D01*
X157201300Y-112530450D01*
X157201300Y-112424350D01*
X157201300Y-112171100D01*
X158204324Y-112171100D01*
X158216300Y-112183076D01*
X158216300Y-113679524D01*
G36*
X158513910Y-116733700D02*
X158487309Y-116760255D01*
X158403995Y-116960897D01*
X158403908Y-117059315D01*
X158391612Y-117071612D01*
X158306269Y-117199337D01*
X158276300Y-117350000D01*
X158276300Y-117886924D01*
X158176924Y-117986300D01*
X157690000Y-117986300D01*
X157539337Y-118016269D01*
X157411612Y-118101612D01*
X157201300Y-118311924D01*
X157201300Y-117415476D01*
X157883076Y-116733700D01*
X158513910Y-116733700D01*
X158513910Y-116733700D01*
G37*
X158513910Y-116733700D02*
X158487309Y-116760255D01*
X158403995Y-116960897D01*
X158403908Y-117059315D01*
X158391612Y-117071612D01*
X158306269Y-117199337D01*
X158276300Y-117350000D01*
X158276300Y-117886924D01*
X158176924Y-117986300D01*
X157690000Y-117986300D01*
X157539337Y-118016269D01*
X157411612Y-118101612D01*
X157201300Y-118311924D01*
X157201300Y-117415476D01*
X157883076Y-116733700D01*
X158513910Y-116733700D01*
G36*
X158686300Y-118986924D02*
X158431612Y-119241612D01*
X158346269Y-119369337D01*
X158316300Y-119520000D01*
X158316300Y-120183927D01*
X158279745Y-120147309D01*
X158079103Y-120063995D01*
X157861851Y-120063805D01*
X157661063Y-120146769D01*
X157507309Y-120300255D01*
X157423995Y-120500897D01*
X157423805Y-120718149D01*
X157506769Y-120918937D01*
X157660255Y-121072691D01*
X157860897Y-121156005D01*
X158078149Y-121156195D01*
X158278937Y-121073231D01*
X158316300Y-121035933D01*
X158316300Y-122763300D01*
X157428350Y-122763300D01*
X157330327Y-122803903D01*
X157255303Y-122878927D01*
X157214700Y-122976950D01*
X157214700Y-123083050D01*
X157214700Y-123322800D01*
X156627200Y-123322800D01*
X156627200Y-122744100D01*
X156987650Y-122744100D01*
X157085673Y-122703497D01*
X157160697Y-122628473D01*
X157201300Y-122530450D01*
X157201300Y-122424350D01*
X157201300Y-121024350D01*
X157160697Y-120926327D01*
X157085673Y-120851303D01*
X156987650Y-120810700D01*
X156881550Y-120810700D01*
X156627200Y-120810700D01*
X156627200Y-120744100D01*
X156987650Y-120744100D01*
X157085673Y-120703497D01*
X157160697Y-120628473D01*
X157201300Y-120530450D01*
X157201300Y-120424350D01*
X157201300Y-119425476D01*
X157853076Y-118773700D01*
X158340000Y-118773700D01*
X158490662Y-118743731D01*
X158490663Y-118743731D01*
X158618388Y-118658388D01*
X158686300Y-118590476D01*
X158686300Y-118986924D01*
X158686300Y-118986924D01*
G37*
X158686300Y-118986924D02*
X158431612Y-119241612D01*
X158346269Y-119369337D01*
X158316300Y-119520000D01*
X158316300Y-120183927D01*
X158279745Y-120147309D01*
X158079103Y-120063995D01*
X157861851Y-120063805D01*
X157661063Y-120146769D01*
X157507309Y-120300255D01*
X157423995Y-120500897D01*
X157423805Y-120718149D01*
X157506769Y-120918937D01*
X157660255Y-121072691D01*
X157860897Y-121156005D01*
X158078149Y-121156195D01*
X158278937Y-121073231D01*
X158316300Y-121035933D01*
X158316300Y-122763300D01*
X157428350Y-122763300D01*
X157330327Y-122803903D01*
X157255303Y-122878927D01*
X157214700Y-122976950D01*
X157214700Y-123083050D01*
X157214700Y-123322800D01*
X156627200Y-123322800D01*
X156627200Y-122744100D01*
X156987650Y-122744100D01*
X157085673Y-122703497D01*
X157160697Y-122628473D01*
X157201300Y-122530450D01*
X157201300Y-122424350D01*
X157201300Y-121024350D01*
X157160697Y-120926327D01*
X157085673Y-120851303D01*
X156987650Y-120810700D01*
X156881550Y-120810700D01*
X156627200Y-120810700D01*
X156627200Y-120744100D01*
X156987650Y-120744100D01*
X157085673Y-120703497D01*
X157160697Y-120628473D01*
X157201300Y-120530450D01*
X157201300Y-120424350D01*
X157201300Y-119425476D01*
X157853076Y-118773700D01*
X158340000Y-118773700D01*
X158490662Y-118743731D01*
X158490663Y-118743731D01*
X158618388Y-118658388D01*
X158686300Y-118590476D01*
X158686300Y-118986924D01*
G36*
X159786300Y-113106924D02*
X159581748Y-113311475D01*
X159551612Y-113331612D01*
X159271612Y-113611612D01*
X159200489Y-113718054D01*
X159199745Y-113717309D01*
X159003700Y-113635903D01*
X159003700Y-112020000D01*
X158973731Y-111869338D01*
X158973731Y-111869337D01*
X158945618Y-111827263D01*
X159786300Y-112667945D01*
X159786300Y-113106924D01*
X159786300Y-113106924D01*
G37*
X159786300Y-113106924D02*
X159581748Y-113311475D01*
X159551612Y-113331612D01*
X159271612Y-113611612D01*
X159200489Y-113718054D01*
X159199745Y-113717309D01*
X159003700Y-113635903D01*
X159003700Y-112020000D01*
X158973731Y-111869338D01*
X158973731Y-111869337D01*
X158945618Y-111827263D01*
X159786300Y-112667945D01*
X159786300Y-113106924D01*
M02*
