%FSLAX46Y46*%
G04 Gerber Fmt 4.6, Leading zero omitted, Abs format (unit mm)*
G04 Created by KiCad (PCBNEW (2014-jul-16 BZR unknown)-product) date Wed 11 Feb 2015 12:50:59 PM CET*
%MOMM*%
G01*
G04 APERTURE LIST*
%ADD10C,0.150000*%
%ADD11R,0.762000X0.787400*%
%ADD12R,0.787400X0.762000*%
%ADD13R,1.800000X1.000000*%
%ADD14O,0.280000X0.850000*%
%ADD15O,0.850000X0.280000*%
%ADD16R,1.150000X1.150000*%
%ADD17R,1.000760X0.398780*%
%ADD18R,1.500000X1.400000*%
%ADD19R,1.400000X1.500000*%
%ADD20R,0.750000X0.650000*%
%ADD21R,1.400000X1.400000*%
%ADD22C,0.558800*%
%ADD23C,0.876300*%
%ADD24C,0.254000*%
%ADD25C,0.508000*%
%ADD26C,0.203200*%
%ADD27C,0.152400*%
%ADD28C,0.762000*%
%ADD29C,0.406400*%
%ADD30C,0.228600*%
G04 APERTURE END LIST*
D10*
D11*
X167030000Y-119619300D03*
X167030000Y-118120700D03*
X168640000Y-119619300D03*
X168640000Y-118120700D03*
X170250000Y-119619300D03*
X170250000Y-118120700D03*
D12*
X170169300Y-110790000D03*
X168670700Y-110790000D03*
D11*
X158198200Y-105738100D03*
X158198200Y-107236700D03*
D12*
X170169300Y-112410000D03*
X168670700Y-112410000D03*
D11*
X159670000Y-105740700D03*
X159670000Y-107239300D03*
X167050000Y-105740700D03*
X167050000Y-107239300D03*
X158200000Y-114910700D03*
X158200000Y-116409300D03*
X158200000Y-113369300D03*
X158200000Y-111870700D03*
X165430000Y-118120700D03*
X165430000Y-119619300D03*
D12*
X168670700Y-105330000D03*
X170169300Y-105330000D03*
X170169300Y-109210000D03*
X168670700Y-109210000D03*
X168670700Y-115710000D03*
X170169300Y-115710000D03*
X170169300Y-114100000D03*
X168670700Y-114100000D03*
D11*
X161170000Y-105740700D03*
X161170000Y-107239300D03*
D12*
X165450700Y-121400000D03*
X166949300Y-121400000D03*
D13*
X161060000Y-118560000D03*
X161060000Y-121060000D03*
D14*
X160661720Y-115943520D03*
X161162100Y-115943520D03*
X161662480Y-115943520D03*
X162162860Y-115943520D03*
X162660700Y-115943520D03*
X163161080Y-115943520D03*
X163661460Y-115943520D03*
X164161840Y-115943520D03*
X164662220Y-115943520D03*
X165162600Y-115943520D03*
X165662980Y-115943520D03*
X166160820Y-115943520D03*
X162157780Y-108996480D03*
X161659940Y-108996480D03*
X161159560Y-108996480D03*
X160659180Y-108996480D03*
D15*
X166886060Y-113219300D03*
X166886060Y-112721460D03*
X166886060Y-112221080D03*
X166886060Y-111720700D03*
X166886060Y-111220320D03*
X166886060Y-110719940D03*
X166886060Y-110219560D03*
X166886060Y-109719180D03*
X166886060Y-115218280D03*
X166886060Y-114717900D03*
X166886060Y-114217520D03*
X166886060Y-113719680D03*
D14*
X166158280Y-108996480D03*
X165657900Y-108996480D03*
X165160060Y-108996480D03*
X164659680Y-108996480D03*
X164159300Y-108996480D03*
X163658920Y-108996480D03*
X163158540Y-108996480D03*
X162658160Y-108996480D03*
D15*
X159936480Y-109719180D03*
X159936480Y-110219560D03*
X159936480Y-110719940D03*
X159936480Y-111217780D03*
X159936480Y-111718160D03*
X159936480Y-112218540D03*
X159936480Y-112718920D03*
X159936480Y-113219300D03*
X159936480Y-113719680D03*
X159936480Y-114220060D03*
X159936480Y-114717900D03*
X159936480Y-115218280D03*
D16*
X161931720Y-113948280D03*
X161931720Y-112470000D03*
X161931720Y-110991720D03*
X163410000Y-113948280D03*
X163410000Y-112470000D03*
X163410000Y-110991720D03*
X164888280Y-113948280D03*
X164888280Y-112470000D03*
X164888280Y-110991720D03*
D17*
X164803400Y-107100480D03*
X164803400Y-106450240D03*
X164803400Y-105800000D03*
X163000000Y-105800000D03*
X163000000Y-106450240D03*
X163000000Y-107100480D03*
D11*
X158200000Y-108780700D03*
X158200000Y-110279300D03*
X158200000Y-118130700D03*
X158200000Y-119629300D03*
D18*
X156184600Y-103777400D03*
X156184600Y-105777400D03*
X156184600Y-107777400D03*
X156184600Y-109777400D03*
X156184600Y-111777400D03*
X156184600Y-113777400D03*
X156184600Y-115777400D03*
X156184600Y-117777400D03*
X156184600Y-119777400D03*
X156184600Y-121777400D03*
X172180000Y-103781400D03*
X172180000Y-105781400D03*
X172180000Y-107781400D03*
X172180000Y-109781400D03*
X172180000Y-111781400D03*
X172180000Y-113781400D03*
X172180000Y-115781400D03*
X172180000Y-117781400D03*
X172180000Y-119781400D03*
X172180000Y-121781400D03*
D19*
X158181400Y-123780000D03*
X160181400Y-123780000D03*
X162181400Y-123780000D03*
X164181400Y-123780000D03*
X166181400Y-123780000D03*
X168181400Y-123780000D03*
X170181400Y-123780000D03*
D20*
X170050000Y-107760000D03*
X168750000Y-107760000D03*
X168750000Y-106760000D03*
X170050000Y-106760000D03*
D21*
X158181400Y-101780000D03*
X160181400Y-101780000D03*
X162181400Y-101780000D03*
X164181400Y-101780000D03*
X166181400Y-101780000D03*
X168181400Y-101780000D03*
X170181400Y-101780000D03*
D22*
X160770000Y-112280000D03*
X165300000Y-122220000D03*
X167000000Y-117310000D03*
X165670000Y-115120000D03*
X158950000Y-117070000D03*
X159010000Y-116340000D03*
X158910000Y-115590000D03*
X159000000Y-114880000D03*
X158890000Y-114180000D03*
X159000000Y-109940000D03*
X166020000Y-110230000D03*
X167750000Y-110150000D03*
X159470000Y-109150000D03*
X165880000Y-110920000D03*
X165870000Y-111680000D03*
X157340000Y-106840000D03*
X167870000Y-111480000D03*
X166070000Y-112720000D03*
X167860000Y-112560000D03*
X160950000Y-110950000D03*
D23*
X163620000Y-121460000D03*
D22*
X163210000Y-119050000D03*
X157860000Y-122320000D03*
X159140000Y-108440000D03*
X157380000Y-107980000D03*
X158170000Y-117150000D03*
X157360000Y-119660000D03*
X166150000Y-122510000D03*
X156920000Y-102530000D03*
X171440000Y-102500000D03*
X170900000Y-120790000D03*
X171430000Y-123050000D03*
X156940000Y-123040000D03*
X157400000Y-112390000D03*
D23*
X158950000Y-105738100D03*
X160430000Y-105740700D03*
D22*
X169260000Y-107040000D03*
X169470000Y-108580000D03*
D23*
X167040000Y-104890000D03*
D22*
X169360000Y-105340000D03*
X166230000Y-119619300D03*
X167830000Y-119619300D03*
X169440000Y-119619300D03*
X168740000Y-114890000D03*
X169530000Y-111460000D03*
X165540000Y-105760000D03*
X166380000Y-106460000D03*
X165550000Y-106450000D03*
X166380000Y-105790000D03*
D23*
X163890000Y-106450240D03*
D22*
X161400000Y-106430000D03*
X162280000Y-106440000D03*
X161931720Y-112470000D03*
X163410000Y-112470000D03*
X164888280Y-112470000D03*
X164888280Y-113948280D03*
X163410000Y-113948280D03*
X161931720Y-113948280D03*
X163410000Y-110991720D03*
X164888280Y-110991720D03*
X162110000Y-111140000D03*
D23*
X170180000Y-103770000D03*
X168180000Y-103760000D03*
X166180000Y-103770000D03*
X158180000Y-103770000D03*
X160180000Y-103770000D03*
X162190000Y-103770000D03*
X164820000Y-104900000D03*
X169240000Y-121860000D03*
D22*
X159150000Y-112370000D03*
X157500000Y-110850000D03*
X157970000Y-120610000D03*
X166950000Y-122210000D03*
X167830000Y-118120700D03*
X169440000Y-118120700D03*
X168670700Y-111580000D03*
X160760000Y-115090000D03*
X160770000Y-117610000D03*
X161520000Y-115080000D03*
X161280000Y-120140000D03*
D24*
X159936480Y-111217780D02*
X160447780Y-111217780D01*
X160770000Y-111540000D02*
X160770000Y-112280000D01*
X160447780Y-111217780D02*
X160770000Y-111540000D01*
D25*
X159779300Y-123377900D02*
X160181400Y-123780000D01*
D24*
X165450700Y-122069300D02*
X165300000Y-122220000D01*
X165450700Y-121400000D02*
X165450700Y-122069300D01*
X164181400Y-101978600D02*
X164181400Y-101780000D01*
X163610000Y-102351400D02*
X164181400Y-101780000D01*
X163610000Y-102880000D02*
X163610000Y-102351400D01*
X163370000Y-103120000D02*
X163610000Y-102880000D01*
X163370000Y-105640000D02*
X163370000Y-103120000D01*
X163210000Y-105800000D02*
X163370000Y-105640000D01*
X163000000Y-105800000D02*
X163210000Y-105800000D01*
X164662220Y-116672220D02*
X165040000Y-117050000D01*
X165040000Y-117050000D02*
X166740000Y-117050000D01*
X166740000Y-117050000D02*
X167000000Y-117310000D01*
X164662220Y-115943520D02*
X164662220Y-116672220D01*
X165162600Y-116442600D02*
X165380000Y-116660000D01*
X166150000Y-116660000D02*
X166160000Y-116660000D01*
X165380000Y-116660000D02*
X166150000Y-116660000D01*
X165162600Y-115943520D02*
X165162600Y-116442600D01*
X172071400Y-119781400D02*
X172180000Y-119781400D01*
X167120000Y-116660000D02*
X167920000Y-117460000D01*
X167920000Y-117460000D02*
X170780000Y-117460000D01*
X170780000Y-117460000D02*
X171070000Y-117750000D01*
X171070000Y-117750000D02*
X171070000Y-118780000D01*
X171070000Y-118780000D02*
X172071400Y-119781400D01*
X166150000Y-116660000D02*
X167120000Y-116660000D01*
X172148600Y-113781400D02*
X172180000Y-113781400D01*
X171160000Y-114770000D02*
X172148600Y-113781400D01*
X171160000Y-115880000D02*
X171160000Y-114770000D01*
X166938280Y-115218280D02*
X168080000Y-116360000D01*
X166886060Y-115218280D02*
X166938280Y-115218280D01*
X170680000Y-116360000D02*
X171160000Y-115880000D01*
X168080000Y-116360000D02*
X170680000Y-116360000D01*
X172180000Y-115800000D02*
X172180000Y-115781400D01*
X167103520Y-115943520D02*
X167915000Y-116755000D01*
X166160820Y-115943520D02*
X167103520Y-115943520D01*
X172108600Y-115781400D02*
X172180000Y-115781400D01*
X171135000Y-116755000D02*
X172108600Y-115781400D01*
X167915000Y-116755000D02*
X171135000Y-116755000D01*
X165662980Y-115127020D02*
X165670000Y-115120000D01*
X165662980Y-115943520D02*
X165662980Y-115127020D01*
X163161080Y-117049898D02*
X164280000Y-118168818D01*
X164280000Y-118168818D02*
X164280000Y-118170000D01*
X164280000Y-118170000D02*
X164590000Y-118480000D01*
X164590000Y-118480000D02*
X164590000Y-119710000D01*
X170181400Y-121211400D02*
X170181400Y-123780000D01*
X163161080Y-115943520D02*
X163161080Y-117049898D01*
X170181400Y-120751400D02*
X170181400Y-121211400D01*
X164590000Y-119920000D02*
X164940000Y-120270000D01*
X164940000Y-120270000D02*
X169700000Y-120270000D01*
X169700000Y-120270000D02*
X170181400Y-120751400D01*
X164590000Y-119710000D02*
X164590000Y-119920000D01*
X162660700Y-117110700D02*
X164200000Y-118650000D01*
X164200000Y-118650000D02*
X164200000Y-119750000D01*
X168181400Y-121621400D02*
X168181400Y-123780000D01*
X162660700Y-115943520D02*
X162660700Y-117110700D01*
X164200000Y-120150000D02*
X164730000Y-120680000D01*
X168181400Y-121051400D02*
X168181400Y-121621400D01*
X164200000Y-119750000D02*
X164200000Y-120150000D01*
X167810000Y-120680000D02*
X168181400Y-121051400D01*
X164730000Y-120680000D02*
X167810000Y-120680000D01*
X161662480Y-116557520D02*
X161200000Y-117020000D01*
X161200000Y-117020000D02*
X159770000Y-117020000D01*
X159770000Y-117020000D02*
X158850000Y-117940000D01*
X158850000Y-117940000D02*
X158850000Y-121370000D01*
X158850000Y-121370000D02*
X158442600Y-121777400D01*
X158442600Y-121777400D02*
X156184600Y-121777400D01*
X161662480Y-115943520D02*
X161662480Y-116557520D01*
X161162100Y-115943520D02*
X161162100Y-116457900D01*
X159130000Y-117070000D02*
X158950000Y-117070000D01*
X159570000Y-116630000D02*
X159130000Y-117070000D01*
X160990000Y-116630000D02*
X159570000Y-116630000D01*
X161162100Y-116457900D02*
X160990000Y-116630000D01*
X160661720Y-115943520D02*
X159406480Y-115943520D01*
X159406480Y-115943520D02*
X159010000Y-116340000D01*
X159936480Y-115218280D02*
X159511720Y-115218280D01*
X159511720Y-115218280D02*
X159140000Y-115590000D01*
X159140000Y-115590000D02*
X158910000Y-115590000D01*
X159936480Y-114717900D02*
X159162100Y-114717900D01*
X159162100Y-114717900D02*
X159000000Y-114880000D01*
X159936480Y-114220060D02*
X158930060Y-114220060D01*
X158930060Y-114220060D02*
X158890000Y-114180000D01*
X166886060Y-109719180D02*
X166530820Y-109719180D01*
D26*
X159000000Y-109940000D02*
X159000000Y-109950000D01*
D27*
X156302000Y-109660000D02*
X156184600Y-109777400D01*
X159000000Y-109869402D02*
X158790598Y-109660000D01*
X158790598Y-109660000D02*
X156302000Y-109660000D01*
X159000000Y-109940000D02*
X159000000Y-109869402D01*
D24*
X166530820Y-109719180D02*
X166020000Y-110230000D01*
D27*
X157565000Y-109325000D02*
X157270000Y-109030000D01*
X157270000Y-108700000D02*
X156347400Y-107777400D01*
X157270000Y-109030000D02*
X157270000Y-108700000D01*
X157620000Y-109380000D02*
X157565000Y-109325000D01*
D24*
X167680440Y-110219560D02*
X167750000Y-110150000D01*
X166886060Y-110219560D02*
X167680440Y-110219560D01*
X156537400Y-107777400D02*
X156184600Y-107777400D01*
D27*
X159390000Y-109150000D02*
X159160000Y-109380000D01*
X159160000Y-109380000D02*
X157620000Y-109380000D01*
X159470000Y-109150000D02*
X159390000Y-109150000D01*
X156347400Y-107777400D02*
X156184600Y-107777400D01*
D24*
X166180320Y-111220320D02*
X165880000Y-110920000D01*
X166886060Y-111220320D02*
X166180320Y-111220320D01*
X166886060Y-111720700D02*
X165910700Y-111720700D01*
X165910700Y-111720700D02*
X165870000Y-111680000D01*
D26*
X156247400Y-103777400D02*
X156184600Y-103777400D01*
X157340000Y-106840000D02*
X157350000Y-106830000D01*
X157350000Y-106830000D02*
X157350000Y-104880000D01*
X157350000Y-104880000D02*
X156247400Y-103777400D01*
D24*
X167368920Y-112221080D02*
X167870000Y-111720000D01*
X167870000Y-111720000D02*
X167870000Y-111480000D01*
X166886060Y-112221080D02*
X167368920Y-112221080D01*
X166071460Y-112721460D02*
X166070000Y-112720000D01*
X166886060Y-112721460D02*
X166071460Y-112721460D01*
X167360700Y-113219300D02*
X167860000Y-112720000D01*
X167860000Y-112720000D02*
X167860000Y-112560000D01*
X166886060Y-113219300D02*
X167360700Y-113219300D01*
X172098600Y-109781400D02*
X172180000Y-109781400D01*
X167410320Y-113719680D02*
X168080000Y-113050000D01*
X168080000Y-113050000D02*
X170690000Y-113050000D01*
X170690000Y-113050000D02*
X170834398Y-112905602D01*
X170834398Y-112905602D02*
X170834398Y-111045602D01*
X170834398Y-111045602D02*
X172098600Y-109781400D01*
X166886060Y-113719680D02*
X167410320Y-113719680D01*
D27*
X172180000Y-112020000D02*
X172180000Y-111781400D01*
X172108600Y-111781400D02*
X172180000Y-111781400D01*
D26*
X172128600Y-111781400D02*
X172180000Y-111781400D01*
X168170000Y-113470000D02*
X170950000Y-113470000D01*
X170950000Y-113470000D02*
X171190000Y-113230000D01*
X171190000Y-113230000D02*
X171190000Y-112720000D01*
X171190000Y-112720000D02*
X172128600Y-111781400D01*
X166886060Y-114217520D02*
X167422480Y-114217520D01*
X168170000Y-113470000D02*
X167422480Y-114217520D01*
D24*
X168650000Y-114100000D02*
X168670700Y-114100000D01*
X168032100Y-114717900D02*
X168650000Y-114100000D01*
X166886060Y-114717900D02*
X168032100Y-114717900D01*
X163100480Y-107100480D02*
X162960000Y-107100480D01*
X163658920Y-107759400D02*
X163000000Y-107100480D01*
X163658920Y-108996480D02*
X163658920Y-107759400D01*
X164699520Y-107100480D02*
X164763400Y-107100480D01*
X164159300Y-107744580D02*
X164803400Y-107100480D01*
X164159300Y-108996480D02*
X164159300Y-107744580D01*
X159936480Y-110719940D02*
X160719940Y-110719940D01*
X160719940Y-110719940D02*
X160950000Y-110950000D01*
X158200000Y-117120000D02*
X158170000Y-117150000D01*
X158200000Y-116409300D02*
X158200000Y-117120000D01*
D25*
X170349300Y-119619300D02*
X170900000Y-120170000D01*
X170900000Y-120170000D02*
X170900000Y-120790000D01*
D28*
X166230000Y-119619300D02*
X165430000Y-119619300D01*
X167030000Y-119619300D02*
X166230000Y-119619300D01*
X169440000Y-119619300D02*
X170250000Y-119619300D01*
X168640000Y-119619300D02*
X169440000Y-119619300D01*
X167830000Y-119619300D02*
X168640000Y-119619300D01*
X167030000Y-119619300D02*
X167830000Y-119619300D01*
D24*
X158547840Y-112218540D02*
X158200000Y-111870700D01*
X159936480Y-112218540D02*
X158547840Y-112218540D01*
D28*
X170169300Y-111500000D02*
X170169300Y-112410000D01*
X170169300Y-110790000D02*
X170169300Y-111500000D01*
D25*
X170050000Y-109090700D02*
X170169300Y-109210000D01*
X170050000Y-107760000D02*
X170050000Y-109090700D01*
D24*
X168880000Y-106760000D02*
X168750000Y-106760000D01*
X169880000Y-107760000D02*
X168880000Y-106760000D01*
X170050000Y-107760000D02*
X169880000Y-107760000D01*
X157919300Y-111870700D02*
X157400000Y-112390000D01*
X158200000Y-111870700D02*
X157919300Y-111870700D01*
D25*
X159667400Y-105738100D02*
X159670000Y-105740700D01*
X158950000Y-105738100D02*
X159667400Y-105738100D01*
X158198200Y-105738100D02*
X158950000Y-105738100D01*
X160430000Y-105740700D02*
X161170000Y-105740700D01*
X159670000Y-105740700D02*
X160430000Y-105740700D01*
D29*
X163890000Y-106450240D02*
X164803400Y-106450240D01*
X163000000Y-106450240D02*
X163890000Y-106450240D01*
D24*
X168980000Y-106760000D02*
X169260000Y-107040000D01*
X168750000Y-106760000D02*
X168980000Y-106760000D01*
X170100000Y-109210000D02*
X169470000Y-108580000D01*
X170169300Y-109210000D02*
X170100000Y-109210000D01*
X167050000Y-104900000D02*
X167040000Y-104890000D01*
X167050000Y-105740700D02*
X167050000Y-104900000D01*
X169350000Y-105330000D02*
X169360000Y-105340000D01*
X168670700Y-105330000D02*
X169350000Y-105330000D01*
X168670700Y-114959300D02*
X168740000Y-114890000D01*
X168670700Y-115710000D02*
X168670700Y-114959300D01*
X169570000Y-111500000D02*
X169530000Y-111460000D01*
X170169300Y-111500000D02*
X169570000Y-111500000D01*
X165540000Y-105760000D02*
X165500000Y-105800000D01*
X165500000Y-105800000D02*
X164803400Y-105800000D01*
X166380000Y-105790000D02*
X166380000Y-106460000D01*
X166370000Y-106450000D02*
X166380000Y-106460000D01*
X164803400Y-106450240D02*
X165549760Y-106450240D01*
X165549760Y-106450240D02*
X165550000Y-106450000D01*
X165550000Y-106450000D02*
X166370000Y-106450000D01*
X161410000Y-106440000D02*
X161400000Y-106430000D01*
X163000000Y-106450240D02*
X162290240Y-106450240D01*
X162290240Y-106450240D02*
X162280000Y-106440000D01*
X162280000Y-106440000D02*
X161410000Y-106440000D01*
D25*
X170250000Y-119619300D02*
X170349300Y-119619300D01*
D24*
X164803400Y-104916600D02*
X164820000Y-104900000D01*
X164803400Y-105800000D02*
X164803400Y-104916600D01*
X159301460Y-112218540D02*
X159150000Y-112370000D01*
X159936480Y-112218540D02*
X159301460Y-112218540D01*
D25*
X158070700Y-110279300D02*
X157500000Y-110850000D01*
X158200000Y-120380000D02*
X157970000Y-120610000D01*
X158200000Y-119629300D02*
X158200000Y-120380000D01*
D28*
X169440000Y-118120700D02*
X170250000Y-118120700D01*
X168640000Y-118120700D02*
X169440000Y-118120700D01*
X167830000Y-118120700D02*
X168640000Y-118120700D01*
X167030000Y-118120700D02*
X167830000Y-118120700D01*
D24*
X164161840Y-115943520D02*
X164161840Y-116490000D01*
X166349300Y-117440000D02*
X167030000Y-118120700D01*
X165490000Y-117440000D02*
X166349300Y-117440000D01*
X159208160Y-111718160D02*
X158200000Y-110710000D01*
X158200000Y-110710000D02*
X158200000Y-110279300D01*
X159936480Y-111718160D02*
X159208160Y-111718160D01*
D28*
X168670700Y-111580000D02*
X168670700Y-110790000D01*
X168670700Y-112410000D02*
X168670700Y-111580000D01*
D24*
X168600640Y-110719940D02*
X168670700Y-110790000D01*
X166886060Y-110719940D02*
X168600640Y-110719940D01*
X164650000Y-117440000D02*
X164160000Y-116950000D01*
X164160000Y-116950000D02*
X164160000Y-116490000D01*
X164160000Y-116490000D02*
X164161840Y-116490000D01*
X165490000Y-117440000D02*
X164650000Y-117440000D01*
X166949300Y-122209300D02*
X166950000Y-122210000D01*
X166949300Y-121400000D02*
X166949300Y-122209300D01*
D25*
X158200000Y-110279300D02*
X158070700Y-110279300D01*
D24*
X162910000Y-108996480D02*
X163158540Y-108996480D01*
X162900000Y-108996480D02*
X162910000Y-108996480D01*
X162658160Y-108996480D02*
X162900000Y-108996480D01*
X161659940Y-109509940D02*
X161880000Y-109730000D01*
X161880000Y-109730000D02*
X162440000Y-109730000D01*
X162440000Y-109730000D02*
X162658160Y-109511840D01*
X162658160Y-109511840D02*
X162658160Y-108996480D01*
X161659940Y-108996480D02*
X161659940Y-109509940D01*
X164920000Y-108996480D02*
X165160060Y-108996480D01*
X164900000Y-108996480D02*
X164920000Y-108996480D01*
X164659680Y-108996480D02*
X164900000Y-108996480D01*
D25*
X162900000Y-109760000D02*
X163130000Y-109990000D01*
X163130000Y-109990000D02*
X164670000Y-109990000D01*
X164670000Y-109990000D02*
X164900000Y-109760000D01*
X164900000Y-109760000D02*
X164900000Y-108996480D01*
X162900000Y-108996480D02*
X162900000Y-109760000D01*
D24*
X161659940Y-108569940D02*
X161390000Y-108300000D01*
X161390000Y-108300000D02*
X159940000Y-108300000D01*
X159940000Y-108300000D02*
X159670000Y-108030000D01*
X159670000Y-108030000D02*
X159670000Y-107239300D01*
X161659940Y-108996480D02*
X161659940Y-108569940D01*
X165160060Y-108339940D02*
X165750000Y-107750000D01*
X165750000Y-107750000D02*
X166539300Y-107750000D01*
X166539300Y-107750000D02*
X167050000Y-107239300D01*
X165160060Y-108996480D02*
X165160060Y-108339940D01*
D25*
X158200000Y-107238500D02*
X158198200Y-107236700D01*
X158200000Y-108780700D02*
X158200000Y-107238500D01*
X159667400Y-107236700D02*
X159670000Y-107239300D01*
X158198200Y-107236700D02*
X159667400Y-107236700D01*
D24*
X159936480Y-113719680D02*
X159489680Y-113719680D01*
X159130000Y-113360000D02*
X158209300Y-113360000D01*
X159489680Y-113719680D02*
X159130000Y-113360000D01*
X158209300Y-113360000D02*
X158200000Y-113369300D01*
D25*
X158200000Y-113369300D02*
X158200000Y-114910700D01*
X157410000Y-115700700D02*
X158200000Y-114910700D01*
X157410000Y-117330000D02*
X157410000Y-115700700D01*
X158200000Y-118120000D02*
X157410000Y-117330000D01*
X158200000Y-118130700D02*
X158200000Y-118120000D01*
D24*
X163661460Y-115943520D02*
X163661460Y-117011460D01*
X163661460Y-117011460D02*
X163715000Y-117065000D01*
X163715000Y-117065000D02*
X164295000Y-117645000D01*
X165219300Y-117910000D02*
X165430000Y-118120700D01*
X164560000Y-117910000D02*
X165219300Y-117910000D01*
X164295000Y-117645000D02*
X164560000Y-117910000D01*
D25*
X170050000Y-106360000D02*
X170050000Y-105449300D01*
X170050000Y-106760000D02*
X170050000Y-106360000D01*
X170050000Y-105449300D02*
X170169300Y-105330000D01*
D24*
X169780000Y-106090000D02*
X170050000Y-106360000D01*
X168330000Y-106090000D02*
X169780000Y-106090000D01*
X168040000Y-106380000D02*
X168330000Y-106090000D01*
X168040000Y-107900000D02*
X168040000Y-106380000D01*
X167650000Y-108290000D02*
X168040000Y-107900000D01*
X166010000Y-108290000D02*
X167650000Y-108290000D01*
X165657900Y-108642100D02*
X166010000Y-108290000D01*
X165657900Y-108996480D02*
X165657900Y-108642100D01*
D25*
X168750000Y-109130700D02*
X168670700Y-109210000D01*
X168750000Y-107760000D02*
X168750000Y-109130700D01*
D24*
X168140700Y-108680000D02*
X168670700Y-109210000D01*
X166440000Y-108680000D02*
X168140700Y-108680000D01*
X166158280Y-108961720D02*
X166440000Y-108680000D01*
X166158280Y-108996480D02*
X166158280Y-108961720D01*
D25*
X170169300Y-114100000D02*
X170169300Y-115710000D01*
D24*
X161170000Y-107520000D02*
X161170000Y-107239300D01*
X162157780Y-108507780D02*
X161170000Y-107520000D01*
X162157780Y-108996480D02*
X162157780Y-108507780D01*
X159936480Y-113219300D02*
X160369300Y-113219300D01*
X160630000Y-114960000D02*
X160760000Y-115090000D01*
X160630000Y-113480000D02*
X160630000Y-114960000D01*
X160369300Y-113219300D02*
X160630000Y-113480000D01*
X161030000Y-118290000D02*
X161610000Y-118870000D01*
X161030000Y-118530000D02*
X161060000Y-118560000D01*
X160750000Y-118250000D02*
X161060000Y-118560000D01*
X160770000Y-117610000D02*
X160750000Y-117630000D01*
X160750000Y-117630000D02*
X160750000Y-118250000D01*
X159936480Y-112718920D02*
X160438920Y-112718920D01*
X160438920Y-112718920D02*
X161030000Y-113310000D01*
X161520000Y-115070000D02*
X161520000Y-115080000D01*
X161030000Y-114580000D02*
X161520000Y-115070000D01*
X161030000Y-113310000D02*
X161030000Y-114580000D01*
X161060000Y-120950000D02*
X161060000Y-121060000D01*
X161300000Y-120820000D02*
X161060000Y-121060000D01*
X161280000Y-120140000D02*
X161300000Y-120160000D01*
X161300000Y-120160000D02*
X161300000Y-120820000D01*
X162162860Y-117182860D02*
X163810000Y-118830000D01*
X163810000Y-118830000D02*
X163810000Y-120270000D01*
X162162860Y-115943520D02*
X162162860Y-117182860D01*
X166050000Y-123780000D02*
X166181400Y-123780000D01*
X163810000Y-120360000D02*
X164500000Y-121050000D01*
X164500000Y-121050000D02*
X164500000Y-122230000D01*
X164500000Y-122230000D02*
X166050000Y-123780000D01*
X163810000Y-120270000D02*
X163810000Y-120360000D01*
D30*
G36*
X157679300Y-108156192D02*
X157667927Y-108160903D01*
X157592903Y-108235927D01*
X157552300Y-108333950D01*
X157552300Y-108440050D01*
X157552300Y-108517147D01*
X157512467Y-108457533D01*
X157201300Y-108146366D01*
X157201300Y-107373715D01*
X157230897Y-107386005D01*
X157448149Y-107386195D01*
X157550500Y-107343904D01*
X157550500Y-107683450D01*
X157591103Y-107781473D01*
X157666127Y-107856497D01*
X157679300Y-107861953D01*
X157679300Y-108156192D01*
X157679300Y-108156192D01*
G37*
X157679300Y-108156192D02*
X157667927Y-108160903D01*
X157592903Y-108235927D01*
X157552300Y-108333950D01*
X157552300Y-108440050D01*
X157552300Y-108517147D01*
X157512467Y-108457533D01*
X157201300Y-108146366D01*
X157201300Y-107373715D01*
X157230897Y-107386005D01*
X157448149Y-107386195D01*
X157550500Y-107343904D01*
X157550500Y-107683450D01*
X157591103Y-107781473D01*
X157666127Y-107856497D01*
X157679300Y-107861953D01*
X157679300Y-108156192D01*
G36*
X160243838Y-112123108D02*
X160223995Y-112170897D01*
X160223871Y-112312220D01*
X159637929Y-112312220D01*
X159617206Y-112316341D01*
X159616060Y-112120510D01*
X159637929Y-112124860D01*
X160235031Y-112124860D01*
X160243838Y-112123108D01*
X160243838Y-112123108D01*
G37*
X160243838Y-112123108D02*
X160223995Y-112170897D01*
X160223871Y-112312220D01*
X159637929Y-112312220D01*
X159617206Y-112316341D01*
X159616060Y-112120510D01*
X159637929Y-112124860D01*
X160235031Y-112124860D01*
X160243838Y-112123108D01*
G36*
X160256812Y-109316812D02*
X160235031Y-109312480D01*
X159993840Y-109312480D01*
X160016005Y-109259103D01*
X160016195Y-109041851D01*
X159933231Y-108841063D01*
X159779745Y-108687309D01*
X159579103Y-108603995D01*
X159361851Y-108603805D01*
X159161063Y-108686769D01*
X159007309Y-108840255D01*
X158925571Y-109037100D01*
X158847700Y-109037100D01*
X158847700Y-108333950D01*
X158807097Y-108235927D01*
X158732073Y-108160903D01*
X158720700Y-108156192D01*
X158720700Y-107860462D01*
X158730273Y-107856497D01*
X158805297Y-107781473D01*
X158815268Y-107757400D01*
X159051854Y-107757400D01*
X159062903Y-107784073D01*
X159137927Y-107859097D01*
X159235950Y-107899700D01*
X159276300Y-107899700D01*
X159276300Y-108030000D01*
X159306269Y-108180663D01*
X159391612Y-108308388D01*
X159661612Y-108578388D01*
X159789338Y-108663731D01*
X159940000Y-108693700D01*
X160253321Y-108693700D01*
X160252480Y-108697929D01*
X160252480Y-109295031D01*
X160256812Y-109316812D01*
X160256812Y-109316812D01*
G37*
X160256812Y-109316812D02*
X160235031Y-109312480D01*
X159993840Y-109312480D01*
X160016005Y-109259103D01*
X160016195Y-109041851D01*
X159933231Y-108841063D01*
X159779745Y-108687309D01*
X159579103Y-108603995D01*
X159361851Y-108603805D01*
X159161063Y-108686769D01*
X159007309Y-108840255D01*
X158925571Y-109037100D01*
X158847700Y-109037100D01*
X158847700Y-108333950D01*
X158807097Y-108235927D01*
X158732073Y-108160903D01*
X158720700Y-108156192D01*
X158720700Y-107860462D01*
X158730273Y-107856497D01*
X158805297Y-107781473D01*
X158815268Y-107757400D01*
X159051854Y-107757400D01*
X159062903Y-107784073D01*
X159137927Y-107859097D01*
X159235950Y-107899700D01*
X159276300Y-107899700D01*
X159276300Y-108030000D01*
X159306269Y-108180663D01*
X159391612Y-108308388D01*
X159661612Y-108578388D01*
X159789338Y-108663731D01*
X159940000Y-108693700D01*
X160253321Y-108693700D01*
X160252480Y-108697929D01*
X160252480Y-109295031D01*
X160256812Y-109316812D01*
G36*
X162575700Y-106545700D02*
X161912655Y-106545700D01*
X161770462Y-106687892D01*
X161702073Y-106619503D01*
X161604050Y-106578900D01*
X161497950Y-106578900D01*
X160735950Y-106578900D01*
X160637927Y-106619503D01*
X160562903Y-106694527D01*
X160522300Y-106792550D01*
X160522300Y-106898650D01*
X160522300Y-107686050D01*
X160562903Y-107784073D01*
X160637927Y-107859097D01*
X160735950Y-107899700D01*
X160842050Y-107899700D01*
X160992924Y-107899700D01*
X160999524Y-107906300D01*
X160103076Y-107906300D01*
X160096476Y-107899700D01*
X160104050Y-107899700D01*
X160202073Y-107859097D01*
X160277097Y-107784073D01*
X160317700Y-107686050D01*
X160317700Y-107579950D01*
X160317700Y-106792550D01*
X160277097Y-106694527D01*
X160202073Y-106619503D01*
X160104050Y-106578900D01*
X159997950Y-106578900D01*
X159235950Y-106578900D01*
X159137927Y-106619503D01*
X159062903Y-106694527D01*
X159054008Y-106716000D01*
X158815268Y-106716000D01*
X158805297Y-106691927D01*
X158730273Y-106616903D01*
X158632250Y-106576300D01*
X158526150Y-106576300D01*
X157821922Y-106576300D01*
X157803231Y-106531063D01*
X157718300Y-106445983D01*
X157718300Y-104880000D01*
X157694916Y-104762440D01*
X157690265Y-104739058D01*
X157690265Y-104739057D01*
X157610428Y-104619573D01*
X157201300Y-104210445D01*
X157201300Y-103024350D01*
X157160697Y-102926327D01*
X157085673Y-102851303D01*
X156987650Y-102810700D01*
X156881550Y-102810700D01*
X156627200Y-102810700D01*
X156627200Y-102237200D01*
X162475700Y-102237200D01*
X162475700Y-104672655D01*
X161675700Y-105472655D01*
X161675700Y-106147345D01*
X161912655Y-106384300D01*
X162575700Y-106384300D01*
X162575700Y-106545700D01*
X162575700Y-106545700D01*
G37*
X162575700Y-106545700D02*
X161912655Y-106545700D01*
X161770462Y-106687892D01*
X161702073Y-106619503D01*
X161604050Y-106578900D01*
X161497950Y-106578900D01*
X160735950Y-106578900D01*
X160637927Y-106619503D01*
X160562903Y-106694527D01*
X160522300Y-106792550D01*
X160522300Y-106898650D01*
X160522300Y-107686050D01*
X160562903Y-107784073D01*
X160637927Y-107859097D01*
X160735950Y-107899700D01*
X160842050Y-107899700D01*
X160992924Y-107899700D01*
X160999524Y-107906300D01*
X160103076Y-107906300D01*
X160096476Y-107899700D01*
X160104050Y-107899700D01*
X160202073Y-107859097D01*
X160277097Y-107784073D01*
X160317700Y-107686050D01*
X160317700Y-107579950D01*
X160317700Y-106792550D01*
X160277097Y-106694527D01*
X160202073Y-106619503D01*
X160104050Y-106578900D01*
X159997950Y-106578900D01*
X159235950Y-106578900D01*
X159137927Y-106619503D01*
X159062903Y-106694527D01*
X159054008Y-106716000D01*
X158815268Y-106716000D01*
X158805297Y-106691927D01*
X158730273Y-106616903D01*
X158632250Y-106576300D01*
X158526150Y-106576300D01*
X157821922Y-106576300D01*
X157803231Y-106531063D01*
X157718300Y-106445983D01*
X157718300Y-104880000D01*
X157694916Y-104762440D01*
X157690265Y-104739058D01*
X157690265Y-104739057D01*
X157610428Y-104619573D01*
X157201300Y-104210445D01*
X157201300Y-103024350D01*
X157160697Y-102926327D01*
X157085673Y-102851303D01*
X156987650Y-102810700D01*
X156881550Y-102810700D01*
X156627200Y-102810700D01*
X156627200Y-102237200D01*
X162475700Y-102237200D01*
X162475700Y-104672655D01*
X161675700Y-105472655D01*
X161675700Y-106147345D01*
X161912655Y-106384300D01*
X162575700Y-106384300D01*
X162575700Y-106545700D01*
G36*
X165036024Y-123322800D02*
X163148100Y-123322800D01*
X163148100Y-122976950D01*
X163107497Y-122878927D01*
X163032473Y-122803903D01*
X162934450Y-122763300D01*
X162828350Y-122763300D01*
X162226700Y-122763300D01*
X162226700Y-121613050D01*
X162226700Y-121506950D01*
X162226700Y-120506950D01*
X162186097Y-120408927D01*
X162111073Y-120333903D01*
X162013050Y-120293300D01*
X161906950Y-120293300D01*
X161807652Y-120293300D01*
X161826005Y-120249103D01*
X161826195Y-120031851D01*
X161743231Y-119831063D01*
X161589745Y-119677309D01*
X161389103Y-119593995D01*
X161171851Y-119593805D01*
X160971063Y-119676769D01*
X160817309Y-119830255D01*
X160733995Y-120030897D01*
X160733805Y-120248149D01*
X160752461Y-120293300D01*
X160106950Y-120293300D01*
X160008927Y-120333903D01*
X159933903Y-120408927D01*
X159893300Y-120506950D01*
X159893300Y-120613050D01*
X159893300Y-121613050D01*
X159933903Y-121711073D01*
X160008927Y-121786097D01*
X160106950Y-121826700D01*
X160213050Y-121826700D01*
X162013050Y-121826700D01*
X162111073Y-121786097D01*
X162186097Y-121711073D01*
X162226700Y-121613050D01*
X162226700Y-122763300D01*
X161428350Y-122763300D01*
X161330327Y-122803903D01*
X161255303Y-122878927D01*
X161214700Y-122976950D01*
X161214700Y-123083050D01*
X161214700Y-123322800D01*
X161148100Y-123322800D01*
X161148100Y-122976950D01*
X161107497Y-122878927D01*
X161032473Y-122803903D01*
X160934450Y-122763300D01*
X160828350Y-122763300D01*
X159678351Y-122763300D01*
X159648705Y-117698070D01*
X159933076Y-117413700D01*
X160260202Y-117413700D01*
X160223995Y-117500897D01*
X160223805Y-117718149D01*
X160254856Y-117793300D01*
X160106950Y-117793300D01*
X160008927Y-117833903D01*
X159933903Y-117908927D01*
X159893300Y-118006950D01*
X159893300Y-118113050D01*
X159893300Y-119113050D01*
X159933903Y-119211073D01*
X160008927Y-119286097D01*
X160106950Y-119326700D01*
X160213050Y-119326700D01*
X162013050Y-119326700D01*
X162111073Y-119286097D01*
X162186097Y-119211073D01*
X162226700Y-119113050D01*
X162226700Y-119006950D01*
X162226700Y-118006950D01*
X162186097Y-117908927D01*
X162111073Y-117833903D01*
X162013050Y-117793300D01*
X161906950Y-117793300D01*
X161285195Y-117793300D01*
X161316005Y-117719103D01*
X161316195Y-117501851D01*
X161273713Y-117399037D01*
X161350662Y-117383731D01*
X161350663Y-117383731D01*
X161478388Y-117298388D01*
X161769160Y-117007616D01*
X161769160Y-117182860D01*
X161799129Y-117333523D01*
X161884472Y-117461248D01*
X163416300Y-118993076D01*
X163416300Y-120270000D01*
X163416300Y-120360000D01*
X163446269Y-120510663D01*
X163531612Y-120638388D01*
X164106300Y-121213076D01*
X164106300Y-122230000D01*
X164136269Y-122380663D01*
X164221612Y-122508388D01*
X165036024Y-123322800D01*
X165036024Y-123322800D01*
G37*
X165036024Y-123322800D02*
X163148100Y-123322800D01*
X163148100Y-122976950D01*
X163107497Y-122878927D01*
X163032473Y-122803903D01*
X162934450Y-122763300D01*
X162828350Y-122763300D01*
X162226700Y-122763300D01*
X162226700Y-121613050D01*
X162226700Y-121506950D01*
X162226700Y-120506950D01*
X162186097Y-120408927D01*
X162111073Y-120333903D01*
X162013050Y-120293300D01*
X161906950Y-120293300D01*
X161807652Y-120293300D01*
X161826005Y-120249103D01*
X161826195Y-120031851D01*
X161743231Y-119831063D01*
X161589745Y-119677309D01*
X161389103Y-119593995D01*
X161171851Y-119593805D01*
X160971063Y-119676769D01*
X160817309Y-119830255D01*
X160733995Y-120030897D01*
X160733805Y-120248149D01*
X160752461Y-120293300D01*
X160106950Y-120293300D01*
X160008927Y-120333903D01*
X159933903Y-120408927D01*
X159893300Y-120506950D01*
X159893300Y-120613050D01*
X159893300Y-121613050D01*
X159933903Y-121711073D01*
X160008927Y-121786097D01*
X160106950Y-121826700D01*
X160213050Y-121826700D01*
X162013050Y-121826700D01*
X162111073Y-121786097D01*
X162186097Y-121711073D01*
X162226700Y-121613050D01*
X162226700Y-122763300D01*
X161428350Y-122763300D01*
X161330327Y-122803903D01*
X161255303Y-122878927D01*
X161214700Y-122976950D01*
X161214700Y-123083050D01*
X161214700Y-123322800D01*
X161148100Y-123322800D01*
X161148100Y-122976950D01*
X161107497Y-122878927D01*
X161032473Y-122803903D01*
X160934450Y-122763300D01*
X160828350Y-122763300D01*
X159678351Y-122763300D01*
X159648705Y-117698070D01*
X159933076Y-117413700D01*
X160260202Y-117413700D01*
X160223995Y-117500897D01*
X160223805Y-117718149D01*
X160254856Y-117793300D01*
X160106950Y-117793300D01*
X160008927Y-117833903D01*
X159933903Y-117908927D01*
X159893300Y-118006950D01*
X159893300Y-118113050D01*
X159893300Y-119113050D01*
X159933903Y-119211073D01*
X160008927Y-119286097D01*
X160106950Y-119326700D01*
X160213050Y-119326700D01*
X162013050Y-119326700D01*
X162111073Y-119286097D01*
X162186097Y-119211073D01*
X162226700Y-119113050D01*
X162226700Y-119006950D01*
X162226700Y-118006950D01*
X162186097Y-117908927D01*
X162111073Y-117833903D01*
X162013050Y-117793300D01*
X161906950Y-117793300D01*
X161285195Y-117793300D01*
X161316005Y-117719103D01*
X161316195Y-117501851D01*
X161273713Y-117399037D01*
X161350662Y-117383731D01*
X161350663Y-117383731D01*
X161478388Y-117298388D01*
X161769160Y-117007616D01*
X161769160Y-117182860D01*
X161799129Y-117333523D01*
X161884472Y-117461248D01*
X163416300Y-118993076D01*
X163416300Y-120270000D01*
X163416300Y-120360000D01*
X163446269Y-120510663D01*
X163531612Y-120638388D01*
X164106300Y-121213076D01*
X164106300Y-122230000D01*
X164136269Y-122380663D01*
X164221612Y-122508388D01*
X165036024Y-123322800D01*
G36*
X166274945Y-114968090D02*
X166216156Y-115056073D01*
X166216195Y-115011851D01*
X166133231Y-114811063D01*
X165979745Y-114657309D01*
X165779103Y-114573995D01*
X165561851Y-114573805D01*
X165361063Y-114656769D01*
X165207309Y-114810255D01*
X165123995Y-115010897D01*
X165123805Y-115228149D01*
X165130615Y-115244631D01*
X165006963Y-115269227D01*
X164912410Y-115332405D01*
X164817857Y-115269227D01*
X164662220Y-115238269D01*
X164506583Y-115269227D01*
X164412030Y-115332405D01*
X164317477Y-115269227D01*
X164161840Y-115238269D01*
X164006203Y-115269227D01*
X163911650Y-115332405D01*
X163817097Y-115269227D01*
X163661460Y-115238269D01*
X163505823Y-115269227D01*
X163411270Y-115332405D01*
X163316717Y-115269227D01*
X163161080Y-115238269D01*
X163005443Y-115269227D01*
X162910890Y-115332405D01*
X162816337Y-115269227D01*
X162660700Y-115238269D01*
X162505063Y-115269227D01*
X162411780Y-115331557D01*
X162318497Y-115269227D01*
X162162860Y-115238269D01*
X162035031Y-115263695D01*
X162066005Y-115189103D01*
X162066195Y-114971851D01*
X161983231Y-114771063D01*
X161829745Y-114617309D01*
X161629103Y-114533995D01*
X161540693Y-114533917D01*
X161423700Y-114416924D01*
X161423700Y-113310000D01*
X161393731Y-113159338D01*
X161393731Y-113159337D01*
X161308388Y-113031612D01*
X161037237Y-112760461D01*
X161078937Y-112743231D01*
X161232691Y-112589745D01*
X161316005Y-112389103D01*
X161316195Y-112171851D01*
X161233231Y-111971063D01*
X161163700Y-111901410D01*
X161163700Y-111540000D01*
X161147631Y-111459221D01*
X161258937Y-111413231D01*
X161412691Y-111259745D01*
X161496005Y-111059103D01*
X161496195Y-110841851D01*
X161413231Y-110641063D01*
X161259745Y-110487309D01*
X161059103Y-110403995D01*
X160941966Y-110403892D01*
X160870603Y-110356209D01*
X160719940Y-110326240D01*
X160620511Y-110326240D01*
X160641731Y-110219560D01*
X160610773Y-110063923D01*
X160547594Y-109969370D01*
X160610773Y-109874817D01*
X160641731Y-109719180D01*
X160637398Y-109697398D01*
X160659180Y-109701731D01*
X160814817Y-109670773D01*
X160909370Y-109607594D01*
X161003923Y-109670773D01*
X161159560Y-109701731D01*
X161304434Y-109672913D01*
X161381552Y-109788328D01*
X161601612Y-110008388D01*
X161729338Y-110093731D01*
X161880000Y-110123700D01*
X162440000Y-110123700D01*
X162518389Y-110108107D01*
X162531809Y-110128191D01*
X162761806Y-110358187D01*
X162761809Y-110358191D01*
X162930737Y-110471064D01*
X163130000Y-110510701D01*
X163130000Y-110510700D01*
X163130005Y-110510700D01*
X164669994Y-110510700D01*
X164670000Y-110510701D01*
X164670000Y-110510700D01*
X164869263Y-110471064D01*
X165038191Y-110358191D01*
X165268187Y-110128193D01*
X165268190Y-110128191D01*
X165268191Y-110128191D01*
X165381064Y-109959263D01*
X165420700Y-109760000D01*
X165420701Y-109760000D01*
X165420700Y-109759994D01*
X165420700Y-109616274D01*
X165502263Y-109670773D01*
X165657900Y-109701731D01*
X165813537Y-109670773D01*
X165908090Y-109607594D01*
X166002643Y-109670773D01*
X166019164Y-109674059D01*
X166009333Y-109683890D01*
X165911851Y-109683805D01*
X165711063Y-109766769D01*
X165557309Y-109920255D01*
X165473995Y-110120897D01*
X165473805Y-110338149D01*
X165536906Y-110490866D01*
X165417309Y-110610255D01*
X165333995Y-110810897D01*
X165333805Y-111028149D01*
X165416769Y-111228937D01*
X165482706Y-111294989D01*
X165407309Y-111370255D01*
X165323995Y-111570897D01*
X165323805Y-111788149D01*
X165406769Y-111988937D01*
X165560255Y-112142691D01*
X165760897Y-112226005D01*
X165835359Y-112226070D01*
X165761063Y-112256769D01*
X165607309Y-112410255D01*
X165523995Y-112610897D01*
X165523805Y-112828149D01*
X165606769Y-113028937D01*
X165760255Y-113182691D01*
X165960897Y-113266005D01*
X166178149Y-113266195D01*
X166189226Y-113261617D01*
X166211767Y-113374937D01*
X166274945Y-113469490D01*
X166211767Y-113564043D01*
X166180809Y-113719680D01*
X166211767Y-113875317D01*
X166274097Y-113968600D01*
X166211767Y-114061883D01*
X166180809Y-114217520D01*
X166211767Y-114373157D01*
X166274945Y-114467710D01*
X166211767Y-114562263D01*
X166180809Y-114717900D01*
X166211767Y-114873537D01*
X166274945Y-114968090D01*
X166274945Y-114968090D01*
G37*
X166274945Y-114968090D02*
X166216156Y-115056073D01*
X166216195Y-115011851D01*
X166133231Y-114811063D01*
X165979745Y-114657309D01*
X165779103Y-114573995D01*
X165561851Y-114573805D01*
X165361063Y-114656769D01*
X165207309Y-114810255D01*
X165123995Y-115010897D01*
X165123805Y-115228149D01*
X165130615Y-115244631D01*
X165006963Y-115269227D01*
X164912410Y-115332405D01*
X164817857Y-115269227D01*
X164662220Y-115238269D01*
X164506583Y-115269227D01*
X164412030Y-115332405D01*
X164317477Y-115269227D01*
X164161840Y-115238269D01*
X164006203Y-115269227D01*
X163911650Y-115332405D01*
X163817097Y-115269227D01*
X163661460Y-115238269D01*
X163505823Y-115269227D01*
X163411270Y-115332405D01*
X163316717Y-115269227D01*
X163161080Y-115238269D01*
X163005443Y-115269227D01*
X162910890Y-115332405D01*
X162816337Y-115269227D01*
X162660700Y-115238269D01*
X162505063Y-115269227D01*
X162411780Y-115331557D01*
X162318497Y-115269227D01*
X162162860Y-115238269D01*
X162035031Y-115263695D01*
X162066005Y-115189103D01*
X162066195Y-114971851D01*
X161983231Y-114771063D01*
X161829745Y-114617309D01*
X161629103Y-114533995D01*
X161540693Y-114533917D01*
X161423700Y-114416924D01*
X161423700Y-113310000D01*
X161393731Y-113159338D01*
X161393731Y-113159337D01*
X161308388Y-113031612D01*
X161037237Y-112760461D01*
X161078937Y-112743231D01*
X161232691Y-112589745D01*
X161316005Y-112389103D01*
X161316195Y-112171851D01*
X161233231Y-111971063D01*
X161163700Y-111901410D01*
X161163700Y-111540000D01*
X161147631Y-111459221D01*
X161258937Y-111413231D01*
X161412691Y-111259745D01*
X161496005Y-111059103D01*
X161496195Y-110841851D01*
X161413231Y-110641063D01*
X161259745Y-110487309D01*
X161059103Y-110403995D01*
X160941966Y-110403892D01*
X160870603Y-110356209D01*
X160719940Y-110326240D01*
X160620511Y-110326240D01*
X160641731Y-110219560D01*
X160610773Y-110063923D01*
X160547594Y-109969370D01*
X160610773Y-109874817D01*
X160641731Y-109719180D01*
X160637398Y-109697398D01*
X160659180Y-109701731D01*
X160814817Y-109670773D01*
X160909370Y-109607594D01*
X161003923Y-109670773D01*
X161159560Y-109701731D01*
X161304434Y-109672913D01*
X161381552Y-109788328D01*
X161601612Y-110008388D01*
X161729338Y-110093731D01*
X161880000Y-110123700D01*
X162440000Y-110123700D01*
X162518389Y-110108107D01*
X162531809Y-110128191D01*
X162761806Y-110358187D01*
X162761809Y-110358191D01*
X162930737Y-110471064D01*
X163130000Y-110510701D01*
X163130000Y-110510700D01*
X163130005Y-110510700D01*
X164669994Y-110510700D01*
X164670000Y-110510701D01*
X164670000Y-110510700D01*
X164869263Y-110471064D01*
X165038191Y-110358191D01*
X165268187Y-110128193D01*
X165268190Y-110128191D01*
X165268191Y-110128191D01*
X165381064Y-109959263D01*
X165420700Y-109760000D01*
X165420701Y-109760000D01*
X165420700Y-109759994D01*
X165420700Y-109616274D01*
X165502263Y-109670773D01*
X165657900Y-109701731D01*
X165813537Y-109670773D01*
X165908090Y-109607594D01*
X166002643Y-109670773D01*
X166019164Y-109674059D01*
X166009333Y-109683890D01*
X165911851Y-109683805D01*
X165711063Y-109766769D01*
X165557309Y-109920255D01*
X165473995Y-110120897D01*
X165473805Y-110338149D01*
X165536906Y-110490866D01*
X165417309Y-110610255D01*
X165333995Y-110810897D01*
X165333805Y-111028149D01*
X165416769Y-111228937D01*
X165482706Y-111294989D01*
X165407309Y-111370255D01*
X165323995Y-111570897D01*
X165323805Y-111788149D01*
X165406769Y-111988937D01*
X165560255Y-112142691D01*
X165760897Y-112226005D01*
X165835359Y-112226070D01*
X165761063Y-112256769D01*
X165607309Y-112410255D01*
X165523995Y-112610897D01*
X165523805Y-112828149D01*
X165606769Y-113028937D01*
X165760255Y-113182691D01*
X165960897Y-113266005D01*
X166178149Y-113266195D01*
X166189226Y-113261617D01*
X166211767Y-113374937D01*
X166274945Y-113469490D01*
X166211767Y-113564043D01*
X166180809Y-113719680D01*
X166211767Y-113875317D01*
X166274097Y-113968600D01*
X166211767Y-114061883D01*
X166180809Y-114217520D01*
X166211767Y-114373157D01*
X166274945Y-114467710D01*
X166211767Y-114562263D01*
X166180809Y-114717900D01*
X166211767Y-114873537D01*
X166274945Y-114968090D01*
G36*
X167787700Y-122763300D02*
X167428350Y-122763300D01*
X167330327Y-122803903D01*
X167255303Y-122878927D01*
X167214700Y-122976950D01*
X167214700Y-123083050D01*
X167214700Y-123322800D01*
X167148100Y-123322800D01*
X167148100Y-122976950D01*
X167107497Y-122878927D01*
X167032473Y-122803903D01*
X166934450Y-122763300D01*
X166828350Y-122763300D01*
X165590076Y-122763300D01*
X165538932Y-122712156D01*
X165608937Y-122683231D01*
X165762691Y-122529745D01*
X165846005Y-122329103D01*
X165846195Y-122111851D01*
X165839269Y-122095090D01*
X165844400Y-122069300D01*
X165844400Y-122047700D01*
X165897450Y-122047700D01*
X165995473Y-122007097D01*
X166070497Y-121932073D01*
X166111100Y-121834050D01*
X166111100Y-121727950D01*
X166111100Y-121073700D01*
X166288900Y-121073700D01*
X166288900Y-121834050D01*
X166329503Y-121932073D01*
X166404527Y-122007097D01*
X166437306Y-122020674D01*
X166403995Y-122100897D01*
X166403805Y-122318149D01*
X166486769Y-122518937D01*
X166640255Y-122672691D01*
X166840897Y-122756005D01*
X167058149Y-122756195D01*
X167258937Y-122673231D01*
X167412691Y-122519745D01*
X167496005Y-122319103D01*
X167496195Y-122101851D01*
X167462454Y-122020193D01*
X167494073Y-122007097D01*
X167569097Y-121932073D01*
X167609700Y-121834050D01*
X167609700Y-121727950D01*
X167609700Y-121073700D01*
X167646924Y-121073700D01*
X167787700Y-121214476D01*
X167787700Y-121621400D01*
X167787700Y-122763300D01*
X167787700Y-122763300D01*
G37*
X167787700Y-122763300D02*
X167428350Y-122763300D01*
X167330327Y-122803903D01*
X167255303Y-122878927D01*
X167214700Y-122976950D01*
X167214700Y-123083050D01*
X167214700Y-123322800D01*
X167148100Y-123322800D01*
X167148100Y-122976950D01*
X167107497Y-122878927D01*
X167032473Y-122803903D01*
X166934450Y-122763300D01*
X166828350Y-122763300D01*
X165590076Y-122763300D01*
X165538932Y-122712156D01*
X165608937Y-122683231D01*
X165762691Y-122529745D01*
X165846005Y-122329103D01*
X165846195Y-122111851D01*
X165839269Y-122095090D01*
X165844400Y-122069300D01*
X165844400Y-122047700D01*
X165897450Y-122047700D01*
X165995473Y-122007097D01*
X166070497Y-121932073D01*
X166111100Y-121834050D01*
X166111100Y-121727950D01*
X166111100Y-121073700D01*
X166288900Y-121073700D01*
X166288900Y-121834050D01*
X166329503Y-121932073D01*
X166404527Y-122007097D01*
X166437306Y-122020674D01*
X166403995Y-122100897D01*
X166403805Y-122318149D01*
X166486769Y-122518937D01*
X166640255Y-122672691D01*
X166840897Y-122756005D01*
X167058149Y-122756195D01*
X167258937Y-122673231D01*
X167412691Y-122519745D01*
X167496005Y-122319103D01*
X167496195Y-122101851D01*
X167462454Y-122020193D01*
X167494073Y-122007097D01*
X167569097Y-121932073D01*
X167609700Y-121834050D01*
X167609700Y-121727950D01*
X167609700Y-121073700D01*
X167646924Y-121073700D01*
X167787700Y-121214476D01*
X167787700Y-121621400D01*
X167787700Y-122763300D01*
G36*
X169648600Y-115092931D02*
X169624527Y-115102903D01*
X169549503Y-115177927D01*
X169508900Y-115275950D01*
X169508900Y-115382050D01*
X169508900Y-115966300D01*
X168243076Y-115966300D01*
X167575341Y-115298565D01*
X167591311Y-115218280D01*
X167570091Y-115111600D01*
X168032100Y-115111600D01*
X168182762Y-115081631D01*
X168182763Y-115081631D01*
X168310488Y-114996288D01*
X168559076Y-114747700D01*
X169117450Y-114747700D01*
X169215473Y-114707097D01*
X169290497Y-114632073D01*
X169331100Y-114534050D01*
X169331100Y-114427950D01*
X169331100Y-113838300D01*
X169508900Y-113838300D01*
X169508900Y-114534050D01*
X169549503Y-114632073D01*
X169624527Y-114707097D01*
X169648600Y-114717068D01*
X169648600Y-115092931D01*
X169648600Y-115092931D01*
G37*
X169648600Y-115092931D02*
X169624527Y-115102903D01*
X169549503Y-115177927D01*
X169508900Y-115275950D01*
X169508900Y-115382050D01*
X169508900Y-115966300D01*
X168243076Y-115966300D01*
X167575341Y-115298565D01*
X167591311Y-115218280D01*
X167570091Y-115111600D01*
X168032100Y-115111600D01*
X168182762Y-115081631D01*
X168182763Y-115081631D01*
X168310488Y-114996288D01*
X168559076Y-114747700D01*
X169117450Y-114747700D01*
X169215473Y-114707097D01*
X169290497Y-114632073D01*
X169331100Y-114534050D01*
X169331100Y-114427950D01*
X169331100Y-113838300D01*
X169508900Y-113838300D01*
X169508900Y-114534050D01*
X169549503Y-114632073D01*
X169624527Y-114707097D01*
X169648600Y-114717068D01*
X169648600Y-115092931D01*
G36*
X169787700Y-122763300D02*
X169428350Y-122763300D01*
X169330327Y-122803903D01*
X169255303Y-122878927D01*
X169214700Y-122976950D01*
X169214700Y-123083050D01*
X169214700Y-123322800D01*
X169148100Y-123322800D01*
X169148100Y-122976950D01*
X169107497Y-122878927D01*
X169032473Y-122803903D01*
X168934450Y-122763300D01*
X168828350Y-122763300D01*
X168575100Y-122763300D01*
X168575100Y-121621400D01*
X168575100Y-121051400D01*
X168545131Y-120900738D01*
X168459788Y-120773012D01*
X168350476Y-120663700D01*
X169536924Y-120663700D01*
X169787700Y-120914476D01*
X169787700Y-121211400D01*
X169787700Y-122763300D01*
X169787700Y-122763300D01*
G37*
X169787700Y-122763300D02*
X169428350Y-122763300D01*
X169330327Y-122803903D01*
X169255303Y-122878927D01*
X169214700Y-122976950D01*
X169214700Y-123083050D01*
X169214700Y-123322800D01*
X169148100Y-123322800D01*
X169148100Y-122976950D01*
X169107497Y-122878927D01*
X169032473Y-122803903D01*
X168934450Y-122763300D01*
X168828350Y-122763300D01*
X168575100Y-122763300D01*
X168575100Y-121621400D01*
X168575100Y-121051400D01*
X168545131Y-120900738D01*
X168459788Y-120773012D01*
X168350476Y-120663700D01*
X169536924Y-120663700D01*
X169787700Y-120914476D01*
X169787700Y-121211400D01*
X169787700Y-122763300D01*
G36*
X171118923Y-110204300D02*
X170556010Y-110767214D01*
X170470667Y-110894939D01*
X170440698Y-111045602D01*
X170440698Y-112656300D01*
X169331100Y-112656300D01*
X169331100Y-111975950D01*
X169318400Y-111945289D01*
X169318400Y-111580000D01*
X169318400Y-111254710D01*
X169331100Y-111224050D01*
X169331100Y-111117950D01*
X169331100Y-110355950D01*
X169290497Y-110257927D01*
X169236870Y-110204300D01*
X171118923Y-110204300D01*
X171118923Y-110204300D01*
G37*
X171118923Y-110204300D02*
X170556010Y-110767214D01*
X170470667Y-110894939D01*
X170440698Y-111045602D01*
X170440698Y-112656300D01*
X169331100Y-112656300D01*
X169331100Y-111975950D01*
X169318400Y-111945289D01*
X169318400Y-111580000D01*
X169318400Y-111254710D01*
X169331100Y-111224050D01*
X169331100Y-111117950D01*
X169331100Y-110355950D01*
X169290497Y-110257927D01*
X169236870Y-110204300D01*
X171118923Y-110204300D01*
G36*
X171712800Y-102814700D02*
X171376950Y-102814700D01*
X171278927Y-102855303D01*
X171203903Y-102930327D01*
X171163300Y-103028350D01*
X171163300Y-103134450D01*
X171163300Y-104534450D01*
X171192813Y-104605700D01*
X167862655Y-104605700D01*
X167565700Y-104902655D01*
X167565700Y-106612720D01*
X167484050Y-106578900D01*
X167377950Y-106578900D01*
X166615950Y-106578900D01*
X166517927Y-106619503D01*
X166442903Y-106694527D01*
X166402300Y-106792550D01*
X166402300Y-106898650D01*
X166402300Y-107330224D01*
X166376224Y-107356300D01*
X166024300Y-107356300D01*
X166024300Y-106832655D01*
X165747345Y-106555700D01*
X164254300Y-106555700D01*
X164254300Y-105877345D01*
X164264300Y-105867345D01*
X164264300Y-103487345D01*
X164497345Y-103254300D01*
X165237345Y-103254300D01*
X165614300Y-102877345D01*
X165614300Y-102237200D01*
X171712800Y-102237200D01*
X171712800Y-102814700D01*
X171712800Y-102814700D01*
G37*
X171712800Y-102814700D02*
X171376950Y-102814700D01*
X171278927Y-102855303D01*
X171203903Y-102930327D01*
X171163300Y-103028350D01*
X171163300Y-103134450D01*
X171163300Y-104534450D01*
X171192813Y-104605700D01*
X167862655Y-104605700D01*
X167565700Y-104902655D01*
X167565700Y-106612720D01*
X167484050Y-106578900D01*
X167377950Y-106578900D01*
X166615950Y-106578900D01*
X166517927Y-106619503D01*
X166442903Y-106694527D01*
X166402300Y-106792550D01*
X166402300Y-106898650D01*
X166402300Y-107330224D01*
X166376224Y-107356300D01*
X166024300Y-107356300D01*
X166024300Y-106832655D01*
X165747345Y-106555700D01*
X164254300Y-106555700D01*
X164254300Y-105877345D01*
X164264300Y-105867345D01*
X164264300Y-103487345D01*
X164497345Y-103254300D01*
X165237345Y-103254300D01*
X165614300Y-102877345D01*
X165614300Y-102237200D01*
X171712800Y-102237200D01*
X171712800Y-102814700D01*
G36*
X171712800Y-123322800D02*
X171148100Y-123322800D01*
X171148100Y-122976950D01*
X171107497Y-122878927D01*
X171032473Y-122803903D01*
X170934450Y-122763300D01*
X170828350Y-122763300D01*
X170575100Y-122763300D01*
X170575100Y-121211400D01*
X170575100Y-120751400D01*
X170545131Y-120600738D01*
X170545130Y-120600737D01*
X170459788Y-120473012D01*
X169978388Y-119991612D01*
X169850663Y-119906269D01*
X169700000Y-119876300D01*
X165103076Y-119876300D01*
X164983700Y-119756924D01*
X164983700Y-119710000D01*
X164983700Y-118776025D01*
X164995950Y-118781100D01*
X165102050Y-118781100D01*
X165864050Y-118781100D01*
X165962073Y-118740497D01*
X166037097Y-118665473D01*
X166077700Y-118567450D01*
X166077700Y-118461350D01*
X166077700Y-117833700D01*
X166186224Y-117833700D01*
X166382300Y-118029776D01*
X166382300Y-118120700D01*
X166382300Y-118567450D01*
X166422903Y-118665473D01*
X166497927Y-118740497D01*
X166595950Y-118781100D01*
X166702050Y-118781100D01*
X167464050Y-118781100D01*
X167494710Y-118768400D01*
X167830000Y-118768400D01*
X168175289Y-118768400D01*
X168205950Y-118781100D01*
X168312050Y-118781100D01*
X169074050Y-118781100D01*
X169104710Y-118768400D01*
X169440000Y-118768400D01*
X169785289Y-118768400D01*
X169815950Y-118781100D01*
X169922050Y-118781100D01*
X170676518Y-118781100D01*
X170706269Y-118930663D01*
X170791612Y-119058388D01*
X171163300Y-119430076D01*
X171163300Y-120534450D01*
X171203903Y-120632473D01*
X171278927Y-120707497D01*
X171376950Y-120748100D01*
X171483050Y-120748100D01*
X171712800Y-120748100D01*
X171712800Y-120814700D01*
X171376950Y-120814700D01*
X171278927Y-120855303D01*
X171203903Y-120930327D01*
X171163300Y-121028350D01*
X171163300Y-121134450D01*
X171163300Y-122534450D01*
X171203903Y-122632473D01*
X171278927Y-122707497D01*
X171376950Y-122748100D01*
X171483050Y-122748100D01*
X171712800Y-122748100D01*
X171712800Y-123322800D01*
X171712800Y-123322800D01*
G37*
X171712800Y-123322800D02*
X171148100Y-123322800D01*
X171148100Y-122976950D01*
X171107497Y-122878927D01*
X171032473Y-122803903D01*
X170934450Y-122763300D01*
X170828350Y-122763300D01*
X170575100Y-122763300D01*
X170575100Y-121211400D01*
X170575100Y-120751400D01*
X170545131Y-120600738D01*
X170545130Y-120600737D01*
X170459788Y-120473012D01*
X169978388Y-119991612D01*
X169850663Y-119906269D01*
X169700000Y-119876300D01*
X165103076Y-119876300D01*
X164983700Y-119756924D01*
X164983700Y-119710000D01*
X164983700Y-118776025D01*
X164995950Y-118781100D01*
X165102050Y-118781100D01*
X165864050Y-118781100D01*
X165962073Y-118740497D01*
X166037097Y-118665473D01*
X166077700Y-118567450D01*
X166077700Y-118461350D01*
X166077700Y-117833700D01*
X166186224Y-117833700D01*
X166382300Y-118029776D01*
X166382300Y-118120700D01*
X166382300Y-118567450D01*
X166422903Y-118665473D01*
X166497927Y-118740497D01*
X166595950Y-118781100D01*
X166702050Y-118781100D01*
X167464050Y-118781100D01*
X167494710Y-118768400D01*
X167830000Y-118768400D01*
X168175289Y-118768400D01*
X168205950Y-118781100D01*
X168312050Y-118781100D01*
X169074050Y-118781100D01*
X169104710Y-118768400D01*
X169440000Y-118768400D01*
X169785289Y-118768400D01*
X169815950Y-118781100D01*
X169922050Y-118781100D01*
X170676518Y-118781100D01*
X170706269Y-118930663D01*
X170791612Y-119058388D01*
X171163300Y-119430076D01*
X171163300Y-120534450D01*
X171203903Y-120632473D01*
X171278927Y-120707497D01*
X171376950Y-120748100D01*
X171483050Y-120748100D01*
X171712800Y-120748100D01*
X171712800Y-120814700D01*
X171376950Y-120814700D01*
X171278927Y-120855303D01*
X171203903Y-120930327D01*
X171163300Y-121028350D01*
X171163300Y-121134450D01*
X171163300Y-122534450D01*
X171203903Y-122632473D01*
X171278927Y-122707497D01*
X171376950Y-122748100D01*
X171483050Y-122748100D01*
X171712800Y-122748100D01*
X171712800Y-123322800D01*
G36*
X158456300Y-121206924D02*
X158279524Y-121383700D01*
X157201300Y-121383700D01*
X157201300Y-121024350D01*
X157160697Y-120926327D01*
X157085673Y-120851303D01*
X156987650Y-120810700D01*
X156881550Y-120810700D01*
X156627200Y-120810700D01*
X156627200Y-120744100D01*
X156987650Y-120744100D01*
X157085673Y-120703497D01*
X157160697Y-120628473D01*
X157201300Y-120530450D01*
X157201300Y-120424350D01*
X157201300Y-119024350D01*
X157160697Y-118926327D01*
X157085673Y-118851303D01*
X156987650Y-118810700D01*
X156881550Y-118810700D01*
X156627200Y-118810700D01*
X156627200Y-118744100D01*
X156987650Y-118744100D01*
X157085673Y-118703497D01*
X157160697Y-118628473D01*
X157201300Y-118530450D01*
X157201300Y-118424350D01*
X157201300Y-117857681D01*
X157552300Y-118208681D01*
X157552300Y-118577450D01*
X157592903Y-118675473D01*
X157667927Y-118750497D01*
X157765950Y-118791100D01*
X157872050Y-118791100D01*
X158456300Y-118791100D01*
X158456300Y-118968900D01*
X157765950Y-118968900D01*
X157667927Y-119009503D01*
X157592903Y-119084527D01*
X157552300Y-119182550D01*
X157552300Y-119288650D01*
X157552300Y-120076050D01*
X157592903Y-120174073D01*
X157613289Y-120194459D01*
X157507309Y-120300255D01*
X157423995Y-120500897D01*
X157423805Y-120718149D01*
X157506769Y-120918937D01*
X157660255Y-121072691D01*
X157860897Y-121156005D01*
X158078149Y-121156195D01*
X158278937Y-121073231D01*
X158432691Y-120919745D01*
X158456300Y-120862888D01*
X158456300Y-121206924D01*
X158456300Y-121206924D01*
G37*
X158456300Y-121206924D02*
X158279524Y-121383700D01*
X157201300Y-121383700D01*
X157201300Y-121024350D01*
X157160697Y-120926327D01*
X157085673Y-120851303D01*
X156987650Y-120810700D01*
X156881550Y-120810700D01*
X156627200Y-120810700D01*
X156627200Y-120744100D01*
X156987650Y-120744100D01*
X157085673Y-120703497D01*
X157160697Y-120628473D01*
X157201300Y-120530450D01*
X157201300Y-120424350D01*
X157201300Y-119024350D01*
X157160697Y-118926327D01*
X157085673Y-118851303D01*
X156987650Y-118810700D01*
X156881550Y-118810700D01*
X156627200Y-118810700D01*
X156627200Y-118744100D01*
X156987650Y-118744100D01*
X157085673Y-118703497D01*
X157160697Y-118628473D01*
X157201300Y-118530450D01*
X157201300Y-118424350D01*
X157201300Y-117857681D01*
X157552300Y-118208681D01*
X157552300Y-118577450D01*
X157592903Y-118675473D01*
X157667927Y-118750497D01*
X157765950Y-118791100D01*
X157872050Y-118791100D01*
X158456300Y-118791100D01*
X158456300Y-118968900D01*
X157765950Y-118968900D01*
X157667927Y-119009503D01*
X157592903Y-119084527D01*
X157552300Y-119182550D01*
X157552300Y-119288650D01*
X157552300Y-120076050D01*
X157592903Y-120174073D01*
X157613289Y-120194459D01*
X157507309Y-120300255D01*
X157423995Y-120500897D01*
X157423805Y-120718149D01*
X157506769Y-120918937D01*
X157660255Y-121072691D01*
X157860897Y-121156005D01*
X158078149Y-121156195D01*
X158278937Y-121073231D01*
X158432691Y-120919745D01*
X158456300Y-120862888D01*
X158456300Y-121206924D01*
G36*
X158577972Y-117470300D02*
X158527950Y-117470300D01*
X158286681Y-117470300D01*
X157930700Y-117114318D01*
X157930700Y-115916381D01*
X158275981Y-115571100D01*
X158363916Y-115571100D01*
X158363805Y-115698149D01*
X158446769Y-115898937D01*
X158562610Y-116014980D01*
X158547309Y-116030255D01*
X158463995Y-116230897D01*
X158463805Y-116448149D01*
X158546769Y-116648937D01*
X158572749Y-116674963D01*
X158487309Y-116760255D01*
X158403995Y-116960897D01*
X158403805Y-117178149D01*
X158486769Y-117378937D01*
X158577972Y-117470300D01*
X158577972Y-117470300D01*
G37*
X158577972Y-117470300D02*
X158527950Y-117470300D01*
X158286681Y-117470300D01*
X157930700Y-117114318D01*
X157930700Y-115916381D01*
X158275981Y-115571100D01*
X158363916Y-115571100D01*
X158363805Y-115698149D01*
X158446769Y-115898937D01*
X158562610Y-116014980D01*
X158547309Y-116030255D01*
X158463995Y-116230897D01*
X158463805Y-116448149D01*
X158546769Y-116648937D01*
X158572749Y-116674963D01*
X158487309Y-116760255D01*
X158403995Y-116960897D01*
X158403805Y-117178149D01*
X158486769Y-117378937D01*
X158577972Y-117470300D01*
G36*
X159075700Y-112966300D02*
X158847700Y-112966300D01*
X158847700Y-112922550D01*
X158807097Y-112824527D01*
X158732073Y-112749503D01*
X158634050Y-112708900D01*
X158527950Y-112708900D01*
X157765950Y-112708900D01*
X157667927Y-112749503D01*
X157592903Y-112824527D01*
X157552300Y-112922550D01*
X157552300Y-113028650D01*
X157552300Y-113816050D01*
X157592903Y-113914073D01*
X157667927Y-113989097D01*
X157679300Y-113993807D01*
X157679300Y-114286192D01*
X157667927Y-114290903D01*
X157592903Y-114365927D01*
X157552300Y-114463950D01*
X157552300Y-114570050D01*
X157552300Y-114822018D01*
X157201300Y-115173018D01*
X157201300Y-115024350D01*
X157160697Y-114926327D01*
X157085673Y-114851303D01*
X156987650Y-114810700D01*
X156881550Y-114810700D01*
X156627200Y-114810700D01*
X156627200Y-114744100D01*
X156987650Y-114744100D01*
X157085673Y-114703497D01*
X157160697Y-114628473D01*
X157201300Y-114530450D01*
X157201300Y-114424350D01*
X157201300Y-113024350D01*
X157160697Y-112926327D01*
X157085673Y-112851303D01*
X156987650Y-112810700D01*
X156881550Y-112810700D01*
X156627200Y-112810700D01*
X156627200Y-112744100D01*
X156987650Y-112744100D01*
X157085673Y-112703497D01*
X157160697Y-112628473D01*
X157201300Y-112530450D01*
X157201300Y-112424350D01*
X157201300Y-111317277D01*
X157390897Y-111396005D01*
X157608149Y-111396195D01*
X157808937Y-111313231D01*
X157962691Y-111159745D01*
X157988292Y-111098088D01*
X158002081Y-111084300D01*
X158017524Y-111084300D01*
X158929772Y-111996548D01*
X159057498Y-112081891D01*
X159075700Y-112085511D01*
X159075700Y-112966300D01*
X159075700Y-112966300D01*
G37*
X159075700Y-112966300D02*
X158847700Y-112966300D01*
X158847700Y-112922550D01*
X158807097Y-112824527D01*
X158732073Y-112749503D01*
X158634050Y-112708900D01*
X158527950Y-112708900D01*
X157765950Y-112708900D01*
X157667927Y-112749503D01*
X157592903Y-112824527D01*
X157552300Y-112922550D01*
X157552300Y-113028650D01*
X157552300Y-113816050D01*
X157592903Y-113914073D01*
X157667927Y-113989097D01*
X157679300Y-113993807D01*
X157679300Y-114286192D01*
X157667927Y-114290903D01*
X157592903Y-114365927D01*
X157552300Y-114463950D01*
X157552300Y-114570050D01*
X157552300Y-114822018D01*
X157201300Y-115173018D01*
X157201300Y-115024350D01*
X157160697Y-114926327D01*
X157085673Y-114851303D01*
X156987650Y-114810700D01*
X156881550Y-114810700D01*
X156627200Y-114810700D01*
X156627200Y-114744100D01*
X156987650Y-114744100D01*
X157085673Y-114703497D01*
X157160697Y-114628473D01*
X157201300Y-114530450D01*
X157201300Y-114424350D01*
X157201300Y-113024350D01*
X157160697Y-112926327D01*
X157085673Y-112851303D01*
X156987650Y-112810700D01*
X156881550Y-112810700D01*
X156627200Y-112810700D01*
X156627200Y-112744100D01*
X156987650Y-112744100D01*
X157085673Y-112703497D01*
X157160697Y-112628473D01*
X157201300Y-112530450D01*
X157201300Y-112424350D01*
X157201300Y-111317277D01*
X157390897Y-111396005D01*
X157608149Y-111396195D01*
X157808937Y-111313231D01*
X157962691Y-111159745D01*
X157988292Y-111098088D01*
X158002081Y-111084300D01*
X158017524Y-111084300D01*
X158929772Y-111996548D01*
X159057498Y-112081891D01*
X159075700Y-112085511D01*
X159075700Y-112966300D01*
G36*
X159075700Y-122847130D02*
X159032473Y-122803903D01*
X158934450Y-122763300D01*
X158828350Y-122763300D01*
X157428350Y-122763300D01*
X157330327Y-122803903D01*
X157255303Y-122878927D01*
X157214700Y-122976950D01*
X157214700Y-123083050D01*
X157214700Y-123322800D01*
X156627200Y-123322800D01*
X156627200Y-122744100D01*
X156987650Y-122744100D01*
X157085673Y-122703497D01*
X157160697Y-122628473D01*
X157201300Y-122530450D01*
X157201300Y-122424350D01*
X157201300Y-122171100D01*
X158442600Y-122171100D01*
X158593262Y-122141131D01*
X158593263Y-122141131D01*
X158720988Y-122055788D01*
X159075700Y-121701076D01*
X159075700Y-122847130D01*
X159075700Y-122847130D01*
G37*
X159075700Y-122847130D02*
X159032473Y-122803903D01*
X158934450Y-122763300D01*
X158828350Y-122763300D01*
X157428350Y-122763300D01*
X157330327Y-122803903D01*
X157255303Y-122878927D01*
X157214700Y-122976950D01*
X157214700Y-123083050D01*
X157214700Y-123322800D01*
X156627200Y-123322800D01*
X156627200Y-122744100D01*
X156987650Y-122744100D01*
X157085673Y-122703497D01*
X157160697Y-122628473D01*
X157201300Y-122530450D01*
X157201300Y-122424350D01*
X157201300Y-122171100D01*
X158442600Y-122171100D01*
X158593262Y-122141131D01*
X158593263Y-122141131D01*
X158720988Y-122055788D01*
X159075700Y-121701076D01*
X159075700Y-122847130D01*
M02*
