%FSLAX46Y46*%
G04 Gerber Fmt 4.6, Leading zero omitted, Abs format (unit mm)*
G04 Created by KiCad (PCBNEW (2014-jul-16 BZR unknown)-product) date Wed 11 Feb 2015 12:50:59 PM CET*
%MOMM*%
G01*
G04 APERTURE LIST*
%ADD10C,0.150000*%
%ADD11R,1.500000X1.400000*%
%ADD12R,1.400000X1.500000*%
%ADD13R,1.400000X1.400000*%
%ADD14C,0.558800*%
%ADD15C,0.876300*%
%ADD16C,0.254000*%
%ADD17C,0.508000*%
%ADD18C,0.203200*%
%ADD19C,0.228600*%
G04 APERTURE END LIST*
D10*
D11*
X156184600Y-103777400D03*
X156184600Y-105777400D03*
X156184600Y-107777400D03*
X156184600Y-109777400D03*
X156184600Y-111777400D03*
X156184600Y-113777400D03*
X156184600Y-115777400D03*
X156184600Y-117777400D03*
X156184600Y-119777400D03*
X156184600Y-121777400D03*
X172180000Y-103781400D03*
X172180000Y-105781400D03*
X172180000Y-107781400D03*
X172180000Y-109781400D03*
X172180000Y-111781400D03*
X172180000Y-113781400D03*
X172180000Y-115781400D03*
X172180000Y-117781400D03*
X172180000Y-119781400D03*
X172180000Y-121781400D03*
D12*
X158181400Y-123780000D03*
X160181400Y-123780000D03*
X162181400Y-123780000D03*
X164181400Y-123780000D03*
X166181400Y-123780000D03*
X168181400Y-123780000D03*
X170181400Y-123780000D03*
D13*
X158181400Y-101780000D03*
X160181400Y-101780000D03*
X162181400Y-101780000D03*
X164181400Y-101780000D03*
X166181400Y-101780000D03*
X168181400Y-101780000D03*
X170181400Y-101780000D03*
D14*
X160770000Y-112280000D03*
X165300000Y-122220000D03*
X167000000Y-117310000D03*
X165670000Y-115120000D03*
X158950000Y-117070000D03*
X159010000Y-116340000D03*
X158910000Y-115590000D03*
X159000000Y-114880000D03*
X158890000Y-114180000D03*
X159000000Y-109940000D03*
X166020000Y-110230000D03*
X167750000Y-110150000D03*
X159470000Y-109150000D03*
X165880000Y-110920000D03*
X165870000Y-111680000D03*
X157340000Y-106840000D03*
X167870000Y-111480000D03*
X166070000Y-112720000D03*
X167860000Y-112560000D03*
X160950000Y-110950000D03*
D15*
X163620000Y-121460000D03*
D14*
X163210000Y-119050000D03*
X157860000Y-122320000D03*
X159140000Y-108440000D03*
X157380000Y-107980000D03*
X158170000Y-117150000D03*
X157360000Y-119660000D03*
X166150000Y-122510000D03*
X156920000Y-102530000D03*
X171440000Y-102500000D03*
X170900000Y-120790000D03*
X171430000Y-123050000D03*
X156940000Y-123040000D03*
X157400000Y-112390000D03*
D15*
X158950000Y-105738100D03*
X160430000Y-105740700D03*
D14*
X169260000Y-107040000D03*
X169470000Y-108580000D03*
D15*
X167040000Y-104890000D03*
D14*
X169360000Y-105340000D03*
X166230000Y-119619300D03*
X167830000Y-119619300D03*
X169440000Y-119619300D03*
X168740000Y-114890000D03*
X169530000Y-111460000D03*
X165540000Y-105760000D03*
X166380000Y-106460000D03*
X165550000Y-106450000D03*
X166380000Y-105790000D03*
D15*
X163890000Y-106450240D03*
D14*
X161400000Y-106430000D03*
X162280000Y-106440000D03*
X161931720Y-112470000D03*
X163410000Y-112470000D03*
X164888280Y-112470000D03*
X164888280Y-113948280D03*
X163410000Y-113948280D03*
X161931720Y-113948280D03*
X163410000Y-110991720D03*
X164888280Y-110991720D03*
X162110000Y-111140000D03*
D15*
X170180000Y-103770000D03*
X168180000Y-103760000D03*
X166180000Y-103770000D03*
X158180000Y-103770000D03*
X160180000Y-103770000D03*
X162190000Y-103770000D03*
X164820000Y-104900000D03*
X169240000Y-121860000D03*
D14*
X159150000Y-112370000D03*
X157500000Y-110850000D03*
X157970000Y-120610000D03*
X166950000Y-122210000D03*
X167830000Y-118120700D03*
X169440000Y-118120700D03*
X168670700Y-111580000D03*
X160760000Y-115090000D03*
X160770000Y-117610000D03*
X161520000Y-115080000D03*
X161280000Y-120140000D03*
D16*
X163640000Y-122310000D02*
X163640000Y-121480000D01*
X163640000Y-121480000D02*
X163620000Y-121460000D01*
X164181400Y-122771400D02*
X163720000Y-122310000D01*
X163720000Y-122310000D02*
X163640000Y-122310000D01*
X164181400Y-123780000D02*
X164181400Y-122771400D01*
D17*
X157860000Y-122320000D02*
X162760000Y-122320000D01*
D16*
X163620000Y-121460000D02*
X163620000Y-121220000D01*
X163210000Y-120810000D02*
X163210000Y-119050000D01*
X163620000Y-121220000D02*
X163210000Y-120810000D01*
D17*
X162760000Y-122320000D02*
X163620000Y-121460000D01*
D16*
X158950000Y-107550000D02*
X158950000Y-108250000D01*
X158950000Y-108250000D02*
X159140000Y-108440000D01*
D18*
X158950000Y-105738100D02*
X158950000Y-107550000D01*
X158950000Y-107550000D02*
X158950000Y-107700000D01*
X158670000Y-107980000D02*
X157380000Y-107980000D01*
X158950000Y-107700000D02*
X158670000Y-107980000D01*
D16*
X158170000Y-117150000D02*
X158170000Y-119190000D01*
X157700000Y-119660000D02*
X157360000Y-119660000D01*
X158170000Y-119190000D02*
X157700000Y-119660000D01*
X166230000Y-119619300D02*
X166230000Y-122430000D01*
X166230000Y-122430000D02*
X166150000Y-122510000D01*
X158181400Y-102820000D02*
X157210000Y-102820000D01*
X157210000Y-102820000D02*
X156920000Y-102530000D01*
X170181400Y-102600000D02*
X171340000Y-102600000D01*
X171340000Y-102600000D02*
X171440000Y-102500000D01*
X170900000Y-120790000D02*
X170900000Y-122520000D01*
X170900000Y-122520000D02*
X171430000Y-123050000D01*
X157860000Y-122320000D02*
X157660000Y-122320000D01*
X160020000Y-122310000D02*
X157870000Y-122310000D01*
X157870000Y-122310000D02*
X157860000Y-122320000D01*
X157660000Y-122320000D02*
X156940000Y-123040000D01*
X160020000Y-122310000D02*
X159990000Y-122310000D01*
D17*
X170181400Y-103768600D02*
X170180000Y-103770000D01*
X170181400Y-101780000D02*
X170181400Y-102600000D01*
X170181400Y-102600000D02*
X170181400Y-103768600D01*
X168181400Y-103758600D02*
X168180000Y-103760000D01*
X168181400Y-101780000D02*
X168181400Y-103758600D01*
X166181400Y-103768600D02*
X166180000Y-103770000D01*
X166181400Y-101780000D02*
X166181400Y-103768600D01*
X158181400Y-103768600D02*
X158180000Y-103770000D01*
X158181400Y-101780000D02*
X158181400Y-102820000D01*
X158181400Y-102820000D02*
X158181400Y-103768600D01*
X160181400Y-103768600D02*
X160180000Y-103770000D01*
X160181400Y-101780000D02*
X160181400Y-103768600D01*
X162181400Y-103761400D02*
X162190000Y-103770000D01*
X162181400Y-101780000D02*
X162181400Y-103761400D01*
D16*
X169440000Y-121660000D02*
X169240000Y-121860000D01*
X169440000Y-119619300D02*
X169440000Y-121660000D01*
D19*
G36*
X160365700Y-122435700D02*
X159556195Y-122435700D01*
X159556195Y-116231851D01*
X159473231Y-116031063D01*
X159357389Y-115915019D01*
X159372691Y-115899745D01*
X159456005Y-115699103D01*
X159456195Y-115481851D01*
X159373231Y-115281063D01*
X159372224Y-115280054D01*
X159462691Y-115189745D01*
X159546005Y-114989103D01*
X159546195Y-114771851D01*
X159463231Y-114571063D01*
X159361317Y-114468971D01*
X159436005Y-114289103D01*
X159436195Y-114071851D01*
X159353231Y-113871063D01*
X159199745Y-113717309D01*
X158999103Y-113633995D01*
X158781851Y-113633805D01*
X158581063Y-113716769D01*
X158427309Y-113870255D01*
X158343995Y-114070897D01*
X158343805Y-114288149D01*
X158426769Y-114488937D01*
X158528682Y-114591028D01*
X158453995Y-114770897D01*
X158453805Y-114988149D01*
X158536769Y-115188937D01*
X158537775Y-115189945D01*
X158447309Y-115280255D01*
X158363995Y-115480897D01*
X158363805Y-115698149D01*
X158446769Y-115898937D01*
X158562610Y-116014980D01*
X158547309Y-116030255D01*
X158463995Y-116230897D01*
X158463805Y-116448149D01*
X158546769Y-116648937D01*
X158572749Y-116674963D01*
X158487309Y-116760255D01*
X158403995Y-116960897D01*
X158403805Y-117178149D01*
X158486769Y-117378937D01*
X158640255Y-117532691D01*
X158840897Y-117616005D01*
X159058149Y-117616195D01*
X159258937Y-117533231D01*
X159412691Y-117379745D01*
X159496005Y-117179103D01*
X159496195Y-116961851D01*
X159413231Y-116761063D01*
X159387250Y-116735036D01*
X159472691Y-116649745D01*
X159556005Y-116449103D01*
X159556195Y-116231851D01*
X159556195Y-122435700D01*
X158516195Y-122435700D01*
X158516195Y-120501851D01*
X158433231Y-120301063D01*
X158279745Y-120147309D01*
X158079103Y-120063995D01*
X157861851Y-120063805D01*
X157661063Y-120146769D01*
X157507309Y-120300255D01*
X157423995Y-120500897D01*
X157423805Y-120718149D01*
X157506769Y-120918937D01*
X157660255Y-121072691D01*
X157860897Y-121156005D01*
X158078149Y-121156195D01*
X158278937Y-121073231D01*
X158432691Y-120919745D01*
X158516005Y-120719103D01*
X158516195Y-120501851D01*
X158516195Y-122435700D01*
X157201300Y-122435700D01*
X157201300Y-122424350D01*
X157201300Y-121024350D01*
X157160697Y-120926327D01*
X157085673Y-120851303D01*
X156987650Y-120810700D01*
X156881550Y-120810700D01*
X156627200Y-120810700D01*
X156627200Y-120744100D01*
X156987650Y-120744100D01*
X157085673Y-120703497D01*
X157160697Y-120628473D01*
X157201300Y-120530450D01*
X157201300Y-120424350D01*
X157201300Y-119024350D01*
X157160697Y-118926327D01*
X157085673Y-118851303D01*
X156987650Y-118810700D01*
X156881550Y-118810700D01*
X156627200Y-118810700D01*
X156627200Y-118744100D01*
X156987650Y-118744100D01*
X157085673Y-118703497D01*
X157160697Y-118628473D01*
X157201300Y-118530450D01*
X157201300Y-118424350D01*
X157201300Y-117024350D01*
X157160697Y-116926327D01*
X157085673Y-116851303D01*
X156987650Y-116810700D01*
X156881550Y-116810700D01*
X156627200Y-116810700D01*
X156627200Y-116744100D01*
X156987650Y-116744100D01*
X157085673Y-116703497D01*
X157160697Y-116628473D01*
X157201300Y-116530450D01*
X157201300Y-116424350D01*
X157201300Y-115024350D01*
X157160697Y-114926327D01*
X157085673Y-114851303D01*
X156987650Y-114810700D01*
X156881550Y-114810700D01*
X156627200Y-114810700D01*
X156627200Y-114744100D01*
X156987650Y-114744100D01*
X157085673Y-114703497D01*
X157160697Y-114628473D01*
X157201300Y-114530450D01*
X157201300Y-114424350D01*
X157201300Y-113024350D01*
X157160697Y-112926327D01*
X157085673Y-112851303D01*
X156987650Y-112810700D01*
X156881550Y-112810700D01*
X156627200Y-112810700D01*
X156627200Y-112744100D01*
X156987650Y-112744100D01*
X157085673Y-112703497D01*
X157160697Y-112628473D01*
X157201300Y-112530450D01*
X157201300Y-112424350D01*
X157201300Y-111317277D01*
X157390897Y-111396005D01*
X157608149Y-111396195D01*
X157808937Y-111313231D01*
X157962691Y-111159745D01*
X158002323Y-111064300D01*
X158182655Y-111064300D01*
X160365700Y-113247345D01*
X160365700Y-114711983D01*
X160297309Y-114780255D01*
X160213995Y-114980897D01*
X160213805Y-115198149D01*
X160296769Y-115398937D01*
X160365700Y-115467988D01*
X160365700Y-117241965D01*
X160307309Y-117300255D01*
X160223995Y-117500897D01*
X160223805Y-117718149D01*
X160306769Y-117918937D01*
X160365700Y-117977970D01*
X160365700Y-122435700D01*
X160365700Y-122435700D01*
G37*
X160365700Y-122435700D02*
X159556195Y-122435700D01*
X159556195Y-116231851D01*
X159473231Y-116031063D01*
X159357389Y-115915019D01*
X159372691Y-115899745D01*
X159456005Y-115699103D01*
X159456195Y-115481851D01*
X159373231Y-115281063D01*
X159372224Y-115280054D01*
X159462691Y-115189745D01*
X159546005Y-114989103D01*
X159546195Y-114771851D01*
X159463231Y-114571063D01*
X159361317Y-114468971D01*
X159436005Y-114289103D01*
X159436195Y-114071851D01*
X159353231Y-113871063D01*
X159199745Y-113717309D01*
X158999103Y-113633995D01*
X158781851Y-113633805D01*
X158581063Y-113716769D01*
X158427309Y-113870255D01*
X158343995Y-114070897D01*
X158343805Y-114288149D01*
X158426769Y-114488937D01*
X158528682Y-114591028D01*
X158453995Y-114770897D01*
X158453805Y-114988149D01*
X158536769Y-115188937D01*
X158537775Y-115189945D01*
X158447309Y-115280255D01*
X158363995Y-115480897D01*
X158363805Y-115698149D01*
X158446769Y-115898937D01*
X158562610Y-116014980D01*
X158547309Y-116030255D01*
X158463995Y-116230897D01*
X158463805Y-116448149D01*
X158546769Y-116648937D01*
X158572749Y-116674963D01*
X158487309Y-116760255D01*
X158403995Y-116960897D01*
X158403805Y-117178149D01*
X158486769Y-117378937D01*
X158640255Y-117532691D01*
X158840897Y-117616005D01*
X159058149Y-117616195D01*
X159258937Y-117533231D01*
X159412691Y-117379745D01*
X159496005Y-117179103D01*
X159496195Y-116961851D01*
X159413231Y-116761063D01*
X159387250Y-116735036D01*
X159472691Y-116649745D01*
X159556005Y-116449103D01*
X159556195Y-116231851D01*
X159556195Y-122435700D01*
X158516195Y-122435700D01*
X158516195Y-120501851D01*
X158433231Y-120301063D01*
X158279745Y-120147309D01*
X158079103Y-120063995D01*
X157861851Y-120063805D01*
X157661063Y-120146769D01*
X157507309Y-120300255D01*
X157423995Y-120500897D01*
X157423805Y-120718149D01*
X157506769Y-120918937D01*
X157660255Y-121072691D01*
X157860897Y-121156005D01*
X158078149Y-121156195D01*
X158278937Y-121073231D01*
X158432691Y-120919745D01*
X158516005Y-120719103D01*
X158516195Y-120501851D01*
X158516195Y-122435700D01*
X157201300Y-122435700D01*
X157201300Y-122424350D01*
X157201300Y-121024350D01*
X157160697Y-120926327D01*
X157085673Y-120851303D01*
X156987650Y-120810700D01*
X156881550Y-120810700D01*
X156627200Y-120810700D01*
X156627200Y-120744100D01*
X156987650Y-120744100D01*
X157085673Y-120703497D01*
X157160697Y-120628473D01*
X157201300Y-120530450D01*
X157201300Y-120424350D01*
X157201300Y-119024350D01*
X157160697Y-118926327D01*
X157085673Y-118851303D01*
X156987650Y-118810700D01*
X156881550Y-118810700D01*
X156627200Y-118810700D01*
X156627200Y-118744100D01*
X156987650Y-118744100D01*
X157085673Y-118703497D01*
X157160697Y-118628473D01*
X157201300Y-118530450D01*
X157201300Y-118424350D01*
X157201300Y-117024350D01*
X157160697Y-116926327D01*
X157085673Y-116851303D01*
X156987650Y-116810700D01*
X156881550Y-116810700D01*
X156627200Y-116810700D01*
X156627200Y-116744100D01*
X156987650Y-116744100D01*
X157085673Y-116703497D01*
X157160697Y-116628473D01*
X157201300Y-116530450D01*
X157201300Y-116424350D01*
X157201300Y-115024350D01*
X157160697Y-114926327D01*
X157085673Y-114851303D01*
X156987650Y-114810700D01*
X156881550Y-114810700D01*
X156627200Y-114810700D01*
X156627200Y-114744100D01*
X156987650Y-114744100D01*
X157085673Y-114703497D01*
X157160697Y-114628473D01*
X157201300Y-114530450D01*
X157201300Y-114424350D01*
X157201300Y-113024350D01*
X157160697Y-112926327D01*
X157085673Y-112851303D01*
X156987650Y-112810700D01*
X156881550Y-112810700D01*
X156627200Y-112810700D01*
X156627200Y-112744100D01*
X156987650Y-112744100D01*
X157085673Y-112703497D01*
X157160697Y-112628473D01*
X157201300Y-112530450D01*
X157201300Y-112424350D01*
X157201300Y-111317277D01*
X157390897Y-111396005D01*
X157608149Y-111396195D01*
X157808937Y-111313231D01*
X157962691Y-111159745D01*
X158002323Y-111064300D01*
X158182655Y-111064300D01*
X160365700Y-113247345D01*
X160365700Y-114711983D01*
X160297309Y-114780255D01*
X160213995Y-114980897D01*
X160213805Y-115198149D01*
X160296769Y-115398937D01*
X160365700Y-115467988D01*
X160365700Y-117241965D01*
X160307309Y-117300255D01*
X160223995Y-117500897D01*
X160223805Y-117718149D01*
X160306769Y-117918937D01*
X160365700Y-117977970D01*
X160365700Y-122435700D01*
D16*
G36*
X171598500Y-123208500D02*
X171262400Y-123208500D01*
X171262400Y-122954214D01*
X171204396Y-122814180D01*
X171097219Y-122707004D01*
X170957185Y-122649000D01*
X170805614Y-122649000D01*
X170100514Y-122649000D01*
X170100514Y-117989915D01*
X170000186Y-117747102D01*
X169814575Y-117561167D01*
X169571938Y-117460415D01*
X169331214Y-117460205D01*
X169331214Y-111449215D01*
X169230886Y-111206402D01*
X169045275Y-111020467D01*
X168802638Y-110919715D01*
X168539915Y-110919486D01*
X168410514Y-110972953D01*
X168410514Y-110019215D01*
X168310186Y-109776402D01*
X168124575Y-109590467D01*
X167881938Y-109489715D01*
X167619215Y-109489486D01*
X167376402Y-109589814D01*
X167190467Y-109775425D01*
X167089715Y-110018062D01*
X167089486Y-110280785D01*
X167189814Y-110523598D01*
X167375425Y-110709533D01*
X167618062Y-110810285D01*
X167880785Y-110810514D01*
X168123598Y-110710186D01*
X168309533Y-110524575D01*
X168410285Y-110281938D01*
X168410514Y-110019215D01*
X168410514Y-110972953D01*
X168330127Y-111006168D01*
X168244575Y-110920467D01*
X168001938Y-110819715D01*
X167739215Y-110819486D01*
X167496402Y-110919814D01*
X167310467Y-111105425D01*
X167209715Y-111348062D01*
X167209486Y-111610785D01*
X167309814Y-111853598D01*
X167471061Y-112015127D01*
X167300467Y-112185425D01*
X167199715Y-112428062D01*
X167199486Y-112690785D01*
X167299814Y-112933598D01*
X167485425Y-113119533D01*
X167728062Y-113220285D01*
X167990785Y-113220514D01*
X168233598Y-113120186D01*
X168419533Y-112934575D01*
X168520285Y-112691938D01*
X168520514Y-112429215D01*
X168422503Y-112192009D01*
X168538762Y-112240285D01*
X168801485Y-112240514D01*
X169044298Y-112140186D01*
X169230233Y-111954575D01*
X169330985Y-111711938D01*
X169331214Y-111449215D01*
X169331214Y-117460205D01*
X169309215Y-117460186D01*
X169066402Y-117560514D01*
X168880467Y-117746125D01*
X168779715Y-117988762D01*
X168779486Y-118251485D01*
X168879814Y-118494298D01*
X169065425Y-118680233D01*
X169308062Y-118780985D01*
X169570785Y-118781214D01*
X169813598Y-118680886D01*
X169999533Y-118495275D01*
X170100285Y-118252638D01*
X170100514Y-117989915D01*
X170100514Y-122649000D01*
X169405614Y-122649000D01*
X169265580Y-122707004D01*
X169181400Y-122791184D01*
X169097219Y-122707004D01*
X168957185Y-122649000D01*
X168805614Y-122649000D01*
X168490514Y-122649000D01*
X168490514Y-117989915D01*
X168390186Y-117747102D01*
X168204575Y-117561167D01*
X167961938Y-117460415D01*
X167699215Y-117460186D01*
X167643075Y-117483382D01*
X167660285Y-117441938D01*
X167660514Y-117179215D01*
X167560186Y-116936402D01*
X167374575Y-116750467D01*
X167131938Y-116649715D01*
X166869215Y-116649486D01*
X166730514Y-116706795D01*
X166730514Y-112589215D01*
X166630186Y-112346402D01*
X166444575Y-112160467D01*
X166359036Y-112124948D01*
X166429533Y-112054575D01*
X166530285Y-111811938D01*
X166530514Y-111549215D01*
X166430186Y-111306402D01*
X166428937Y-111305151D01*
X166439533Y-111294575D01*
X166540285Y-111051938D01*
X166540514Y-110789215D01*
X166497895Y-110686070D01*
X166579533Y-110604575D01*
X166680285Y-110361938D01*
X166680514Y-110099215D01*
X166580186Y-109856402D01*
X166394575Y-109670467D01*
X166151938Y-109569715D01*
X165889215Y-109569486D01*
X165646402Y-109669814D01*
X165460467Y-109855425D01*
X165359715Y-110098062D01*
X165359486Y-110360785D01*
X165402104Y-110463929D01*
X165320467Y-110545425D01*
X165219715Y-110788062D01*
X165219486Y-111050785D01*
X165319814Y-111293598D01*
X165321062Y-111294848D01*
X165310467Y-111305425D01*
X165209715Y-111548062D01*
X165209486Y-111810785D01*
X165309814Y-112053598D01*
X165495425Y-112239533D01*
X165580963Y-112275051D01*
X165510467Y-112345425D01*
X165409715Y-112588062D01*
X165409486Y-112850785D01*
X165509814Y-113093598D01*
X165695425Y-113279533D01*
X165938062Y-113380285D01*
X166200785Y-113380514D01*
X166443598Y-113280186D01*
X166629533Y-113094575D01*
X166730285Y-112851938D01*
X166730514Y-112589215D01*
X166730514Y-116706795D01*
X166626402Y-116749814D01*
X166440467Y-116935425D01*
X166339715Y-117178062D01*
X166339486Y-117440785D01*
X166439814Y-117683598D01*
X166625425Y-117869533D01*
X166868062Y-117970285D01*
X167130785Y-117970514D01*
X167186924Y-117947317D01*
X167169715Y-117988762D01*
X167169486Y-118251485D01*
X167269814Y-118494298D01*
X167455425Y-118680233D01*
X167698062Y-118780985D01*
X167960785Y-118781214D01*
X168203598Y-118680886D01*
X168389533Y-118495275D01*
X168490285Y-118252638D01*
X168490514Y-117989915D01*
X168490514Y-122649000D01*
X167444995Y-122649000D01*
X167509533Y-122584575D01*
X167610285Y-122341938D01*
X167610514Y-122079215D01*
X167510186Y-121836402D01*
X167324575Y-121650467D01*
X167081938Y-121549715D01*
X166819215Y-121549486D01*
X166576402Y-121649814D01*
X166390467Y-121835425D01*
X166330514Y-121979807D01*
X166330514Y-114989215D01*
X166230186Y-114746402D01*
X166044575Y-114560467D01*
X165801938Y-114459715D01*
X165539215Y-114459486D01*
X165296402Y-114559814D01*
X165110467Y-114745425D01*
X165009715Y-114988062D01*
X165009486Y-115250785D01*
X165109814Y-115493598D01*
X165295425Y-115679533D01*
X165538062Y-115780285D01*
X165800785Y-115780514D01*
X166043598Y-115680186D01*
X166229533Y-115494575D01*
X166330285Y-115251938D01*
X166330514Y-114989215D01*
X166330514Y-121979807D01*
X166289715Y-122078062D01*
X166289486Y-122340785D01*
X166389814Y-122583598D01*
X166455102Y-122649000D01*
X165805012Y-122649000D01*
X165859533Y-122594575D01*
X165960285Y-122351938D01*
X165960514Y-122089215D01*
X165860186Y-121846402D01*
X165674575Y-121660467D01*
X165431938Y-121559715D01*
X165169215Y-121559486D01*
X164926402Y-121659814D01*
X164740467Y-121845425D01*
X164639715Y-122088062D01*
X164639486Y-122350785D01*
X164739814Y-122593598D01*
X164925425Y-122779533D01*
X165136458Y-122867162D01*
X165100400Y-122954215D01*
X165100400Y-123105786D01*
X165100400Y-123208500D01*
X163262400Y-123208500D01*
X163262400Y-122954214D01*
X163204396Y-122814180D01*
X163097219Y-122707004D01*
X162957185Y-122649000D01*
X162805614Y-122649000D01*
X161405614Y-122649000D01*
X161265580Y-122707004D01*
X161181400Y-122791184D01*
X161097219Y-122707004D01*
X160957185Y-122649000D01*
X160837000Y-122649000D01*
X160837000Y-120630988D01*
X160905425Y-120699533D01*
X161148062Y-120800285D01*
X161410785Y-120800514D01*
X161653598Y-120700186D01*
X161839533Y-120514575D01*
X161940285Y-120271938D01*
X161940514Y-120009215D01*
X161840186Y-119766402D01*
X161654575Y-119580467D01*
X161411938Y-119479715D01*
X161149215Y-119479486D01*
X160906402Y-119579814D01*
X160837000Y-119649095D01*
X160837000Y-118270458D01*
X160900785Y-118270514D01*
X161143598Y-118170186D01*
X161329533Y-117984575D01*
X161430285Y-117741938D01*
X161430514Y-117479215D01*
X161330186Y-117236402D01*
X161144575Y-117050467D01*
X160901938Y-116949715D01*
X160837000Y-116949658D01*
X160837000Y-115750467D01*
X160890785Y-115750514D01*
X161133598Y-115650186D01*
X161144848Y-115638955D01*
X161145425Y-115639533D01*
X161388062Y-115740285D01*
X161650785Y-115740514D01*
X161893598Y-115640186D01*
X162079533Y-115454575D01*
X162180285Y-115211938D01*
X162180514Y-114949215D01*
X162080186Y-114706402D01*
X161894575Y-114520467D01*
X161651938Y-114419715D01*
X161610514Y-114419678D01*
X161610514Y-110819215D01*
X161510186Y-110576402D01*
X161324575Y-110390467D01*
X161081938Y-110289715D01*
X160819215Y-110289486D01*
X160576402Y-110389814D01*
X160390467Y-110575425D01*
X160289715Y-110818062D01*
X160289486Y-111080785D01*
X160389814Y-111323598D01*
X160575425Y-111509533D01*
X160818062Y-111610285D01*
X161080785Y-111610514D01*
X161323598Y-111510186D01*
X161509533Y-111324575D01*
X161610285Y-111081938D01*
X161610514Y-110819215D01*
X161610514Y-114419678D01*
X161389215Y-114419486D01*
X161146402Y-114519814D01*
X161135151Y-114531044D01*
X161134575Y-114530467D01*
X160891938Y-114429715D01*
X160837000Y-114429667D01*
X160837000Y-112957395D01*
X160820048Y-112940443D01*
X160900785Y-112940514D01*
X161143598Y-112840186D01*
X161329533Y-112654575D01*
X161430285Y-112411938D01*
X161430514Y-112149215D01*
X161330186Y-111906402D01*
X161144575Y-111720467D01*
X160901938Y-111619715D01*
X160639215Y-111619486D01*
X160396402Y-111719814D01*
X160210467Y-111905425D01*
X160130514Y-112097972D01*
X160130514Y-109019215D01*
X160030186Y-108776402D01*
X159844575Y-108590467D01*
X159601938Y-108489715D01*
X159339215Y-108489486D01*
X159096402Y-108589814D01*
X158910467Y-108775425D01*
X158809715Y-109018062D01*
X158809486Y-109280785D01*
X158817737Y-109300755D01*
X158626402Y-109379814D01*
X158440467Y-109565425D01*
X158339715Y-109808062D01*
X158339486Y-110070785D01*
X158439814Y-110313598D01*
X158625425Y-110499533D01*
X158868062Y-110600285D01*
X159130785Y-110600514D01*
X159373598Y-110500186D01*
X159559533Y-110314575D01*
X159660285Y-110071938D01*
X159660514Y-109809215D01*
X159652262Y-109789244D01*
X159843598Y-109710186D01*
X160029533Y-109524575D01*
X160130285Y-109281938D01*
X160130514Y-109019215D01*
X160130514Y-112097972D01*
X160109715Y-112148062D01*
X160109643Y-112230038D01*
X158462605Y-110583000D01*
X158104231Y-110583000D01*
X158060186Y-110476402D01*
X157874575Y-110290467D01*
X157631938Y-110189715D01*
X157369215Y-110189486D01*
X157315600Y-110211639D01*
X157315600Y-109001614D01*
X157257596Y-108861580D01*
X157173415Y-108777400D01*
X157257596Y-108693219D01*
X157315600Y-108553185D01*
X157315600Y-108401614D01*
X157315600Y-107500378D01*
X157470785Y-107500514D01*
X157713598Y-107400186D01*
X157899533Y-107214575D01*
X158000285Y-106971938D01*
X158000514Y-106709215D01*
X157900186Y-106466402D01*
X157714575Y-106280467D01*
X157471938Y-106179715D01*
X157315600Y-106179578D01*
X157315600Y-105001614D01*
X157257596Y-104861580D01*
X157173415Y-104777400D01*
X157257596Y-104693219D01*
X157315600Y-104553185D01*
X157315600Y-104401614D01*
X157315600Y-103001614D01*
X157257596Y-102861580D01*
X157150419Y-102754404D01*
X157010385Y-102696400D01*
X156858814Y-102696400D01*
X156741500Y-102696400D01*
X156741500Y-102351500D01*
X162767460Y-102351500D01*
X162773988Y-103187000D01*
X165597000Y-103187000D01*
X165597000Y-102351500D01*
X171598500Y-102351500D01*
X171598500Y-102700400D01*
X171354214Y-102700400D01*
X171214180Y-102758404D01*
X171107004Y-102865581D01*
X171049000Y-103005615D01*
X171049000Y-103157186D01*
X171049000Y-104557186D01*
X171107004Y-104697220D01*
X171191184Y-104781399D01*
X171107004Y-104865581D01*
X171049000Y-105005615D01*
X171049000Y-105157186D01*
X171049000Y-106557186D01*
X171107004Y-106697220D01*
X171191184Y-106781399D01*
X171107004Y-106865581D01*
X171049000Y-107005615D01*
X171049000Y-107157186D01*
X171049000Y-108557186D01*
X171107004Y-108697220D01*
X171191184Y-108781399D01*
X171107004Y-108865581D01*
X171049000Y-109005615D01*
X171049000Y-109157186D01*
X171049000Y-110557186D01*
X171107004Y-110697220D01*
X171191184Y-110781399D01*
X171107004Y-110865581D01*
X171049000Y-111005615D01*
X171049000Y-111157186D01*
X171049000Y-112557186D01*
X171107004Y-112697220D01*
X171191184Y-112781399D01*
X171107004Y-112865581D01*
X171049000Y-113005615D01*
X171049000Y-113157186D01*
X171049000Y-114557186D01*
X171107004Y-114697220D01*
X171191184Y-114781399D01*
X171107004Y-114865581D01*
X171049000Y-115005615D01*
X171049000Y-115157186D01*
X171049000Y-116557186D01*
X171107004Y-116697220D01*
X171191184Y-116781399D01*
X171107004Y-116865581D01*
X171049000Y-117005615D01*
X171049000Y-117157186D01*
X171049000Y-118557186D01*
X171107004Y-118697220D01*
X171191184Y-118781399D01*
X171107004Y-118865581D01*
X171049000Y-119005615D01*
X171049000Y-119157186D01*
X171049000Y-120557186D01*
X171107004Y-120697220D01*
X171191184Y-120781399D01*
X171107004Y-120865581D01*
X171049000Y-121005615D01*
X171049000Y-121157186D01*
X171049000Y-122557186D01*
X171107004Y-122697220D01*
X171214181Y-122804396D01*
X171354215Y-122862400D01*
X171505786Y-122862400D01*
X171598500Y-122862400D01*
X171598500Y-123208500D01*
X171598500Y-123208500D01*
G37*
X171598500Y-123208500D02*
X171262400Y-123208500D01*
X171262400Y-122954214D01*
X171204396Y-122814180D01*
X171097219Y-122707004D01*
X170957185Y-122649000D01*
X170805614Y-122649000D01*
X170100514Y-122649000D01*
X170100514Y-117989915D01*
X170000186Y-117747102D01*
X169814575Y-117561167D01*
X169571938Y-117460415D01*
X169331214Y-117460205D01*
X169331214Y-111449215D01*
X169230886Y-111206402D01*
X169045275Y-111020467D01*
X168802638Y-110919715D01*
X168539915Y-110919486D01*
X168410514Y-110972953D01*
X168410514Y-110019215D01*
X168310186Y-109776402D01*
X168124575Y-109590467D01*
X167881938Y-109489715D01*
X167619215Y-109489486D01*
X167376402Y-109589814D01*
X167190467Y-109775425D01*
X167089715Y-110018062D01*
X167089486Y-110280785D01*
X167189814Y-110523598D01*
X167375425Y-110709533D01*
X167618062Y-110810285D01*
X167880785Y-110810514D01*
X168123598Y-110710186D01*
X168309533Y-110524575D01*
X168410285Y-110281938D01*
X168410514Y-110019215D01*
X168410514Y-110972953D01*
X168330127Y-111006168D01*
X168244575Y-110920467D01*
X168001938Y-110819715D01*
X167739215Y-110819486D01*
X167496402Y-110919814D01*
X167310467Y-111105425D01*
X167209715Y-111348062D01*
X167209486Y-111610785D01*
X167309814Y-111853598D01*
X167471061Y-112015127D01*
X167300467Y-112185425D01*
X167199715Y-112428062D01*
X167199486Y-112690785D01*
X167299814Y-112933598D01*
X167485425Y-113119533D01*
X167728062Y-113220285D01*
X167990785Y-113220514D01*
X168233598Y-113120186D01*
X168419533Y-112934575D01*
X168520285Y-112691938D01*
X168520514Y-112429215D01*
X168422503Y-112192009D01*
X168538762Y-112240285D01*
X168801485Y-112240514D01*
X169044298Y-112140186D01*
X169230233Y-111954575D01*
X169330985Y-111711938D01*
X169331214Y-111449215D01*
X169331214Y-117460205D01*
X169309215Y-117460186D01*
X169066402Y-117560514D01*
X168880467Y-117746125D01*
X168779715Y-117988762D01*
X168779486Y-118251485D01*
X168879814Y-118494298D01*
X169065425Y-118680233D01*
X169308062Y-118780985D01*
X169570785Y-118781214D01*
X169813598Y-118680886D01*
X169999533Y-118495275D01*
X170100285Y-118252638D01*
X170100514Y-117989915D01*
X170100514Y-122649000D01*
X169405614Y-122649000D01*
X169265580Y-122707004D01*
X169181400Y-122791184D01*
X169097219Y-122707004D01*
X168957185Y-122649000D01*
X168805614Y-122649000D01*
X168490514Y-122649000D01*
X168490514Y-117989915D01*
X168390186Y-117747102D01*
X168204575Y-117561167D01*
X167961938Y-117460415D01*
X167699215Y-117460186D01*
X167643075Y-117483382D01*
X167660285Y-117441938D01*
X167660514Y-117179215D01*
X167560186Y-116936402D01*
X167374575Y-116750467D01*
X167131938Y-116649715D01*
X166869215Y-116649486D01*
X166730514Y-116706795D01*
X166730514Y-112589215D01*
X166630186Y-112346402D01*
X166444575Y-112160467D01*
X166359036Y-112124948D01*
X166429533Y-112054575D01*
X166530285Y-111811938D01*
X166530514Y-111549215D01*
X166430186Y-111306402D01*
X166428937Y-111305151D01*
X166439533Y-111294575D01*
X166540285Y-111051938D01*
X166540514Y-110789215D01*
X166497895Y-110686070D01*
X166579533Y-110604575D01*
X166680285Y-110361938D01*
X166680514Y-110099215D01*
X166580186Y-109856402D01*
X166394575Y-109670467D01*
X166151938Y-109569715D01*
X165889215Y-109569486D01*
X165646402Y-109669814D01*
X165460467Y-109855425D01*
X165359715Y-110098062D01*
X165359486Y-110360785D01*
X165402104Y-110463929D01*
X165320467Y-110545425D01*
X165219715Y-110788062D01*
X165219486Y-111050785D01*
X165319814Y-111293598D01*
X165321062Y-111294848D01*
X165310467Y-111305425D01*
X165209715Y-111548062D01*
X165209486Y-111810785D01*
X165309814Y-112053598D01*
X165495425Y-112239533D01*
X165580963Y-112275051D01*
X165510467Y-112345425D01*
X165409715Y-112588062D01*
X165409486Y-112850785D01*
X165509814Y-113093598D01*
X165695425Y-113279533D01*
X165938062Y-113380285D01*
X166200785Y-113380514D01*
X166443598Y-113280186D01*
X166629533Y-113094575D01*
X166730285Y-112851938D01*
X166730514Y-112589215D01*
X166730514Y-116706795D01*
X166626402Y-116749814D01*
X166440467Y-116935425D01*
X166339715Y-117178062D01*
X166339486Y-117440785D01*
X166439814Y-117683598D01*
X166625425Y-117869533D01*
X166868062Y-117970285D01*
X167130785Y-117970514D01*
X167186924Y-117947317D01*
X167169715Y-117988762D01*
X167169486Y-118251485D01*
X167269814Y-118494298D01*
X167455425Y-118680233D01*
X167698062Y-118780985D01*
X167960785Y-118781214D01*
X168203598Y-118680886D01*
X168389533Y-118495275D01*
X168490285Y-118252638D01*
X168490514Y-117989915D01*
X168490514Y-122649000D01*
X167444995Y-122649000D01*
X167509533Y-122584575D01*
X167610285Y-122341938D01*
X167610514Y-122079215D01*
X167510186Y-121836402D01*
X167324575Y-121650467D01*
X167081938Y-121549715D01*
X166819215Y-121549486D01*
X166576402Y-121649814D01*
X166390467Y-121835425D01*
X166330514Y-121979807D01*
X166330514Y-114989215D01*
X166230186Y-114746402D01*
X166044575Y-114560467D01*
X165801938Y-114459715D01*
X165539215Y-114459486D01*
X165296402Y-114559814D01*
X165110467Y-114745425D01*
X165009715Y-114988062D01*
X165009486Y-115250785D01*
X165109814Y-115493598D01*
X165295425Y-115679533D01*
X165538062Y-115780285D01*
X165800785Y-115780514D01*
X166043598Y-115680186D01*
X166229533Y-115494575D01*
X166330285Y-115251938D01*
X166330514Y-114989215D01*
X166330514Y-121979807D01*
X166289715Y-122078062D01*
X166289486Y-122340785D01*
X166389814Y-122583598D01*
X166455102Y-122649000D01*
X165805012Y-122649000D01*
X165859533Y-122594575D01*
X165960285Y-122351938D01*
X165960514Y-122089215D01*
X165860186Y-121846402D01*
X165674575Y-121660467D01*
X165431938Y-121559715D01*
X165169215Y-121559486D01*
X164926402Y-121659814D01*
X164740467Y-121845425D01*
X164639715Y-122088062D01*
X164639486Y-122350785D01*
X164739814Y-122593598D01*
X164925425Y-122779533D01*
X165136458Y-122867162D01*
X165100400Y-122954215D01*
X165100400Y-123105786D01*
X165100400Y-123208500D01*
X163262400Y-123208500D01*
X163262400Y-122954214D01*
X163204396Y-122814180D01*
X163097219Y-122707004D01*
X162957185Y-122649000D01*
X162805614Y-122649000D01*
X161405614Y-122649000D01*
X161265580Y-122707004D01*
X161181400Y-122791184D01*
X161097219Y-122707004D01*
X160957185Y-122649000D01*
X160837000Y-122649000D01*
X160837000Y-120630988D01*
X160905425Y-120699533D01*
X161148062Y-120800285D01*
X161410785Y-120800514D01*
X161653598Y-120700186D01*
X161839533Y-120514575D01*
X161940285Y-120271938D01*
X161940514Y-120009215D01*
X161840186Y-119766402D01*
X161654575Y-119580467D01*
X161411938Y-119479715D01*
X161149215Y-119479486D01*
X160906402Y-119579814D01*
X160837000Y-119649095D01*
X160837000Y-118270458D01*
X160900785Y-118270514D01*
X161143598Y-118170186D01*
X161329533Y-117984575D01*
X161430285Y-117741938D01*
X161430514Y-117479215D01*
X161330186Y-117236402D01*
X161144575Y-117050467D01*
X160901938Y-116949715D01*
X160837000Y-116949658D01*
X160837000Y-115750467D01*
X160890785Y-115750514D01*
X161133598Y-115650186D01*
X161144848Y-115638955D01*
X161145425Y-115639533D01*
X161388062Y-115740285D01*
X161650785Y-115740514D01*
X161893598Y-115640186D01*
X162079533Y-115454575D01*
X162180285Y-115211938D01*
X162180514Y-114949215D01*
X162080186Y-114706402D01*
X161894575Y-114520467D01*
X161651938Y-114419715D01*
X161610514Y-114419678D01*
X161610514Y-110819215D01*
X161510186Y-110576402D01*
X161324575Y-110390467D01*
X161081938Y-110289715D01*
X160819215Y-110289486D01*
X160576402Y-110389814D01*
X160390467Y-110575425D01*
X160289715Y-110818062D01*
X160289486Y-111080785D01*
X160389814Y-111323598D01*
X160575425Y-111509533D01*
X160818062Y-111610285D01*
X161080785Y-111610514D01*
X161323598Y-111510186D01*
X161509533Y-111324575D01*
X161610285Y-111081938D01*
X161610514Y-110819215D01*
X161610514Y-114419678D01*
X161389215Y-114419486D01*
X161146402Y-114519814D01*
X161135151Y-114531044D01*
X161134575Y-114530467D01*
X160891938Y-114429715D01*
X160837000Y-114429667D01*
X160837000Y-112957395D01*
X160820048Y-112940443D01*
X160900785Y-112940514D01*
X161143598Y-112840186D01*
X161329533Y-112654575D01*
X161430285Y-112411938D01*
X161430514Y-112149215D01*
X161330186Y-111906402D01*
X161144575Y-111720467D01*
X160901938Y-111619715D01*
X160639215Y-111619486D01*
X160396402Y-111719814D01*
X160210467Y-111905425D01*
X160130514Y-112097972D01*
X160130514Y-109019215D01*
X160030186Y-108776402D01*
X159844575Y-108590467D01*
X159601938Y-108489715D01*
X159339215Y-108489486D01*
X159096402Y-108589814D01*
X158910467Y-108775425D01*
X158809715Y-109018062D01*
X158809486Y-109280785D01*
X158817737Y-109300755D01*
X158626402Y-109379814D01*
X158440467Y-109565425D01*
X158339715Y-109808062D01*
X158339486Y-110070785D01*
X158439814Y-110313598D01*
X158625425Y-110499533D01*
X158868062Y-110600285D01*
X159130785Y-110600514D01*
X159373598Y-110500186D01*
X159559533Y-110314575D01*
X159660285Y-110071938D01*
X159660514Y-109809215D01*
X159652262Y-109789244D01*
X159843598Y-109710186D01*
X160029533Y-109524575D01*
X160130285Y-109281938D01*
X160130514Y-109019215D01*
X160130514Y-112097972D01*
X160109715Y-112148062D01*
X160109643Y-112230038D01*
X158462605Y-110583000D01*
X158104231Y-110583000D01*
X158060186Y-110476402D01*
X157874575Y-110290467D01*
X157631938Y-110189715D01*
X157369215Y-110189486D01*
X157315600Y-110211639D01*
X157315600Y-109001614D01*
X157257596Y-108861580D01*
X157173415Y-108777400D01*
X157257596Y-108693219D01*
X157315600Y-108553185D01*
X157315600Y-108401614D01*
X157315600Y-107500378D01*
X157470785Y-107500514D01*
X157713598Y-107400186D01*
X157899533Y-107214575D01*
X158000285Y-106971938D01*
X158000514Y-106709215D01*
X157900186Y-106466402D01*
X157714575Y-106280467D01*
X157471938Y-106179715D01*
X157315600Y-106179578D01*
X157315600Y-105001614D01*
X157257596Y-104861580D01*
X157173415Y-104777400D01*
X157257596Y-104693219D01*
X157315600Y-104553185D01*
X157315600Y-104401614D01*
X157315600Y-103001614D01*
X157257596Y-102861580D01*
X157150419Y-102754404D01*
X157010385Y-102696400D01*
X156858814Y-102696400D01*
X156741500Y-102696400D01*
X156741500Y-102351500D01*
X162767460Y-102351500D01*
X162773988Y-103187000D01*
X165597000Y-103187000D01*
X165597000Y-102351500D01*
X171598500Y-102351500D01*
X171598500Y-102700400D01*
X171354214Y-102700400D01*
X171214180Y-102758404D01*
X171107004Y-102865581D01*
X171049000Y-103005615D01*
X171049000Y-103157186D01*
X171049000Y-104557186D01*
X171107004Y-104697220D01*
X171191184Y-104781399D01*
X171107004Y-104865581D01*
X171049000Y-105005615D01*
X171049000Y-105157186D01*
X171049000Y-106557186D01*
X171107004Y-106697220D01*
X171191184Y-106781399D01*
X171107004Y-106865581D01*
X171049000Y-107005615D01*
X171049000Y-107157186D01*
X171049000Y-108557186D01*
X171107004Y-108697220D01*
X171191184Y-108781399D01*
X171107004Y-108865581D01*
X171049000Y-109005615D01*
X171049000Y-109157186D01*
X171049000Y-110557186D01*
X171107004Y-110697220D01*
X171191184Y-110781399D01*
X171107004Y-110865581D01*
X171049000Y-111005615D01*
X171049000Y-111157186D01*
X171049000Y-112557186D01*
X171107004Y-112697220D01*
X171191184Y-112781399D01*
X171107004Y-112865581D01*
X171049000Y-113005615D01*
X171049000Y-113157186D01*
X171049000Y-114557186D01*
X171107004Y-114697220D01*
X171191184Y-114781399D01*
X171107004Y-114865581D01*
X171049000Y-115005615D01*
X171049000Y-115157186D01*
X171049000Y-116557186D01*
X171107004Y-116697220D01*
X171191184Y-116781399D01*
X171107004Y-116865581D01*
X171049000Y-117005615D01*
X171049000Y-117157186D01*
X171049000Y-118557186D01*
X171107004Y-118697220D01*
X171191184Y-118781399D01*
X171107004Y-118865581D01*
X171049000Y-119005615D01*
X171049000Y-119157186D01*
X171049000Y-120557186D01*
X171107004Y-120697220D01*
X171191184Y-120781399D01*
X171107004Y-120865581D01*
X171049000Y-121005615D01*
X171049000Y-121157186D01*
X171049000Y-122557186D01*
X171107004Y-122697220D01*
X171214181Y-122804396D01*
X171354215Y-122862400D01*
X171505786Y-122862400D01*
X171598500Y-122862400D01*
X171598500Y-123208500D01*
M02*
