M48
;DRILL file {kicad (2014-jul-16 BZR unknown)-product} date Wed 11 Feb 2015 12:50:55 PM CET
;FORMAT={-:-/ absolute / metric / decimal}
FMAT,2
METRIC,TZ
T1C0.305
T2C0.368
T3C0.900
%
G90
G05
M71
T1
X156.92Y-102.53
X156.94Y-123.04
X157.34Y-106.84
X157.36Y-119.66
X157.38Y-107.98
X157.4Y-112.39
X157.5Y-110.85
X157.86Y-122.32
X157.97Y-120.61
X158.17Y-117.15
X158.89Y-114.18
X158.91Y-115.59
X158.95Y-117.07
X159.Y-109.94
X159.Y-114.88
X159.01Y-116.34
X159.14Y-108.44
X159.15Y-112.37
X159.47Y-109.15
X160.76Y-115.09
X160.77Y-112.28
X160.77Y-117.61
X160.95Y-110.95
X161.28Y-120.14
X161.4Y-106.43
X161.52Y-115.08
X161.932Y-112.47
X161.932Y-113.948
X162.11Y-111.14
X162.28Y-106.44
X163.21Y-119.05
X163.41Y-110.992
X163.41Y-112.47
X163.41Y-113.948
X164.888Y-110.992
X164.888Y-112.47
X164.888Y-113.948
X165.3Y-122.22
X165.54Y-105.76
X165.55Y-106.45
X165.67Y-115.12
X165.87Y-111.68
X165.88Y-110.92
X166.02Y-110.23
X166.07Y-112.72
X166.15Y-122.51
X166.23Y-119.619
X166.38Y-105.79
X166.38Y-106.46
X166.95Y-122.21
X167.Y-117.31
X167.75Y-110.15
X167.83Y-118.121
X167.83Y-119.619
X167.86Y-112.56
X167.87Y-111.48
X168.671Y-111.58
X168.74Y-114.89
X169.26Y-107.04
X169.36Y-105.34
X169.44Y-118.121
X169.44Y-119.619
X169.47Y-108.58
X169.53Y-111.46
X170.9Y-120.79
X171.43Y-123.05
X171.44Y-102.5
T2
X158.18Y-103.77
X158.95Y-105.738
X160.18Y-103.77
X160.43Y-105.741
X162.19Y-103.77
X163.62Y-121.46
X163.89Y-106.45
X164.82Y-104.9
X166.18Y-103.77
X167.04Y-104.89
X168.18Y-103.76
X169.24Y-121.86
X170.18Y-103.77
T3
X156.185Y-103.777
X156.185Y-105.777
X156.185Y-107.777
X156.185Y-109.777
X156.185Y-111.777
X156.185Y-113.777
X156.185Y-115.777
X156.185Y-117.777
X156.185Y-119.777
X156.185Y-121.777
X158.181Y-101.78
X158.181Y-123.78
X160.181Y-101.78
X160.181Y-123.78
X162.181Y-101.78
X162.181Y-123.78
X164.181Y-101.78
X164.181Y-123.78
X166.181Y-101.78
X166.181Y-123.78
X168.181Y-101.78
X168.181Y-123.78
X170.181Y-101.78
X170.181Y-123.78
X172.18Y-103.781
X172.18Y-105.781
X172.18Y-107.781
X172.18Y-109.781
X172.18Y-111.781
X172.18Y-113.781
X172.18Y-115.781
X172.18Y-117.781
X172.18Y-119.781
X172.18Y-121.781
T0
M30
