%FSLAX46Y46*%
G04 Gerber Fmt 4.6, Leading zero omitted, Abs format (unit mm)*
G04 Created by KiCad (PCBNEW (2014-jul-16 BZR unknown)-product) date Wed 11 Feb 2015 12:50:59 PM CET*
%MOMM*%
G01*
G04 APERTURE LIST*
%ADD10C,0.150000*%
%ADD11R,0.862000X0.887400*%
%ADD12R,0.887400X0.862000*%
%ADD13R,1.900000X1.100000*%
%ADD14O,0.380000X0.950000*%
%ADD15O,0.950000X0.380000*%
%ADD16R,1.250000X1.250000*%
%ADD17R,1.100760X0.498780*%
%ADD18R,1.600000X1.500000*%
%ADD19R,1.500000X1.600000*%
%ADD20R,0.850000X0.750000*%
%ADD21R,1.500000X1.500000*%
G04 APERTURE END LIST*
D10*
D11*
X167030000Y-119619300D03*
X167030000Y-118120700D03*
X168640000Y-119619300D03*
X168640000Y-118120700D03*
X170250000Y-119619300D03*
X170250000Y-118120700D03*
D12*
X170169300Y-110790000D03*
X168670700Y-110790000D03*
D11*
X158198200Y-105738100D03*
X158198200Y-107236700D03*
D12*
X170169300Y-112410000D03*
X168670700Y-112410000D03*
D11*
X159670000Y-105740700D03*
X159670000Y-107239300D03*
X167050000Y-105740700D03*
X167050000Y-107239300D03*
X158200000Y-114910700D03*
X158200000Y-116409300D03*
X158200000Y-113369300D03*
X158200000Y-111870700D03*
X165430000Y-118120700D03*
X165430000Y-119619300D03*
D12*
X168670700Y-105330000D03*
X170169300Y-105330000D03*
X170169300Y-109210000D03*
X168670700Y-109210000D03*
X168670700Y-115710000D03*
X170169300Y-115710000D03*
X170169300Y-114100000D03*
X168670700Y-114100000D03*
D11*
X161170000Y-105740700D03*
X161170000Y-107239300D03*
D12*
X165450700Y-121400000D03*
X166949300Y-121400000D03*
D13*
X161060000Y-118560000D03*
X161060000Y-121060000D03*
D14*
X160661720Y-115943520D03*
X161162100Y-115943520D03*
X161662480Y-115943520D03*
X162162860Y-115943520D03*
X162660700Y-115943520D03*
X163161080Y-115943520D03*
X163661460Y-115943520D03*
X164161840Y-115943520D03*
X164662220Y-115943520D03*
X165162600Y-115943520D03*
X165662980Y-115943520D03*
X166160820Y-115943520D03*
X162157780Y-108996480D03*
X161659940Y-108996480D03*
X161159560Y-108996480D03*
X160659180Y-108996480D03*
D15*
X166886060Y-113219300D03*
X166886060Y-112721460D03*
X166886060Y-112221080D03*
X166886060Y-111720700D03*
X166886060Y-111220320D03*
X166886060Y-110719940D03*
X166886060Y-110219560D03*
X166886060Y-109719180D03*
X166886060Y-115218280D03*
X166886060Y-114717900D03*
X166886060Y-114217520D03*
X166886060Y-113719680D03*
D14*
X166158280Y-108996480D03*
X165657900Y-108996480D03*
X165160060Y-108996480D03*
X164659680Y-108996480D03*
X164159300Y-108996480D03*
X163658920Y-108996480D03*
X163158540Y-108996480D03*
X162658160Y-108996480D03*
D15*
X159936480Y-109719180D03*
X159936480Y-110219560D03*
X159936480Y-110719940D03*
X159936480Y-111217780D03*
X159936480Y-111718160D03*
X159936480Y-112218540D03*
X159936480Y-112718920D03*
X159936480Y-113219300D03*
X159936480Y-113719680D03*
X159936480Y-114220060D03*
X159936480Y-114717900D03*
X159936480Y-115218280D03*
D16*
X161931720Y-113948280D03*
X161931720Y-112470000D03*
X161931720Y-110991720D03*
X163410000Y-113948280D03*
X163410000Y-112470000D03*
X163410000Y-110991720D03*
X164888280Y-113948280D03*
X164888280Y-112470000D03*
X164888280Y-110991720D03*
D17*
X164803400Y-107100480D03*
X164803400Y-106450240D03*
X164803400Y-105800000D03*
X163000000Y-105800000D03*
X163000000Y-106450240D03*
X163000000Y-107100480D03*
D11*
X158200000Y-108780700D03*
X158200000Y-110279300D03*
X158200000Y-118130700D03*
X158200000Y-119629300D03*
D18*
X156184600Y-103777400D03*
X156184600Y-105777400D03*
X156184600Y-107777400D03*
X156184600Y-109777400D03*
X156184600Y-111777400D03*
X156184600Y-113777400D03*
X156184600Y-115777400D03*
X156184600Y-117777400D03*
X156184600Y-119777400D03*
X156184600Y-121777400D03*
X172180000Y-103781400D03*
X172180000Y-105781400D03*
X172180000Y-107781400D03*
X172180000Y-109781400D03*
X172180000Y-111781400D03*
X172180000Y-113781400D03*
X172180000Y-115781400D03*
X172180000Y-117781400D03*
X172180000Y-119781400D03*
X172180000Y-121781400D03*
D19*
X158181400Y-123780000D03*
X160181400Y-123780000D03*
X162181400Y-123780000D03*
X164181400Y-123780000D03*
X166181400Y-123780000D03*
X168181400Y-123780000D03*
X170181400Y-123780000D03*
D20*
X170050000Y-107760000D03*
X168750000Y-107760000D03*
X168750000Y-106760000D03*
X170050000Y-106760000D03*
D21*
X158181400Y-101780000D03*
X160181400Y-101780000D03*
X162181400Y-101780000D03*
X164181400Y-101780000D03*
X166181400Y-101780000D03*
X168181400Y-101780000D03*
X170181400Y-101780000D03*
M02*
