%FSLAX46Y46*%
G04 Gerber Fmt 4.6, Leading zero omitted, Abs format (unit mm)*
G04 Created by KiCad (PCBNEW (2014-jul-16 BZR unknown)-product) date Wed 11 Feb 2015 12:50:59 PM CET*
%MOMM*%
G01*
G04 APERTURE LIST*
%ADD10C,0.150000*%
%ADD11R,1.500000X1.400000*%
%ADD12R,1.400000X1.500000*%
%ADD13R,1.400000X1.400000*%
%ADD14C,0.558800*%
%ADD15C,0.876300*%
%ADD16C,0.508000*%
%ADD17C,0.254000*%
%ADD18C,0.228600*%
G04 APERTURE END LIST*
D10*
D11*
X156184600Y-103777400D03*
X156184600Y-105777400D03*
X156184600Y-107777400D03*
X156184600Y-109777400D03*
X156184600Y-111777400D03*
X156184600Y-113777400D03*
X156184600Y-115777400D03*
X156184600Y-117777400D03*
X156184600Y-119777400D03*
X156184600Y-121777400D03*
X172180000Y-103781400D03*
X172180000Y-105781400D03*
X172180000Y-107781400D03*
X172180000Y-109781400D03*
X172180000Y-111781400D03*
X172180000Y-113781400D03*
X172180000Y-115781400D03*
X172180000Y-117781400D03*
X172180000Y-119781400D03*
X172180000Y-121781400D03*
D12*
X158181400Y-123780000D03*
X160181400Y-123780000D03*
X162181400Y-123780000D03*
X164181400Y-123780000D03*
X166181400Y-123780000D03*
X168181400Y-123780000D03*
X170181400Y-123780000D03*
D13*
X158181400Y-101780000D03*
X160181400Y-101780000D03*
X162181400Y-101780000D03*
X164181400Y-101780000D03*
X166181400Y-101780000D03*
X168181400Y-101780000D03*
X170181400Y-101780000D03*
D14*
X160770000Y-112280000D03*
X165300000Y-122220000D03*
X167000000Y-117310000D03*
X165670000Y-115120000D03*
X158950000Y-117070000D03*
X159010000Y-116340000D03*
X158910000Y-115590000D03*
X159000000Y-114880000D03*
X158890000Y-114180000D03*
X159000000Y-109940000D03*
X166020000Y-110230000D03*
X167750000Y-110150000D03*
X159470000Y-109150000D03*
X165880000Y-110920000D03*
X165870000Y-111680000D03*
X157340000Y-106840000D03*
X167870000Y-111480000D03*
X166070000Y-112720000D03*
X167860000Y-112560000D03*
X160950000Y-110950000D03*
D15*
X163620000Y-121460000D03*
D14*
X163210000Y-119050000D03*
X157860000Y-122320000D03*
X159140000Y-108440000D03*
X157380000Y-107980000D03*
X158170000Y-117150000D03*
X157360000Y-119660000D03*
X166150000Y-122510000D03*
X156920000Y-102530000D03*
X171440000Y-102500000D03*
X170900000Y-120790000D03*
X171430000Y-123050000D03*
X156940000Y-123040000D03*
X157400000Y-112390000D03*
D15*
X158950000Y-105738100D03*
X160430000Y-105740700D03*
D14*
X169260000Y-107040000D03*
X169470000Y-108580000D03*
D15*
X167040000Y-104890000D03*
D14*
X169360000Y-105340000D03*
X166230000Y-119619300D03*
X167830000Y-119619300D03*
X169440000Y-119619300D03*
X168740000Y-114890000D03*
X169530000Y-111460000D03*
X165540000Y-105760000D03*
X166380000Y-106460000D03*
X165550000Y-106450000D03*
X166380000Y-105790000D03*
D15*
X163890000Y-106450240D03*
D14*
X161400000Y-106430000D03*
X162280000Y-106440000D03*
X161931720Y-112470000D03*
X163410000Y-112470000D03*
X164888280Y-112470000D03*
X164888280Y-113948280D03*
X163410000Y-113948280D03*
X161931720Y-113948280D03*
X163410000Y-110991720D03*
X164888280Y-110991720D03*
X162110000Y-111140000D03*
D15*
X170180000Y-103770000D03*
X168180000Y-103760000D03*
X166180000Y-103770000D03*
X158180000Y-103770000D03*
X160180000Y-103770000D03*
X162190000Y-103770000D03*
X164820000Y-104900000D03*
X169240000Y-121860000D03*
D14*
X159150000Y-112370000D03*
X157500000Y-110850000D03*
X157970000Y-120610000D03*
X166950000Y-122210000D03*
X167830000Y-118120700D03*
X169440000Y-118120700D03*
X168670700Y-111580000D03*
X160760000Y-115090000D03*
X160770000Y-117610000D03*
X161520000Y-115080000D03*
X161280000Y-120140000D03*
D16*
X157500000Y-110850000D02*
X159520000Y-110850000D01*
X159930000Y-120420000D02*
X159740000Y-120610000D01*
X159930000Y-111260000D02*
X159930000Y-120420000D01*
X159520000Y-110850000D02*
X159930000Y-111260000D01*
X157970000Y-120610000D02*
X159740000Y-120610000D01*
X159740000Y-120610000D02*
X160040000Y-120610000D01*
X160040000Y-120610000D02*
X160620000Y-121190000D01*
X160620000Y-121190000D02*
X161760000Y-121190000D01*
X161760000Y-121190000D02*
X162181400Y-121611400D01*
X162181400Y-121611400D02*
X162181400Y-123780000D01*
D17*
G36*
X170682896Y-110407000D02*
X170674874Y-120168466D01*
X170526402Y-120229814D01*
X170340467Y-120415425D01*
X170239715Y-120658062D01*
X170239486Y-120920785D01*
X170339814Y-121163598D01*
X170525425Y-121349533D01*
X170673853Y-121411166D01*
X170673104Y-122323172D01*
X170190514Y-122323827D01*
X170190514Y-111329215D01*
X170090186Y-111086402D01*
X169904575Y-110900467D01*
X169661938Y-110799715D01*
X169399215Y-110799486D01*
X169156402Y-110899814D01*
X168970467Y-111085425D01*
X168869715Y-111328062D01*
X168869486Y-111590785D01*
X168969814Y-111833598D01*
X169155425Y-112019533D01*
X169398062Y-112120285D01*
X169660785Y-112120514D01*
X169903598Y-112020186D01*
X170089533Y-111834575D01*
X170190285Y-111591938D01*
X170190514Y-111329215D01*
X170190514Y-122323827D01*
X170100514Y-122323949D01*
X170100514Y-119488515D01*
X170000186Y-119245702D01*
X169814575Y-119059767D01*
X169571938Y-118959015D01*
X169400514Y-118958865D01*
X169400514Y-114759215D01*
X169300186Y-114516402D01*
X169114575Y-114330467D01*
X168871938Y-114229715D01*
X168609215Y-114229486D01*
X168530514Y-114262004D01*
X168530514Y-111349215D01*
X168430186Y-111106402D01*
X168244575Y-110920467D01*
X168001938Y-110819715D01*
X167739215Y-110819486D01*
X167496402Y-110919814D01*
X167310467Y-111105425D01*
X167209715Y-111348062D01*
X167209486Y-111610785D01*
X167309814Y-111853598D01*
X167471061Y-112015127D01*
X167300467Y-112185425D01*
X167199715Y-112428062D01*
X167199486Y-112690785D01*
X167299814Y-112933598D01*
X167485425Y-113119533D01*
X167728062Y-113220285D01*
X167990785Y-113220514D01*
X168233598Y-113120186D01*
X168419533Y-112934575D01*
X168520285Y-112691938D01*
X168520514Y-112429215D01*
X168420186Y-112186402D01*
X168258938Y-112024872D01*
X168429533Y-111854575D01*
X168530285Y-111611938D01*
X168530514Y-111349215D01*
X168530514Y-114262004D01*
X168366402Y-114329814D01*
X168180467Y-114515425D01*
X168079715Y-114758062D01*
X168079486Y-115020785D01*
X168179814Y-115263598D01*
X168365425Y-115449533D01*
X168608062Y-115550285D01*
X168870785Y-115550514D01*
X169113598Y-115450186D01*
X169299533Y-115264575D01*
X169400285Y-115021938D01*
X169400514Y-114759215D01*
X169400514Y-118958865D01*
X169309215Y-118958786D01*
X169066402Y-119059114D01*
X168880467Y-119244725D01*
X168779715Y-119487362D01*
X168779486Y-119750085D01*
X168879814Y-119992898D01*
X169065425Y-120178833D01*
X169308062Y-120279585D01*
X169570785Y-120279814D01*
X169813598Y-120179486D01*
X169999533Y-119993875D01*
X170100285Y-119751238D01*
X170100514Y-119488515D01*
X170100514Y-122323949D01*
X169934220Y-122324175D01*
X170059007Y-122023654D01*
X170059292Y-121697776D01*
X169934846Y-121396595D01*
X169704617Y-121165963D01*
X169403654Y-121040993D01*
X169077776Y-121040708D01*
X168776595Y-121165154D01*
X168545963Y-121395383D01*
X168490514Y-121528919D01*
X168490514Y-119488515D01*
X168390186Y-119245702D01*
X168204575Y-119059767D01*
X167961938Y-118959015D01*
X167699215Y-118958786D01*
X167660514Y-118974776D01*
X167660514Y-117179215D01*
X167560186Y-116936402D01*
X167374575Y-116750467D01*
X167131938Y-116649715D01*
X166869215Y-116649486D01*
X166626402Y-116749814D01*
X166440467Y-116935425D01*
X166339715Y-117178062D01*
X166339486Y-117440785D01*
X166439814Y-117683598D01*
X166625425Y-117869533D01*
X166868062Y-117970285D01*
X167130785Y-117970514D01*
X167373598Y-117870186D01*
X167559533Y-117684575D01*
X167660285Y-117441938D01*
X167660514Y-117179215D01*
X167660514Y-118974776D01*
X167456402Y-119059114D01*
X167270467Y-119244725D01*
X167169715Y-119487362D01*
X167169486Y-119750085D01*
X167269814Y-119992898D01*
X167455425Y-120178833D01*
X167698062Y-120279585D01*
X167960785Y-120279814D01*
X168203598Y-120179486D01*
X168389533Y-119993875D01*
X168490285Y-119751238D01*
X168490514Y-119488515D01*
X168490514Y-121528919D01*
X168420993Y-121696346D01*
X168420708Y-122022224D01*
X168545154Y-122323405D01*
X168547804Y-122326059D01*
X166890514Y-122328310D01*
X166890514Y-119488515D01*
X166790186Y-119245702D01*
X166604575Y-119059767D01*
X166361938Y-118959015D01*
X166330514Y-118958987D01*
X166330514Y-114989215D01*
X166230186Y-114746402D01*
X166044575Y-114560467D01*
X165801938Y-114459715D01*
X165548794Y-114459494D01*
X165548794Y-113817495D01*
X165448466Y-113574682D01*
X165262855Y-113388747D01*
X165020218Y-113287995D01*
X164757495Y-113287766D01*
X164514682Y-113388094D01*
X164328747Y-113573705D01*
X164227995Y-113816342D01*
X164227766Y-114079065D01*
X164328094Y-114321878D01*
X164513705Y-114507813D01*
X164756342Y-114608565D01*
X165019065Y-114608794D01*
X165261878Y-114508466D01*
X165447813Y-114322855D01*
X165548565Y-114080218D01*
X165548794Y-113817495D01*
X165548794Y-114459494D01*
X165539215Y-114459486D01*
X165296402Y-114559814D01*
X165110467Y-114745425D01*
X165009715Y-114988062D01*
X165009486Y-115250785D01*
X165109814Y-115493598D01*
X165295425Y-115679533D01*
X165538062Y-115780285D01*
X165800785Y-115780514D01*
X166043598Y-115680186D01*
X166229533Y-115494575D01*
X166330285Y-115251938D01*
X166330514Y-114989215D01*
X166330514Y-118958987D01*
X166099215Y-118958786D01*
X165856402Y-119059114D01*
X165670467Y-119244725D01*
X165569715Y-119487362D01*
X165569486Y-119750085D01*
X165669814Y-119992898D01*
X165855425Y-120178833D01*
X166098062Y-120279585D01*
X166360785Y-120279814D01*
X166603598Y-120179486D01*
X166789533Y-119993875D01*
X166890285Y-119751238D01*
X166890514Y-119488515D01*
X166890514Y-122328310D01*
X166789537Y-122328448D01*
X166710186Y-122136402D01*
X166524575Y-121950467D01*
X166281938Y-121849715D01*
X166019215Y-121849486D01*
X165884465Y-121905163D01*
X165860186Y-121846402D01*
X165674575Y-121660467D01*
X165431938Y-121559715D01*
X165169215Y-121559486D01*
X164926402Y-121659814D01*
X164740467Y-121845425D01*
X164639715Y-122088062D01*
X164639502Y-122331369D01*
X164439292Y-122331641D01*
X164439292Y-121297776D01*
X164314846Y-120996595D01*
X164084617Y-120765963D01*
X164070514Y-120760106D01*
X164070514Y-113817495D01*
X164070514Y-112339215D01*
X164070514Y-110860935D01*
X163970186Y-110618122D01*
X163784575Y-110432187D01*
X163541938Y-110331435D01*
X163279215Y-110331206D01*
X163036402Y-110431534D01*
X162850467Y-110617145D01*
X162749715Y-110859782D01*
X162749628Y-110958668D01*
X162670186Y-110766402D01*
X162484575Y-110580467D01*
X162241938Y-110479715D01*
X161979215Y-110479486D01*
X161736402Y-110579814D01*
X161577243Y-110738694D01*
X161510186Y-110576402D01*
X161324575Y-110390467D01*
X161081938Y-110289715D01*
X160819215Y-110289486D01*
X160576402Y-110389814D01*
X160390467Y-110575425D01*
X160289715Y-110818062D01*
X160289486Y-111080785D01*
X160389814Y-111323598D01*
X160575425Y-111509533D01*
X160818062Y-111610285D01*
X161080785Y-111610514D01*
X161323598Y-111510186D01*
X161482756Y-111351305D01*
X161549814Y-111513598D01*
X161735425Y-111699533D01*
X161978062Y-111800285D01*
X162240785Y-111800514D01*
X162483598Y-111700186D01*
X162669533Y-111514575D01*
X162770285Y-111271938D01*
X162770371Y-111173051D01*
X162849814Y-111365318D01*
X163035425Y-111551253D01*
X163278062Y-111652005D01*
X163540785Y-111652234D01*
X163783598Y-111551906D01*
X163969533Y-111366295D01*
X164070285Y-111123658D01*
X164070514Y-110860935D01*
X164070514Y-112339215D01*
X163970186Y-112096402D01*
X163784575Y-111910467D01*
X163541938Y-111809715D01*
X163279215Y-111809486D01*
X163036402Y-111909814D01*
X162850467Y-112095425D01*
X162749715Y-112338062D01*
X162749486Y-112600785D01*
X162849814Y-112843598D01*
X163035425Y-113029533D01*
X163278062Y-113130285D01*
X163540785Y-113130514D01*
X163783598Y-113030186D01*
X163969533Y-112844575D01*
X164070285Y-112601938D01*
X164070514Y-112339215D01*
X164070514Y-113817495D01*
X163970186Y-113574682D01*
X163784575Y-113388747D01*
X163541938Y-113287995D01*
X163279215Y-113287766D01*
X163036402Y-113388094D01*
X162850467Y-113573705D01*
X162749715Y-113816342D01*
X162749486Y-114079065D01*
X162849814Y-114321878D01*
X163035425Y-114507813D01*
X163278062Y-114608565D01*
X163540785Y-114608794D01*
X163783598Y-114508466D01*
X163969533Y-114322855D01*
X164070285Y-114080218D01*
X164070514Y-113817495D01*
X164070514Y-120760106D01*
X163870514Y-120677060D01*
X163870514Y-118919215D01*
X163770186Y-118676402D01*
X163584575Y-118490467D01*
X163341938Y-118389715D01*
X163079215Y-118389486D01*
X162836402Y-118489814D01*
X162650467Y-118675425D01*
X162592234Y-118815665D01*
X162592234Y-113817495D01*
X162592234Y-112339215D01*
X162491906Y-112096402D01*
X162306295Y-111910467D01*
X162063658Y-111809715D01*
X161800935Y-111809486D01*
X161558122Y-111909814D01*
X161397746Y-112069910D01*
X161330186Y-111906402D01*
X161144575Y-111720467D01*
X160901938Y-111619715D01*
X160639215Y-111619486D01*
X160396402Y-111719814D01*
X160210467Y-111905425D01*
X160109715Y-112148062D01*
X160109486Y-112410785D01*
X160209814Y-112653598D01*
X160395425Y-112839533D01*
X160638062Y-112940285D01*
X160900785Y-112940514D01*
X161143598Y-112840186D01*
X161303973Y-112680089D01*
X161371534Y-112843598D01*
X161557145Y-113029533D01*
X161799782Y-113130285D01*
X162062505Y-113130514D01*
X162305318Y-113030186D01*
X162491253Y-112844575D01*
X162592005Y-112601938D01*
X162592234Y-112339215D01*
X162592234Y-113817495D01*
X162491906Y-113574682D01*
X162306295Y-113388747D01*
X162063658Y-113287995D01*
X161800935Y-113287766D01*
X161558122Y-113388094D01*
X161372187Y-113573705D01*
X161271435Y-113816342D01*
X161271206Y-114079065D01*
X161371534Y-114321878D01*
X161469041Y-114419555D01*
X161389215Y-114419486D01*
X161146402Y-114519814D01*
X161135151Y-114531044D01*
X161134575Y-114530467D01*
X160891938Y-114429715D01*
X160629215Y-114429486D01*
X160386402Y-114529814D01*
X160200467Y-114715425D01*
X160099715Y-114958062D01*
X160099486Y-115220785D01*
X160199814Y-115463598D01*
X160385425Y-115649533D01*
X160628062Y-115750285D01*
X160890785Y-115750514D01*
X161133598Y-115650186D01*
X161144848Y-115638955D01*
X161145425Y-115639533D01*
X161388062Y-115740285D01*
X161650785Y-115740514D01*
X161893598Y-115640186D01*
X162079533Y-115454575D01*
X162180285Y-115211938D01*
X162180514Y-114949215D01*
X162080186Y-114706402D01*
X161982678Y-114608724D01*
X162062505Y-114608794D01*
X162305318Y-114508466D01*
X162491253Y-114322855D01*
X162592005Y-114080218D01*
X162592234Y-113817495D01*
X162592234Y-118815665D01*
X162549715Y-118918062D01*
X162549486Y-119180785D01*
X162649814Y-119423598D01*
X162835425Y-119609533D01*
X163078062Y-119710285D01*
X163340785Y-119710514D01*
X163583598Y-119610186D01*
X163769533Y-119424575D01*
X163870285Y-119181938D01*
X163870514Y-118919215D01*
X163870514Y-120677060D01*
X163783654Y-120640993D01*
X163457776Y-120640708D01*
X163156595Y-120765154D01*
X162925963Y-120995383D01*
X162800993Y-121296346D01*
X162800708Y-121622224D01*
X162925154Y-121923405D01*
X163155383Y-122154037D01*
X163456346Y-122279007D01*
X163782224Y-122279292D01*
X164083405Y-122154846D01*
X164314037Y-121924617D01*
X164439007Y-121623654D01*
X164439292Y-121297776D01*
X164439292Y-122331641D01*
X163380117Y-122333081D01*
X162810184Y-123023000D01*
X161940514Y-123023000D01*
X161940514Y-120009215D01*
X161840186Y-119766402D01*
X161654575Y-119580467D01*
X161430514Y-119487428D01*
X161430514Y-117479215D01*
X161330186Y-117236402D01*
X161144575Y-117050467D01*
X160901938Y-116949715D01*
X160639215Y-116949486D01*
X160396402Y-117049814D01*
X160210467Y-117235425D01*
X160109715Y-117478062D01*
X160109486Y-117740785D01*
X160209814Y-117983598D01*
X160395425Y-118169533D01*
X160638062Y-118270285D01*
X160900785Y-118270514D01*
X161143598Y-118170186D01*
X161329533Y-117984575D01*
X161430285Y-117741938D01*
X161430514Y-117479215D01*
X161430514Y-119487428D01*
X161411938Y-119479715D01*
X161149215Y-119479486D01*
X160906402Y-119579814D01*
X160720467Y-119765425D01*
X160619715Y-120008062D01*
X160619486Y-120270785D01*
X160719814Y-120513598D01*
X160905425Y-120699533D01*
X161148062Y-120800285D01*
X161410785Y-120800514D01*
X161653598Y-120700186D01*
X161839533Y-120514575D01*
X161940285Y-120271938D01*
X161940514Y-120009215D01*
X161940514Y-123023000D01*
X161551469Y-123023000D01*
X161021753Y-122353359D01*
X159810514Y-122346275D01*
X159810514Y-112239215D01*
X159710186Y-111996402D01*
X159524575Y-111810467D01*
X159281938Y-111709715D01*
X159019215Y-111709486D01*
X158776402Y-111809814D01*
X158590467Y-111995425D01*
X158489715Y-112238062D01*
X158489486Y-112500785D01*
X158589814Y-112743598D01*
X158775425Y-112929533D01*
X159018062Y-113030285D01*
X159280785Y-113030514D01*
X159523598Y-112930186D01*
X159709533Y-112744575D01*
X159810285Y-112501938D01*
X159810514Y-112239215D01*
X159810514Y-122346275D01*
X158520383Y-122338731D01*
X158520514Y-122189215D01*
X158420186Y-121946402D01*
X158234575Y-121760467D01*
X157991938Y-121659715D01*
X157729215Y-121659486D01*
X157666398Y-121685441D01*
X157665283Y-120248413D01*
X157733598Y-120220186D01*
X157919533Y-120034575D01*
X158020285Y-119791938D01*
X158020514Y-119529215D01*
X157920186Y-119286402D01*
X157734575Y-119100467D01*
X157664369Y-119071314D01*
X157663209Y-117577086D01*
X157795425Y-117709533D01*
X158038062Y-117810285D01*
X158300785Y-117810514D01*
X158543598Y-117710186D01*
X158610006Y-117643892D01*
X158818062Y-117730285D01*
X159080785Y-117730514D01*
X159323598Y-117630186D01*
X159509533Y-117444575D01*
X159610285Y-117201938D01*
X159610514Y-116939215D01*
X159532832Y-116751211D01*
X159569533Y-116714575D01*
X159670285Y-116471938D01*
X159670514Y-116209215D01*
X159570186Y-115966402D01*
X159498565Y-115894656D01*
X159570285Y-115721938D01*
X159570514Y-115459215D01*
X159507443Y-115306573D01*
X159559533Y-115254575D01*
X159660285Y-115011938D01*
X159660514Y-114749215D01*
X159560186Y-114506402D01*
X159496166Y-114442270D01*
X159550285Y-114311938D01*
X159550514Y-114049215D01*
X159450186Y-113806402D01*
X159264575Y-113620467D01*
X159021938Y-113519715D01*
X158759215Y-113519486D01*
X158516402Y-113619814D01*
X158330467Y-113805425D01*
X158229715Y-114048062D01*
X158229486Y-114310785D01*
X158329814Y-114553598D01*
X158393833Y-114617729D01*
X158339715Y-114748062D01*
X158339486Y-115010785D01*
X158402556Y-115163426D01*
X158350467Y-115215425D01*
X158249715Y-115458062D01*
X158249486Y-115720785D01*
X158349814Y-115963598D01*
X158421434Y-116035343D01*
X158349715Y-116208062D01*
X158349486Y-116470785D01*
X158368775Y-116517468D01*
X158301938Y-116489715D01*
X158039215Y-116489486D01*
X157796402Y-116589814D01*
X157662546Y-116723436D01*
X157659653Y-112997266D01*
X157773598Y-112950186D01*
X157959533Y-112764575D01*
X158060285Y-112521938D01*
X158060514Y-112259215D01*
X157960186Y-112016402D01*
X157774575Y-111830467D01*
X157658710Y-111782355D01*
X157657099Y-109706874D01*
X158382030Y-109706155D01*
X158339715Y-109808062D01*
X158339486Y-110070785D01*
X158439814Y-110313598D01*
X158625425Y-110499533D01*
X158868062Y-110600285D01*
X159130785Y-110600514D01*
X159373598Y-110500186D01*
X159559533Y-110314575D01*
X159660285Y-110071938D01*
X159660514Y-109809215D01*
X159652262Y-109789244D01*
X159843598Y-109710186D01*
X159849091Y-109704701D01*
X165617179Y-109698985D01*
X165460467Y-109855425D01*
X165359715Y-110098062D01*
X165359486Y-110360785D01*
X165402104Y-110463929D01*
X165348229Y-110517710D01*
X165262855Y-110432187D01*
X165020218Y-110331435D01*
X164757495Y-110331206D01*
X164514682Y-110431534D01*
X164328747Y-110617145D01*
X164227995Y-110859782D01*
X164227766Y-111122505D01*
X164328094Y-111365318D01*
X164513705Y-111551253D01*
X164756342Y-111652005D01*
X165019065Y-111652234D01*
X165209692Y-111573468D01*
X165209486Y-111810785D01*
X165248150Y-111904361D01*
X165020218Y-111809715D01*
X164757495Y-111809486D01*
X164514682Y-111909814D01*
X164328747Y-112095425D01*
X164227995Y-112338062D01*
X164227766Y-112600785D01*
X164328094Y-112843598D01*
X164513705Y-113029533D01*
X164756342Y-113130285D01*
X165019065Y-113130514D01*
X165261878Y-113030186D01*
X165418861Y-112873475D01*
X165509814Y-113093598D01*
X165695425Y-113279533D01*
X165938062Y-113380285D01*
X166200785Y-113380514D01*
X166443598Y-113280186D01*
X166629533Y-113094575D01*
X166730285Y-112851938D01*
X166730514Y-112589215D01*
X166630186Y-112346402D01*
X166444575Y-112160467D01*
X166359036Y-112124948D01*
X166429533Y-112054575D01*
X166530285Y-111811938D01*
X166530514Y-111549215D01*
X166430186Y-111306402D01*
X166428937Y-111305151D01*
X166439533Y-111294575D01*
X166540285Y-111051938D01*
X166540514Y-110789215D01*
X166497895Y-110686070D01*
X166579533Y-110604575D01*
X166680285Y-110361938D01*
X166680514Y-110099215D01*
X166580186Y-109856402D01*
X166422247Y-109698187D01*
X167268679Y-109697348D01*
X167190467Y-109775425D01*
X167089715Y-110018062D01*
X167089486Y-110280785D01*
X167189814Y-110523598D01*
X167375425Y-110709533D01*
X167618062Y-110810285D01*
X167880785Y-110810514D01*
X168123598Y-110710186D01*
X168309533Y-110524575D01*
X168358354Y-110407000D01*
X170682896Y-110407000D01*
X170682896Y-110407000D01*
G37*
X170682896Y-110407000D02*
X170674874Y-120168466D01*
X170526402Y-120229814D01*
X170340467Y-120415425D01*
X170239715Y-120658062D01*
X170239486Y-120920785D01*
X170339814Y-121163598D01*
X170525425Y-121349533D01*
X170673853Y-121411166D01*
X170673104Y-122323172D01*
X170190514Y-122323827D01*
X170190514Y-111329215D01*
X170090186Y-111086402D01*
X169904575Y-110900467D01*
X169661938Y-110799715D01*
X169399215Y-110799486D01*
X169156402Y-110899814D01*
X168970467Y-111085425D01*
X168869715Y-111328062D01*
X168869486Y-111590785D01*
X168969814Y-111833598D01*
X169155425Y-112019533D01*
X169398062Y-112120285D01*
X169660785Y-112120514D01*
X169903598Y-112020186D01*
X170089533Y-111834575D01*
X170190285Y-111591938D01*
X170190514Y-111329215D01*
X170190514Y-122323827D01*
X170100514Y-122323949D01*
X170100514Y-119488515D01*
X170000186Y-119245702D01*
X169814575Y-119059767D01*
X169571938Y-118959015D01*
X169400514Y-118958865D01*
X169400514Y-114759215D01*
X169300186Y-114516402D01*
X169114575Y-114330467D01*
X168871938Y-114229715D01*
X168609215Y-114229486D01*
X168530514Y-114262004D01*
X168530514Y-111349215D01*
X168430186Y-111106402D01*
X168244575Y-110920467D01*
X168001938Y-110819715D01*
X167739215Y-110819486D01*
X167496402Y-110919814D01*
X167310467Y-111105425D01*
X167209715Y-111348062D01*
X167209486Y-111610785D01*
X167309814Y-111853598D01*
X167471061Y-112015127D01*
X167300467Y-112185425D01*
X167199715Y-112428062D01*
X167199486Y-112690785D01*
X167299814Y-112933598D01*
X167485425Y-113119533D01*
X167728062Y-113220285D01*
X167990785Y-113220514D01*
X168233598Y-113120186D01*
X168419533Y-112934575D01*
X168520285Y-112691938D01*
X168520514Y-112429215D01*
X168420186Y-112186402D01*
X168258938Y-112024872D01*
X168429533Y-111854575D01*
X168530285Y-111611938D01*
X168530514Y-111349215D01*
X168530514Y-114262004D01*
X168366402Y-114329814D01*
X168180467Y-114515425D01*
X168079715Y-114758062D01*
X168079486Y-115020785D01*
X168179814Y-115263598D01*
X168365425Y-115449533D01*
X168608062Y-115550285D01*
X168870785Y-115550514D01*
X169113598Y-115450186D01*
X169299533Y-115264575D01*
X169400285Y-115021938D01*
X169400514Y-114759215D01*
X169400514Y-118958865D01*
X169309215Y-118958786D01*
X169066402Y-119059114D01*
X168880467Y-119244725D01*
X168779715Y-119487362D01*
X168779486Y-119750085D01*
X168879814Y-119992898D01*
X169065425Y-120178833D01*
X169308062Y-120279585D01*
X169570785Y-120279814D01*
X169813598Y-120179486D01*
X169999533Y-119993875D01*
X170100285Y-119751238D01*
X170100514Y-119488515D01*
X170100514Y-122323949D01*
X169934220Y-122324175D01*
X170059007Y-122023654D01*
X170059292Y-121697776D01*
X169934846Y-121396595D01*
X169704617Y-121165963D01*
X169403654Y-121040993D01*
X169077776Y-121040708D01*
X168776595Y-121165154D01*
X168545963Y-121395383D01*
X168490514Y-121528919D01*
X168490514Y-119488515D01*
X168390186Y-119245702D01*
X168204575Y-119059767D01*
X167961938Y-118959015D01*
X167699215Y-118958786D01*
X167660514Y-118974776D01*
X167660514Y-117179215D01*
X167560186Y-116936402D01*
X167374575Y-116750467D01*
X167131938Y-116649715D01*
X166869215Y-116649486D01*
X166626402Y-116749814D01*
X166440467Y-116935425D01*
X166339715Y-117178062D01*
X166339486Y-117440785D01*
X166439814Y-117683598D01*
X166625425Y-117869533D01*
X166868062Y-117970285D01*
X167130785Y-117970514D01*
X167373598Y-117870186D01*
X167559533Y-117684575D01*
X167660285Y-117441938D01*
X167660514Y-117179215D01*
X167660514Y-118974776D01*
X167456402Y-119059114D01*
X167270467Y-119244725D01*
X167169715Y-119487362D01*
X167169486Y-119750085D01*
X167269814Y-119992898D01*
X167455425Y-120178833D01*
X167698062Y-120279585D01*
X167960785Y-120279814D01*
X168203598Y-120179486D01*
X168389533Y-119993875D01*
X168490285Y-119751238D01*
X168490514Y-119488515D01*
X168490514Y-121528919D01*
X168420993Y-121696346D01*
X168420708Y-122022224D01*
X168545154Y-122323405D01*
X168547804Y-122326059D01*
X166890514Y-122328310D01*
X166890514Y-119488515D01*
X166790186Y-119245702D01*
X166604575Y-119059767D01*
X166361938Y-118959015D01*
X166330514Y-118958987D01*
X166330514Y-114989215D01*
X166230186Y-114746402D01*
X166044575Y-114560467D01*
X165801938Y-114459715D01*
X165548794Y-114459494D01*
X165548794Y-113817495D01*
X165448466Y-113574682D01*
X165262855Y-113388747D01*
X165020218Y-113287995D01*
X164757495Y-113287766D01*
X164514682Y-113388094D01*
X164328747Y-113573705D01*
X164227995Y-113816342D01*
X164227766Y-114079065D01*
X164328094Y-114321878D01*
X164513705Y-114507813D01*
X164756342Y-114608565D01*
X165019065Y-114608794D01*
X165261878Y-114508466D01*
X165447813Y-114322855D01*
X165548565Y-114080218D01*
X165548794Y-113817495D01*
X165548794Y-114459494D01*
X165539215Y-114459486D01*
X165296402Y-114559814D01*
X165110467Y-114745425D01*
X165009715Y-114988062D01*
X165009486Y-115250785D01*
X165109814Y-115493598D01*
X165295425Y-115679533D01*
X165538062Y-115780285D01*
X165800785Y-115780514D01*
X166043598Y-115680186D01*
X166229533Y-115494575D01*
X166330285Y-115251938D01*
X166330514Y-114989215D01*
X166330514Y-118958987D01*
X166099215Y-118958786D01*
X165856402Y-119059114D01*
X165670467Y-119244725D01*
X165569715Y-119487362D01*
X165569486Y-119750085D01*
X165669814Y-119992898D01*
X165855425Y-120178833D01*
X166098062Y-120279585D01*
X166360785Y-120279814D01*
X166603598Y-120179486D01*
X166789533Y-119993875D01*
X166890285Y-119751238D01*
X166890514Y-119488515D01*
X166890514Y-122328310D01*
X166789537Y-122328448D01*
X166710186Y-122136402D01*
X166524575Y-121950467D01*
X166281938Y-121849715D01*
X166019215Y-121849486D01*
X165884465Y-121905163D01*
X165860186Y-121846402D01*
X165674575Y-121660467D01*
X165431938Y-121559715D01*
X165169215Y-121559486D01*
X164926402Y-121659814D01*
X164740467Y-121845425D01*
X164639715Y-122088062D01*
X164639502Y-122331369D01*
X164439292Y-122331641D01*
X164439292Y-121297776D01*
X164314846Y-120996595D01*
X164084617Y-120765963D01*
X164070514Y-120760106D01*
X164070514Y-113817495D01*
X164070514Y-112339215D01*
X164070514Y-110860935D01*
X163970186Y-110618122D01*
X163784575Y-110432187D01*
X163541938Y-110331435D01*
X163279215Y-110331206D01*
X163036402Y-110431534D01*
X162850467Y-110617145D01*
X162749715Y-110859782D01*
X162749628Y-110958668D01*
X162670186Y-110766402D01*
X162484575Y-110580467D01*
X162241938Y-110479715D01*
X161979215Y-110479486D01*
X161736402Y-110579814D01*
X161577243Y-110738694D01*
X161510186Y-110576402D01*
X161324575Y-110390467D01*
X161081938Y-110289715D01*
X160819215Y-110289486D01*
X160576402Y-110389814D01*
X160390467Y-110575425D01*
X160289715Y-110818062D01*
X160289486Y-111080785D01*
X160389814Y-111323598D01*
X160575425Y-111509533D01*
X160818062Y-111610285D01*
X161080785Y-111610514D01*
X161323598Y-111510186D01*
X161482756Y-111351305D01*
X161549814Y-111513598D01*
X161735425Y-111699533D01*
X161978062Y-111800285D01*
X162240785Y-111800514D01*
X162483598Y-111700186D01*
X162669533Y-111514575D01*
X162770285Y-111271938D01*
X162770371Y-111173051D01*
X162849814Y-111365318D01*
X163035425Y-111551253D01*
X163278062Y-111652005D01*
X163540785Y-111652234D01*
X163783598Y-111551906D01*
X163969533Y-111366295D01*
X164070285Y-111123658D01*
X164070514Y-110860935D01*
X164070514Y-112339215D01*
X163970186Y-112096402D01*
X163784575Y-111910467D01*
X163541938Y-111809715D01*
X163279215Y-111809486D01*
X163036402Y-111909814D01*
X162850467Y-112095425D01*
X162749715Y-112338062D01*
X162749486Y-112600785D01*
X162849814Y-112843598D01*
X163035425Y-113029533D01*
X163278062Y-113130285D01*
X163540785Y-113130514D01*
X163783598Y-113030186D01*
X163969533Y-112844575D01*
X164070285Y-112601938D01*
X164070514Y-112339215D01*
X164070514Y-113817495D01*
X163970186Y-113574682D01*
X163784575Y-113388747D01*
X163541938Y-113287995D01*
X163279215Y-113287766D01*
X163036402Y-113388094D01*
X162850467Y-113573705D01*
X162749715Y-113816342D01*
X162749486Y-114079065D01*
X162849814Y-114321878D01*
X163035425Y-114507813D01*
X163278062Y-114608565D01*
X163540785Y-114608794D01*
X163783598Y-114508466D01*
X163969533Y-114322855D01*
X164070285Y-114080218D01*
X164070514Y-113817495D01*
X164070514Y-120760106D01*
X163870514Y-120677060D01*
X163870514Y-118919215D01*
X163770186Y-118676402D01*
X163584575Y-118490467D01*
X163341938Y-118389715D01*
X163079215Y-118389486D01*
X162836402Y-118489814D01*
X162650467Y-118675425D01*
X162592234Y-118815665D01*
X162592234Y-113817495D01*
X162592234Y-112339215D01*
X162491906Y-112096402D01*
X162306295Y-111910467D01*
X162063658Y-111809715D01*
X161800935Y-111809486D01*
X161558122Y-111909814D01*
X161397746Y-112069910D01*
X161330186Y-111906402D01*
X161144575Y-111720467D01*
X160901938Y-111619715D01*
X160639215Y-111619486D01*
X160396402Y-111719814D01*
X160210467Y-111905425D01*
X160109715Y-112148062D01*
X160109486Y-112410785D01*
X160209814Y-112653598D01*
X160395425Y-112839533D01*
X160638062Y-112940285D01*
X160900785Y-112940514D01*
X161143598Y-112840186D01*
X161303973Y-112680089D01*
X161371534Y-112843598D01*
X161557145Y-113029533D01*
X161799782Y-113130285D01*
X162062505Y-113130514D01*
X162305318Y-113030186D01*
X162491253Y-112844575D01*
X162592005Y-112601938D01*
X162592234Y-112339215D01*
X162592234Y-113817495D01*
X162491906Y-113574682D01*
X162306295Y-113388747D01*
X162063658Y-113287995D01*
X161800935Y-113287766D01*
X161558122Y-113388094D01*
X161372187Y-113573705D01*
X161271435Y-113816342D01*
X161271206Y-114079065D01*
X161371534Y-114321878D01*
X161469041Y-114419555D01*
X161389215Y-114419486D01*
X161146402Y-114519814D01*
X161135151Y-114531044D01*
X161134575Y-114530467D01*
X160891938Y-114429715D01*
X160629215Y-114429486D01*
X160386402Y-114529814D01*
X160200467Y-114715425D01*
X160099715Y-114958062D01*
X160099486Y-115220785D01*
X160199814Y-115463598D01*
X160385425Y-115649533D01*
X160628062Y-115750285D01*
X160890785Y-115750514D01*
X161133598Y-115650186D01*
X161144848Y-115638955D01*
X161145425Y-115639533D01*
X161388062Y-115740285D01*
X161650785Y-115740514D01*
X161893598Y-115640186D01*
X162079533Y-115454575D01*
X162180285Y-115211938D01*
X162180514Y-114949215D01*
X162080186Y-114706402D01*
X161982678Y-114608724D01*
X162062505Y-114608794D01*
X162305318Y-114508466D01*
X162491253Y-114322855D01*
X162592005Y-114080218D01*
X162592234Y-113817495D01*
X162592234Y-118815665D01*
X162549715Y-118918062D01*
X162549486Y-119180785D01*
X162649814Y-119423598D01*
X162835425Y-119609533D01*
X163078062Y-119710285D01*
X163340785Y-119710514D01*
X163583598Y-119610186D01*
X163769533Y-119424575D01*
X163870285Y-119181938D01*
X163870514Y-118919215D01*
X163870514Y-120677060D01*
X163783654Y-120640993D01*
X163457776Y-120640708D01*
X163156595Y-120765154D01*
X162925963Y-120995383D01*
X162800993Y-121296346D01*
X162800708Y-121622224D01*
X162925154Y-121923405D01*
X163155383Y-122154037D01*
X163456346Y-122279007D01*
X163782224Y-122279292D01*
X164083405Y-122154846D01*
X164314037Y-121924617D01*
X164439007Y-121623654D01*
X164439292Y-121297776D01*
X164439292Y-122331641D01*
X163380117Y-122333081D01*
X162810184Y-123023000D01*
X161940514Y-123023000D01*
X161940514Y-120009215D01*
X161840186Y-119766402D01*
X161654575Y-119580467D01*
X161430514Y-119487428D01*
X161430514Y-117479215D01*
X161330186Y-117236402D01*
X161144575Y-117050467D01*
X160901938Y-116949715D01*
X160639215Y-116949486D01*
X160396402Y-117049814D01*
X160210467Y-117235425D01*
X160109715Y-117478062D01*
X160109486Y-117740785D01*
X160209814Y-117983598D01*
X160395425Y-118169533D01*
X160638062Y-118270285D01*
X160900785Y-118270514D01*
X161143598Y-118170186D01*
X161329533Y-117984575D01*
X161430285Y-117741938D01*
X161430514Y-117479215D01*
X161430514Y-119487428D01*
X161411938Y-119479715D01*
X161149215Y-119479486D01*
X160906402Y-119579814D01*
X160720467Y-119765425D01*
X160619715Y-120008062D01*
X160619486Y-120270785D01*
X160719814Y-120513598D01*
X160905425Y-120699533D01*
X161148062Y-120800285D01*
X161410785Y-120800514D01*
X161653598Y-120700186D01*
X161839533Y-120514575D01*
X161940285Y-120271938D01*
X161940514Y-120009215D01*
X161940514Y-123023000D01*
X161551469Y-123023000D01*
X161021753Y-122353359D01*
X159810514Y-122346275D01*
X159810514Y-112239215D01*
X159710186Y-111996402D01*
X159524575Y-111810467D01*
X159281938Y-111709715D01*
X159019215Y-111709486D01*
X158776402Y-111809814D01*
X158590467Y-111995425D01*
X158489715Y-112238062D01*
X158489486Y-112500785D01*
X158589814Y-112743598D01*
X158775425Y-112929533D01*
X159018062Y-113030285D01*
X159280785Y-113030514D01*
X159523598Y-112930186D01*
X159709533Y-112744575D01*
X159810285Y-112501938D01*
X159810514Y-112239215D01*
X159810514Y-122346275D01*
X158520383Y-122338731D01*
X158520514Y-122189215D01*
X158420186Y-121946402D01*
X158234575Y-121760467D01*
X157991938Y-121659715D01*
X157729215Y-121659486D01*
X157666398Y-121685441D01*
X157665283Y-120248413D01*
X157733598Y-120220186D01*
X157919533Y-120034575D01*
X158020285Y-119791938D01*
X158020514Y-119529215D01*
X157920186Y-119286402D01*
X157734575Y-119100467D01*
X157664369Y-119071314D01*
X157663209Y-117577086D01*
X157795425Y-117709533D01*
X158038062Y-117810285D01*
X158300785Y-117810514D01*
X158543598Y-117710186D01*
X158610006Y-117643892D01*
X158818062Y-117730285D01*
X159080785Y-117730514D01*
X159323598Y-117630186D01*
X159509533Y-117444575D01*
X159610285Y-117201938D01*
X159610514Y-116939215D01*
X159532832Y-116751211D01*
X159569533Y-116714575D01*
X159670285Y-116471938D01*
X159670514Y-116209215D01*
X159570186Y-115966402D01*
X159498565Y-115894656D01*
X159570285Y-115721938D01*
X159570514Y-115459215D01*
X159507443Y-115306573D01*
X159559533Y-115254575D01*
X159660285Y-115011938D01*
X159660514Y-114749215D01*
X159560186Y-114506402D01*
X159496166Y-114442270D01*
X159550285Y-114311938D01*
X159550514Y-114049215D01*
X159450186Y-113806402D01*
X159264575Y-113620467D01*
X159021938Y-113519715D01*
X158759215Y-113519486D01*
X158516402Y-113619814D01*
X158330467Y-113805425D01*
X158229715Y-114048062D01*
X158229486Y-114310785D01*
X158329814Y-114553598D01*
X158393833Y-114617729D01*
X158339715Y-114748062D01*
X158339486Y-115010785D01*
X158402556Y-115163426D01*
X158350467Y-115215425D01*
X158249715Y-115458062D01*
X158249486Y-115720785D01*
X158349814Y-115963598D01*
X158421434Y-116035343D01*
X158349715Y-116208062D01*
X158349486Y-116470785D01*
X158368775Y-116517468D01*
X158301938Y-116489715D01*
X158039215Y-116489486D01*
X157796402Y-116589814D01*
X157662546Y-116723436D01*
X157659653Y-112997266D01*
X157773598Y-112950186D01*
X157959533Y-112764575D01*
X158060285Y-112521938D01*
X158060514Y-112259215D01*
X157960186Y-112016402D01*
X157774575Y-111830467D01*
X157658710Y-111782355D01*
X157657099Y-109706874D01*
X158382030Y-109706155D01*
X158339715Y-109808062D01*
X158339486Y-110070785D01*
X158439814Y-110313598D01*
X158625425Y-110499533D01*
X158868062Y-110600285D01*
X159130785Y-110600514D01*
X159373598Y-110500186D01*
X159559533Y-110314575D01*
X159660285Y-110071938D01*
X159660514Y-109809215D01*
X159652262Y-109789244D01*
X159843598Y-109710186D01*
X159849091Y-109704701D01*
X165617179Y-109698985D01*
X165460467Y-109855425D01*
X165359715Y-110098062D01*
X165359486Y-110360785D01*
X165402104Y-110463929D01*
X165348229Y-110517710D01*
X165262855Y-110432187D01*
X165020218Y-110331435D01*
X164757495Y-110331206D01*
X164514682Y-110431534D01*
X164328747Y-110617145D01*
X164227995Y-110859782D01*
X164227766Y-111122505D01*
X164328094Y-111365318D01*
X164513705Y-111551253D01*
X164756342Y-111652005D01*
X165019065Y-111652234D01*
X165209692Y-111573468D01*
X165209486Y-111810785D01*
X165248150Y-111904361D01*
X165020218Y-111809715D01*
X164757495Y-111809486D01*
X164514682Y-111909814D01*
X164328747Y-112095425D01*
X164227995Y-112338062D01*
X164227766Y-112600785D01*
X164328094Y-112843598D01*
X164513705Y-113029533D01*
X164756342Y-113130285D01*
X165019065Y-113130514D01*
X165261878Y-113030186D01*
X165418861Y-112873475D01*
X165509814Y-113093598D01*
X165695425Y-113279533D01*
X165938062Y-113380285D01*
X166200785Y-113380514D01*
X166443598Y-113280186D01*
X166629533Y-113094575D01*
X166730285Y-112851938D01*
X166730514Y-112589215D01*
X166630186Y-112346402D01*
X166444575Y-112160467D01*
X166359036Y-112124948D01*
X166429533Y-112054575D01*
X166530285Y-111811938D01*
X166530514Y-111549215D01*
X166430186Y-111306402D01*
X166428937Y-111305151D01*
X166439533Y-111294575D01*
X166540285Y-111051938D01*
X166540514Y-110789215D01*
X166497895Y-110686070D01*
X166579533Y-110604575D01*
X166680285Y-110361938D01*
X166680514Y-110099215D01*
X166580186Y-109856402D01*
X166422247Y-109698187D01*
X167268679Y-109697348D01*
X167190467Y-109775425D01*
X167089715Y-110018062D01*
X167089486Y-110280785D01*
X167189814Y-110523598D01*
X167375425Y-110709533D01*
X167618062Y-110810285D01*
X167880785Y-110810514D01*
X168123598Y-110710186D01*
X168309533Y-110524575D01*
X168358354Y-110407000D01*
X170682896Y-110407000D01*
D18*
G36*
X171712800Y-108814700D02*
X171376950Y-108814700D01*
X171278927Y-108855303D01*
X171203903Y-108930327D01*
X171163300Y-109028350D01*
X171163300Y-109134450D01*
X171163300Y-109755700D01*
X168417345Y-109755700D01*
X167707345Y-109045700D01*
X160016191Y-109045700D01*
X160016195Y-109041851D01*
X159933231Y-108841063D01*
X159779745Y-108687309D01*
X159579103Y-108603995D01*
X159361851Y-108603805D01*
X159161063Y-108686769D01*
X159007309Y-108840255D01*
X158923995Y-109040897D01*
X158923990Y-109045700D01*
X157201300Y-109045700D01*
X157201300Y-109024350D01*
X157160697Y-108926327D01*
X157085673Y-108851303D01*
X156987650Y-108810700D01*
X156881550Y-108810700D01*
X156627200Y-108810700D01*
X156627200Y-108744100D01*
X156987650Y-108744100D01*
X157085673Y-108703497D01*
X157160697Y-108628473D01*
X157201300Y-108530450D01*
X157201300Y-108424350D01*
X157201300Y-107373715D01*
X157230897Y-107386005D01*
X157448149Y-107386195D01*
X157648937Y-107303231D01*
X157802691Y-107149745D01*
X157886005Y-106949103D01*
X157886195Y-106731851D01*
X157803231Y-106531063D01*
X157649745Y-106377309D01*
X157449103Y-106293995D01*
X157231851Y-106293805D01*
X157201300Y-106306428D01*
X157201300Y-105024350D01*
X157160697Y-104926327D01*
X157085673Y-104851303D01*
X156987650Y-104810700D01*
X156881550Y-104810700D01*
X156627200Y-104810700D01*
X156627200Y-104744100D01*
X156987650Y-104744100D01*
X157085673Y-104703497D01*
X157160697Y-104628473D01*
X157201300Y-104530450D01*
X157201300Y-104424350D01*
X157201300Y-103024350D01*
X157160697Y-102926327D01*
X157085673Y-102851303D01*
X156987650Y-102810700D01*
X156881550Y-102810700D01*
X156627200Y-102810700D01*
X156627200Y-102237200D01*
X162772619Y-102237200D01*
X162787472Y-103195179D01*
X165584300Y-103173414D01*
X165584300Y-102237200D01*
X171712800Y-102237200D01*
X171712800Y-102814700D01*
X171376950Y-102814700D01*
X171278927Y-102855303D01*
X171203903Y-102930327D01*
X171163300Y-103028350D01*
X171163300Y-103134450D01*
X171163300Y-104534450D01*
X171203903Y-104632473D01*
X171278927Y-104707497D01*
X171376950Y-104748100D01*
X171483050Y-104748100D01*
X171712800Y-104748100D01*
X171712800Y-104814700D01*
X171376950Y-104814700D01*
X171278927Y-104855303D01*
X171203903Y-104930327D01*
X171163300Y-105028350D01*
X171163300Y-105134450D01*
X171163300Y-106534450D01*
X171203903Y-106632473D01*
X171278927Y-106707497D01*
X171376950Y-106748100D01*
X171483050Y-106748100D01*
X171712800Y-106748100D01*
X171712800Y-106814700D01*
X171376950Y-106814700D01*
X171278927Y-106855303D01*
X171203903Y-106930327D01*
X171163300Y-107028350D01*
X171163300Y-107134450D01*
X171163300Y-108534450D01*
X171203903Y-108632473D01*
X171278927Y-108707497D01*
X171376950Y-108748100D01*
X171483050Y-108748100D01*
X171712800Y-108748100D01*
X171712800Y-108814700D01*
X171712800Y-108814700D01*
G37*
X171712800Y-108814700D02*
X171376950Y-108814700D01*
X171278927Y-108855303D01*
X171203903Y-108930327D01*
X171163300Y-109028350D01*
X171163300Y-109134450D01*
X171163300Y-109755700D01*
X168417345Y-109755700D01*
X167707345Y-109045700D01*
X160016191Y-109045700D01*
X160016195Y-109041851D01*
X159933231Y-108841063D01*
X159779745Y-108687309D01*
X159579103Y-108603995D01*
X159361851Y-108603805D01*
X159161063Y-108686769D01*
X159007309Y-108840255D01*
X158923995Y-109040897D01*
X158923990Y-109045700D01*
X157201300Y-109045700D01*
X157201300Y-109024350D01*
X157160697Y-108926327D01*
X157085673Y-108851303D01*
X156987650Y-108810700D01*
X156881550Y-108810700D01*
X156627200Y-108810700D01*
X156627200Y-108744100D01*
X156987650Y-108744100D01*
X157085673Y-108703497D01*
X157160697Y-108628473D01*
X157201300Y-108530450D01*
X157201300Y-108424350D01*
X157201300Y-107373715D01*
X157230897Y-107386005D01*
X157448149Y-107386195D01*
X157648937Y-107303231D01*
X157802691Y-107149745D01*
X157886005Y-106949103D01*
X157886195Y-106731851D01*
X157803231Y-106531063D01*
X157649745Y-106377309D01*
X157449103Y-106293995D01*
X157231851Y-106293805D01*
X157201300Y-106306428D01*
X157201300Y-105024350D01*
X157160697Y-104926327D01*
X157085673Y-104851303D01*
X156987650Y-104810700D01*
X156881550Y-104810700D01*
X156627200Y-104810700D01*
X156627200Y-104744100D01*
X156987650Y-104744100D01*
X157085673Y-104703497D01*
X157160697Y-104628473D01*
X157201300Y-104530450D01*
X157201300Y-104424350D01*
X157201300Y-103024350D01*
X157160697Y-102926327D01*
X157085673Y-102851303D01*
X156987650Y-102810700D01*
X156881550Y-102810700D01*
X156627200Y-102810700D01*
X156627200Y-102237200D01*
X162772619Y-102237200D01*
X162787472Y-103195179D01*
X165584300Y-103173414D01*
X165584300Y-102237200D01*
X171712800Y-102237200D01*
X171712800Y-102814700D01*
X171376950Y-102814700D01*
X171278927Y-102855303D01*
X171203903Y-102930327D01*
X171163300Y-103028350D01*
X171163300Y-103134450D01*
X171163300Y-104534450D01*
X171203903Y-104632473D01*
X171278927Y-104707497D01*
X171376950Y-104748100D01*
X171483050Y-104748100D01*
X171712800Y-104748100D01*
X171712800Y-104814700D01*
X171376950Y-104814700D01*
X171278927Y-104855303D01*
X171203903Y-104930327D01*
X171163300Y-105028350D01*
X171163300Y-105134450D01*
X171163300Y-106534450D01*
X171203903Y-106632473D01*
X171278927Y-106707497D01*
X171376950Y-106748100D01*
X171483050Y-106748100D01*
X171712800Y-106748100D01*
X171712800Y-106814700D01*
X171376950Y-106814700D01*
X171278927Y-106855303D01*
X171203903Y-106930327D01*
X171163300Y-107028350D01*
X171163300Y-107134450D01*
X171163300Y-108534450D01*
X171203903Y-108632473D01*
X171278927Y-108707497D01*
X171376950Y-108748100D01*
X171483050Y-108748100D01*
X171712800Y-108748100D01*
X171712800Y-108814700D01*
M02*
